<?xml version="1.0" encoding="UTF-8" standalone="no"?>
<!DOCTYPE svg PUBLIC "-//W3C//DTD SVG 1.1//EN"
 "http://www.w3.org/Graphics/SVG/1.1/DTD/svg11.dtd">
<!-- Generated by graphviz version 2.43.0 (0)
 -->
<!-- Title: Scheduler Pages: 1 -->
<svg width="151pt" height="82pt"
 viewBox="0.00 0.00 150.50 82.00" xmlns="http://www.w3.org/2000/svg" xmlns:xlink="http://www.w3.org/1999/xlink">
<g id="graph0" class="graph" transform="scale(1 1) rotate(0) translate(4 78)">
<title>Scheduler</title>
<!-- Node1 -->
<g id="Node000001" class="node">
<title>Node1</title>
<g id="a_Node000001"><a xlink:title="Abstract class for all scheduler types.">
<polygon fill="#999999" stroke="#666666" points="106,-74 41,-74 41,-55 106,-55 106,-74"/>
<text text-anchor="middle" x="73.5" y="-62" font-family="Helvetica,sans-Serif" font-size="10.00">Scheduler</text>
</a>
</g>
</g>
<!-- Node2 -->
<g id="Node000002" class="node">
<title>Node2</title>
<g id="a_Node000002"><a xlink:href="classCFS.html" target="_top" xlink:title=" ">
<polygon fill="white" stroke="#666666" points="35,-19 0,-19 0,0 35,0 35,-19"/>
<text text-anchor="middle" x="17.5" y="-7" font-family="Helvetica,sans-Serif" font-size="10.00">CFS</text>
</a>
</g>
</g>
<!-- Node1&#45;&gt;Node2 -->
<g id="edge1_Node000001_Node000002" class="edge">
<title>Node1&#45;&gt;Node2</title>
<g id="a_edge1_Node000001_Node000002"><a xlink:title=" ">
<path fill="none" stroke="#63b8ff" d="M57.17,-48.04C47.24,-38.64 34.91,-26.98 26.66,-19.17"/>
<polygon fill="#63b8ff" stroke="#63b8ff" points="54.83,-50.65 64.5,-54.98 59.65,-45.57 54.83,-50.65"/>
</a>
</g>
</g>
<!-- Node3 -->
<g id="Node000003" class="node">
<title>Node3</title>
<g id="a_Node000003"><a xlink:href="classFCFS.html" target="_top" xlink:title=" ">
<polygon fill="white" stroke="#666666" points="94,-19 53,-19 53,0 94,0 94,-19"/>
<text text-anchor="middle" x="73.5" y="-7" font-family="Helvetica,sans-Serif" font-size="10.00">FCFS</text>
</a>
</g>
</g>
<!-- Node1&#45;&gt;Node3 -->
<g id="edge2_Node000001_Node000003" class="edge">
<title>Node1&#45;&gt;Node3</title>
<g id="a_edge2_Node000001_Node000003"><a xlink:title=" ">
<path fill="none" stroke="#63b8ff" d="M73.5,-44.66C73.5,-35.93 73.5,-25.99 73.5,-19.09"/>
<polygon fill="#63b8ff" stroke="#63b8ff" points="70,-44.75 73.5,-54.75 77,-44.75 70,-44.75"/>
</a>
</g>
</g>
<!-- Node4 -->
<g id="Node000004" class="node">
<title>Node4</title>
<g id="a_Node000004"><a xlink:href="classRR.html" target="_top" xlink:title=" ">
<polygon fill="white" stroke="#666666" points="142.5,-19 112.5,-19 112.5,0 142.5,0 142.5,-19"/>
<text text-anchor="middle" x="127.5" y="-7" font-family="Helvetica,sans-Serif" font-size="10.00">RR</text>
</a>
</g>
</g>
<!-- Node1&#45;&gt;Node4 -->
<g id="edge3_Node000001_Node000004" class="edge">
<title>Node1&#45;&gt;Node4</title>
<g id="a_edge3_Node000001_Node000004"><a xlink:title=" ">
<path fill="none" stroke="#63b8ff" d="M89.78,-47.52C99.3,-38.18 110.94,-26.75 118.75,-19.09"/>
<polygon fill="#63b8ff" stroke="#63b8ff" points="87.1,-45.25 82.42,-54.75 92.01,-50.24 87.1,-45.25"/>
</a>
</g>
</g>
</g>
</svg>
