<?xml version="1.0" encoding="UTF-8" standalone="no"?>
<!DOCTYPE svg PUBLIC "-//W3C//DTD SVG 1.1//EN"
 "http://www.w3.org/Graphics/SVG/1.1/DTD/svg11.dtd">
<!-- Generated by graphviz version 2.43.0 (0)
 -->
<!-- Title: src/FCFS.cpp Pages: 1 -->
<svg width="362pt" height="247pt"
 viewBox="0.00 0.00 362.06 247.00" xmlns="http://www.w3.org/2000/svg" xmlns:xlink="http://www.w3.org/1999/xlink">
<g id="graph0" class="graph" transform="scale(1 1) rotate(0) translate(4 243)">
<title>src/FCFS.cpp</title>
<!-- Node1 -->
<g id="node1" class="node">
<title>Node1</title>
<g id="a_node1"><a xlink:title=" ">
<polygon fill="#999999" stroke="#666666" points="131.63,-239 53.63,-239 53.63,-220 131.63,-220 131.63,-239"/>
<text text-anchor="middle" x="92.63" y="-227" font-family="Helvetica,sans-Serif" font-size="10.00">src/FCFS.cpp</text>
</a>
</g>
</g>
<!-- Node2 -->
<g id="node2" class="node">
<title>Node2</title>
<g id="a_node2"><a xlink:href="scheduler_8hpp.html" target="_top" xlink:title=" ">
<polygon fill="white" stroke="#666666" points="275.63,-184 191.63,-184 191.63,-165 275.63,-165 275.63,-184"/>
<text text-anchor="middle" x="233.63" y="-172" font-family="Helvetica,sans-Serif" font-size="10.00">scheduler.hpp</text>
</a>
</g>
</g>
<!-- Node1&#45;&gt;Node2 -->
<g id="edge1" class="edge">
<title>Node1&#45;&gt;Node2</title>
<path fill="none" stroke="#63b8ff" d="M115.28,-219.98C138.47,-211.27 174.75,-197.63 201.03,-187.75"/>
<polygon fill="#63b8ff" stroke="#63b8ff" points="202.43,-190.97 210.56,-184.17 199.97,-184.41 202.43,-190.97"/>
</g>
<!-- Node3 -->
<g id="node3" class="node">
<title>Node3</title>
<g id="a_node3"><a xlink:href="process_8hpp.html" target="_top" xlink:title=" ">
<polygon fill="white" stroke="#666666" points="229.13,-74 154.13,-74 154.13,-55 229.13,-55 229.13,-74"/>
<text text-anchor="middle" x="191.63" y="-62" font-family="Helvetica,sans-Serif" font-size="10.00">process.hpp</text>
</a>
</g>
</g>
<!-- Node1&#45;&gt;Node3 -->
<g id="edge15" class="edge">
<title>Node1&#45;&gt;Node3</title>
<path fill="none" stroke="#63b8ff" d="M97.95,-219.74C113.66,-193.87 160.05,-117.48 181.07,-82.88"/>
<polygon fill="#63b8ff" stroke="#63b8ff" points="184.08,-84.67 186.28,-74.31 178.09,-81.04 184.08,-84.67"/>
</g>
<!-- Node6 -->
<g id="node6" class="node">
<title>Node6</title>
<g id="a_node6"><a xlink:title=" ">
<polygon fill="#e0e0e0" stroke="#999999" points="116.63,-19 58.63,-19 58.63,0 116.63,0 116.63,-19"/>
<text text-anchor="middle" x="87.63" y="-7" font-family="Helvetica,sans-Serif" font-size="10.00">memory</text>
</a>
</g>
</g>
<!-- Node1&#45;&gt;Node6 -->
<g id="edge16" class="edge">
<title>Node1&#45;&gt;Node6</title>
<path fill="none" stroke="#63b8ff" d="M82.87,-219.7C73.89,-211.22 60.63,-197.69 51.63,-184 22.22,-139.28 13.76,-126.35 2.63,-74 0.87,-65.74 -1.75,-62.22 2.63,-55 12.81,-38.17 31.7,-27.39 49.08,-20.67"/>
<polygon fill="#63b8ff" stroke="#63b8ff" points="50.26,-23.97 58.52,-17.34 47.93,-17.37 50.26,-23.97"/>
</g>
<!-- Node8 -->
<g id="node8" class="node">
<title>Node8</title>
<g id="a_node8"><a xlink:title=" ">
<polygon fill="#e0e0e0" stroke="#999999" points="59.13,-74 12.13,-74 12.13,-55 59.13,-55 59.13,-74"/>
<text text-anchor="middle" x="35.63" y="-62" font-family="Helvetica,sans-Serif" font-size="10.00">vector</text>
</a>
</g>
</g>
<!-- Node1&#45;&gt;Node8 -->
<g id="edge17" class="edge">
<title>Node1&#45;&gt;Node8</title>
<path fill="none" stroke="#63b8ff" d="M86.62,-219.96C75.3,-203.35 51.02,-165.15 40.63,-129 36.46,-114.52 35.31,-97.46 35.15,-84.67"/>
<polygon fill="#63b8ff" stroke="#63b8ff" points="38.65,-84.35 35.22,-74.32 31.65,-84.3 38.65,-84.35"/>
</g>
<!-- Node2&#45;&gt;Node3 -->
<g id="edge2" class="edge">
<title>Node2&#45;&gt;Node3</title>
<path fill="none" stroke="#63b8ff" d="M230.19,-164.66C223.32,-147.01 207.8,-107.09 198.68,-83.64"/>
<polygon fill="#63b8ff" stroke="#63b8ff" points="201.88,-82.21 194.99,-74.16 195.35,-84.75 201.88,-82.21"/>
</g>
<!-- Node7 -->
<g id="node7" class="node">
<title>Node7</title>
<g id="a_node7"><a xlink:href="min__heap_8hpp.html" target="_top" xlink:title=" ">
<polygon fill="white" stroke="#666666" points="135.63,-129 49.63,-129 49.63,-110 135.63,-110 135.63,-129"/>
<text text-anchor="middle" x="92.63" y="-117" font-family="Helvetica,sans-Serif" font-size="10.00">min_heap.hpp</text>
</a>
</g>
</g>
<!-- Node2&#45;&gt;Node7 -->
<g id="edge6" class="edge">
<title>Node2&#45;&gt;Node7</title>
<path fill="none" stroke="#63b8ff" d="M210.97,-164.98C187.78,-156.27 151.5,-142.63 125.23,-132.75"/>
<polygon fill="#63b8ff" stroke="#63b8ff" points="126.28,-129.41 115.69,-129.17 123.82,-135.97 126.28,-129.41"/>
</g>
<!-- Node9 -->
<g id="node9" class="node">
<title>Node9</title>
<g id="a_node9"><a xlink:href="logger_8hpp.html" target="_top" xlink:title=" ">
<polygon fill="white" stroke="#666666" points="297.63,-129 229.63,-129 229.63,-110 297.63,-110 297.63,-129"/>
<text text-anchor="middle" x="263.63" y="-117" font-family="Helvetica,sans-Serif" font-size="10.00">logger.hpp</text>
</a>
</g>
</g>
<!-- Node2&#45;&gt;Node9 -->
<g id="edge10" class="edge">
<title>Node2&#45;&gt;Node9</title>
<path fill="none" stroke="#63b8ff" d="M238.58,-164.75C242.69,-157.49 248.65,-146.95 253.73,-137.98"/>
<polygon fill="#63b8ff" stroke="#63b8ff" points="256.88,-139.52 258.76,-129.09 250.79,-136.07 256.88,-139.52"/>
</g>
<!-- Node4 -->
<g id="node4" class="node">
<title>Node4</title>
<g id="a_node4"><a xlink:title=" ">
<polygon fill="#e0e0e0" stroke="#999999" points="221.63,-19 161.63,-19 161.63,0 221.63,0 221.63,-19"/>
<text text-anchor="middle" x="191.63" y="-7" font-family="Helvetica,sans-Serif" font-size="10.00">iostream</text>
</a>
</g>
</g>
<!-- Node3&#45;&gt;Node4 -->
<g id="edge3" class="edge">
<title>Node3&#45;&gt;Node4</title>
<path fill="none" stroke="#63b8ff" d="M191.63,-54.75C191.63,-47.8 191.63,-37.85 191.63,-29.13"/>
<polygon fill="#63b8ff" stroke="#63b8ff" points="195.13,-29.09 191.63,-19.09 188.13,-29.09 195.13,-29.09"/>
</g>
<!-- Node5 -->
<g id="node5" class="node">
<title>Node5</title>
<g id="a_node5"><a xlink:title=" ">
<polygon fill="#e0e0e0" stroke="#999999" points="337.63,-19 293.63,-19 293.63,0 337.63,0 337.63,-19"/>
<text text-anchor="middle" x="315.63" y="-7" font-family="Helvetica,sans-Serif" font-size="10.00">string</text>
</a>
</g>
</g>
<!-- Node3&#45;&gt;Node5 -->
<g id="edge4" class="edge">
<title>Node3&#45;&gt;Node5</title>
<path fill="none" stroke="#63b8ff" d="M211.55,-54.98C231.68,-46.38 263,-32.99 286.03,-23.15"/>
<polygon fill="#63b8ff" stroke="#63b8ff" points="287.52,-26.32 295.34,-19.17 284.77,-19.88 287.52,-26.32"/>
</g>
<!-- Node3&#45;&gt;Node6 -->
<g id="edge5" class="edge">
<title>Node3&#45;&gt;Node6</title>
<path fill="none" stroke="#63b8ff" d="M174.92,-54.98C158.41,-46.57 132.93,-33.59 113.75,-23.81"/>
<polygon fill="#63b8ff" stroke="#63b8ff" points="115.14,-20.59 104.64,-19.17 111.96,-26.83 115.14,-20.59"/>
</g>
<!-- Node7&#45;&gt;Node4 -->
<g id="edge9" class="edge">
<title>Node7&#45;&gt;Node4</title>
<path fill="none" stroke="#63b8ff" d="M99.03,-110C108.54,-97.54 127.15,-73.78 144.63,-55 154,-44.92 165.17,-34.3 174.26,-25.96"/>
<polygon fill="#63b8ff" stroke="#63b8ff" points="176.86,-28.33 181.92,-19.03 172.16,-23.14 176.86,-28.33"/>
</g>
<!-- Node7&#45;&gt;Node6 -->
<g id="edge8" class="edge">
<title>Node7&#45;&gt;Node6</title>
<path fill="none" stroke="#63b8ff" d="M92.22,-109.66C91.41,-92.17 89.58,-52.8 88.49,-29.27"/>
<polygon fill="#63b8ff" stroke="#63b8ff" points="91.98,-28.99 88.03,-19.16 84.99,-29.31 91.98,-28.99"/>
</g>
<!-- Node7&#45;&gt;Node8 -->
<g id="edge7" class="edge">
<title>Node7&#45;&gt;Node8</title>
<path fill="none" stroke="#63b8ff" d="M83.47,-109.98C75.12,-102.23 62.59,-90.58 52.45,-81.14"/>
<polygon fill="#63b8ff" stroke="#63b8ff" points="54.66,-78.42 44.95,-74.17 49.89,-83.54 54.66,-78.42"/>
</g>
<!-- Node9&#45;&gt;Node3 -->
<g id="edge14" class="edge">
<title>Node9&#45;&gt;Node3</title>
<path fill="none" stroke="#63b8ff" d="M252.06,-109.98C241.21,-102 224.74,-89.88 211.74,-80.31"/>
<polygon fill="#63b8ff" stroke="#63b8ff" points="213.53,-77.28 203.4,-74.17 209.38,-82.92 213.53,-77.28"/>
</g>
<!-- Node9&#45;&gt;Node4 -->
<g id="edge11" class="edge">
<title>Node9&#45;&gt;Node4</title>
<path fill="none" stroke="#63b8ff" d="M261.29,-109.73C257.62,-96.93 249.65,-72.75 237.63,-55 230.28,-44.15 219.94,-33.86 210.93,-25.91"/>
<polygon fill="#63b8ff" stroke="#63b8ff" points="213.04,-23.11 203.14,-19.32 208.51,-28.45 213.04,-23.11"/>
</g>
<!-- Node9&#45;&gt;Node5 -->
<g id="edge13" class="edge">
<title>Node9&#45;&gt;Node5</title>
<path fill="none" stroke="#63b8ff" d="M297.74,-110.44C316.86,-104 339.12,-92.81 350.63,-74 360.4,-58.02 346.99,-39.17 334.04,-26.17"/>
<polygon fill="#63b8ff" stroke="#63b8ff" points="336.35,-23.54 326.65,-19.27 331.57,-28.65 336.35,-23.54"/>
</g>
<!-- Node10 -->
<g id="node10" class="node">
<title>Node10</title>
<g id="a_node10"><a xlink:title=" ">
<polygon fill="#e0e0e0" stroke="#999999" points="341.13,-74 286.13,-74 286.13,-55 341.13,-55 341.13,-74"/>
<text text-anchor="middle" x="313.63" y="-62" font-family="Helvetica,sans-Serif" font-size="10.00">fstream</text>
</a>
</g>
</g>
<!-- Node9&#45;&gt;Node10 -->
<g id="edge12" class="edge">
<title>Node9&#45;&gt;Node10</title>
<path fill="none" stroke="#63b8ff" d="M271.88,-109.75C279.09,-102.11 289.74,-90.82 298.47,-81.56"/>
<polygon fill="#63b8ff" stroke="#63b8ff" points="301.21,-83.76 305.52,-74.09 296.11,-78.96 301.21,-83.76"/>
</g>
</g>
</svg>
