<?xml version="1.0" encoding="UTF-8" standalone="no"?>
<!DOCTYPE svg PUBLIC "-//W3C//DTD SVG 1.1//EN"
 "http://www.w3.org/Graphics/SVG/1.1/DTD/svg11.dtd">
<!-- Generated by graphviz version 2.43.0 (0)
 -->
<!-- Title: src/FCFS.cpp Pages: 1 -->
<svg width="326pt" height="192pt"
 viewBox="0.00 0.00 326.00 192.00" xmlns="http://www.w3.org/2000/svg" xmlns:xlink="http://www.w3.org/1999/xlink">
<g id="graph0" class="graph" transform="scale(1 1) rotate(0) translate(4 188)">
<title>src/FCFS.cpp</title>
<!-- Node1 -->
<g id="node1" class="node">
<title>Node1</title>
<g id="a_node1"><a xlink:title=" ">
<polygon fill="#999999" stroke="#666666" points="133,-184 55,-184 55,-165 133,-165 133,-184"/>
<text text-anchor="middle" x="94" y="-172" font-family="Helvetica,sans-Serif" font-size="10.00">src/FCFS.cpp</text>
</a>
</g>
</g>
<!-- Node2 -->
<g id="node2" class="node">
<title>Node2</title>
<g id="a_node2"><a xlink:href="scheduler_8hpp.html" target="_top" xlink:title=" ">
<polygon fill="white" stroke="#666666" points="202,-129 118,-129 118,-110 202,-110 202,-129"/>
<text text-anchor="middle" x="160" y="-117" font-family="Helvetica,sans-Serif" font-size="10.00">scheduler.hpp</text>
</a>
</g>
</g>
<!-- Node1&#45;&gt;Node2 -->
<g id="edge1" class="edge">
<title>Node1&#45;&gt;Node2</title>
<path fill="none" stroke="#63b8ff" d="M104.6,-164.98C114.46,-157.07 129.35,-145.11 141.22,-135.58"/>
<polygon fill="#63b8ff" stroke="#63b8ff" points="143.6,-138.16 149.2,-129.17 139.21,-132.7 143.6,-138.16"/>
</g>
<!-- Node9 -->
<g id="node9" class="node">
<title>Node9</title>
<g id="a_node9"><a xlink:href="min__heap_8hpp.html" target="_top" xlink:title=" ">
<polygon fill="white" stroke="#666666" points="86,-129 0,-129 0,-110 86,-110 86,-129"/>
<text text-anchor="middle" x="43" y="-117" font-family="Helvetica,sans-Serif" font-size="10.00">min_heap.hpp</text>
</a>
</g>
</g>
<!-- Node1&#45;&gt;Node9 -->
<g id="edge9" class="edge">
<title>Node1&#45;&gt;Node9</title>
<path fill="none" stroke="#63b8ff" d="M85.58,-164.75C78.23,-157.11 67.37,-145.82 58.46,-136.56"/>
<polygon fill="#63b8ff" stroke="#63b8ff" points="60.72,-133.87 51.26,-129.09 55.68,-138.72 60.72,-133.87"/>
</g>
<!-- Node3 -->
<g id="node3" class="node">
<title>Node3</title>
<g id="a_node3"><a xlink:href="process_8hpp.html" target="_top" xlink:title=" ">
<polygon fill="white" stroke="#666666" points="197.5,-74 122.5,-74 122.5,-55 197.5,-55 197.5,-74"/>
<text text-anchor="middle" x="160" y="-62" font-family="Helvetica,sans-Serif" font-size="10.00">process.hpp</text>
</a>
</g>
</g>
<!-- Node2&#45;&gt;Node3 -->
<g id="edge2" class="edge">
<title>Node2&#45;&gt;Node3</title>
<path fill="none" stroke="#63b8ff" d="M160,-109.75C160,-102.8 160,-92.85 160,-84.13"/>
<polygon fill="#63b8ff" stroke="#63b8ff" points="163.5,-84.09 160,-74.09 156.5,-84.09 163.5,-84.09"/>
</g>
<!-- Node6 -->
<g id="node6" class="node">
<title>Node6</title>
<g id="a_node6"><a xlink:title=" ">
<polygon fill="#e0e0e0" stroke="#999999" points="222,-19 164,-19 164,0 222,0 222,-19"/>
<text text-anchor="middle" x="193" y="-7" font-family="Helvetica,sans-Serif" font-size="10.00">memory</text>
</a>
</g>
</g>
<!-- Node2&#45;&gt;Node6 -->
<g id="edge6" class="edge">
<title>Node2&#45;&gt;Node6</title>
<path fill="none" stroke="#63b8ff" d="M174.07,-109.89C185.35,-102.1 200.34,-89.48 207,-74 213.34,-59.27 208.33,-41.34 202.62,-28.29"/>
<polygon fill="#63b8ff" stroke="#63b8ff" points="205.63,-26.48 198.09,-19.03 199.34,-29.55 205.63,-26.48"/>
</g>
<!-- Node7 -->
<g id="node7" class="node">
<title>Node7</title>
<g id="a_node7"><a xlink:title=" ">
<polygon fill="#e0e0e0" stroke="#999999" points="104.5,-74 57.5,-74 57.5,-55 104.5,-55 104.5,-74"/>
<text text-anchor="middle" x="81" y="-62" font-family="Helvetica,sans-Serif" font-size="10.00">vector</text>
</a>
</g>
</g>
<!-- Node2&#45;&gt;Node7 -->
<g id="edge7" class="edge">
<title>Node2&#45;&gt;Node7</title>
<path fill="none" stroke="#63b8ff" d="M147.31,-109.98C135.17,-101.84 116.64,-89.41 102.25,-79.76"/>
<polygon fill="#63b8ff" stroke="#63b8ff" points="104.18,-76.84 93.92,-74.17 100.28,-82.65 104.18,-76.84"/>
</g>
<!-- Node8 -->
<g id="node8" class="node">
<title>Node8</title>
<g id="a_node8"><a xlink:title=" ">
<polygon fill="#e0e0e0" stroke="#999999" points="318,-74 254,-74 254,-55 318,-55 318,-74"/>
<text text-anchor="middle" x="286" y="-62" font-family="Helvetica,sans-Serif" font-size="10.00">algorithm</text>
</a>
</g>
</g>
<!-- Node2&#45;&gt;Node8 -->
<g id="edge8" class="edge">
<title>Node2&#45;&gt;Node8</title>
<path fill="none" stroke="#63b8ff" d="M180.24,-109.98C200.7,-101.38 232.53,-87.99 255.93,-78.15"/>
<polygon fill="#63b8ff" stroke="#63b8ff" points="257.53,-81.27 265.39,-74.17 254.81,-74.82 257.53,-81.27"/>
</g>
<!-- Node4 -->
<g id="node4" class="node">
<title>Node4</title>
<g id="a_node4"><a xlink:title=" ">
<polygon fill="#e0e0e0" stroke="#999999" points="69,-19 9,-19 9,0 69,0 69,-19"/>
<text text-anchor="middle" x="39" y="-7" font-family="Helvetica,sans-Serif" font-size="10.00">iostream</text>
</a>
</g>
</g>
<!-- Node3&#45;&gt;Node4 -->
<g id="edge3" class="edge">
<title>Node3&#45;&gt;Node4</title>
<path fill="none" stroke="#63b8ff" d="M140.56,-54.98C121.01,-46.42 90.62,-33.11 68.18,-23.28"/>
<polygon fill="#63b8ff" stroke="#63b8ff" points="69.36,-19.98 58.79,-19.17 66.55,-26.39 69.36,-19.98"/>
</g>
<!-- Node5 -->
<g id="node5" class="node">
<title>Node5</title>
<g id="a_node5"><a xlink:title=" ">
<polygon fill="#e0e0e0" stroke="#999999" points="146,-19 102,-19 102,0 146,0 146,-19"/>
<text text-anchor="middle" x="124" y="-7" font-family="Helvetica,sans-Serif" font-size="10.00">string</text>
</a>
</g>
</g>
<!-- Node3&#45;&gt;Node5 -->
<g id="edge4" class="edge">
<title>Node3&#45;&gt;Node5</title>
<path fill="none" stroke="#63b8ff" d="M154.06,-54.75C149.02,-47.34 141.66,-36.5 135.49,-27.41"/>
<polygon fill="#63b8ff" stroke="#63b8ff" points="138.35,-25.39 129.83,-19.09 132.56,-29.33 138.35,-25.39"/>
</g>
<!-- Node3&#45;&gt;Node6 -->
<g id="edge5" class="edge">
<title>Node3&#45;&gt;Node6</title>
<path fill="none" stroke="#63b8ff" d="M165.45,-54.75C170.01,-47.42 176.67,-36.73 182.29,-27.7"/>
<polygon fill="#63b8ff" stroke="#63b8ff" points="185.34,-29.43 187.65,-19.09 179.4,-25.73 185.34,-29.43"/>
</g>
<!-- Node9&#45;&gt;Node4 -->
<g id="edge12" class="edge">
<title>Node9&#45;&gt;Node4</title>
<path fill="none" stroke="#63b8ff" d="M35.33,-109.7C28.48,-101.21 18.95,-87.68 15,-74 10.42,-58.12 18.06,-40.58 25.91,-27.97"/>
<polygon fill="#63b8ff" stroke="#63b8ff" points="29.01,-29.62 31.75,-19.39 23.23,-25.68 29.01,-29.62"/>
</g>
<!-- Node9&#45;&gt;Node6 -->
<g id="edge11" class="edge">
<title>Node9&#45;&gt;Node6</title>
<path fill="none" stroke="#63b8ff" d="M40.86,-109.59C38.19,-96.17 35.41,-70.7 48,-55 54.81,-46.5 113.4,-30.4 153.99,-20.07"/>
<polygon fill="#63b8ff" stroke="#63b8ff" points="155.03,-23.42 163.87,-17.58 153.32,-16.63 155.03,-23.42"/>
</g>
<!-- Node9&#45;&gt;Node7 -->
<g id="edge10" class="edge">
<title>Node9&#45;&gt;Node7</title>
<path fill="none" stroke="#63b8ff" d="M49.27,-109.75C54.59,-102.34 62.36,-91.5 68.88,-82.41"/>
<polygon fill="#63b8ff" stroke="#63b8ff" points="71.86,-84.26 74.84,-74.09 66.17,-80.18 71.86,-84.26"/>
</g>
</g>
</svg>
