<?xml version="1.0" encoding="UTF-8" standalone="no"?>
<!DOCTYPE svg PUBLIC "-//W3C//DTD SVG 1.1//EN"
 "http://www.w3.org/Graphics/SVG/1.1/DTD/svg11.dtd">
<!-- Generated by graphviz version 2.43.0 (0)
 -->
<!-- Title: src/FCFS.cpp Pages: 1 -->
<svg width="291pt" height="192pt"
 viewBox="0.00 0.00 290.50 192.00" xmlns="http://www.w3.org/2000/svg" xmlns:xlink="http://www.w3.org/1999/xlink">
<g id="graph0" class="graph" transform="scale(1 1) rotate(0) translate(4 188)">
<title>src/FCFS.cpp</title>
<!-- Node1 -->
<g id="node1" class="node">
<title>Node1</title>
<g id="a_node1"><a xlink:title=" ">
<polygon fill="#999999" stroke="#666666" points="233,-184 155,-184 155,-165 233,-165 233,-184"/>
<text text-anchor="middle" x="194" y="-172" font-family="Helvetica,sans-Serif" font-size="10.00">src/FCFS.cpp</text>
</a>
</g>
</g>
<!-- Node2 -->
<g id="node2" class="node">
<title>Node2</title>
<g id="a_node2"><a xlink:href="scheduler_8hpp.html" target="_top" xlink:title=" ">
<polygon fill="white" stroke="#666666" points="201,-129 117,-129 117,-110 201,-110 201,-129"/>
<text text-anchor="middle" x="159" y="-117" font-family="Helvetica,sans-Serif" font-size="10.00">scheduler.hpp</text>
</a>
</g>
</g>
<!-- Node1&#45;&gt;Node2 -->
<g id="edge1" class="edge">
<title>Node1&#45;&gt;Node2</title>
<path fill="none" stroke="#63b8ff" d="M188.22,-164.75C183.38,-157.42 176.32,-146.73 170.36,-137.7"/>
<polygon fill="#63b8ff" stroke="#63b8ff" points="173.1,-135.5 164.67,-129.09 167.26,-139.36 173.1,-135.5"/>
</g>
<!-- Node3 -->
<g id="node3" class="node">
<title>Node3</title>
<g id="a_node3"><a xlink:href="process_8hpp.html" target="_top" xlink:title=" ">
<polygon fill="white" stroke="#666666" points="97.5,-74 22.5,-74 22.5,-55 97.5,-55 97.5,-74"/>
<text text-anchor="middle" x="60" y="-62" font-family="Helvetica,sans-Serif" font-size="10.00">process.hpp</text>
</a>
</g>
</g>
<!-- Node1&#45;&gt;Node3 -->
<g id="edge10" class="edge">
<title>Node1&#45;&gt;Node3</title>
<path fill="none" stroke="#63b8ff" d="M171.15,-164.99C152.79,-157.41 127.02,-145.04 108,-129 92.38,-115.83 78.79,-96.68 70.09,-82.86"/>
<polygon fill="#63b8ff" stroke="#63b8ff" points="73.07,-81.02 64.89,-74.29 67.08,-84.65 73.07,-81.02"/>
</g>
<!-- Node6 -->
<g id="node6" class="node">
<title>Node6</title>
<g id="a_node6"><a xlink:title=" ">
<polygon fill="#e0e0e0" stroke="#999999" points="198,-19 140,-19 140,0 198,0 198,-19"/>
<text text-anchor="middle" x="169" y="-7" font-family="Helvetica,sans-Serif" font-size="10.00">memory</text>
</a>
</g>
</g>
<!-- Node1&#45;&gt;Node6 -->
<g id="edge11" class="edge">
<title>Node1&#45;&gt;Node6</title>
<path fill="none" stroke="#63b8ff" d="M198.15,-164.82C207.15,-144.73 226.43,-93.82 211,-55 206.48,-43.63 197.53,-33.48 189.04,-25.76"/>
<polygon fill="#63b8ff" stroke="#63b8ff" points="191.11,-22.92 181.21,-19.14 186.59,-28.27 191.11,-22.92"/>
</g>
<!-- Node8 -->
<g id="node8" class="node">
<title>Node8</title>
<g id="a_node8"><a xlink:title=" ">
<polygon fill="#e0e0e0" stroke="#999999" points="282.5,-19 235.5,-19 235.5,0 282.5,0 282.5,-19"/>
<text text-anchor="middle" x="259" y="-7" font-family="Helvetica,sans-Serif" font-size="10.00">vector</text>
</a>
</g>
</g>
<!-- Node1&#45;&gt;Node8 -->
<g id="edge12" class="edge">
<title>Node1&#45;&gt;Node8</title>
<path fill="none" stroke="#63b8ff" d="M201.89,-164.94C209.36,-156.42 220.38,-142.68 227,-129 243.11,-95.72 252.09,-53.11 256.19,-29.11"/>
<polygon fill="#63b8ff" stroke="#63b8ff" points="259.65,-29.65 257.79,-19.22 252.74,-28.54 259.65,-29.65"/>
</g>
<!-- Node2&#45;&gt;Node3 -->
<g id="edge2" class="edge">
<title>Node2&#45;&gt;Node3</title>
<path fill="none" stroke="#63b8ff" d="M143.09,-109.98C127.45,-101.61 103.34,-88.7 85.12,-78.95"/>
<polygon fill="#63b8ff" stroke="#63b8ff" points="86.66,-75.8 76.2,-74.17 83.36,-81.98 86.66,-75.8"/>
</g>
<!-- Node7 -->
<g id="node7" class="node">
<title>Node7</title>
<g id="a_node7"><a xlink:href="min__heap_8hpp.html" target="_top" xlink:title=" ">
<polygon fill="white" stroke="#666666" points="202,-74 116,-74 116,-55 202,-55 202,-74"/>
<text text-anchor="middle" x="159" y="-62" font-family="Helvetica,sans-Serif" font-size="10.00">min_heap.hpp</text>
</a>
</g>
</g>
<!-- Node2&#45;&gt;Node7 -->
<g id="edge6" class="edge">
<title>Node2&#45;&gt;Node7</title>
<path fill="none" stroke="#63b8ff" d="M159,-109.75C159,-102.8 159,-92.85 159,-84.13"/>
<polygon fill="#63b8ff" stroke="#63b8ff" points="162.5,-84.09 159,-74.09 155.5,-84.09 162.5,-84.09"/>
</g>
<!-- Node4 -->
<g id="node4" class="node">
<title>Node4</title>
<g id="a_node4"><a xlink:title=" ">
<polygon fill="#e0e0e0" stroke="#999999" points="122,-19 62,-19 62,0 122,0 122,-19"/>
<text text-anchor="middle" x="92" y="-7" font-family="Helvetica,sans-Serif" font-size="10.00">iostream</text>
</a>
</g>
</g>
<!-- Node3&#45;&gt;Node4 -->
<g id="edge3" class="edge">
<title>Node3&#45;&gt;Node4</title>
<path fill="none" stroke="#63b8ff" d="M65.28,-54.75C69.71,-47.42 76.16,-36.73 81.62,-27.7"/>
<polygon fill="#63b8ff" stroke="#63b8ff" points="84.64,-29.46 86.81,-19.09 78.65,-25.84 84.64,-29.46"/>
</g>
<!-- Node5 -->
<g id="node5" class="node">
<title>Node5</title>
<g id="a_node5"><a xlink:title=" ">
<polygon fill="#e0e0e0" stroke="#999999" points="44,-19 0,-19 0,0 44,0 44,-19"/>
<text text-anchor="middle" x="22" y="-7" font-family="Helvetica,sans-Serif" font-size="10.00">string</text>
</a>
</g>
</g>
<!-- Node3&#45;&gt;Node5 -->
<g id="edge4" class="edge">
<title>Node3&#45;&gt;Node5</title>
<path fill="none" stroke="#63b8ff" d="M53.73,-54.75C48.41,-47.34 40.64,-36.5 34.12,-27.41"/>
<polygon fill="#63b8ff" stroke="#63b8ff" points="36.83,-25.18 28.16,-19.09 31.14,-29.26 36.83,-25.18"/>
</g>
<!-- Node3&#45;&gt;Node6 -->
<g id="edge5" class="edge">
<title>Node3&#45;&gt;Node6</title>
<path fill="none" stroke="#63b8ff" d="M77.51,-54.98C94.97,-46.5 122.01,-33.35 142.17,-23.54"/>
<polygon fill="#63b8ff" stroke="#63b8ff" points="143.71,-26.69 151.17,-19.17 140.64,-20.4 143.71,-26.69"/>
</g>
<!-- Node7&#45;&gt;Node4 -->
<g id="edge9" class="edge">
<title>Node7&#45;&gt;Node4</title>
<path fill="none" stroke="#63b8ff" d="M148.24,-54.98C138.23,-47.07 123.11,-35.11 111.07,-25.58"/>
<polygon fill="#63b8ff" stroke="#63b8ff" points="112.97,-22.63 102.96,-19.17 108.63,-28.12 112.97,-22.63"/>
</g>
<!-- Node7&#45;&gt;Node6 -->
<g id="edge8" class="edge">
<title>Node7&#45;&gt;Node6</title>
<path fill="none" stroke="#63b8ff" d="M160.65,-54.75C161.96,-47.8 163.84,-37.85 165.48,-29.13"/>
<polygon fill="#63b8ff" stroke="#63b8ff" points="168.96,-29.56 167.38,-19.09 162.09,-28.27 168.96,-29.56"/>
</g>
<!-- Node7&#45;&gt;Node8 -->
<g id="edge7" class="edge">
<title>Node7&#45;&gt;Node8</title>
<path fill="none" stroke="#63b8ff" d="M175.07,-54.98C190.86,-46.61 215.22,-33.7 233.63,-23.95"/>
<polygon fill="#63b8ff" stroke="#63b8ff" points="235.44,-26.95 242.64,-19.17 232.17,-20.76 235.44,-26.95"/>
</g>
</g>
</svg>
