<?xml version="1.0" encoding="UTF-8" standalone="no"?>
<!DOCTYPE svg PUBLIC "-//W3C//DTD SVG 1.1//EN"
 "http://www.w3.org/Graphics/SVG/1.1/DTD/svg11.dtd">
<!-- Generated by graphviz version 2.43.0 (0)
 -->
<!-- Title: Graphical Class Hierarchy Pages: 1 -->
<svg width="150pt" height="101pt"
 viewBox="0.00 0.00 150.00 101.00" xmlns="http://www.w3.org/2000/svg" xmlns:xlink="http://www.w3.org/1999/xlink">
<g id="graph0" class="graph" transform="scale(1 1) rotate(0) translate(4 97)">
<title>Graphical Class Hierarchy</title>
<!-- Node0 -->
<g id="node1" class="node">
<title>Node0</title>
<g id="a_node1"><a xlink:href="classScheduler.html" target="_top" xlink:title="Abstract class for all scheduler types.">
<polygon fill="white" stroke="#666666" points="65,-56 0,-56 0,-37 65,-37 65,-56"/>
<text text-anchor="middle" x="32.5" y="-44" font-family="Helvetica,sans-Serif" font-size="10.00">Scheduler</text>
</a>
</g>
</g>
<!-- Node1 -->
<g id="node2" class="node">
<title>Node1</title>
<g id="a_node2"><a xlink:href="classCFS.html" target="_top" xlink:title=" ">
<polygon fill="white" stroke="#666666" points="139,-93 104,-93 104,-74 139,-74 139,-93"/>
<text text-anchor="middle" x="121.5" y="-81" font-family="Helvetica,sans-Serif" font-size="10.00">CFS</text>
</a>
</g>
</g>
<!-- Node0&#45;&gt;Node1 -->
<g id="edge1" class="edge">
<title>Node0&#45;&gt;Node1</title>
<path fill="none" stroke="#63b8ff" d="M65.13,-59.95C78.27,-65.54 92.99,-71.8 103.94,-76.46"/>
<polygon fill="#63b8ff" stroke="#63b8ff" points="66.48,-56.72 55.9,-56.03 63.74,-63.16 66.48,-56.72"/>
</g>
<!-- Node2 -->
<g id="node3" class="node">
<title>Node2</title>
<g id="a_node3"><a xlink:href="classFCFS.html" target="_top" xlink:title=" ">
<polygon fill="white" stroke="#666666" points="142,-56 101,-56 101,-37 142,-37 142,-56"/>
<text text-anchor="middle" x="121.5" y="-44" font-family="Helvetica,sans-Serif" font-size="10.00">FCFS</text>
</a>
</g>
</g>
<!-- Node0&#45;&gt;Node2 -->
<g id="edge2" class="edge">
<title>Node0&#45;&gt;Node2</title>
<path fill="none" stroke="#63b8ff" d="M75.68,-46.5C84.53,-46.5 93.46,-46.5 101,-46.5"/>
<polygon fill="#63b8ff" stroke="#63b8ff" points="75.4,-43 65.4,-46.5 75.4,-50 75.4,-43"/>
</g>
<!-- Node3 -->
<g id="node4" class="node">
<title>Node3</title>
<g id="a_node4"><a xlink:href="classRR.html" target="_top" xlink:title=" ">
<polygon fill="white" stroke="#666666" points="136.5,-19 106.5,-19 106.5,0 136.5,0 136.5,-19"/>
<text text-anchor="middle" x="121.5" y="-7" font-family="Helvetica,sans-Serif" font-size="10.00">RR</text>
</a>
</g>
</g>
<!-- Node0&#45;&gt;Node3 -->
<g id="edge3" class="edge">
<title>Node0&#45;&gt;Node3</title>
<path fill="none" stroke="#63b8ff" d="M65.3,-32.98C79.39,-26.98 95.25,-20.24 106.34,-15.52"/>
<polygon fill="#63b8ff" stroke="#63b8ff" points="63.74,-29.84 55.9,-36.97 66.48,-36.28 63.74,-29.84"/>
</g>
</g>
</svg>
