<?xml version="1.0" encoding="UTF-8" standalone="no"?>
<!DOCTYPE svg PUBLIC "-//W3C//DTD SVG 1.1//EN"
 "http://www.w3.org/Graphics/SVG/1.1/DTD/svg11.dtd">
<!-- Generated by graphviz version 2.43.0 (0)
 -->
<!-- Title: src/logger.hpp Pages: 1 -->
<svg width="235pt" height="137pt"
 viewBox="0.00 0.00 235.00 137.00" xmlns="http://www.w3.org/2000/svg" xmlns:xlink="http://www.w3.org/1999/xlink">
<g id="graph0" class="graph" transform="scale(1 1) rotate(0) translate(4 133)">
<title>src/logger.hpp</title>
<!-- Node1 -->
<g id="node1" class="node">
<title>Node1</title>
<g id="a_node1"><a xlink:title=" ">
<polygon fill="#999999" stroke="#666666" points="139.5,-129 54.5,-129 54.5,-110 139.5,-110 139.5,-129"/>
<text text-anchor="middle" x="97" y="-117" font-family="Helvetica,sans-Serif" font-size="10.00">src/logger.hpp</text>
</a>
</g>
</g>
<!-- Node2 -->
<g id="node2" class="node">
<title>Node2</title>
<g id="a_node2"><a xlink:title=" ">
<polygon fill="#e0e0e0" stroke="#999999" points="60,-19 0,-19 0,0 60,0 60,-19"/>
<text text-anchor="middle" x="30" y="-7" font-family="Helvetica,sans-Serif" font-size="10.00">iostream</text>
</a>
</g>
</g>
<!-- Node1&#45;&gt;Node2 -->
<g id="edge1" class="edge">
<title>Node1&#45;&gt;Node2</title>
<path fill="none" stroke="#63b8ff" d="M67.5,-109.97C50.06,-103.24 29.41,-91.93 19,-74 10.94,-60.12 15.37,-41.86 20.82,-28.48"/>
<polygon fill="#63b8ff" stroke="#63b8ff" points="24.01,-29.91 24.99,-19.36 17.65,-27 24.01,-29.91"/>
</g>
<!-- Node3 -->
<g id="node3" class="node">
<title>Node3</title>
<g id="a_node3"><a xlink:title=" ">
<polygon fill="#e0e0e0" stroke="#999999" points="83.5,-74 28.5,-74 28.5,-55 83.5,-55 83.5,-74"/>
<text text-anchor="middle" x="56" y="-62" font-family="Helvetica,sans-Serif" font-size="10.00">fstream</text>
</a>
</g>
</g>
<!-- Node1&#45;&gt;Node3 -->
<g id="edge2" class="edge">
<title>Node1&#45;&gt;Node3</title>
<path fill="none" stroke="#63b8ff" d="M90.23,-109.75C84.44,-102.26 75.94,-91.28 68.86,-82.13"/>
<polygon fill="#63b8ff" stroke="#63b8ff" points="71.53,-79.86 62.64,-74.09 65.99,-84.14 71.53,-79.86"/>
</g>
<!-- Node4 -->
<g id="node4" class="node">
<title>Node4</title>
<g id="a_node4"><a xlink:title=" ">
<polygon fill="#e0e0e0" stroke="#999999" points="227,-19 183,-19 183,0 227,0 227,-19"/>
<text text-anchor="middle" x="205" y="-7" font-family="Helvetica,sans-Serif" font-size="10.00">string</text>
</a>
</g>
</g>
<!-- Node1&#45;&gt;Node4 -->
<g id="edge3" class="edge">
<title>Node1&#45;&gt;Node4</title>
<path fill="none" stroke="#63b8ff" d="M127.37,-109.88C146.39,-103.03 170.04,-91.62 185,-74 195.64,-61.47 200.63,-43.27 202.96,-29.56"/>
<polygon fill="#63b8ff" stroke="#63b8ff" points="206.47,-29.71 204.37,-19.33 199.54,-28.76 206.47,-29.71"/>
</g>
<!-- Node5 -->
<g id="node5" class="node">
<title>Node5</title>
<g id="a_node5"><a xlink:href="process_8hpp.html" target="_top" xlink:title=" ">
<polygon fill="white" stroke="#666666" points="176.5,-74 101.5,-74 101.5,-55 176.5,-55 176.5,-74"/>
<text text-anchor="middle" x="139" y="-62" font-family="Helvetica,sans-Serif" font-size="10.00">process.hpp</text>
</a>
</g>
</g>
<!-- Node1&#45;&gt;Node5 -->
<g id="edge4" class="edge">
<title>Node1&#45;&gt;Node5</title>
<path fill="none" stroke="#63b8ff" d="M103.94,-109.75C109.87,-102.26 118.57,-91.28 125.82,-82.13"/>
<polygon fill="#63b8ff" stroke="#63b8ff" points="128.73,-84.1 132.19,-74.09 123.24,-79.75 128.73,-84.1"/>
</g>
<!-- Node5&#45;&gt;Node2 -->
<g id="edge5" class="edge">
<title>Node5&#45;&gt;Node2</title>
<path fill="none" stroke="#63b8ff" d="M121.49,-54.98C104.03,-46.5 76.99,-33.35 56.83,-23.54"/>
<polygon fill="#63b8ff" stroke="#63b8ff" points="58.36,-20.4 47.83,-19.17 55.29,-26.69 58.36,-20.4"/>
</g>
<!-- Node5&#45;&gt;Node4 -->
<g id="edge6" class="edge">
<title>Node5&#45;&gt;Node4</title>
<path fill="none" stroke="#63b8ff" d="M149.6,-54.98C159.46,-47.07 174.35,-35.11 186.22,-25.58"/>
<polygon fill="#63b8ff" stroke="#63b8ff" points="188.6,-28.16 194.2,-19.17 184.21,-22.7 188.6,-28.16"/>
</g>
<!-- Node6 -->
<g id="node6" class="node">
<title>Node6</title>
<g id="a_node6"><a xlink:title=" ">
<polygon fill="#e0e0e0" stroke="#999999" points="165,-19 107,-19 107,0 165,0 165,-19"/>
<text text-anchor="middle" x="136" y="-7" font-family="Helvetica,sans-Serif" font-size="10.00">memory</text>
</a>
</g>
</g>
<!-- Node5&#45;&gt;Node6 -->
<g id="edge7" class="edge">
<title>Node5&#45;&gt;Node6</title>
<path fill="none" stroke="#63b8ff" d="M138.5,-54.75C138.11,-47.8 137.55,-37.85 137.05,-29.13"/>
<polygon fill="#63b8ff" stroke="#63b8ff" points="140.55,-28.88 136.49,-19.09 133.56,-29.27 140.55,-28.88"/>
</g>
</g>
</svg>
