<?xml version="1.0" encoding="UTF-8" standalone="no"?>
<!DOCTYPE svg PUBLIC "-//W3C//DTD SVG 1.1//EN"
 "http://www.w3.org/Graphics/SVG/1.1/DTD/svg11.dtd">
<!-- Generated by graphviz version 2.43.0 (0)
 -->
<!-- Title: src/logger.hpp Pages: 1 -->
<svg width="508pt" height="137pt"
 viewBox="0.00 0.00 507.50 137.00" xmlns="http://www.w3.org/2000/svg" xmlns:xlink="http://www.w3.org/1999/xlink">
<g id="graph0" class="graph" transform="scale(1 1) rotate(0) translate(4 133)">
<title>src/logger.hpp</title>
<!-- Node1 -->
<g id="node1" class="node">
<title>Node1</title>
<g id="a_node1"><a xlink:title=" ">
<polygon fill="#999999" stroke="#666666" points="334.5,-129 249.5,-129 249.5,-110 334.5,-110 334.5,-129"/>
<text text-anchor="middle" x="292" y="-117" font-family="Helvetica,sans-Serif" font-size="10.00">src/logger.hpp</text>
</a>
</g>
</g>
<!-- Node2 -->
<g id="node2" class="node">
<title>Node2</title>
<g id="a_node2"><a xlink:href="scheduler_8hpp.html" target="_top" xlink:title=" ">
<polygon fill="white" stroke="#666666" points="283.5,-74 182.5,-74 182.5,-55 283.5,-55 283.5,-74"/>
<text text-anchor="middle" x="233" y="-62" font-family="Helvetica,sans-Serif" font-size="10.00">src/scheduler.hpp</text>
</a>
</g>
</g>
<!-- Node1&#45;&gt;Node2 -->
<g id="edge1" class="edge">
<title>Node1&#45;&gt;Node2</title>
<path fill="none" stroke="#63b8ff" d="M274.8,-103.04C264.33,-93.64 251.35,-81.98 242.65,-74.17"/>
<polygon fill="#63b8ff" stroke="#63b8ff" points="272.74,-105.91 282.52,-109.98 277.42,-100.7 272.74,-105.91"/>
</g>
<!-- Node8 -->
<g id="node8" class="node">
<title>Node8</title>
<g id="a_node8"><a xlink:href="simulator_8hpp.html" target="_top" xlink:title=" ">
<polygon fill="white" stroke="#666666" points="402.5,-74 301.5,-74 301.5,-55 402.5,-55 402.5,-74"/>
<text text-anchor="middle" x="352" y="-62" font-family="Helvetica,sans-Serif" font-size="10.00">src/simulator.hpp</text>
</a>
</g>
</g>
<!-- Node1&#45;&gt;Node8 -->
<g id="edge7" class="edge">
<title>Node1&#45;&gt;Node8</title>
<path fill="none" stroke="#63b8ff" d="M309.18,-103.32C319.88,-93.87 333.26,-82.06 342.18,-74.17"/>
<polygon fill="#63b8ff" stroke="#63b8ff" points="306.82,-100.74 301.64,-109.98 311.45,-105.99 306.82,-100.74"/>
</g>
<!-- Node3 -->
<g id="node3" class="node">
<title>Node3</title>
<g id="a_node3"><a xlink:href="FCFS_8cpp.html" target="_top" xlink:title=" ">
<polygon fill="white" stroke="#666666" points="78,-19 0,-19 0,0 78,0 78,-19"/>
<text text-anchor="middle" x="39" y="-7" font-family="Helvetica,sans-Serif" font-size="10.00">src/FCFS.cpp</text>
</a>
</g>
</g>
<!-- Node2&#45;&gt;Node3 -->
<g id="edge2" class="edge">
<title>Node2&#45;&gt;Node3</title>
<path fill="none" stroke="#63b8ff" d="M192.04,-52.31C155.74,-42.39 103.5,-28.12 70.41,-19.08"/>
<polygon fill="#63b8ff" stroke="#63b8ff" points="191.26,-55.73 201.83,-54.98 193.11,-48.97 191.26,-55.73"/>
</g>
<!-- Node4 -->
<g id="node4" class="node">
<title>Node4</title>
<g id="a_node4"><a xlink:href="RR_8cpp.html" target="_top" xlink:title=" ">
<polygon fill="white" stroke="#666666" points="164,-19 96,-19 96,0 164,0 164,-19"/>
<text text-anchor="middle" x="130" y="-7" font-family="Helvetica,sans-Serif" font-size="10.00">src/RR.cpp</text>
</a>
</g>
</g>
<!-- Node2&#45;&gt;Node4 -->
<g id="edge3" class="edge">
<title>Node2&#45;&gt;Node4</title>
<path fill="none" stroke="#63b8ff" d="M207.48,-50.37C188.56,-40.63 163.3,-27.64 146.85,-19.17"/>
<polygon fill="#63b8ff" stroke="#63b8ff" points="205.96,-53.52 216.45,-54.98 209.16,-47.3 205.96,-53.52"/>
</g>
<!-- Node5 -->
<g id="node5" class="node">
<title>Node5</title>
<g id="a_node5"><a xlink:href="main_8cpp.html" target="_top" xlink:title=" ">
<polygon fill="white" stroke="#666666" points="499.5,-19 420.5,-19 420.5,0 499.5,0 499.5,-19"/>
<text text-anchor="middle" x="460" y="-7" font-family="Helvetica,sans-Serif" font-size="10.00">src/main.cpp</text>
</a>
</g>
</g>
<!-- Node2&#45;&gt;Node5 -->
<g id="edge4" class="edge">
<title>Node2&#45;&gt;Node5</title>
<path fill="none" stroke="#63b8ff" d="M279.3,-52.69C321.83,-42.76 384.03,-28.24 423.24,-19.08"/>
<polygon fill="#63b8ff" stroke="#63b8ff" points="278.41,-49.3 269.47,-54.98 280.01,-56.12 278.41,-49.3"/>
</g>
<!-- Node6 -->
<g id="node6" class="node">
<title>Node6</title>
<g id="a_node6"><a xlink:href="min__heap_8cpp.html" target="_top" xlink:title=" ">
<polygon fill="white" stroke="#666666" points="284,-19 182,-19 182,0 284,0 284,-19"/>
<text text-anchor="middle" x="233" y="-7" font-family="Helvetica,sans-Serif" font-size="10.00">src/min_heap.cpp</text>
</a>
</g>
</g>
<!-- Node2&#45;&gt;Node6 -->
<g id="edge5" class="edge">
<title>Node2&#45;&gt;Node6</title>
<path fill="none" stroke="#63b8ff" d="M233,-44.66C233,-35.93 233,-25.99 233,-19.09"/>
<polygon fill="#63b8ff" stroke="#63b8ff" points="229.5,-44.75 233,-54.75 236.5,-44.75 229.5,-44.75"/>
</g>
<!-- Node7 -->
<g id="node7" class="node">
<title>Node7</title>
<g id="a_node7"><a xlink:href="simulator_8cpp.html" target="_top" xlink:title=" ">
<polygon fill="white" stroke="#666666" points="402,-19 302,-19 302,0 402,0 402,-19"/>
<text text-anchor="middle" x="352" y="-7" font-family="Helvetica,sans-Serif" font-size="10.00">src/simulator.cpp</text>
</a>
</g>
</g>
<!-- Node2&#45;&gt;Node7 -->
<g id="edge6" class="edge">
<title>Node2&#45;&gt;Node7</title>
<path fill="none" stroke="#63b8ff" d="M261.3,-50.9C283.28,-41.11 313.18,-27.79 332.53,-19.17"/>
<polygon fill="#63b8ff" stroke="#63b8ff" points="259.83,-47.72 252.12,-54.98 262.68,-54.11 259.83,-47.72"/>
</g>
<!-- Node8&#45;&gt;Node5 -->
<g id="edge8" class="edge">
<title>Node8&#45;&gt;Node5</title>
<path fill="none" stroke="#63b8ff" d="M378.49,-50.5C398.36,-40.75 425,-27.68 442.33,-19.17"/>
<polygon fill="#63b8ff" stroke="#63b8ff" points="376.79,-47.44 369.35,-54.98 379.87,-53.72 376.79,-47.44"/>
</g>
<!-- Node8&#45;&gt;Node7 -->
<g id="edge9" class="edge">
<title>Node8&#45;&gt;Node7</title>
<path fill="none" stroke="#63b8ff" d="M352,-44.66C352,-35.93 352,-25.99 352,-19.09"/>
<polygon fill="#63b8ff" stroke="#63b8ff" points="348.5,-44.75 352,-54.75 355.5,-44.75 348.5,-44.75"/>
</g>
</g>
</svg>
