<?xml version="1.0" encoding="UTF-8" standalone="no"?>
<!DOCTYPE svg PUBLIC "-//W3C//DTD SVG 1.1//EN"
 "http://www.w3.org/Graphics/SVG/1.1/DTD/svg11.dtd">
<!-- Generated by graphviz version 2.43.0 (0)
 -->
<!-- Title: src/main.cpp Pages: 1 -->
<svg width="250pt" height="192pt"
 viewBox="0.00 0.00 250.00 192.00" xmlns="http://www.w3.org/2000/svg" xmlns:xlink="http://www.w3.org/1999/xlink">
<g id="graph0" class="graph" transform="scale(1 1) rotate(0) translate(4 188)">
<title>src/main.cpp</title>
<!-- Node1 -->
<g id="node1" class="node">
<title>Node1</title>
<g id="a_node1"><a xlink:title=" ">
<polygon fill="#999999" stroke="#666666" points="79,-184 0,-184 0,-165 79,-165 79,-184"/>
<text text-anchor="middle" x="39.5" y="-172" font-family="Helvetica,sans-Serif" font-size="10.00">src/main.cpp</text>
</a>
</g>
</g>
<!-- Node2 -->
<g id="node2" class="node">
<title>Node2</title>
<g id="a_node2"><a xlink:title=" ">
<polygon fill="#e0e0e0" stroke="#999999" points="96.5,-19 36.5,-19 36.5,0 96.5,0 96.5,-19"/>
<text text-anchor="middle" x="66.5" y="-7" font-family="Helvetica,sans-Serif" font-size="10.00">iostream</text>
</a>
</g>
</g>
<!-- Node1&#45;&gt;Node2 -->
<g id="edge1" class="edge">
<title>Node1&#45;&gt;Node2</title>
<path fill="none" stroke="#63b8ff" d="M34.38,-164.76C23.27,-144.57 -0.74,-93.43 16.5,-55 22,-42.74 32.73,-32.48 42.85,-24.91"/>
<polygon fill="#63b8ff" stroke="#63b8ff" points="44.85,-27.78 51.07,-19.2 40.86,-22.03 44.85,-27.78"/>
</g>
<!-- Node3 -->
<g id="node3" class="node">
<title>Node3</title>
<g id="a_node3"><a xlink:href="process__creator_8hpp.html" target="_top" xlink:title=" ">
<polygon fill="white" stroke="#666666" points="160.5,-129 46.5,-129 46.5,-110 160.5,-110 160.5,-129"/>
<text text-anchor="middle" x="103.5" y="-117" font-family="Helvetica,sans-Serif" font-size="10.00">process_creator.hpp</text>
</a>
</g>
</g>
<!-- Node1&#45;&gt;Node3 -->
<g id="edge2" class="edge">
<title>Node1&#45;&gt;Node3</title>
<path fill="none" stroke="#63b8ff" d="M49.78,-164.98C59.34,-157.07 73.78,-145.11 85.28,-135.58"/>
<polygon fill="#63b8ff" stroke="#63b8ff" points="87.56,-138.24 93.03,-129.17 83.1,-132.85 87.56,-138.24"/>
</g>
<!-- Node4 -->
<g id="node4" class="node">
<title>Node4</title>
<g id="a_node4"><a xlink:title=" ">
<polygon fill="#e0e0e0" stroke="#999999" points="83.5,-74 25.5,-74 25.5,-55 83.5,-55 83.5,-74"/>
<text text-anchor="middle" x="54.5" y="-62" font-family="Helvetica,sans-Serif" font-size="10.00">memory</text>
</a>
</g>
</g>
<!-- Node3&#45;&gt;Node4 -->
<g id="edge3" class="edge">
<title>Node3&#45;&gt;Node4</title>
<path fill="none" stroke="#63b8ff" d="M95.41,-109.75C88.34,-102.11 77.91,-90.82 69.35,-81.56"/>
<polygon fill="#63b8ff" stroke="#63b8ff" points="71.8,-79.06 62.44,-74.09 66.66,-83.81 71.8,-79.06"/>
</g>
<!-- Node5 -->
<g id="node5" class="node">
<title>Node5</title>
<g id="a_node5"><a xlink:title=" ">
<polygon fill="#e0e0e0" stroke="#999999" points="149,-74 102,-74 102,-55 149,-55 149,-74"/>
<text text-anchor="middle" x="125.5" y="-62" font-family="Helvetica,sans-Serif" font-size="10.00">vector</text>
</a>
</g>
</g>
<!-- Node3&#45;&gt;Node5 -->
<g id="edge4" class="edge">
<title>Node3&#45;&gt;Node5</title>
<path fill="none" stroke="#63b8ff" d="M107.13,-109.75C110.08,-102.65 114.33,-92.4 118.01,-83.56"/>
<polygon fill="#63b8ff" stroke="#63b8ff" points="121.33,-84.67 121.93,-74.09 114.87,-81.98 121.33,-84.67"/>
</g>
<!-- Node6 -->
<g id="node6" class="node">
<title>Node6</title>
<g id="a_node6"><a xlink:href="process_8hpp.html" target="_top" xlink:title=" ">
<polygon fill="white" stroke="#666666" points="242,-74 167,-74 167,-55 242,-55 242,-74"/>
<text text-anchor="middle" x="204.5" y="-62" font-family="Helvetica,sans-Serif" font-size="10.00">process.hpp</text>
</a>
</g>
</g>
<!-- Node3&#45;&gt;Node6 -->
<g id="edge5" class="edge">
<title>Node3&#45;&gt;Node6</title>
<path fill="none" stroke="#63b8ff" d="M119.73,-109.98C135.68,-101.61 160.28,-88.7 178.88,-78.95"/>
<polygon fill="#63b8ff" stroke="#63b8ff" points="180.75,-81.92 187.98,-74.17 177.5,-75.72 180.75,-81.92"/>
</g>
<!-- Node6&#45;&gt;Node2 -->
<g id="edge6" class="edge">
<title>Node6&#45;&gt;Node2</title>
<path fill="none" stroke="#63b8ff" d="M182.33,-54.98C159.73,-46.3 124.44,-32.75 98.75,-22.88"/>
<polygon fill="#63b8ff" stroke="#63b8ff" points="99.67,-19.49 89.08,-19.17 97.16,-26.02 99.67,-19.49"/>
</g>
<!-- Node7 -->
<g id="node7" class="node">
<title>Node7</title>
<g id="a_node7"><a xlink:title=" ">
<polygon fill="#e0e0e0" stroke="#999999" points="226.5,-19 182.5,-19 182.5,0 226.5,0 226.5,-19"/>
<text text-anchor="middle" x="204.5" y="-7" font-family="Helvetica,sans-Serif" font-size="10.00">string</text>
</a>
</g>
</g>
<!-- Node6&#45;&gt;Node7 -->
<g id="edge7" class="edge">
<title>Node6&#45;&gt;Node7</title>
<path fill="none" stroke="#63b8ff" d="M204.5,-54.75C204.5,-47.8 204.5,-37.85 204.5,-29.13"/>
<polygon fill="#63b8ff" stroke="#63b8ff" points="208,-29.09 204.5,-19.09 201,-29.09 208,-29.09"/>
</g>
</g>
</svg>
