<?xml version="1.0" encoding="UTF-8" standalone="no"?>
<!DOCTYPE svg PUBLIC "-//W3C//DTD SVG 1.1//EN"
 "http://www.w3.org/Graphics/SVG/1.1/DTD/svg11.dtd">
<!-- Generated by graphviz version 2.43.0 (0)
 -->
<!-- Title: src/main.cpp Pages: 1 -->
<svg width="241pt" height="192pt"
 viewBox="0.00 0.00 241.00 192.00" xmlns="http://www.w3.org/2000/svg" xmlns:xlink="http://www.w3.org/1999/xlink">
<g id="graph0" class="graph" transform="scale(1 1) rotate(0) translate(4 188)">
<title>src/main.cpp</title>
<!-- Node1 -->
<g id="node1" class="node">
<title>Node1</title>
<g id="a_node1"><a xlink:title=" ">
<polygon fill="#999999" stroke="#666666" points="79,-184 0,-184 0,-165 79,-165 79,-184"/>
<text text-anchor="middle" x="39.5" y="-172" font-family="Helvetica,sans-Serif" font-size="10.00">src/main.cpp</text>
</a>
</g>
</g>
<!-- Node2 -->
<g id="node2" class="node">
<title>Node2</title>
<g id="a_node2"><a xlink:title=" ">
<polygon fill="#e0e0e0" stroke="#999999" points="96.5,-19 36.5,-19 36.5,0 96.5,0 96.5,-19"/>
<text text-anchor="middle" x="66.5" y="-7" font-family="Helvetica,sans-Serif" font-size="10.00">iostream</text>
</a>
</g>
</g>
<!-- Node1&#45;&gt;Node2 -->
<g id="edge1" class="edge">
<title>Node1&#45;&gt;Node2</title>
<path fill="none" stroke="#63b8ff" d="M34.83,-164.78C24.71,-144.6 2.92,-93.52 19.5,-55 24.65,-43.03 34.79,-32.76 44.33,-25.12"/>
<polygon fill="#63b8ff" stroke="#63b8ff" points="46.49,-27.88 52.43,-19.11 42.31,-22.26 46.49,-27.88"/>
</g>
<!-- Node3 -->
<g id="node3" class="node">
<title>Node3</title>
<g id="a_node3"><a xlink:href="process__creator_8h.html" target="_top" xlink:title=" ">
<polygon fill="white" stroke="#666666" points="154.5,-129 52.5,-129 52.5,-110 154.5,-110 154.5,-129"/>
<text text-anchor="middle" x="103.5" y="-117" font-family="Helvetica,sans-Serif" font-size="10.00">process_creator.h</text>
</a>
</g>
</g>
<!-- Node1&#45;&gt;Node3 -->
<g id="edge2" class="edge">
<title>Node1&#45;&gt;Node3</title>
<path fill="none" stroke="#63b8ff" d="M49.78,-164.98C59.34,-157.07 73.78,-145.11 85.28,-135.58"/>
<polygon fill="#63b8ff" stroke="#63b8ff" points="87.56,-138.24 93.03,-129.17 83.1,-132.85 87.56,-138.24"/>
</g>
<!-- Node4 -->
<g id="node4" class="node">
<title>Node4</title>
<g id="a_node4"><a xlink:title=" ">
<polygon fill="#e0e0e0" stroke="#999999" points="86.5,-74 28.5,-74 28.5,-55 86.5,-55 86.5,-74"/>
<text text-anchor="middle" x="57.5" y="-62" font-family="Helvetica,sans-Serif" font-size="10.00">memory</text>
</a>
</g>
</g>
<!-- Node3&#45;&gt;Node4 -->
<g id="edge3" class="edge">
<title>Node3&#45;&gt;Node4</title>
<path fill="none" stroke="#63b8ff" d="M95.9,-109.75C89.34,-102.18 79.68,-91.05 71.69,-81.84"/>
<polygon fill="#63b8ff" stroke="#63b8ff" points="74.15,-79.35 64.95,-74.09 68.87,-83.94 74.15,-79.35"/>
</g>
<!-- Node5 -->
<g id="node5" class="node">
<title>Node5</title>
<g id="a_node5"><a xlink:title=" ">
<polygon fill="#e0e0e0" stroke="#999999" points="152,-74 105,-74 105,-55 152,-55 152,-74"/>
<text text-anchor="middle" x="128.5" y="-62" font-family="Helvetica,sans-Serif" font-size="10.00">vector</text>
</a>
</g>
</g>
<!-- Node3&#45;&gt;Node5 -->
<g id="edge4" class="edge">
<title>Node3&#45;&gt;Node5</title>
<path fill="none" stroke="#63b8ff" d="M107.63,-109.75C111.01,-102.57 115.92,-92.18 120.12,-83.27"/>
<polygon fill="#63b8ff" stroke="#63b8ff" points="123.35,-84.63 124.45,-74.09 117.02,-81.64 123.35,-84.63"/>
</g>
<!-- Node6 -->
<g id="node6" class="node">
<title>Node6</title>
<g id="a_node6"><a xlink:href="process_8h.html" target="_top" xlink:title=" ">
<polygon fill="white" stroke="#666666" points="233,-74 170,-74 170,-55 233,-55 233,-74"/>
<text text-anchor="middle" x="201.5" y="-62" font-family="Helvetica,sans-Serif" font-size="10.00">process.h</text>
</a>
</g>
</g>
<!-- Node3&#45;&gt;Node6 -->
<g id="edge5" class="edge">
<title>Node3&#45;&gt;Node6</title>
<path fill="none" stroke="#63b8ff" d="M119.25,-109.98C134.73,-101.61 158.59,-88.7 176.64,-78.95"/>
<polygon fill="#63b8ff" stroke="#63b8ff" points="178.34,-82.01 185.47,-74.17 175.01,-75.85 178.34,-82.01"/>
</g>
<!-- Node6&#45;&gt;Node2 -->
<g id="edge6" class="edge">
<title>Node6&#45;&gt;Node2</title>
<path fill="none" stroke="#63b8ff" d="M179.81,-54.98C157.7,-46.3 123.18,-32.75 98.05,-22.88"/>
<polygon fill="#63b8ff" stroke="#63b8ff" points="99.17,-19.57 88.58,-19.17 96.61,-26.08 99.17,-19.57"/>
</g>
<!-- Node7 -->
<g id="node7" class="node">
<title>Node7</title>
<g id="a_node7"><a xlink:title=" ">
<polygon fill="#e0e0e0" stroke="#999999" points="223.5,-19 179.5,-19 179.5,0 223.5,0 223.5,-19"/>
<text text-anchor="middle" x="201.5" y="-7" font-family="Helvetica,sans-Serif" font-size="10.00">string</text>
</a>
</g>
</g>
<!-- Node6&#45;&gt;Node7 -->
<g id="edge7" class="edge">
<title>Node6&#45;&gt;Node7</title>
<path fill="none" stroke="#63b8ff" d="M201.5,-54.75C201.5,-47.8 201.5,-37.85 201.5,-29.13"/>
<polygon fill="#63b8ff" stroke="#63b8ff" points="205,-29.09 201.5,-19.09 198,-29.09 205,-29.09"/>
</g>
</g>
</svg>
