<?xml version="1.0" encoding="UTF-8" standalone="no"?>
<!DOCTYPE svg PUBLIC "-//W3C//DTD SVG 1.1//EN"
 "http://www.w3.org/Graphics/SVG/1.1/DTD/svg11.dtd">
<!-- Generated by graphviz version 2.43.0 (0)
 -->
<!-- Title: src/main.cpp Pages: 1 -->
<svg width="403pt" height="192pt"
 viewBox="0.00 0.00 403.00 192.00" xmlns="http://www.w3.org/2000/svg" xmlns:xlink="http://www.w3.org/1999/xlink">
<g id="graph0" class="graph" transform="scale(1 1) rotate(0) translate(4 188)">
<title>src/main.cpp</title>
<!-- Node1 -->
<g id="node1" class="node">
<title>Node1</title>
<g id="a_node1"><a xlink:title=" ">
<polygon fill="#999999" stroke="#666666" points="161.5,-184 82.5,-184 82.5,-165 161.5,-165 161.5,-184"/>
<text text-anchor="middle" x="122" y="-172" font-family="Helvetica,sans-Serif" font-size="10.00">src/main.cpp</text>
</a>
</g>
</g>
<!-- Node2 -->
<g id="node2" class="node">
<title>Node2</title>
<g id="a_node2"><a xlink:title=" ">
<polygon fill="#e0e0e0" stroke="#999999" points="60,-19 0,-19 0,0 60,0 60,-19"/>
<text text-anchor="middle" x="30" y="-7" font-family="Helvetica,sans-Serif" font-size="10.00">iostream</text>
</a>
</g>
</g>
<!-- Node1&#45;&gt;Node2 -->
<g id="edge1" class="edge">
<title>Node1&#45;&gt;Node2</title>
<path fill="none" stroke="#63b8ff" d="M82.4,-168.81C57.38,-163.57 26.88,-152.47 11,-129 -9.83,-98.21 7.6,-52.78 20.08,-28.07"/>
<polygon fill="#63b8ff" stroke="#63b8ff" points="23.23,-29.6 24.85,-19.13 17.06,-26.31 23.23,-29.6"/>
</g>
<!-- Node3 -->
<g id="node3" class="node">
<title>Node3</title>
<g id="a_node3"><a xlink:href="process__creator_8hpp.html" target="_top" xlink:title=" ">
<polygon fill="white" stroke="#666666" points="238,-129 124,-129 124,-110 238,-110 238,-129"/>
<text text-anchor="middle" x="181" y="-117" font-family="Helvetica,sans-Serif" font-size="10.00">process_creator.hpp</text>
</a>
</g>
</g>
<!-- Node1&#45;&gt;Node3 -->
<g id="edge2" class="edge">
<title>Node1&#45;&gt;Node3</title>
<path fill="none" stroke="#63b8ff" d="M131.48,-164.98C140.2,-157.15 153.34,-145.34 163.9,-135.86"/>
<polygon fill="#63b8ff" stroke="#63b8ff" points="166.25,-138.46 171.35,-129.17 161.57,-133.25 166.25,-138.46"/>
</g>
<!-- Node8 -->
<g id="node8" class="node">
<title>Node8</title>
<g id="a_node8"><a xlink:href="scheduler_8hpp.html" target="_top" xlink:title=" ">
<polygon fill="white" stroke="#666666" points="340,-129 256,-129 256,-110 340,-110 340,-129"/>
<text text-anchor="middle" x="298" y="-117" font-family="Helvetica,sans-Serif" font-size="10.00">scheduler.hpp</text>
</a>
</g>
</g>
<!-- Node1&#45;&gt;Node8 -->
<g id="edge9" class="edge">
<title>Node1&#45;&gt;Node8</title>
<path fill="none" stroke="#63b8ff" d="M150.28,-164.98C179.95,-156.05 226.79,-141.94 259.75,-132.02"/>
<polygon fill="#63b8ff" stroke="#63b8ff" points="260.93,-135.32 269.5,-129.08 258.92,-128.61 260.93,-135.32"/>
</g>
<!-- Node10 -->
<g id="node10" class="node">
<title>Node10</title>
<g id="a_node10"><a xlink:href="min__heap_8hpp.html" target="_top" xlink:title=" ">
<polygon fill="white" stroke="#666666" points="106,-129 20,-129 20,-110 106,-110 106,-129"/>
<text text-anchor="middle" x="63" y="-117" font-family="Helvetica,sans-Serif" font-size="10.00">min_heap.hpp</text>
</a>
</g>
</g>
<!-- Node1&#45;&gt;Node10 -->
<g id="edge14" class="edge">
<title>Node1&#45;&gt;Node10</title>
<path fill="none" stroke="#63b8ff" d="M112.52,-164.98C103.8,-157.15 90.66,-145.34 80.1,-135.86"/>
<polygon fill="#63b8ff" stroke="#63b8ff" points="82.43,-133.25 72.65,-129.17 77.75,-138.46 82.43,-133.25"/>
</g>
<!-- Node4 -->
<g id="node4" class="node">
<title>Node4</title>
<g id="a_node4"><a xlink:title=" ">
<polygon fill="#e0e0e0" stroke="#999999" points="167,-19 109,-19 109,0 167,0 167,-19"/>
<text text-anchor="middle" x="138" y="-7" font-family="Helvetica,sans-Serif" font-size="10.00">memory</text>
</a>
</g>
</g>
<!-- Node3&#45;&gt;Node4 -->
<g id="edge3" class="edge">
<title>Node3&#45;&gt;Node4</title>
<path fill="none" stroke="#63b8ff" d="M163.54,-109.88C150.53,-102.38 133.72,-90.18 126,-74 119.14,-59.62 123.58,-41.65 128.9,-28.5"/>
<polygon fill="#63b8ff" stroke="#63b8ff" points="132.2,-29.7 133.16,-19.15 125.83,-26.8 132.2,-29.7"/>
</g>
<!-- Node5 -->
<g id="node5" class="node">
<title>Node5</title>
<g id="a_node5"><a xlink:title=" ">
<polygon fill="#e0e0e0" stroke="#999999" points="181.5,-74 134.5,-74 134.5,-55 181.5,-55 181.5,-74"/>
<text text-anchor="middle" x="158" y="-62" font-family="Helvetica,sans-Serif" font-size="10.00">vector</text>
</a>
</g>
</g>
<!-- Node3&#45;&gt;Node5 -->
<g id="edge4" class="edge">
<title>Node3&#45;&gt;Node5</title>
<path fill="none" stroke="#63b8ff" d="M177.2,-109.75C174.09,-102.57 169.58,-92.18 165.71,-83.27"/>
<polygon fill="#63b8ff" stroke="#63b8ff" points="168.92,-81.87 161.73,-74.09 162.5,-84.66 168.92,-81.87"/>
</g>
<!-- Node6 -->
<g id="node6" class="node">
<title>Node6</title>
<g id="a_node6"><a xlink:href="process_8hpp.html" target="_top" xlink:title=" ">
<polygon fill="white" stroke="#666666" points="274.5,-74 199.5,-74 199.5,-55 274.5,-55 274.5,-74"/>
<text text-anchor="middle" x="237" y="-62" font-family="Helvetica,sans-Serif" font-size="10.00">process.hpp</text>
</a>
</g>
</g>
<!-- Node3&#45;&gt;Node6 -->
<g id="edge5" class="edge">
<title>Node3&#45;&gt;Node6</title>
<path fill="none" stroke="#63b8ff" d="M190,-109.98C198.19,-102.23 210.51,-90.58 220.47,-81.14"/>
<polygon fill="#63b8ff" stroke="#63b8ff" points="222.98,-83.59 227.84,-74.17 218.17,-78.5 222.98,-83.59"/>
</g>
<!-- Node6&#45;&gt;Node2 -->
<g id="edge6" class="edge">
<title>Node6&#45;&gt;Node2</title>
<path fill="none" stroke="#63b8ff" d="M203.74,-54.98C167.34,-45.66 108.98,-30.72 70.08,-20.76"/>
<polygon fill="#63b8ff" stroke="#63b8ff" points="70.7,-17.31 60.15,-18.22 68.97,-24.09 70.7,-17.31"/>
</g>
<!-- Node6&#45;&gt;Node4 -->
<g id="edge8" class="edge">
<title>Node6&#45;&gt;Node4</title>
<path fill="none" stroke="#63b8ff" d="M221.09,-54.98C205.45,-46.61 181.34,-33.7 163.12,-23.95"/>
<polygon fill="#63b8ff" stroke="#63b8ff" points="164.66,-20.8 154.2,-19.17 161.36,-26.98 164.66,-20.8"/>
</g>
<!-- Node7 -->
<g id="node7" class="node">
<title>Node7</title>
<g id="a_node7"><a xlink:title=" ">
<polygon fill="#e0e0e0" stroke="#999999" points="259,-19 215,-19 215,0 259,0 259,-19"/>
<text text-anchor="middle" x="237" y="-7" font-family="Helvetica,sans-Serif" font-size="10.00">string</text>
</a>
</g>
</g>
<!-- Node6&#45;&gt;Node7 -->
<g id="edge7" class="edge">
<title>Node6&#45;&gt;Node7</title>
<path fill="none" stroke="#63b8ff" d="M237,-54.75C237,-47.8 237,-37.85 237,-29.13"/>
<polygon fill="#63b8ff" stroke="#63b8ff" points="240.5,-29.09 237,-19.09 233.5,-29.09 240.5,-29.09"/>
</g>
<!-- Node8&#45;&gt;Node4 -->
<g id="edge11" class="edge">
<title>Node8&#45;&gt;Node4</title>
<path fill="none" stroke="#63b8ff" d="M298.65,-109.88C299.16,-96.39 298.1,-70.26 284,-55 269.53,-39.35 215.59,-25.79 177.5,-17.88"/>
<polygon fill="#63b8ff" stroke="#63b8ff" points="177.72,-14.36 167.23,-15.8 176.33,-21.22 177.72,-14.36"/>
</g>
<!-- Node8&#45;&gt;Node5 -->
<g id="edge12" class="edge">
<title>Node8&#45;&gt;Node5</title>
<path fill="none" stroke="#63b8ff" d="M275.51,-109.98C252.48,-101.27 216.46,-87.63 190.37,-77.75"/>
<polygon fill="#63b8ff" stroke="#63b8ff" points="191.49,-74.44 180.9,-74.17 189.02,-80.98 191.49,-74.44"/>
</g>
<!-- Node8&#45;&gt;Node6 -->
<g id="edge10" class="edge">
<title>Node8&#45;&gt;Node6</title>
<path fill="none" stroke="#63b8ff" d="M288.2,-109.98C279.18,-102.15 265.59,-90.34 254.68,-80.86"/>
<polygon fill="#63b8ff" stroke="#63b8ff" points="256.82,-78.09 246.98,-74.17 252.23,-83.37 256.82,-78.09"/>
</g>
<!-- Node9 -->
<g id="node9" class="node">
<title>Node9</title>
<g id="a_node9"><a xlink:title=" ">
<polygon fill="#e0e0e0" stroke="#999999" points="395,-74 331,-74 331,-55 395,-55 395,-74"/>
<text text-anchor="middle" x="363" y="-62" font-family="Helvetica,sans-Serif" font-size="10.00">algorithm</text>
</a>
</g>
</g>
<!-- Node8&#45;&gt;Node9 -->
<g id="edge13" class="edge">
<title>Node8&#45;&gt;Node9</title>
<path fill="none" stroke="#63b8ff" d="M308.44,-109.98C318.15,-102.07 332.82,-90.11 344.5,-80.58"/>
<polygon fill="#63b8ff" stroke="#63b8ff" points="346.83,-83.2 352.37,-74.17 342.4,-77.78 346.83,-83.2"/>
</g>
<!-- Node10&#45;&gt;Node2 -->
<g id="edge17" class="edge">
<title>Node10&#45;&gt;Node2</title>
<path fill="none" stroke="#63b8ff" d="M60.3,-109.66C54.93,-92.09 42.82,-52.45 35.64,-28.95"/>
<polygon fill="#63b8ff" stroke="#63b8ff" points="38.92,-27.7 32.65,-19.16 32.22,-29.74 38.92,-27.7"/>
</g>
<!-- Node10&#45;&gt;Node4 -->
<g id="edge16" class="edge">
<title>Node10&#45;&gt;Node4</title>
<path fill="none" stroke="#63b8ff" d="M69.14,-109.66C81.62,-91.69 110.12,-50.64 126.28,-27.38"/>
<polygon fill="#63b8ff" stroke="#63b8ff" points="129.16,-29.37 131.99,-19.16 123.41,-25.38 129.16,-29.37"/>
</g>
<!-- Node10&#45;&gt;Node5 -->
<g id="edge15" class="edge">
<title>Node10&#45;&gt;Node5</title>
<path fill="none" stroke="#63b8ff" d="M78.26,-109.98C93.13,-101.69 115.98,-88.94 133.42,-79.22"/>
<polygon fill="#63b8ff" stroke="#63b8ff" points="135.43,-82.1 142.46,-74.17 132.02,-75.99 135.43,-82.1"/>
</g>
</g>
</svg>
