<?xml version="1.0" encoding="UTF-8" standalone="no"?>
<!DOCTYPE svg PUBLIC "-//W3C//DTD SVG 1.1//EN"
 "http://www.w3.org/Graphics/SVG/1.1/DTD/svg11.dtd">
<!-- Generated by graphviz version 2.43.0 (0)
 -->
<!-- Title: src/main.cpp Pages: 1 -->
<svg width="408pt" height="192pt"
 viewBox="0.00 0.00 408.42 192.00" xmlns="http://www.w3.org/2000/svg" xmlns:xlink="http://www.w3.org/1999/xlink">
<g id="graph0" class="graph" transform="scale(1 1) rotate(0) translate(4 188)">
<title>src/main.cpp</title>
<!-- Node1 -->
<g id="node1" class="node">
<title>Node1</title>
<g id="a_node1"><a xlink:title=" ">
<polygon fill="#999999" stroke="#666666" points="141.93,-184 62.93,-184 62.93,-165 141.93,-165 141.93,-184"/>
<text text-anchor="middle" x="102.43" y="-172" font-family="Helvetica,sans-Serif" font-size="10.00">src/main.cpp</text>
</a>
</g>
</g>
<!-- Node2 -->
<g id="node2" class="node">
<title>Node2</title>
<g id="a_node2"><a xlink:title=" ">
<polygon fill="#e0e0e0" stroke="#999999" points="84.43,-19 24.43,-19 24.43,0 84.43,0 84.43,-19"/>
<text text-anchor="middle" x="54.43" y="-7" font-family="Helvetica,sans-Serif" font-size="10.00">iostream</text>
</a>
</g>
</g>
<!-- Node1&#45;&gt;Node2 -->
<g id="edge1" class="edge">
<title>Node1&#45;&gt;Node2</title>
<path fill="none" stroke="#63b8ff" d="M87.31,-164.95C63.06,-150.17 16.77,-117.24 2.43,-74 -0.23,-65.99 -1.1,-62.67 2.43,-55 8.18,-42.52 19.34,-32.24 29.85,-24.71"/>
<polygon fill="#63b8ff" stroke="#63b8ff" points="32,-27.49 38.4,-19.05 28.13,-21.65 32,-27.49"/>
</g>
<!-- Node3 -->
<g id="node3" class="node">
<title>Node3</title>
<g id="a_node3"><a xlink:href="process__creator_8hpp.html" target="_top" xlink:title=" ">
<polygon fill="white" stroke="#666666" points="276.43,-129 162.43,-129 162.43,-110 276.43,-110 276.43,-129"/>
<text text-anchor="middle" x="219.43" y="-117" font-family="Helvetica,sans-Serif" font-size="10.00">process_creator.hpp</text>
</a>
</g>
</g>
<!-- Node1&#45;&gt;Node3 -->
<g id="edge2" class="edge">
<title>Node1&#45;&gt;Node3</title>
<path fill="none" stroke="#63b8ff" d="M121.23,-164.98C140.05,-156.46 169.25,-143.23 190.93,-133.41"/>
<polygon fill="#63b8ff" stroke="#63b8ff" points="192.63,-136.48 200.29,-129.17 189.74,-130.11 192.63,-136.48"/>
</g>
<!-- Node8 -->
<g id="node8" class="node">
<title>Node8</title>
<g id="a_node8"><a xlink:href="scheduler_8hpp.html" target="_top" xlink:title=" ">
<polygon fill="white" stroke="#666666" points="144.43,-129 60.43,-129 60.43,-110 144.43,-110 144.43,-129"/>
<text text-anchor="middle" x="102.43" y="-117" font-family="Helvetica,sans-Serif" font-size="10.00">scheduler.hpp</text>
</a>
</g>
</g>
<!-- Node1&#45;&gt;Node8 -->
<g id="edge9" class="edge">
<title>Node1&#45;&gt;Node8</title>
<path fill="none" stroke="#63b8ff" d="M102.43,-164.75C102.43,-157.8 102.43,-147.85 102.43,-139.13"/>
<polygon fill="#63b8ff" stroke="#63b8ff" points="105.93,-139.09 102.43,-129.09 98.93,-139.09 105.93,-139.09"/>
</g>
<!-- Node9 -->
<g id="node9" class="node">
<title>Node9</title>
<g id="a_node9"><a xlink:href="min__heap_8hpp.html" target="_top" xlink:title=" ">
<polygon fill="white" stroke="#666666" points="97.43,-74 11.43,-74 11.43,-55 97.43,-55 97.43,-74"/>
<text text-anchor="middle" x="54.43" y="-62" font-family="Helvetica,sans-Serif" font-size="10.00">min_heap.hpp</text>
</a>
</g>
</g>
<!-- Node1&#45;&gt;Node9 -->
<g id="edge15" class="edge">
<title>Node1&#45;&gt;Node9</title>
<path fill="none" stroke="#63b8ff" d="M86.7,-164.88C74.55,-157.23 58.63,-144.83 51.43,-129 45.01,-114.87 46.55,-97.1 49.24,-83.96"/>
<polygon fill="#63b8ff" stroke="#63b8ff" points="52.65,-84.73 51.62,-74.19 45.85,-83.07 52.65,-84.73"/>
</g>
<!-- Node10 -->
<g id="node10" class="node">
<title>Node10</title>
<g id="a_node10"><a xlink:href="simulator_8hpp.html" target="_top" xlink:title=" ">
<polygon fill="white" stroke="#666666" points="377.93,-129 294.93,-129 294.93,-110 377.93,-110 377.93,-129"/>
<text text-anchor="middle" x="336.43" y="-117" font-family="Helvetica,sans-Serif" font-size="10.00">simulator.hpp</text>
</a>
</g>
</g>
<!-- Node1&#45;&gt;Node10 -->
<g id="edge16" class="edge">
<title>Node1&#45;&gt;Node10</title>
<path fill="none" stroke="#63b8ff" d="M140.03,-164.98C180.42,-155.84 244.72,-141.27 288.66,-131.32"/>
<polygon fill="#63b8ff" stroke="#63b8ff" points="289.56,-134.7 298.54,-129.08 288.01,-127.88 289.56,-134.7"/>
</g>
<!-- Node4 -->
<g id="node4" class="node">
<title>Node4</title>
<g id="a_node4"><a xlink:title=" ">
<polygon fill="#e0e0e0" stroke="#999999" points="235.43,-19 177.43,-19 177.43,0 235.43,0 235.43,-19"/>
<text text-anchor="middle" x="206.43" y="-7" font-family="Helvetica,sans-Serif" font-size="10.00">memory</text>
</a>
</g>
</g>
<!-- Node3&#45;&gt;Node4 -->
<g id="edge3" class="edge">
<title>Node3&#45;&gt;Node4</title>
<path fill="none" stroke="#63b8ff" d="M218.37,-109.66C216.26,-92.17 211.52,-52.8 208.69,-29.27"/>
<polygon fill="#63b8ff" stroke="#63b8ff" points="212.14,-28.67 207.47,-19.16 205.19,-29.51 212.14,-28.67"/>
</g>
<!-- Node5 -->
<g id="node5" class="node">
<title>Node5</title>
<g id="a_node5"><a xlink:title=" ">
<polygon fill="#e0e0e0" stroke="#999999" points="300.93,-19 253.93,-19 253.93,0 300.93,0 300.93,-19"/>
<text text-anchor="middle" x="277.43" y="-7" font-family="Helvetica,sans-Serif" font-size="10.00">vector</text>
</a>
</g>
</g>
<!-- Node3&#45;&gt;Node5 -->
<g id="edge4" class="edge">
<title>Node3&#45;&gt;Node5</title>
<path fill="none" stroke="#63b8ff" d="M224.18,-109.66C233.74,-91.85 255.48,-51.37 268.03,-28.01"/>
<polygon fill="#63b8ff" stroke="#63b8ff" points="271.13,-29.62 272.78,-19.16 264.97,-26.31 271.13,-29.62"/>
</g>
<!-- Node6 -->
<g id="node6" class="node">
<title>Node6</title>
<g id="a_node6"><a xlink:href="process_8hpp.html" target="_top" xlink:title=" ">
<polygon fill="white" stroke="#666666" points="190.93,-74 115.93,-74 115.93,-55 190.93,-55 190.93,-74"/>
<text text-anchor="middle" x="153.43" y="-62" font-family="Helvetica,sans-Serif" font-size="10.00">process.hpp</text>
</a>
</g>
</g>
<!-- Node3&#45;&gt;Node6 -->
<g id="edge5" class="edge">
<title>Node3&#45;&gt;Node6</title>
<path fill="none" stroke="#63b8ff" d="M208.83,-109.98C198.97,-102.07 184.08,-90.11 172.22,-80.58"/>
<polygon fill="#63b8ff" stroke="#63b8ff" points="174.22,-77.7 164.23,-74.17 169.83,-83.16 174.22,-77.7"/>
</g>
<!-- Node6&#45;&gt;Node2 -->
<g id="edge6" class="edge">
<title>Node6&#45;&gt;Node2</title>
<path fill="none" stroke="#63b8ff" d="M137.52,-54.98C121.89,-46.61 97.78,-33.7 79.55,-23.95"/>
<polygon fill="#63b8ff" stroke="#63b8ff" points="81.09,-20.8 70.63,-19.17 77.79,-26.98 81.09,-20.8"/>
</g>
<!-- Node6&#45;&gt;Node4 -->
<g id="edge8" class="edge">
<title>Node6&#45;&gt;Node4</title>
<path fill="none" stroke="#63b8ff" d="M162.18,-54.75C169.9,-47.03 181.34,-35.6 190.65,-26.28"/>
<polygon fill="#63b8ff" stroke="#63b8ff" points="193.25,-28.64 197.84,-19.09 188.3,-23.69 193.25,-28.64"/>
</g>
<!-- Node7 -->
<g id="node7" class="node">
<title>Node7</title>
<g id="a_node7"><a xlink:title=" ">
<polygon fill="#e0e0e0" stroke="#999999" points="159.43,-19 115.43,-19 115.43,0 159.43,0 159.43,-19"/>
<text text-anchor="middle" x="137.43" y="-7" font-family="Helvetica,sans-Serif" font-size="10.00">string</text>
</a>
</g>
</g>
<!-- Node6&#45;&gt;Node7 -->
<g id="edge7" class="edge">
<title>Node6&#45;&gt;Node7</title>
<path fill="none" stroke="#63b8ff" d="M150.79,-54.75C148.67,-47.72 145.62,-37.62 142.97,-28.84"/>
<polygon fill="#63b8ff" stroke="#63b8ff" points="146.26,-27.65 140.02,-19.09 139.56,-29.67 146.26,-27.65"/>
</g>
<!-- Node8&#45;&gt;Node6 -->
<g id="edge10" class="edge">
<title>Node8&#45;&gt;Node6</title>
<path fill="none" stroke="#63b8ff" d="M110.85,-109.75C118.2,-102.11 129.06,-90.82 137.97,-81.56"/>
<polygon fill="#63b8ff" stroke="#63b8ff" points="140.75,-83.72 145.17,-74.09 135.71,-78.87 140.75,-83.72"/>
</g>
<!-- Node8&#45;&gt;Node9 -->
<g id="edge11" class="edge">
<title>Node8&#45;&gt;Node9</title>
<path fill="none" stroke="#63b8ff" d="M94.5,-109.75C87.58,-102.11 77.37,-90.82 68.98,-81.56"/>
<polygon fill="#63b8ff" stroke="#63b8ff" points="71.52,-79.15 62.21,-74.09 66.33,-83.85 71.52,-79.15"/>
</g>
<!-- Node9&#45;&gt;Node2 -->
<g id="edge14" class="edge">
<title>Node9&#45;&gt;Node2</title>
<path fill="none" stroke="#63b8ff" d="M54.43,-54.75C54.43,-47.8 54.43,-37.85 54.43,-29.13"/>
<polygon fill="#63b8ff" stroke="#63b8ff" points="57.93,-29.09 54.43,-19.09 50.93,-29.09 57.93,-29.09"/>
</g>
<!-- Node9&#45;&gt;Node4 -->
<g id="edge13" class="edge">
<title>Node9&#45;&gt;Node4</title>
<path fill="none" stroke="#63b8ff" d="M78.85,-54.98C104.15,-46.16 143.89,-32.31 172.29,-22.41"/>
<polygon fill="#63b8ff" stroke="#63b8ff" points="173.53,-25.68 181.82,-19.08 171.22,-19.07 173.53,-25.68"/>
</g>
<!-- Node9&#45;&gt;Node5 -->
<g id="edge12" class="edge">
<title>Node9&#45;&gt;Node5</title>
<path fill="none" stroke="#63b8ff" d="M91.98,-54.96C128.33,-46.64 185.23,-33.46 243.85,-19.1"/>
<polygon fill="#63b8ff" stroke="#63b8ff" points="244.78,-22.48 253.65,-16.69 243.11,-15.68 244.78,-22.48"/>
</g>
<!-- Node10&#45;&gt;Node4 -->
<g id="edge18" class="edge">
<title>Node10&#45;&gt;Node4</title>
<path fill="none" stroke="#63b8ff" d="M325.79,-109.66C303.59,-91.22 252.11,-48.45 224.57,-25.57"/>
<polygon fill="#63b8ff" stroke="#63b8ff" points="226.78,-22.86 216.85,-19.16 222.31,-28.24 226.78,-22.86"/>
</g>
<!-- Node10&#45;&gt;Node5 -->
<g id="edge19" class="edge">
<title>Node10&#45;&gt;Node5</title>
<path fill="none" stroke="#63b8ff" d="M355.58,-109.8C378.35,-98.23 411.47,-76.68 396.43,-55 377.37,-27.52 339.14,-16.98 311.14,-12.96"/>
<polygon fill="#63b8ff" stroke="#63b8ff" points="311.32,-9.45 300.97,-11.71 310.47,-16.4 311.32,-9.45"/>
</g>
<!-- Node10&#45;&gt;Node6 -->
<g id="edge17" class="edge">
<title>Node10&#45;&gt;Node6</title>
<path fill="none" stroke="#63b8ff" d="M307.03,-109.98C276.04,-101.01 227.06,-86.82 192.76,-76.89"/>
<polygon fill="#63b8ff" stroke="#63b8ff" points="193.64,-73.5 183.06,-74.08 191.69,-80.23 193.64,-73.5"/>
</g>
<!-- Node11 -->
<g id="node11" class="node">
<title>Node11</title>
<g id="a_node11"><a xlink:title=" ">
<polygon fill="#e0e0e0" stroke="#999999" points="387.43,-74 323.43,-74 323.43,-55 387.43,-55 387.43,-74"/>
<text text-anchor="middle" x="355.43" y="-62" font-family="Helvetica,sans-Serif" font-size="10.00">algorithm</text>
</a>
</g>
</g>
<!-- Node10&#45;&gt;Node11 -->
<g id="edge20" class="edge">
<title>Node10&#45;&gt;Node11</title>
<path fill="none" stroke="#63b8ff" d="M339.57,-109.75C342.11,-102.65 345.79,-92.4 348.96,-83.56"/>
<polygon fill="#63b8ff" stroke="#63b8ff" points="352.27,-84.68 352.35,-74.09 345.68,-82.32 352.27,-84.68"/>
</g>
</g>
</svg>
