<?xml version="1.0" encoding="UTF-8" standalone="no"?>
<!DOCTYPE svg PUBLIC "-//W3C//DTD SVG 1.1//EN"
 "http://www.w3.org/Graphics/SVG/1.1/DTD/svg11.dtd">
<!-- Generated by graphviz version 2.43.0 (0)
 -->
<!-- Title: src/main.cpp Pages: 1 -->
<svg width="324pt" height="302pt"
 viewBox="0.00 0.00 324.00 302.00" xmlns="http://www.w3.org/2000/svg" xmlns:xlink="http://www.w3.org/1999/xlink">
<g id="graph0" class="graph" transform="scale(1 1) rotate(0) translate(4 298)">
<title>src/main.cpp</title>
<!-- Node1 -->
<g id="node1" class="node">
<title>Node1</title>
<g id="a_node1"><a xlink:title=" ">
<polygon fill="#999999" stroke="#666666" points="183.5,-294 104.5,-294 104.5,-275 183.5,-275 183.5,-294"/>
<text text-anchor="middle" x="144" y="-282" font-family="Helvetica,sans-Serif" font-size="10.00">src/main.cpp</text>
</a>
</g>
</g>
<!-- Node2 -->
<g id="node2" class="node">
<title>Node2</title>
<g id="a_node2"><a xlink:href="process__creator_8hpp.html" target="_top" xlink:title=" ">
<polygon fill="white" stroke="#666666" points="200,-129 86,-129 86,-110 200,-110 200,-129"/>
<text text-anchor="middle" x="143" y="-117" font-family="Helvetica,sans-Serif" font-size="10.00">process_creator.hpp</text>
</a>
</g>
</g>
<!-- Node1&#45;&gt;Node2 -->
<g id="edge1" class="edge">
<title>Node1&#45;&gt;Node2</title>
<path fill="none" stroke="#63b8ff" d="M139.89,-274.88C135.94,-266.09 130.26,-251.94 128,-239 122.35,-206.6 122.68,-197.46 128,-165 129.47,-156.05 132.49,-146.47 135.44,-138.51"/>
<polygon fill="#63b8ff" stroke="#63b8ff" points="138.72,-139.74 139.14,-129.15 132.21,-137.16 138.72,-139.74"/>
</g>
<!-- Node8 -->
<g id="node8" class="node">
<title>Node8</title>
<g id="a_node8"><a xlink:href="simulator_8hpp.html" target="_top" xlink:title=" ">
<polygon fill="white" stroke="#666666" points="220.5,-239 137.5,-239 137.5,-220 220.5,-220 220.5,-239"/>
<text text-anchor="middle" x="179" y="-227" font-family="Helvetica,sans-Serif" font-size="10.00">simulator.hpp</text>
</a>
</g>
</g>
<!-- Node1&#45;&gt;Node8 -->
<g id="edge7" class="edge">
<title>Node1&#45;&gt;Node8</title>
<path fill="none" stroke="#63b8ff" d="M149.78,-274.75C154.62,-267.42 161.68,-256.73 167.64,-247.7"/>
<polygon fill="#63b8ff" stroke="#63b8ff" points="170.74,-249.36 173.33,-239.09 164.9,-245.5 170.74,-249.36"/>
</g>
<!-- Node3 -->
<g id="node3" class="node">
<title>Node3</title>
<g id="a_node3"><a xlink:title=" ">
<polygon fill="#e0e0e0" stroke="#999999" points="225.5,-74 178.5,-74 178.5,-55 225.5,-55 225.5,-74"/>
<text text-anchor="middle" x="202" y="-62" font-family="Helvetica,sans-Serif" font-size="10.00">vector</text>
</a>
</g>
</g>
<!-- Node2&#45;&gt;Node3 -->
<g id="edge2" class="edge">
<title>Node2&#45;&gt;Node3</title>
<path fill="none" stroke="#63b8ff" d="M152.48,-109.98C161.2,-102.15 174.34,-90.34 184.9,-80.86"/>
<polygon fill="#63b8ff" stroke="#63b8ff" points="187.25,-83.46 192.35,-74.17 182.57,-78.25 187.25,-83.46"/>
</g>
<!-- Node4 -->
<g id="node4" class="node">
<title>Node4</title>
<g id="a_node4"><a xlink:href="process_8hpp.html" target="_top" xlink:title=" ">
<polygon fill="white" stroke="#666666" points="160.5,-74 85.5,-74 85.5,-55 160.5,-55 160.5,-74"/>
<text text-anchor="middle" x="123" y="-62" font-family="Helvetica,sans-Serif" font-size="10.00">process.hpp</text>
</a>
</g>
</g>
<!-- Node2&#45;&gt;Node4 -->
<g id="edge3" class="edge">
<title>Node2&#45;&gt;Node4</title>
<path fill="none" stroke="#63b8ff" d="M139.7,-109.75C137.02,-102.65 133.15,-92.4 129.81,-83.56"/>
<polygon fill="#63b8ff" stroke="#63b8ff" points="133.05,-82.21 126.24,-74.09 126.5,-84.68 133.05,-82.21"/>
</g>
<!-- Node5 -->
<g id="node5" class="node">
<title>Node5</title>
<g id="a_node5"><a xlink:title=" ">
<polygon fill="#e0e0e0" stroke="#999999" points="316,-19 256,-19 256,0 316,0 316,-19"/>
<text text-anchor="middle" x="286" y="-7" font-family="Helvetica,sans-Serif" font-size="10.00">iostream</text>
</a>
</g>
</g>
<!-- Node4&#45;&gt;Node5 -->
<g id="edge4" class="edge">
<title>Node4&#45;&gt;Node5</title>
<path fill="none" stroke="#63b8ff" d="M149.19,-54.98C176.44,-46.13 219.3,-32.19 249.78,-22.28"/>
<polygon fill="#63b8ff" stroke="#63b8ff" points="251.18,-25.5 259.61,-19.08 249.01,-18.85 251.18,-25.5"/>
</g>
<!-- Node6 -->
<g id="node6" class="node">
<title>Node6</title>
<g id="a_node6"><a xlink:title=" ">
<polygon fill="#e0e0e0" stroke="#999999" points="145,-19 101,-19 101,0 145,0 145,-19"/>
<text text-anchor="middle" x="123" y="-7" font-family="Helvetica,sans-Serif" font-size="10.00">string</text>
</a>
</g>
</g>
<!-- Node4&#45;&gt;Node6 -->
<g id="edge5" class="edge">
<title>Node4&#45;&gt;Node6</title>
<path fill="none" stroke="#63b8ff" d="M123,-54.75C123,-47.8 123,-37.85 123,-29.13"/>
<polygon fill="#63b8ff" stroke="#63b8ff" points="126.5,-29.09 123,-19.09 119.5,-29.09 126.5,-29.09"/>
</g>
<!-- Node7 -->
<g id="node7" class="node">
<title>Node7</title>
<g id="a_node7"><a xlink:title=" ">
<polygon fill="#e0e0e0" stroke="#999999" points="232,-19 174,-19 174,0 232,0 232,-19"/>
<text text-anchor="middle" x="203" y="-7" font-family="Helvetica,sans-Serif" font-size="10.00">memory</text>
</a>
</g>
</g>
<!-- Node4&#45;&gt;Node7 -->
<g id="edge6" class="edge">
<title>Node4&#45;&gt;Node7</title>
<path fill="none" stroke="#63b8ff" d="M135.85,-54.98C148.14,-46.84 166.91,-34.41 181.48,-24.76"/>
<polygon fill="#63b8ff" stroke="#63b8ff" points="183.51,-27.61 189.91,-19.17 179.64,-21.78 183.51,-27.61"/>
</g>
<!-- Node9 -->
<g id="node9" class="node">
<title>Node9</title>
<g id="a_node9"><a xlink:href="scheduler_8hpp.html" target="_top" xlink:title=" ">
<polygon fill="white" stroke="#666666" points="303,-184 219,-184 219,-165 303,-165 303,-184"/>
<text text-anchor="middle" x="261" y="-172" font-family="Helvetica,sans-Serif" font-size="10.00">scheduler.hpp</text>
</a>
</g>
</g>
<!-- Node8&#45;&gt;Node9 -->
<g id="edge8" class="edge">
<title>Node8&#45;&gt;Node9</title>
<path fill="none" stroke="#63b8ff" d="M192.17,-219.98C204.77,-211.84 224,-199.41 238.94,-189.76"/>
<polygon fill="#63b8ff" stroke="#63b8ff" points="241.09,-192.54 247.59,-184.17 237.29,-186.66 241.09,-192.54"/>
</g>
<!-- Node13 -->
<g id="node13" class="node">
<title>Node13</title>
<g id="a_node13"><a xlink:title=" ">
<polygon fill="#e0e0e0" stroke="#999999" points="201,-184 137,-184 137,-165 201,-165 201,-184"/>
<text text-anchor="middle" x="169" y="-172" font-family="Helvetica,sans-Serif" font-size="10.00">algorithm</text>
</a>
</g>
</g>
<!-- Node8&#45;&gt;Node13 -->
<g id="edge16" class="edge">
<title>Node8&#45;&gt;Node13</title>
<path fill="none" stroke="#63b8ff" d="M177.35,-219.75C176.04,-212.8 174.16,-202.85 172.52,-194.13"/>
<polygon fill="#63b8ff" stroke="#63b8ff" points="175.91,-193.27 170.62,-184.09 169.04,-194.56 175.91,-193.27"/>
</g>
<!-- Node10 -->
<g id="node10" class="node">
<title>Node10</title>
<g id="a_node10"><a xlink:href="min__heap_8hpp.html" target="_top" xlink:title=" ">
<polygon fill="white" stroke="#666666" points="304,-129 218,-129 218,-110 304,-110 304,-129"/>
<text text-anchor="middle" x="261" y="-117" font-family="Helvetica,sans-Serif" font-size="10.00">min_heap.hpp</text>
</a>
</g>
</g>
<!-- Node9&#45;&gt;Node10 -->
<g id="edge9" class="edge">
<title>Node9&#45;&gt;Node10</title>
<path fill="none" stroke="#63b8ff" d="M261,-164.75C261,-157.8 261,-147.85 261,-139.13"/>
<polygon fill="#63b8ff" stroke="#63b8ff" points="264.5,-139.09 261,-129.09 257.5,-139.09 264.5,-139.09"/>
</g>
<!-- Node11 -->
<g id="node11" class="node">
<title>Node11</title>
<g id="a_node11"><a xlink:href="logger_8hpp.html" target="_top" xlink:title=" ">
<polygon fill="white" stroke="#666666" points="68,-129 0,-129 0,-110 68,-110 68,-129"/>
<text text-anchor="middle" x="34" y="-117" font-family="Helvetica,sans-Serif" font-size="10.00">logger.hpp</text>
</a>
</g>
</g>
<!-- Node9&#45;&gt;Node11 -->
<g id="edge13" class="edge">
<title>Node9&#45;&gt;Node11</title>
<path fill="none" stroke="#63b8ff" d="M224.53,-164.98C184.62,-155.67 120.64,-140.73 77.98,-130.77"/>
<polygon fill="#63b8ff" stroke="#63b8ff" points="78.69,-127.34 68.15,-128.47 77.1,-134.16 78.69,-127.34"/>
</g>
<!-- Node10&#45;&gt;Node3 -->
<g id="edge10" class="edge">
<title>Node10&#45;&gt;Node3</title>
<path fill="none" stroke="#63b8ff" d="M251.52,-109.98C242.8,-102.15 229.66,-90.34 219.1,-80.86"/>
<polygon fill="#63b8ff" stroke="#63b8ff" points="221.43,-78.25 211.65,-74.17 216.75,-83.46 221.43,-78.25"/>
</g>
<!-- Node10&#45;&gt;Node5 -->
<g id="edge12" class="edge">
<title>Node10&#45;&gt;Node5</title>
<path fill="none" stroke="#63b8ff" d="M263.05,-109.66C267.11,-92.09 276.29,-52.45 281.73,-28.95"/>
<polygon fill="#63b8ff" stroke="#63b8ff" points="285.15,-29.69 284,-19.16 278.33,-28.11 285.15,-29.69"/>
</g>
<!-- Node10&#45;&gt;Node7 -->
<g id="edge11" class="edge">
<title>Node10&#45;&gt;Node7</title>
<path fill="none" stroke="#63b8ff" d="M258.23,-109.99C254.03,-97.53 245.39,-73.76 235,-55 229.65,-45.34 222.57,-35.3 216.44,-27.2"/>
<polygon fill="#63b8ff" stroke="#63b8ff" points="219.18,-25.03 210.27,-19.29 213.66,-29.33 219.18,-25.03"/>
</g>
<!-- Node11&#45;&gt;Node4 -->
<g id="edge15" class="edge">
<title>Node11&#45;&gt;Node4</title>
<path fill="none" stroke="#63b8ff" d="M48.3,-109.98C62.1,-101.77 83.24,-89.18 99.51,-79.49"/>
<polygon fill="#63b8ff" stroke="#63b8ff" points="101.64,-82.29 108.44,-74.17 98.06,-76.28 101.64,-82.29"/>
</g>
<!-- Node12 -->
<g id="node12" class="node">
<title>Node12</title>
<g id="a_node12"><a xlink:title=" ">
<polygon fill="#e0e0e0" stroke="#999999" points="61.5,-74 6.5,-74 6.5,-55 61.5,-55 61.5,-74"/>
<text text-anchor="middle" x="34" y="-62" font-family="Helvetica,sans-Serif" font-size="10.00">fstream</text>
</a>
</g>
</g>
<!-- Node11&#45;&gt;Node12 -->
<g id="edge14" class="edge">
<title>Node11&#45;&gt;Node12</title>
<path fill="none" stroke="#63b8ff" d="M34,-109.75C34,-102.8 34,-92.85 34,-84.13"/>
<polygon fill="#63b8ff" stroke="#63b8ff" points="37.5,-84.09 34,-74.09 30.5,-84.09 37.5,-84.09"/>
</g>
</g>
</svg>
