<?xml version="1.0" encoding="UTF-8" standalone="no"?>
<!DOCTYPE svg PUBLIC "-//W3C//DTD SVG 1.1//EN"
 "http://www.w3.org/Graphics/SVG/1.1/DTD/svg11.dtd">
<!-- Generated by graphviz version 2.43.0 (0)
 -->
<!-- Title: src/main.cpp Pages: 1 -->
<svg width="388pt" height="302pt"
 viewBox="0.00 0.00 387.50 302.00" xmlns="http://www.w3.org/2000/svg" xmlns:xlink="http://www.w3.org/1999/xlink">
<g id="graph0" class="graph" transform="scale(1 1) rotate(0) translate(4 298)">
<title>src/main.cpp</title>
<!-- Node1 -->
<g id="Node000001" class="node">
<title>Node1</title>
<g id="a_Node000001"><a xlink:title="Execution starts here.">
<polygon fill="#999999" stroke="#666666" points="257,-294 178,-294 178,-275 257,-275 257,-294"/>
<text text-anchor="middle" x="217.5" y="-282" font-family="Helvetica,sans-Serif" font-size="10.00">src/main.cpp</text>
</a>
</g>
</g>
<!-- Node2 -->
<g id="Node000002" class="node">
<title>Node2</title>
<g id="a_Node000002"><a xlink:href="process__creator_8hpp.html" target="_top" xlink:title=" ">
<polygon fill="white" stroke="#666666" points="293.5,-129 179.5,-129 179.5,-110 293.5,-110 293.5,-129"/>
<text text-anchor="middle" x="236.5" y="-117" font-family="Helvetica,sans-Serif" font-size="10.00">process_creator.hpp</text>
</a>
</g>
</g>
<!-- Node1&#45;&gt;Node2 -->
<g id="edge1_Node000001_Node000002" class="edge">
<title>Node1&#45;&gt;Node2</title>
<g id="a_edge1_Node000001_Node000002"><a xlink:title=" ">
<path fill="none" stroke="#63b8ff" d="M221.26,-274.83C224.89,-266.01 230.17,-251.84 232.5,-239 238.79,-204.35 238.46,-163.08 237.55,-139.52"/>
<polygon fill="#63b8ff" stroke="#63b8ff" points="241.03,-139.04 237.06,-129.22 234.04,-139.37 241.03,-139.04"/>
</a>
</g>
</g>
<!-- Node8 -->
<g id="Node000008" class="node">
<title>Node8</title>
<g id="a_Node000008"><a xlink:href="simulator_8hpp.html" target="_top" xlink:title=" ">
<polygon fill="white" stroke="#666666" points="224,-239 141,-239 141,-220 224,-220 224,-239"/>
<text text-anchor="middle" x="182.5" y="-227" font-family="Helvetica,sans-Serif" font-size="10.00">simulator.hpp</text>
</a>
</g>
</g>
<!-- Node1&#45;&gt;Node8 -->
<g id="edge7_Node000001_Node000008" class="edge">
<title>Node1&#45;&gt;Node8</title>
<g id="a_edge7_Node000001_Node000008"><a xlink:title=" ">
<path fill="none" stroke="#63b8ff" d="M211.72,-274.75C206.88,-267.42 199.82,-256.73 193.86,-247.7"/>
<polygon fill="#63b8ff" stroke="#63b8ff" points="196.6,-245.5 188.17,-239.09 190.76,-249.36 196.6,-245.5"/>
</a>
</g>
</g>
<!-- Node3 -->
<g id="Node000003" class="node">
<title>Node3</title>
<g id="a_Node000003"><a xlink:title=" ">
<polygon fill="#e0e0e0" stroke="#999999" points="209,-74 162,-74 162,-55 209,-55 209,-74"/>
<text text-anchor="middle" x="185.5" y="-62" font-family="Helvetica,sans-Serif" font-size="10.00">vector</text>
</a>
</g>
</g>
<!-- Node2&#45;&gt;Node3 -->
<g id="edge2_Node000002_Node000003" class="edge">
<title>Node2&#45;&gt;Node3</title>
<g id="a_edge2_Node000002_Node000003"><a xlink:title=" ">
<path fill="none" stroke="#63b8ff" d="M228.08,-109.75C220.73,-102.11 209.87,-90.82 200.96,-81.56"/>
<polygon fill="#63b8ff" stroke="#63b8ff" points="203.22,-78.87 193.76,-74.09 198.18,-83.72 203.22,-78.87"/>
</a>
</g>
</g>
<!-- Node4 -->
<g id="Node000004" class="node">
<title>Node4</title>
<g id="a_Node000004"><a xlink:href="process_8hpp.html" target="_top" xlink:title=" ">
<polygon fill="white" stroke="#666666" points="302,-74 227,-74 227,-55 302,-55 302,-74"/>
<text text-anchor="middle" x="264.5" y="-62" font-family="Helvetica,sans-Serif" font-size="10.00">process.hpp</text>
</a>
</g>
</g>
<!-- Node2&#45;&gt;Node4 -->
<g id="edge3_Node000002_Node000004" class="edge">
<title>Node2&#45;&gt;Node4</title>
<g id="a_edge3_Node000002_Node000004"><a xlink:title=" ">
<path fill="none" stroke="#63b8ff" d="M241.12,-109.75C244.96,-102.49 250.52,-91.95 255.26,-82.98"/>
<polygon fill="#63b8ff" stroke="#63b8ff" points="258.39,-84.57 259.96,-74.09 252.2,-81.3 258.39,-84.57"/>
</a>
</g>
</g>
<!-- Node5 -->
<g id="Node000005" class="node">
<title>Node5</title>
<g id="a_Node000005"><a xlink:title=" ">
<polygon fill="#e0e0e0" stroke="#999999" points="105.5,-19 45.5,-19 45.5,0 105.5,0 105.5,-19"/>
<text text-anchor="middle" x="75.5" y="-7" font-family="Helvetica,sans-Serif" font-size="10.00">iostream</text>
</a>
</g>
</g>
<!-- Node4&#45;&gt;Node5 -->
<g id="edge4_Node000004_Node000005" class="edge">
<title>Node4&#45;&gt;Node5</title>
<g id="a_edge4_Node000004_Node000005"><a xlink:title=" ">
<path fill="none" stroke="#63b8ff" d="M234.13,-54.98C202.03,-45.98 151.24,-31.74 115.8,-21.8"/>
<polygon fill="#63b8ff" stroke="#63b8ff" points="116.36,-18.32 105.79,-18.99 114.47,-25.06 116.36,-18.32"/>
</a>
</g>
</g>
<!-- Node6 -->
<g id="Node000006" class="node">
<title>Node6</title>
<g id="a_Node000006"><a xlink:title=" ">
<polygon fill="#e0e0e0" stroke="#999999" points="286.5,-19 242.5,-19 242.5,0 286.5,0 286.5,-19"/>
<text text-anchor="middle" x="264.5" y="-7" font-family="Helvetica,sans-Serif" font-size="10.00">string</text>
</a>
</g>
</g>
<!-- Node4&#45;&gt;Node6 -->
<g id="edge5_Node000004_Node000006" class="edge">
<title>Node4&#45;&gt;Node6</title>
<g id="a_edge5_Node000004_Node000006"><a xlink:title=" ">
<path fill="none" stroke="#63b8ff" d="M264.5,-54.75C264.5,-47.8 264.5,-37.85 264.5,-29.13"/>
<polygon fill="#63b8ff" stroke="#63b8ff" points="268,-29.09 264.5,-19.09 261,-29.09 268,-29.09"/>
</a>
</g>
</g>
<!-- Node7 -->
<g id="Node000007" class="node">
<title>Node7</title>
<g id="a_Node000007"><a xlink:title=" ">
<polygon fill="#e0e0e0" stroke="#999999" points="181.5,-19 123.5,-19 123.5,0 181.5,0 181.5,-19"/>
<text text-anchor="middle" x="152.5" y="-7" font-family="Helvetica,sans-Serif" font-size="10.00">memory</text>
</a>
</g>
</g>
<!-- Node4&#45;&gt;Node7 -->
<g id="edge6_Node000004_Node000007" class="edge">
<title>Node4&#45;&gt;Node7</title>
<g id="a_edge6_Node000004_Node000007"><a xlink:title=" ">
<path fill="none" stroke="#63b8ff" d="M246.51,-54.98C228.57,-46.5 200.78,-33.35 180.07,-23.54"/>
<polygon fill="#63b8ff" stroke="#63b8ff" points="181.36,-20.28 170.82,-19.17 178.36,-26.61 181.36,-20.28"/>
</a>
</g>
</g>
<!-- Node9 -->
<g id="Node000009" class="node">
<title>Node9</title>
<g id="a_Node000009"><a xlink:href="scheduler_8hpp.html" target="_top" xlink:title=" ">
<polygon fill="white" stroke="#666666" points="142.5,-184 58.5,-184 58.5,-165 142.5,-165 142.5,-184"/>
<text text-anchor="middle" x="100.5" y="-172" font-family="Helvetica,sans-Serif" font-size="10.00">scheduler.hpp</text>
</a>
</g>
</g>
<!-- Node8&#45;&gt;Node9 -->
<g id="edge8_Node000008_Node000009" class="edge">
<title>Node8&#45;&gt;Node9</title>
<g id="a_edge8_Node000008_Node000009"><a xlink:title=" ">
<path fill="none" stroke="#63b8ff" d="M169.33,-219.98C156.73,-211.84 137.5,-199.41 122.56,-189.76"/>
<polygon fill="#63b8ff" stroke="#63b8ff" points="124.21,-186.66 113.91,-184.17 120.41,-192.54 124.21,-186.66"/>
</a>
</g>
</g>
<!-- Node14 -->
<g id="Node000014" class="node">
<title>Node14</title>
<g id="a_Node000014"><a xlink:title=" ">
<polygon fill="#e0e0e0" stroke="#999999" points="224.5,-184 160.5,-184 160.5,-165 224.5,-165 224.5,-184"/>
<text text-anchor="middle" x="192.5" y="-172" font-family="Helvetica,sans-Serif" font-size="10.00">algorithm</text>
</a>
</g>
</g>
<!-- Node8&#45;&gt;Node14 -->
<g id="edge19_Node000008_Node000014" class="edge">
<title>Node8&#45;&gt;Node14</title>
<g id="a_edge19_Node000008_Node000014"><a xlink:title=" ">
<path fill="none" stroke="#63b8ff" d="M184.15,-219.75C185.46,-212.8 187.34,-202.85 188.98,-194.13"/>
<polygon fill="#63b8ff" stroke="#63b8ff" points="192.46,-194.56 190.88,-184.09 185.59,-193.27 192.46,-194.56"/>
</a>
</g>
</g>
<!-- Node10 -->
<g id="Node000010" class="node">
<title>Node10</title>
<g id="a_Node000010"><a xlink:href="min__heap_8hpp.html" target="_top" xlink:title=" ">
<polygon fill="white" stroke="#666666" points="159.5,-129 73.5,-129 73.5,-110 159.5,-110 159.5,-129"/>
<text text-anchor="middle" x="116.5" y="-117" font-family="Helvetica,sans-Serif" font-size="10.00">min_heap.hpp</text>
</a>
</g>
</g>
<!-- Node9&#45;&gt;Node10 -->
<g id="edge9_Node000009_Node000010" class="edge">
<title>Node9&#45;&gt;Node10</title>
<g id="a_edge9_Node000009_Node000010"><a xlink:title=" ">
<path fill="none" stroke="#63b8ff" d="M103.14,-164.75C105.26,-157.72 108.31,-147.62 110.96,-138.84"/>
<polygon fill="#63b8ff" stroke="#63b8ff" points="114.37,-139.67 113.91,-129.09 107.67,-137.65 114.37,-139.67"/>
</a>
</g>
</g>
<!-- Node11 -->
<g id="Node000011" class="node">
<title>Node11</title>
<g id="a_Node000011"><a xlink:href="rbtree_8hpp.html" target="_top" xlink:title=" ">
<polygon fill="white" stroke="#666666" points="67,-74 0,-74 0,-55 67,-55 67,-74"/>
<text text-anchor="middle" x="33.5" y="-62" font-family="Helvetica,sans-Serif" font-size="10.00">rbtree.hpp</text>
</a>
</g>
</g>
<!-- Node9&#45;&gt;Node11 -->
<g id="edge13_Node000009_Node000011" class="edge">
<title>Node9&#45;&gt;Node11</title>
<g id="a_edge13_Node000009_Node000011"><a xlink:title=" ">
<path fill="none" stroke="#63b8ff" d="M92.42,-164.75C84.67,-156.09 72.94,-142.24 64.5,-129 55.14,-114.3 46.62,-96.37 40.9,-83.31"/>
<polygon fill="#63b8ff" stroke="#63b8ff" points="44.08,-81.86 36.94,-74.04 37.65,-84.61 44.08,-81.86"/>
</a>
</g>
</g>
<!-- Node12 -->
<g id="Node000012" class="node">
<title>Node12</title>
<g id="a_Node000012"><a xlink:href="logger_8hpp.html" target="_top" xlink:title=" ">
<polygon fill="white" stroke="#666666" points="379.5,-129 311.5,-129 311.5,-110 379.5,-110 379.5,-129"/>
<text text-anchor="middle" x="345.5" y="-117" font-family="Helvetica,sans-Serif" font-size="10.00">logger.hpp</text>
</a>
</g>
</g>
<!-- Node9&#45;&gt;Node12 -->
<g id="edge16_Node000009_Node000012" class="edge">
<title>Node9&#45;&gt;Node12</title>
<g id="a_edge16_Node000009_Node000012"><a xlink:title=" ">
<path fill="none" stroke="#63b8ff" d="M139.86,-164.98C184,-155.44 255.41,-139.99 301.4,-130.04"/>
<polygon fill="#63b8ff" stroke="#63b8ff" points="302.34,-133.42 311.37,-127.88 300.86,-126.58 302.34,-133.42"/>
</a>
</g>
</g>
<!-- Node10&#45;&gt;Node3 -->
<g id="edge10_Node000010_Node000003" class="edge">
<title>Node10&#45;&gt;Node3</title>
<g id="a_edge10_Node000010_Node000003"><a xlink:title=" ">
<path fill="none" stroke="#63b8ff" d="M127.59,-109.98C137.99,-102 153.76,-89.88 166.22,-80.31"/>
<polygon fill="#63b8ff" stroke="#63b8ff" points="168.41,-83.04 174.21,-74.17 164.15,-77.49 168.41,-83.04"/>
</a>
</g>
</g>
<!-- Node10&#45;&gt;Node5 -->
<g id="edge12_Node000010_Node000005" class="edge">
<title>Node10&#45;&gt;Node5</title>
<g id="a_edge12_Node000010_Node000005"><a xlink:title=" ">
<path fill="none" stroke="#63b8ff" d="M113.14,-109.66C106.44,-92.01 91.29,-52.09 82.38,-28.64"/>
<polygon fill="#63b8ff" stroke="#63b8ff" points="85.61,-27.27 78.79,-19.16 79.06,-29.75 85.61,-27.27"/>
</a>
</g>
</g>
<!-- Node10&#45;&gt;Node7 -->
<g id="edge11_Node000010_Node000007" class="edge">
<title>Node10&#45;&gt;Node7</title>
<g id="a_edge11_Node000010_Node000007"><a xlink:title=" ">
<path fill="none" stroke="#63b8ff" d="M119.45,-109.66C125.3,-92.09 138.52,-52.45 146.35,-28.95"/>
<polygon fill="#63b8ff" stroke="#63b8ff" points="149.77,-29.75 149.61,-19.16 143.13,-27.54 149.77,-29.75"/>
</a>
</g>
</g>
<!-- Node11&#45;&gt;Node5 -->
<g id="edge14_Node000011_Node000005" class="edge">
<title>Node11&#45;&gt;Node5</title>
<g id="a_edge14_Node000011_Node000005"><a xlink:title=" ">
<path fill="none" stroke="#63b8ff" d="M40.44,-54.75C46.37,-47.26 55.07,-36.28 62.32,-27.13"/>
<polygon fill="#63b8ff" stroke="#63b8ff" points="65.23,-29.1 68.69,-19.09 59.74,-24.75 65.23,-29.1"/>
</a>
</g>
</g>
<!-- Node11&#45;&gt;Node7 -->
<g id="edge15_Node000011_Node000007" class="edge">
<title>Node11&#45;&gt;Node7</title>
<g id="a_edge15_Node000011_Node000007"><a xlink:title=" ">
<path fill="none" stroke="#63b8ff" d="M52.62,-54.98C71.85,-46.42 101.73,-33.11 123.81,-23.28"/>
<polygon fill="#63b8ff" stroke="#63b8ff" points="125.32,-26.44 133.03,-19.17 122.47,-20.04 125.32,-26.44"/>
</a>
</g>
</g>
<!-- Node12&#45;&gt;Node4 -->
<g id="edge18_Node000012_Node000004" class="edge">
<title>Node12&#45;&gt;Node4</title>
<g id="a_edge18_Node000012_Node000004"><a xlink:title=" ">
<path fill="none" stroke="#63b8ff" d="M332.49,-109.98C320.04,-101.84 301.04,-89.41 286.29,-79.76"/>
<polygon fill="#63b8ff" stroke="#63b8ff" points="288.04,-76.72 277.75,-74.17 284.2,-82.57 288.04,-76.72"/>
</a>
</g>
</g>
<!-- Node13 -->
<g id="Node000013" class="node">
<title>Node13</title>
<g id="a_Node000013"><a xlink:title=" ">
<polygon fill="#e0e0e0" stroke="#999999" points="375,-74 320,-74 320,-55 375,-55 375,-74"/>
<text text-anchor="middle" x="347.5" y="-62" font-family="Helvetica,sans-Serif" font-size="10.00">fstream</text>
</a>
</g>
</g>
<!-- Node12&#45;&gt;Node13 -->
<g id="edge17_Node000012_Node000013" class="edge">
<title>Node12&#45;&gt;Node13</title>
<g id="a_edge17_Node000012_Node000013"><a xlink:title=" ">
<path fill="none" stroke="#63b8ff" d="M345.83,-109.75C346.09,-102.8 346.47,-92.85 346.8,-84.13"/>
<polygon fill="#63b8ff" stroke="#63b8ff" points="350.3,-84.21 347.18,-74.09 343.3,-83.95 350.3,-84.21"/>
</a>
</g>
</g>
</g>
</svg>
