<?xml version="1.0" encoding="UTF-8" standalone="no"?>
<!DOCTYPE svg PUBLIC "-//W3C//DTD SVG 1.1//EN"
 "http://www.w3.org/Graphics/SVG/1.1/DTD/svg11.dtd">
<!-- Generated by graphviz version 2.43.0 (0)
 -->
<!-- Title: src/main.cpp Pages: 1 -->
<svg width="519pt" height="302pt"
 viewBox="0.00 0.00 518.94 302.00" xmlns="http://www.w3.org/2000/svg" xmlns:xlink="http://www.w3.org/1999/xlink">
<g id="graph0" class="graph" transform="scale(1 1) rotate(0) translate(4 298)">
<title>src/main.cpp</title>
<!-- Node1 -->
<g id="node1" class="node">
<title>Node1</title>
<g id="a_node1"><a xlink:title=" ">
<polygon fill="#999999" stroke="#666666" points="255.44,-294 176.44,-294 176.44,-275 255.44,-275 255.44,-294"/>
<text text-anchor="middle" x="215.94" y="-282" font-family="Helvetica,sans-Serif" font-size="10.00">src/main.cpp</text>
</a>
</g>
</g>
<!-- Node2 -->
<g id="node2" class="node">
<title>Node2</title>
<g id="a_node2"><a xlink:title=" ">
<polygon fill="#e0e0e0" stroke="#999999" points="351.94,-19 291.94,-19 291.94,0 351.94,0 351.94,-19"/>
<text text-anchor="middle" x="321.94" y="-7" font-family="Helvetica,sans-Serif" font-size="10.00">iostream</text>
</a>
</g>
</g>
<!-- Node1&#45;&gt;Node2 -->
<g id="edge1" class="edge">
<title>Node1&#45;&gt;Node2</title>
<path fill="none" stroke="#63b8ff" d="M255.72,-277.5C336.24,-264.22 510.94,-229.22 510.94,-175.5 510.94,-175.5 510.94,-175.5 510.94,-118.5 510.94,-50.55 417.7,-24.77 362.2,-15.45"/>
<polygon fill="#63b8ff" stroke="#63b8ff" points="362.72,-11.99 352.3,-13.89 361.64,-18.9 362.72,-11.99"/>
</g>
<!-- Node3 -->
<g id="node3" class="node">
<title>Node3</title>
<g id="a_node3"><a xlink:href="process__creator_8hpp.html" target="_top" xlink:title=" ">
<polygon fill="white" stroke="#666666" points="129.94,-129 15.94,-129 15.94,-110 129.94,-110 129.94,-129"/>
<text text-anchor="middle" x="72.94" y="-117" font-family="Helvetica,sans-Serif" font-size="10.00">process_creator.hpp</text>
</a>
</g>
</g>
<!-- Node1&#45;&gt;Node3 -->
<g id="edge2" class="edge">
<title>Node1&#45;&gt;Node3</title>
<path fill="none" stroke="#63b8ff" d="M203.13,-274.82C191.23,-266.43 173.37,-252.96 159.94,-239 128.51,-206.35 98.83,-162 83.59,-137.87"/>
<polygon fill="#63b8ff" stroke="#63b8ff" points="86.4,-135.77 78.14,-129.14 80.46,-139.47 86.4,-135.77"/>
</g>
<!-- Node8 -->
<g id="node8" class="node">
<title>Node8</title>
<g id="a_node8"><a xlink:href="scheduler_8hpp.html" target="_top" xlink:title=" ">
<polygon fill="white" stroke="#666666" points="389.94,-184 305.94,-184 305.94,-165 389.94,-165 389.94,-184"/>
<text text-anchor="middle" x="347.94" y="-172" font-family="Helvetica,sans-Serif" font-size="10.00">scheduler.hpp</text>
</a>
</g>
</g>
<!-- Node1&#45;&gt;Node8 -->
<g id="edge9" class="edge">
<title>Node1&#45;&gt;Node8</title>
<path fill="none" stroke="#63b8ff" d="M226.74,-274.66C249.28,-256.22 301.56,-213.45 329.52,-190.57"/>
<polygon fill="#63b8ff" stroke="#63b8ff" points="331.83,-193.2 337.35,-184.16 327.4,-187.78 331.83,-193.2"/>
</g>
<!-- Node9 -->
<g id="node9" class="node">
<title>Node9</title>
<g id="a_node9"><a xlink:href="min__heap_8hpp.html" target="_top" xlink:title=" ">
<polygon fill="white" stroke="#666666" points="271.94,-129 185.94,-129 185.94,-110 271.94,-110 271.94,-129"/>
<text text-anchor="middle" x="228.94" y="-117" font-family="Helvetica,sans-Serif" font-size="10.00">min_heap.hpp</text>
</a>
</g>
</g>
<!-- Node1&#45;&gt;Node9 -->
<g id="edge20" class="edge">
<title>Node1&#45;&gt;Node9</title>
<path fill="none" stroke="#63b8ff" d="M200.51,-274.8C188.59,-267.11 172.98,-254.69 165.94,-239 162.48,-231.3 164.75,-228.36 165.94,-220 169.53,-194.8 168.68,-186.73 181.94,-165 188.91,-153.58 199.57,-143.15 208.97,-135.26"/>
<polygon fill="#63b8ff" stroke="#63b8ff" points="211.16,-138 216.79,-129.03 206.79,-132.53 211.16,-138"/>
</g>
<!-- Node12 -->
<g id="node12" class="node">
<title>Node12</title>
<g id="a_node12"><a xlink:href="simulator_8hpp.html" target="_top" xlink:title=" ">
<polygon fill="white" stroke="#666666" points="257.44,-239 174.44,-239 174.44,-220 257.44,-220 257.44,-239"/>
<text text-anchor="middle" x="215.94" y="-227" font-family="Helvetica,sans-Serif" font-size="10.00">simulator.hpp</text>
</a>
</g>
</g>
<!-- Node1&#45;&gt;Node12 -->
<g id="edge21" class="edge">
<title>Node1&#45;&gt;Node12</title>
<path fill="none" stroke="#63b8ff" d="M215.94,-274.75C215.94,-267.8 215.94,-257.85 215.94,-249.13"/>
<polygon fill="#63b8ff" stroke="#63b8ff" points="219.44,-249.09 215.94,-239.09 212.44,-249.09 219.44,-249.09"/>
</g>
<!-- Node4 -->
<g id="node4" class="node">
<title>Node4</title>
<g id="a_node4"><a xlink:title=" ">
<polygon fill="#e0e0e0" stroke="#999999" points="164.94,-19 106.94,-19 106.94,0 164.94,0 164.94,-19"/>
<text text-anchor="middle" x="135.94" y="-7" font-family="Helvetica,sans-Serif" font-size="10.00">memory</text>
</a>
</g>
</g>
<!-- Node3&#45;&gt;Node4 -->
<g id="edge3" class="edge">
<title>Node3&#45;&gt;Node4</title>
<path fill="none" stroke="#63b8ff" d="M77.11,-109.7C83.1,-97.28 94.64,-74.01 105.94,-55 111.47,-45.69 118.16,-35.66 123.82,-27.48"/>
<polygon fill="#63b8ff" stroke="#63b8ff" points="126.77,-29.37 129.66,-19.17 121.05,-25.35 126.77,-29.37"/>
</g>
<!-- Node5 -->
<g id="node5" class="node">
<title>Node5</title>
<g id="a_node5"><a xlink:title=" ">
<polygon fill="#e0e0e0" stroke="#999999" points="162.44,-74 115.44,-74 115.44,-55 162.44,-55 162.44,-74"/>
<text text-anchor="middle" x="138.94" y="-62" font-family="Helvetica,sans-Serif" font-size="10.00">vector</text>
</a>
</g>
</g>
<!-- Node3&#45;&gt;Node5 -->
<g id="edge4" class="edge">
<title>Node3&#45;&gt;Node5</title>
<path fill="none" stroke="#63b8ff" d="M83.54,-109.98C93.39,-102.07 108.29,-90.11 120.15,-80.58"/>
<polygon fill="#63b8ff" stroke="#63b8ff" points="122.53,-83.16 128.14,-74.17 118.15,-77.7 122.53,-83.16"/>
</g>
<!-- Node6 -->
<g id="node6" class="node">
<title>Node6</title>
<g id="a_node6"><a xlink:href="process_8hpp.html" target="_top" xlink:title=" ">
<polygon fill="white" stroke="#666666" points="332.44,-74 257.44,-74 257.44,-55 332.44,-55 332.44,-74"/>
<text text-anchor="middle" x="294.94" y="-62" font-family="Helvetica,sans-Serif" font-size="10.00">process.hpp</text>
</a>
</g>
</g>
<!-- Node3&#45;&gt;Node6 -->
<g id="edge5" class="edge">
<title>Node3&#45;&gt;Node6</title>
<path fill="none" stroke="#63b8ff" d="M108.6,-109.98C146.76,-100.87 207.41,-86.4 249.09,-76.45"/>
<polygon fill="#63b8ff" stroke="#63b8ff" points="250.07,-79.81 258.99,-74.08 248.45,-73 250.07,-79.81"/>
</g>
<!-- Node6&#45;&gt;Node2 -->
<g id="edge6" class="edge">
<title>Node6&#45;&gt;Node2</title>
<path fill="none" stroke="#63b8ff" d="M299.39,-54.75C303.05,-47.57 308.35,-37.18 312.88,-28.27"/>
<polygon fill="#63b8ff" stroke="#63b8ff" points="316.14,-29.59 317.56,-19.09 309.9,-26.41 316.14,-29.59"/>
</g>
<!-- Node6&#45;&gt;Node4 -->
<g id="edge8" class="edge">
<title>Node6&#45;&gt;Node4</title>
<path fill="none" stroke="#63b8ff" d="M269.39,-54.98C242.81,-46.13 201,-32.19 171.26,-22.28"/>
<polygon fill="#63b8ff" stroke="#63b8ff" points="172.28,-18.92 161.68,-19.08 170.06,-25.56 172.28,-18.92"/>
</g>
<!-- Node7 -->
<g id="node7" class="node">
<title>Node7</title>
<g id="a_node7"><a xlink:title=" ">
<polygon fill="#e0e0e0" stroke="#999999" points="467.94,-19 423.94,-19 423.94,0 467.94,0 467.94,-19"/>
<text text-anchor="middle" x="445.94" y="-7" font-family="Helvetica,sans-Serif" font-size="10.00">string</text>
</a>
</g>
</g>
<!-- Node6&#45;&gt;Node7 -->
<g id="edge7" class="edge">
<title>Node6&#45;&gt;Node7</title>
<path fill="none" stroke="#63b8ff" d="M319.2,-54.98C345,-45.93 385.92,-31.56 414.25,-21.62"/>
<polygon fill="#63b8ff" stroke="#63b8ff" points="415.43,-24.92 423.7,-18.3 413.11,-18.31 415.43,-24.92"/>
</g>
<!-- Node8&#45;&gt;Node6 -->
<g id="edge10" class="edge">
<title>Node8&#45;&gt;Node6</title>
<path fill="none" stroke="#63b8ff" d="M343.6,-164.66C334.9,-146.93 315.17,-106.73 303.68,-83.32"/>
<polygon fill="#63b8ff" stroke="#63b8ff" points="306.73,-81.59 299.19,-74.16 300.45,-84.68 306.73,-81.59"/>
</g>
<!-- Node8&#45;&gt;Node9 -->
<g id="edge11" class="edge">
<title>Node8&#45;&gt;Node9</title>
<path fill="none" stroke="#63b8ff" d="M328.82,-164.98C309.59,-156.42 279.7,-143.11 257.63,-133.28"/>
<polygon fill="#63b8ff" stroke="#63b8ff" points="258.96,-130.04 248.4,-129.17 256.11,-136.44 258.96,-130.04"/>
</g>
<!-- Node10 -->
<g id="node10" class="node">
<title>Node10</title>
<g id="a_node10"><a xlink:href="logger_8hpp.html" target="_top" xlink:title=" ">
<polygon fill="white" stroke="#666666" points="444.94,-129 376.94,-129 376.94,-110 444.94,-110 444.94,-129"/>
<text text-anchor="middle" x="410.94" y="-117" font-family="Helvetica,sans-Serif" font-size="10.00">logger.hpp</text>
</a>
</g>
</g>
<!-- Node8&#45;&gt;Node10 -->
<g id="edge15" class="edge">
<title>Node8&#45;&gt;Node10</title>
<path fill="none" stroke="#63b8ff" d="M358.06,-164.98C367.37,-157.15 381.4,-145.34 392.67,-135.86"/>
<polygon fill="#63b8ff" stroke="#63b8ff" points="395.23,-138.29 400.63,-129.17 390.72,-132.93 395.23,-138.29"/>
</g>
<!-- Node9&#45;&gt;Node2 -->
<g id="edge14" class="edge">
<title>Node9&#45;&gt;Node2</title>
<path fill="none" stroke="#63b8ff" d="M229.73,-109.8C231.33,-96.67 235.97,-71.56 248.94,-55 259.67,-41.29 275.89,-30.8 290.32,-23.46"/>
<polygon fill="#63b8ff" stroke="#63b8ff" points="291.96,-26.56 299.47,-19.09 288.94,-20.24 291.96,-26.56"/>
</g>
<!-- Node9&#45;&gt;Node4 -->
<g id="edge13" class="edge">
<title>Node9&#45;&gt;Node4</title>
<path fill="none" stroke="#63b8ff" d="M221.33,-109.66C205.72,-91.54 169.88,-49.91 149.95,-26.77"/>
<polygon fill="#63b8ff" stroke="#63b8ff" points="152.57,-24.45 143.39,-19.16 147.27,-29.02 152.57,-24.45"/>
</g>
<!-- Node9&#45;&gt;Node5 -->
<g id="edge12" class="edge">
<title>Node9&#45;&gt;Node5</title>
<path fill="none" stroke="#63b8ff" d="M214.48,-109.98C200.52,-101.77 179.14,-89.18 162.69,-79.49"/>
<polygon fill="#63b8ff" stroke="#63b8ff" points="164.05,-76.23 153.66,-74.17 160.5,-82.26 164.05,-76.23"/>
</g>
<!-- Node10&#45;&gt;Node2 -->
<g id="edge16" class="edge">
<title>Node10&#45;&gt;Node2</title>
<path fill="none" stroke="#63b8ff" d="M403.65,-109.66C388.78,-91.61 354.72,-50.28 335.6,-27.08"/>
<polygon fill="#63b8ff" stroke="#63b8ff" points="338.13,-24.65 329.07,-19.16 332.73,-29.1 338.13,-24.65"/>
</g>
<!-- Node10&#45;&gt;Node6 -->
<g id="edge19" class="edge">
<title>Node10&#45;&gt;Node6</title>
<path fill="none" stroke="#63b8ff" d="M392.3,-109.98C373.64,-101.46 344.68,-88.23 323.2,-78.41"/>
<polygon fill="#63b8ff" stroke="#63b8ff" points="324.46,-75.14 313.91,-74.17 321.55,-81.51 324.46,-75.14"/>
</g>
<!-- Node10&#45;&gt;Node7 -->
<g id="edge18" class="edge">
<title>Node10&#45;&gt;Node7</title>
<path fill="none" stroke="#63b8ff" d="M423.43,-109.93C433.81,-101.99 447.82,-89.14 453.94,-74 459.79,-59.51 456.8,-41.78 452.91,-28.74"/>
<polygon fill="#63b8ff" stroke="#63b8ff" points="456.16,-27.4 449.61,-19.06 449.53,-29.66 456.16,-27.4"/>
</g>
<!-- Node11 -->
<g id="node11" class="node">
<title>Node11</title>
<g id="a_node11"><a xlink:title=" ">
<polygon fill="#e0e0e0" stroke="#999999" points="444.44,-74 389.44,-74 389.44,-55 444.44,-55 444.44,-74"/>
<text text-anchor="middle" x="416.94" y="-62" font-family="Helvetica,sans-Serif" font-size="10.00">fstream</text>
</a>
</g>
</g>
<!-- Node10&#45;&gt;Node11 -->
<g id="edge17" class="edge">
<title>Node10&#45;&gt;Node11</title>
<path fill="none" stroke="#63b8ff" d="M411.93,-109.75C412.71,-102.8 413.84,-92.85 414.83,-84.13"/>
<polygon fill="#63b8ff" stroke="#63b8ff" points="418.32,-84.42 415.96,-74.09 411.36,-83.63 418.32,-84.42"/>
</g>
<!-- Node12&#45;&gt;Node4 -->
<g id="edge25" class="edge">
<title>Node12&#45;&gt;Node4</title>
<path fill="none" stroke="#63b8ff" d="M174.25,-222.09C124.55,-211.98 43.63,-187.1 6.94,-129 -22.61,-82.21 55.02,-42.07 102.4,-22.76"/>
<polygon fill="#63b8ff" stroke="#63b8ff" points="103.7,-26.01 111.71,-19.07 101.12,-19.5 103.7,-26.01"/>
</g>
<!-- Node12&#45;&gt;Node5 -->
<g id="edge26" class="edge">
<title>Node12&#45;&gt;Node5</title>
<path fill="none" stroke="#63b8ff" d="M208.04,-219.86C200.53,-211.27 189.3,-197.48 181.94,-184 163.72,-150.68 150.44,-108.09 143.78,-84.1"/>
<polygon fill="#63b8ff" stroke="#63b8ff" points="147.1,-82.96 141.12,-74.21 140.34,-84.78 147.1,-82.96"/>
</g>
<!-- Node12&#45;&gt;Node6 -->
<g id="edge22" class="edge">
<title>Node12&#45;&gt;Node6</title>
<path fill="none" stroke="#63b8ff" d="M213.17,-219.98C209.52,-207.07 204.69,-182.26 214.94,-165 231.99,-136.27 260.87,-155.72 280.94,-129 290.58,-116.17 293.83,-98 294.81,-84.38"/>
<polygon fill="#63b8ff" stroke="#63b8ff" points="298.32,-84.36 295.2,-74.23 291.32,-84.09 298.32,-84.36"/>
</g>
<!-- Node12&#45;&gt;Node8 -->
<g id="edge24" class="edge">
<title>Node12&#45;&gt;Node8</title>
<path fill="none" stroke="#63b8ff" d="M237.14,-219.98C258.67,-211.34 292.22,-197.87 316.76,-188.02"/>
<polygon fill="#63b8ff" stroke="#63b8ff" points="318.37,-191.14 326.34,-184.17 315.76,-184.65 318.37,-191.14"/>
</g>
<!-- Node12&#45;&gt;Node10 -->
<g id="edge23" class="edge">
<title>Node12&#45;&gt;Node10</title>
<path fill="none" stroke="#63b8ff" d="M257.54,-223.63C305.38,-217.16 379.8,-204.15 398.94,-184 410.15,-172.19 412.51,-153.35 412.44,-139.25"/>
<polygon fill="#63b8ff" stroke="#63b8ff" points="415.94,-139.03 412,-129.19 408.94,-139.34 415.94,-139.03"/>
</g>
<!-- Node13 -->
<g id="node13" class="node">
<title>Node13</title>
<g id="a_node13"><a xlink:title=" ">
<polygon fill="#e0e0e0" stroke="#999999" points="287.94,-184 223.94,-184 223.94,-165 287.94,-165 287.94,-184"/>
<text text-anchor="middle" x="255.94" y="-172" font-family="Helvetica,sans-Serif" font-size="10.00">algorithm</text>
</a>
</g>
</g>
<!-- Node12&#45;&gt;Node13 -->
<g id="edge27" class="edge">
<title>Node12&#45;&gt;Node13</title>
<path fill="none" stroke="#63b8ff" d="M222.54,-219.75C228.19,-212.26 236.48,-201.28 243.39,-192.13"/>
<polygon fill="#63b8ff" stroke="#63b8ff" points="246.22,-194.18 249.45,-184.09 240.64,-189.96 246.22,-194.18"/>
</g>
</g>
</svg>
