<?xml version="1.0" encoding="UTF-8" standalone="no"?>
<!DOCTYPE svg PUBLIC "-//W3C//DTD SVG 1.1//EN"
 "http://www.w3.org/Graphics/SVG/1.1/DTD/svg11.dtd">
<!-- Generated by graphviz version 2.43.0 (0)
 -->
<!-- Title: src/main.cpp Pages: 1 -->
<svg width="537pt" height="247pt"
 viewBox="0.00 0.00 537.39 247.00" xmlns="http://www.w3.org/2000/svg" xmlns:xlink="http://www.w3.org/1999/xlink">
<g id="graph0" class="graph" transform="scale(1 1) rotate(0) translate(4 243)">
<title>src/main.cpp</title>
<!-- Node1 -->
<g id="node1" class="node">
<title>Node1</title>
<g id="a_node1"><a xlink:title=" ">
<polygon fill="#999999" stroke="#666666" points="254.46,-239 175.46,-239 175.46,-220 254.46,-220 254.46,-239"/>
<text text-anchor="middle" x="214.96" y="-227" font-family="Helvetica,sans-Serif" font-size="10.00">src/main.cpp</text>
</a>
</g>
</g>
<!-- Node2 -->
<g id="node2" class="node">
<title>Node2</title>
<g id="a_node2"><a xlink:title=" ">
<polygon fill="#e0e0e0" stroke="#999999" points="168.96,-19 108.96,-19 108.96,0 168.96,0 168.96,-19"/>
<text text-anchor="middle" x="138.96" y="-7" font-family="Helvetica,sans-Serif" font-size="10.00">iostream</text>
</a>
</g>
</g>
<!-- Node1&#45;&gt;Node2 -->
<g id="edge1" class="edge">
<title>Node1&#45;&gt;Node2</title>
<path fill="none" stroke="#63b8ff" d="M175.19,-222.38C125.89,-212.43 43.88,-187.59 6.96,-129 -22.84,-81.71 55.96,-41.91 104.35,-22.75"/>
<polygon fill="#63b8ff" stroke="#63b8ff" points="105.8,-25.95 113.88,-19.09 103.29,-19.41 105.8,-25.95"/>
</g>
<!-- Node3 -->
<g id="node3" class="node">
<title>Node3</title>
<g id="a_node3"><a xlink:href="process__creator_8hpp.html" target="_top" xlink:title=" ">
<polygon fill="white" stroke="#666666" points="271.96,-129 157.96,-129 157.96,-110 271.96,-110 271.96,-129"/>
<text text-anchor="middle" x="214.96" y="-117" font-family="Helvetica,sans-Serif" font-size="10.00">process_creator.hpp</text>
</a>
</g>
</g>
<!-- Node1&#45;&gt;Node3 -->
<g id="edge2" class="edge">
<title>Node1&#45;&gt;Node3</title>
<path fill="none" stroke="#63b8ff" d="M214.96,-219.66C214.96,-202.17 214.96,-162.8 214.96,-139.27"/>
<polygon fill="#63b8ff" stroke="#63b8ff" points="218.46,-139.16 214.96,-129.16 211.46,-139.16 218.46,-139.16"/>
</g>
<!-- Node8 -->
<g id="node8" class="node">
<title>Node8</title>
<g id="a_node8"><a xlink:href="scheduler_8hpp.html" target="_top" xlink:title=" ">
<polygon fill="white" stroke="#666666" points="333.96,-184 249.96,-184 249.96,-165 333.96,-165 333.96,-184"/>
<text text-anchor="middle" x="291.96" y="-172" font-family="Helvetica,sans-Serif" font-size="10.00">scheduler.hpp</text>
</a>
</g>
</g>
<!-- Node1&#45;&gt;Node8 -->
<g id="edge9" class="edge">
<title>Node1&#45;&gt;Node8</title>
<path fill="none" stroke="#63b8ff" d="M227.33,-219.98C239.05,-211.92 256.88,-199.65 270.84,-190.03"/>
<polygon fill="#63b8ff" stroke="#63b8ff" points="273.11,-192.72 279.36,-184.17 269.14,-186.96 273.11,-192.72"/>
</g>
<!-- Node9 -->
<g id="node9" class="node">
<title>Node9</title>
<g id="a_node9"><a xlink:href="min__heap_8hpp.html" target="_top" xlink:title=" ">
<polygon fill="white" stroke="#666666" points="101.96,-129 15.96,-129 15.96,-110 101.96,-110 101.96,-129"/>
<text text-anchor="middle" x="58.96" y="-117" font-family="Helvetica,sans-Serif" font-size="10.00">min_heap.hpp</text>
</a>
</g>
</g>
<!-- Node1&#45;&gt;Node9 -->
<g id="edge20" class="edge">
<title>Node1&#45;&gt;Node9</title>
<path fill="none" stroke="#63b8ff" d="M202.46,-219.84C175.76,-201.36 112.92,-157.86 79.97,-135.05"/>
<polygon fill="#63b8ff" stroke="#63b8ff" points="81.73,-132.01 71.52,-129.2 77.75,-137.77 81.73,-132.01"/>
</g>
<!-- Node12 -->
<g id="node12" class="node">
<title>Node12</title>
<g id="a_node12"><a xlink:href="simulator_8hpp.html" target="_top" xlink:title=" ">
<polygon fill="white" stroke="#666666" points="450.46,-184 367.46,-184 367.46,-165 450.46,-165 450.46,-184"/>
<text text-anchor="middle" x="408.96" y="-172" font-family="Helvetica,sans-Serif" font-size="10.00">simulator.hpp</text>
</a>
</g>
</g>
<!-- Node1&#45;&gt;Node12 -->
<g id="edge21" class="edge">
<title>Node1&#45;&gt;Node12</title>
<path fill="none" stroke="#63b8ff" d="M246.13,-219.98C279.12,-210.97 331.35,-196.7 367.73,-186.76"/>
<polygon fill="#63b8ff" stroke="#63b8ff" points="368.82,-190.09 377.54,-184.08 366.98,-183.34 368.82,-190.09"/>
</g>
<!-- Node4 -->
<g id="node4" class="node">
<title>Node4</title>
<g id="a_node4"><a xlink:title=" ">
<polygon fill="#e0e0e0" stroke="#999999" points="276.96,-19 218.96,-19 218.96,0 276.96,0 276.96,-19"/>
<text text-anchor="middle" x="247.96" y="-7" font-family="Helvetica,sans-Serif" font-size="10.00">memory</text>
</a>
</g>
</g>
<!-- Node3&#45;&gt;Node4 -->
<g id="edge3" class="edge">
<title>Node3&#45;&gt;Node4</title>
<path fill="none" stroke="#63b8ff" d="M217.66,-109.66C223.03,-92.09 235.14,-52.45 242.32,-28.95"/>
<polygon fill="#63b8ff" stroke="#63b8ff" points="245.74,-29.74 245.31,-19.16 239.04,-27.7 245.74,-29.74"/>
</g>
<!-- Node5 -->
<g id="node5" class="node">
<title>Node5</title>
<g id="a_node5"><a xlink:title=" ">
<polygon fill="#e0e0e0" stroke="#999999" points="167.46,-74 120.46,-74 120.46,-55 167.46,-55 167.46,-74"/>
<text text-anchor="middle" x="143.96" y="-62" font-family="Helvetica,sans-Serif" font-size="10.00">vector</text>
</a>
</g>
</g>
<!-- Node3&#45;&gt;Node5 -->
<g id="edge4" class="edge">
<title>Node3&#45;&gt;Node5</title>
<path fill="none" stroke="#63b8ff" d="M203.55,-109.98C192.85,-102 176.62,-89.88 163.8,-80.31"/>
<polygon fill="#63b8ff" stroke="#63b8ff" points="165.68,-77.35 155.57,-74.17 161.49,-82.96 165.68,-77.35"/>
</g>
<!-- Node6 -->
<g id="node6" class="node">
<title>Node6</title>
<g id="a_node6"><a xlink:href="process_8hpp.html" target="_top" xlink:title=" ">
<polygon fill="white" stroke="#666666" points="337.46,-74 262.46,-74 262.46,-55 337.46,-55 337.46,-74"/>
<text text-anchor="middle" x="299.96" y="-62" font-family="Helvetica,sans-Serif" font-size="10.00">process.hpp</text>
</a>
</g>
</g>
<!-- Node3&#45;&gt;Node6 -->
<g id="edge5" class="edge">
<title>Node3&#45;&gt;Node6</title>
<path fill="none" stroke="#63b8ff" d="M228.61,-109.98C241.8,-101.77 261.99,-89.18 277.53,-79.49"/>
<polygon fill="#63b8ff" stroke="#63b8ff" points="279.42,-82.43 286.05,-74.17 275.72,-76.49 279.42,-82.43"/>
</g>
<!-- Node6&#45;&gt;Node2 -->
<g id="edge6" class="edge">
<title>Node6&#45;&gt;Node2</title>
<path fill="none" stroke="#63b8ff" d="M274.09,-54.98C247.18,-46.13 204.84,-32.19 174.73,-22.28"/>
<polygon fill="#63b8ff" stroke="#63b8ff" points="175.62,-18.88 165.03,-19.08 173.43,-25.53 175.62,-18.88"/>
</g>
<!-- Node6&#45;&gt;Node4 -->
<g id="edge8" class="edge">
<title>Node6&#45;&gt;Node4</title>
<path fill="none" stroke="#63b8ff" d="M291.37,-54.75C283.8,-47.03 272.58,-35.6 263.44,-26.28"/>
<polygon fill="#63b8ff" stroke="#63b8ff" points="265.89,-23.78 256.39,-19.09 260.89,-28.68 265.89,-23.78"/>
</g>
<!-- Node7 -->
<g id="node7" class="node">
<title>Node7</title>
<g id="a_node7"><a xlink:title=" ">
<polygon fill="#e0e0e0" stroke="#999999" points="390.96,-19 346.96,-19 346.96,0 390.96,0 390.96,-19"/>
<text text-anchor="middle" x="368.96" y="-7" font-family="Helvetica,sans-Serif" font-size="10.00">string</text>
</a>
</g>
</g>
<!-- Node6&#45;&gt;Node7 -->
<g id="edge7" class="edge">
<title>Node6&#45;&gt;Node7</title>
<path fill="none" stroke="#63b8ff" d="M311.04,-54.98C321.44,-47 337.22,-34.88 349.68,-25.31"/>
<polygon fill="#63b8ff" stroke="#63b8ff" points="351.87,-28.04 357.67,-19.17 347.61,-22.49 351.87,-28.04"/>
</g>
<!-- Node8&#45;&gt;Node6 -->
<g id="edge10" class="edge">
<title>Node8&#45;&gt;Node6</title>
<path fill="none" stroke="#63b8ff" d="M292.61,-164.66C293.91,-147.17 296.82,-107.8 298.57,-84.27"/>
<polygon fill="#63b8ff" stroke="#63b8ff" points="302.07,-84.39 299.32,-74.16 295.09,-83.87 302.07,-84.39"/>
</g>
<!-- Node8&#45;&gt;Node9 -->
<g id="edge11" class="edge">
<title>Node8&#45;&gt;Node9</title>
<path fill="none" stroke="#63b8ff" d="M254.52,-164.98C214.3,-155.84 150.28,-141.27 106.52,-131.32"/>
<polygon fill="#63b8ff" stroke="#63b8ff" points="107.21,-127.89 96.69,-129.08 105.66,-134.71 107.21,-127.89"/>
</g>
<!-- Node10 -->
<g id="node10" class="node">
<title>Node10</title>
<g id="a_node10"><a xlink:href="logger_8hpp.html" target="_top" xlink:title=" ">
<polygon fill="white" stroke="#666666" points="395.96,-129 327.96,-129 327.96,-110 395.96,-110 395.96,-129"/>
<text text-anchor="middle" x="361.96" y="-117" font-family="Helvetica,sans-Serif" font-size="10.00">logger.hpp</text>
</a>
</g>
</g>
<!-- Node8&#45;&gt;Node10 -->
<g id="edge15" class="edge">
<title>Node8&#45;&gt;Node10</title>
<path fill="none" stroke="#63b8ff" d="M303.2,-164.98C313.76,-157 329.76,-144.88 342.4,-135.31"/>
<polygon fill="#63b8ff" stroke="#63b8ff" points="344.65,-138 350.51,-129.17 340.42,-132.42 344.65,-138"/>
</g>
<!-- Node9&#45;&gt;Node2 -->
<g id="edge14" class="edge">
<title>Node9&#45;&gt;Node2</title>
<path fill="none" stroke="#63b8ff" d="M59.77,-109.94C61.36,-96.98 65.86,-72.1 77.96,-55 86.89,-42.38 100.53,-31.94 112.66,-24.36"/>
<polygon fill="#63b8ff" stroke="#63b8ff" points="114.7,-27.22 121.53,-19.12 111.14,-21.19 114.7,-27.22"/>
</g>
<!-- Node9&#45;&gt;Node4 -->
<g id="edge13" class="edge">
<title>Node9&#45;&gt;Node4</title>
<path fill="none" stroke="#63b8ff" d="M63.85,-109.77C71.92,-96.12 89.31,-69.79 110.96,-55 140.48,-34.83 179.74,-23.31 208.67,-17.07"/>
<polygon fill="#63b8ff" stroke="#63b8ff" points="209.72,-20.43 218.82,-15.01 208.33,-13.57 209.72,-20.43"/>
</g>
<!-- Node9&#45;&gt;Node5 -->
<g id="edge12" class="edge">
<title>Node9&#45;&gt;Node5</title>
<path fill="none" stroke="#63b8ff" d="M72.61,-109.98C85.8,-101.77 105.99,-89.18 121.53,-79.49"/>
<polygon fill="#63b8ff" stroke="#63b8ff" points="123.42,-82.43 130.05,-74.17 119.72,-76.49 123.42,-82.43"/>
</g>
<!-- Node10&#45;&gt;Node2 -->
<g id="edge16" class="edge">
<title>Node10&#45;&gt;Node2</title>
<path fill="none" stroke="#63b8ff" d="M338.64,-109.92C316.33,-101.49 281.88,-87.9 252.96,-74 220.62,-58.46 184.66,-37.85 161.94,-24.38"/>
<polygon fill="#63b8ff" stroke="#63b8ff" points="163.44,-21.2 153.06,-19.08 159.86,-27.21 163.44,-21.2"/>
</g>
<!-- Node10&#45;&gt;Node6 -->
<g id="edge19" class="edge">
<title>Node10&#45;&gt;Node6</title>
<path fill="none" stroke="#63b8ff" d="M352,-109.98C342.83,-102.15 329.02,-90.34 317.93,-80.86"/>
<polygon fill="#63b8ff" stroke="#63b8ff" points="319.98,-78.01 310.1,-74.17 315.43,-83.33 319.98,-78.01"/>
</g>
<!-- Node10&#45;&gt;Node7 -->
<g id="edge18" class="edge">
<title>Node10&#45;&gt;Node7</title>
<path fill="none" stroke="#63b8ff" d="M380.31,-109.88C393.75,-102.46 410.98,-90.36 418.96,-74 428.08,-55.31 409.89,-36.99 392.95,-24.86"/>
<polygon fill="#63b8ff" stroke="#63b8ff" points="394.62,-21.77 384.36,-19.12 390.73,-27.58 394.62,-21.77"/>
</g>
<!-- Node11 -->
<g id="node11" class="node">
<title>Node11</title>
<g id="a_node11"><a xlink:title=" ">
<polygon fill="#e0e0e0" stroke="#999999" points="410.46,-74 355.46,-74 355.46,-55 410.46,-55 410.46,-74"/>
<text text-anchor="middle" x="382.96" y="-62" font-family="Helvetica,sans-Serif" font-size="10.00">fstream</text>
</a>
</g>
</g>
<!-- Node10&#45;&gt;Node11 -->
<g id="edge17" class="edge">
<title>Node10&#45;&gt;Node11</title>
<path fill="none" stroke="#63b8ff" d="M365.43,-109.75C368.24,-102.65 372.3,-92.4 375.8,-83.56"/>
<polygon fill="#63b8ff" stroke="#63b8ff" points="379.13,-84.68 379.55,-74.09 372.62,-82.1 379.13,-84.68"/>
</g>
<!-- Node12&#45;&gt;Node4 -->
<g id="edge24" class="edge">
<title>Node12&#45;&gt;Node4</title>
<path fill="none" stroke="#63b8ff" d="M450.71,-167.26C491.41,-159.19 544.51,-142.18 524.96,-110 499.54,-68.17 357.04,-33.22 286.92,-18.29"/>
<polygon fill="#63b8ff" stroke="#63b8ff" points="287.63,-14.86 277.13,-16.23 286.2,-21.71 287.63,-14.86"/>
</g>
<!-- Node12&#45;&gt;Node5 -->
<g id="edge25" class="edge">
<title>Node12&#45;&gt;Node5</title>
<path fill="none" stroke="#63b8ff" d="M367.2,-167.71C295.59,-157.6 156.28,-137.02 148.96,-129 138.13,-117.14 137.98,-98.31 139.87,-84.23"/>
<polygon fill="#63b8ff" stroke="#63b8ff" points="143.36,-84.64 141.67,-74.18 136.46,-83.41 143.36,-84.64"/>
</g>
<!-- Node12&#45;&gt;Node6 -->
<g id="edge22" class="edge">
<title>Node12&#45;&gt;Node6</title>
<path fill="none" stroke="#63b8ff" d="M411.06,-164.76C413.7,-151.58 416.58,-126.4 404.96,-110 396.81,-98.5 365.27,-86.04 338.87,-77.23"/>
<polygon fill="#63b8ff" stroke="#63b8ff" points="339.65,-73.81 329.06,-74.05 337.49,-80.46 339.65,-73.81"/>
</g>
<!-- Node12&#45;&gt;Node10 -->
<g id="edge23" class="edge">
<title>Node12&#45;&gt;Node10</title>
<path fill="none" stroke="#63b8ff" d="M401.2,-164.75C394.49,-157.18 384.62,-146.05 376.45,-136.84"/>
<polygon fill="#63b8ff" stroke="#63b8ff" points="378.83,-134.25 369.57,-129.09 373.59,-138.89 378.83,-134.25"/>
</g>
<!-- Node13 -->
<g id="node13" class="node">
<title>Node13</title>
<g id="a_node13"><a xlink:title=" ">
<polygon fill="#e0e0e0" stroke="#999999" points="515.96,-129 451.96,-129 451.96,-110 515.96,-110 515.96,-129"/>
<text text-anchor="middle" x="483.96" y="-117" font-family="Helvetica,sans-Serif" font-size="10.00">algorithm</text>
</a>
</g>
</g>
<!-- Node12&#45;&gt;Node13 -->
<g id="edge26" class="edge">
<title>Node12&#45;&gt;Node13</title>
<path fill="none" stroke="#63b8ff" d="M421.01,-164.98C432.42,-156.92 449.79,-144.65 463.39,-135.03"/>
<polygon fill="#63b8ff" stroke="#63b8ff" points="465.54,-137.8 471.69,-129.17 461.5,-132.08 465.54,-137.8"/>
</g>
</g>
</svg>
