<?xml version="1.0" encoding="UTF-8" standalone="no"?>
<!DOCTYPE svg PUBLIC "-//W3C//DTD SVG 1.1//EN"
 "http://www.w3.org/Graphics/SVG/1.1/DTD/svg11.dtd">
<!-- Generated by graphviz version 2.43.0 (0)
 -->
<!-- Title: src/min_heap.hpp Pages: 1 -->
<svg width="507pt" height="137pt"
 viewBox="0.00 0.00 506.50 137.00" xmlns="http://www.w3.org/2000/svg" xmlns:xlink="http://www.w3.org/1999/xlink">
<g id="graph0" class="graph" transform="scale(1 1) rotate(0) translate(4 133)">
<title>src/min_heap.hpp</title>
<!-- Node1 -->
<g id="node1" class="node">
<title>Node1</title>
<g id="a_node1"><a xlink:title=" ">
<polygon fill="#999999" stroke="#666666" points="199,-129 96,-129 96,-110 199,-110 199,-129"/>
<text text-anchor="middle" x="147.5" y="-117" font-family="Helvetica,sans-Serif" font-size="10.00">src/min_heap.hpp</text>
</a>
</g>
</g>
<!-- Node2 -->
<g id="node2" class="node">
<title>Node2</title>
<g id="a_node2"><a xlink:href="main_8cpp.html" target="_top" xlink:title=" ">
<polygon fill="white" stroke="#666666" points="79,-19 0,-19 0,0 79,0 79,-19"/>
<text text-anchor="middle" x="39.5" y="-7" font-family="Helvetica,sans-Serif" font-size="10.00">src/main.cpp</text>
</a>
</g>
</g>
<!-- Node1&#45;&gt;Node2 -->
<g id="edge1" class="edge">
<title>Node1&#45;&gt;Node2</title>
<path fill="none" stroke="#63b8ff" d="M131.3,-102.3C108.1,-79.1 66.21,-37.21 48.16,-19.16"/>
<polygon fill="#63b8ff" stroke="#63b8ff" points="129.12,-105.07 138.66,-109.66 134.07,-100.12 129.12,-105.07"/>
</g>
<!-- Node3 -->
<g id="node3" class="node">
<title>Node3</title>
<g id="a_node3"><a xlink:href="min__heap_8cpp.html" target="_top" xlink:title=" ">
<polygon fill="white" stroke="#666666" points="198.5,-19 96.5,-19 96.5,0 198.5,0 198.5,-19"/>
<text text-anchor="middle" x="147.5" y="-7" font-family="Helvetica,sans-Serif" font-size="10.00">src/min_heap.cpp</text>
</a>
</g>
</g>
<!-- Node1&#45;&gt;Node3 -->
<g id="edge2" class="edge">
<title>Node1&#45;&gt;Node3</title>
<path fill="none" stroke="#63b8ff" d="M147.5,-99.48C147.5,-75.84 147.5,-36.5 147.5,-19.16"/>
<polygon fill="#63b8ff" stroke="#63b8ff" points="144,-99.66 147.5,-109.66 151,-99.66 144,-99.66"/>
</g>
<!-- Node4 -->
<g id="node4" class="node">
<title>Node4</title>
<g id="a_node4"><a xlink:href="scheduler_8hpp.html" target="_top" xlink:title=" ">
<polygon fill="white" stroke="#666666" points="291,-74 190,-74 190,-55 291,-55 291,-74"/>
<text text-anchor="middle" x="240.5" y="-62" font-family="Helvetica,sans-Serif" font-size="10.00">src/scheduler.hpp</text>
</a>
</g>
</g>
<!-- Node1&#45;&gt;Node4 -->
<g id="edge3" class="edge">
<title>Node1&#45;&gt;Node4</title>
<path fill="none" stroke="#63b8ff" d="M171.25,-104.97C188.25,-95.28 210.63,-82.52 225.29,-74.17"/>
<polygon fill="#63b8ff" stroke="#63b8ff" points="169.4,-101.99 162.44,-109.98 172.86,-108.07 169.4,-101.99"/>
</g>
<!-- Node4&#45;&gt;Node2 -->
<g id="edge6" class="edge">
<title>Node4&#45;&gt;Node2</title>
<path fill="none" stroke="#63b8ff" d="M198.07,-52.31C160.46,-42.39 106.33,-28.12 72.05,-19.08"/>
<polygon fill="#63b8ff" stroke="#63b8ff" points="197.64,-55.82 208.21,-54.98 199.43,-49.05 197.64,-55.82"/>
</g>
<!-- Node4&#45;&gt;Node3 -->
<g id="edge7" class="edge">
<title>Node4&#45;&gt;Node3</title>
<path fill="none" stroke="#63b8ff" d="M216.75,-49.97C199.75,-40.28 177.37,-27.52 162.71,-19.17"/>
<polygon fill="#63b8ff" stroke="#63b8ff" points="215.14,-53.07 225.56,-54.98 218.6,-46.99 215.14,-53.07"/>
</g>
<!-- Node5 -->
<g id="node5" class="node">
<title>Node5</title>
<g id="a_node5"><a xlink:href="FCFS_8cpp.html" target="_top" xlink:title=" ">
<polygon fill="white" stroke="#666666" points="294.5,-19 216.5,-19 216.5,0 294.5,0 294.5,-19"/>
<text text-anchor="middle" x="255.5" y="-7" font-family="Helvetica,sans-Serif" font-size="10.00">src/FCFS.cpp</text>
</a>
</g>
</g>
<!-- Node4&#45;&gt;Node5 -->
<g id="edge4" class="edge">
<title>Node4&#45;&gt;Node5</title>
<path fill="none" stroke="#63b8ff" d="M245.75,-44.95C248.24,-36.15 251.1,-26.06 253.07,-19.09"/>
<polygon fill="#63b8ff" stroke="#63b8ff" points="242.33,-44.17 242.98,-54.75 249.07,-46.08 242.33,-44.17"/>
</g>
<!-- Node6 -->
<g id="node6" class="node">
<title>Node6</title>
<g id="a_node6"><a xlink:href="RR_8cpp.html" target="_top" xlink:title=" ">
<polygon fill="white" stroke="#666666" points="380.5,-19 312.5,-19 312.5,0 380.5,0 380.5,-19"/>
<text text-anchor="middle" x="346.5" y="-7" font-family="Helvetica,sans-Serif" font-size="10.00">src/RR.cpp</text>
</a>
</g>
</g>
<!-- Node4&#45;&gt;Node6 -->
<g id="edge5" class="edge">
<title>Node4&#45;&gt;Node6</title>
<path fill="none" stroke="#63b8ff" d="M266.5,-50.5C286,-40.75 312.15,-27.68 329.16,-19.17"/>
<polygon fill="#63b8ff" stroke="#63b8ff" points="264.91,-47.38 257.53,-54.98 268.04,-53.64 264.91,-47.38"/>
</g>
<!-- Node7 -->
<g id="node7" class="node">
<title>Node7</title>
<g id="a_node7"><a xlink:href="simulator_8cpp.html" target="_top" xlink:title=" ">
<polygon fill="white" stroke="#666666" points="498.5,-19 398.5,-19 398.5,0 498.5,0 498.5,-19"/>
<text text-anchor="middle" x="448.5" y="-7" font-family="Helvetica,sans-Serif" font-size="10.00">src/simulator.cpp</text>
</a>
</g>
</g>
<!-- Node4&#45;&gt;Node7 -->
<g id="edge8" class="edge">
<title>Node4&#45;&gt;Node7</title>
<path fill="none" stroke="#63b8ff" d="M283.91,-52.44C322.85,-42.52 379.19,-28.16 414.82,-19.08"/>
<polygon fill="#63b8ff" stroke="#63b8ff" points="282.74,-49.12 273.92,-54.98 284.47,-55.91 282.74,-49.12"/>
</g>
</g>
</svg>
