<?xml version="1.0" encoding="UTF-8" standalone="no"?>
<!DOCTYPE svg PUBLIC "-//W3C//DTD SVG 1.1//EN"
 "http://www.w3.org/Graphics/SVG/1.1/DTD/svg11.dtd">
<!-- Generated by graphviz version 2.43.0 (0)
 -->
<!-- Title: src/min_heap.hpp Pages: 1 -->
<svg width="466pt" height="192pt"
 viewBox="0.00 0.00 466.41 192.00" xmlns="http://www.w3.org/2000/svg" xmlns:xlink="http://www.w3.org/1999/xlink">
<g id="graph0" class="graph" transform="scale(1 1) rotate(0) translate(4 188)">
<title>src/min_heap.hpp</title>
<!-- Node1 -->
<g id="node1" class="node">
<title>Node1</title>
<g id="a_node1"><a xlink:title=" ">
<polygon fill="#999999" stroke="#666666" points="119.41,-184 16.41,-184 16.41,-165 119.41,-165 119.41,-184"/>
<text text-anchor="middle" x="67.91" y="-172" font-family="Helvetica,sans-Serif" font-size="10.00">src/min_heap.hpp</text>
</a>
</g>
</g>
<!-- Node2 -->
<g id="node2" class="node">
<title>Node2</title>
<g id="a_node2"><a xlink:href="main_8cpp.html" target="_top" xlink:title=" ">
<polygon fill="white" stroke="#666666" points="186.41,-19 107.41,-19 107.41,0 186.41,0 186.41,-19"/>
<text text-anchor="middle" x="146.91" y="-7" font-family="Helvetica,sans-Serif" font-size="10.00">src/main.cpp</text>
</a>
</g>
</g>
<!-- Node1&#45;&gt;Node2 -->
<g id="edge1" class="edge">
<title>Node1&#45;&gt;Node2</title>
<path fill="none" stroke="#63b8ff" d="M49.68,-158.12C24.05,-134.63 -16.87,-88.95 7.91,-55 30.46,-24.09 74.77,-14.17 107.32,-11.22"/>
<polygon fill="#63b8ff" stroke="#63b8ff" points="47.55,-160.92 57.36,-164.93 52.2,-155.68 47.55,-160.92"/>
</g>
<!-- Node3 -->
<g id="node3" class="node">
<title>Node3</title>
<g id="a_node3"><a xlink:href="min__heap_8cpp.html" target="_top" xlink:title=" ">
<polygon fill="white" stroke="#666666" points="118.91,-74 16.91,-74 16.91,-55 118.91,-55 118.91,-74"/>
<text text-anchor="middle" x="67.91" y="-62" font-family="Helvetica,sans-Serif" font-size="10.00">src/min_heap.cpp</text>
</a>
</g>
</g>
<!-- Node1&#45;&gt;Node3 -->
<g id="edge2" class="edge">
<title>Node1&#45;&gt;Node3</title>
<path fill="none" stroke="#63b8ff" d="M67.91,-154.48C67.91,-130.84 67.91,-91.5 67.91,-74.16"/>
<polygon fill="#63b8ff" stroke="#63b8ff" points="64.41,-154.66 67.91,-164.66 71.41,-154.66 64.41,-154.66"/>
</g>
<!-- Node4 -->
<g id="node4" class="node">
<title>Node4</title>
<g id="a_node4"><a xlink:href="scheduler_8hpp.html" target="_top" xlink:title=" ">
<polygon fill="white" stroke="#666666" points="230.41,-129 129.41,-129 129.41,-110 230.41,-110 230.41,-129"/>
<text text-anchor="middle" x="179.91" y="-117" font-family="Helvetica,sans-Serif" font-size="10.00">src/scheduler.hpp</text>
</a>
</g>
</g>
<!-- Node1&#45;&gt;Node4 -->
<g id="edge3" class="edge">
<title>Node1&#45;&gt;Node4</title>
<path fill="none" stroke="#63b8ff" d="M95.1,-160.63C115.73,-150.87 143.53,-137.71 161.58,-129.17"/>
<polygon fill="#63b8ff" stroke="#63b8ff" points="93.44,-157.54 85.9,-164.98 96.44,-163.87 93.44,-157.54"/>
</g>
<!-- Node4&#45;&gt;Node2 -->
<g id="edge6" class="edge">
<title>Node4&#45;&gt;Node2</title>
<path fill="none" stroke="#63b8ff" d="M174.08,-100.2C171.55,-92.17 168.55,-82.62 165.91,-74 159.9,-54.42 153.06,-31.37 149.45,-19.14"/>
<polygon fill="#63b8ff" stroke="#63b8ff" points="170.83,-101.51 177.19,-109.98 177.5,-99.39 170.83,-101.51"/>
</g>
<!-- Node4&#45;&gt;Node3 -->
<g id="edge7" class="edge">
<title>Node4&#45;&gt;Node3</title>
<path fill="none" stroke="#63b8ff" d="M152.72,-105.63C132.09,-95.87 104.28,-82.71 86.23,-74.17"/>
<polygon fill="#63b8ff" stroke="#63b8ff" points="151.38,-108.87 161.91,-109.98 154.37,-102.54 151.38,-108.87"/>
</g>
<!-- Node5 -->
<g id="node5" class="node">
<title>Node5</title>
<g id="a_node5"><a xlink:href="FCFS_8cpp.html" target="_top" xlink:title=" ">
<polygon fill="white" stroke="#666666" points="252.91,-74 174.91,-74 174.91,-55 252.91,-55 252.91,-74"/>
<text text-anchor="middle" x="213.91" y="-62" font-family="Helvetica,sans-Serif" font-size="10.00">src/FCFS.cpp</text>
</a>
</g>
</g>
<!-- Node4&#45;&gt;Node5 -->
<g id="edge4" class="edge">
<title>Node4&#45;&gt;Node5</title>
<path fill="none" stroke="#63b8ff" d="M191.07,-101.1C196.88,-92.04 203.73,-81.37 208.4,-74.09"/>
<polygon fill="#63b8ff" stroke="#63b8ff" points="187.97,-99.44 185.52,-109.75 193.87,-103.22 187.97,-99.44"/>
</g>
<!-- Node6 -->
<g id="node6" class="node">
<title>Node6</title>
<g id="a_node6"><a xlink:href="RR_8cpp.html" target="_top" xlink:title=" ">
<polygon fill="white" stroke="#666666" points="338.91,-74 270.91,-74 270.91,-55 338.91,-55 338.91,-74"/>
<text text-anchor="middle" x="304.91" y="-62" font-family="Helvetica,sans-Serif" font-size="10.00">src/RR.cpp</text>
</a>
</g>
</g>
<!-- Node4&#45;&gt;Node6 -->
<g id="edge5" class="edge">
<title>Node4&#45;&gt;Node6</title>
<path fill="none" stroke="#63b8ff" d="M209.32,-106.03C232.43,-96.23 264.03,-82.83 284.46,-74.17"/>
<polygon fill="#63b8ff" stroke="#63b8ff" points="207.83,-102.86 199.99,-109.98 210.56,-109.3 207.83,-102.86"/>
</g>
<!-- Node7 -->
<g id="node7" class="node">
<title>Node7</title>
<g id="a_node7"><a xlink:href="simulator_8hpp.html" target="_top" xlink:title=" ">
<polygon fill="white" stroke="#666666" points="458.41,-74 357.41,-74 357.41,-55 458.41,-55 458.41,-74"/>
<text text-anchor="middle" x="407.91" y="-62" font-family="Helvetica,sans-Serif" font-size="10.00">src/simulator.hpp</text>
</a>
</g>
</g>
<!-- Node4&#45;&gt;Node7 -->
<g id="edge8" class="edge">
<title>Node4&#45;&gt;Node7</title>
<path fill="none" stroke="#63b8ff" d="M226.41,-107.69C269.13,-97.76 331.6,-83.24 370.99,-74.08"/>
<polygon fill="#63b8ff" stroke="#63b8ff" points="225.49,-104.31 216.54,-109.98 227.07,-111.13 225.49,-104.31"/>
</g>
<!-- Node7&#45;&gt;Node2 -->
<g id="edge9" class="edge">
<title>Node7&#45;&gt;Node2</title>
<path fill="none" stroke="#63b8ff" d="M356.03,-52.97C306.18,-42.84 231.91,-27.76 186.6,-18.56"/>
<polygon fill="#63b8ff" stroke="#63b8ff" points="355.48,-56.42 365.97,-54.98 356.87,-49.56 355.48,-56.42"/>
</g>
<!-- Node8 -->
<g id="node8" class="node">
<title>Node8</title>
<g id="a_node8"><a xlink:href="simulator_8cpp.html" target="_top" xlink:title=" ">
<polygon fill="white" stroke="#666666" points="457.91,-19 357.91,-19 357.91,0 457.91,0 457.91,-19"/>
<text text-anchor="middle" x="407.91" y="-7" font-family="Helvetica,sans-Serif" font-size="10.00">src/simulator.cpp</text>
</a>
</g>
</g>
<!-- Node7&#45;&gt;Node8 -->
<g id="edge10" class="edge">
<title>Node7&#45;&gt;Node8</title>
<path fill="none" stroke="#63b8ff" d="M407.91,-44.66C407.91,-35.93 407.91,-25.99 407.91,-19.09"/>
<polygon fill="#63b8ff" stroke="#63b8ff" points="404.41,-44.75 407.91,-54.75 411.41,-44.75 404.41,-44.75"/>
</g>
</g>
</svg>
