<?xml version="1.0" encoding="UTF-8" standalone="no"?>
<!DOCTYPE svg PUBLIC "-//W3C//DTD SVG 1.1//EN"
 "http://www.w3.org/Graphics/SVG/1.1/DTD/svg11.dtd">
<!-- Generated by graphviz version 2.43.0 (0)
 -->
<!-- Title: src/min_heap.cpp Pages: 1 -->
<svg width="272pt" height="247pt"
 viewBox="0.00 0.00 271.50 247.00" xmlns="http://www.w3.org/2000/svg" xmlns:xlink="http://www.w3.org/1999/xlink">
<g id="graph0" class="graph" transform="scale(1 1) rotate(0) translate(4 243)">
<title>src/min_heap.cpp</title>
<!-- Node1 -->
<g id="node1" class="node">
<title>Node1</title>
<g id="a_node1"><a xlink:title=" ">
<polygon fill="#999999" stroke="#666666" points="142.5,-239 40.5,-239 40.5,-220 142.5,-220 142.5,-239"/>
<text text-anchor="middle" x="91.5" y="-227" font-family="Helvetica,sans-Serif" font-size="10.00">src/min_heap.cpp</text>
</a>
</g>
</g>
<!-- Node2 -->
<g id="node2" class="node">
<title>Node2</title>
<g id="a_node2"><a xlink:href="scheduler_8hpp.html" target="_top" xlink:title=" ">
<polygon fill="white" stroke="#666666" points="133.5,-184 49.5,-184 49.5,-165 133.5,-165 133.5,-184"/>
<text text-anchor="middle" x="91.5" y="-172" font-family="Helvetica,sans-Serif" font-size="10.00">scheduler.hpp</text>
</a>
</g>
</g>
<!-- Node1&#45;&gt;Node2 -->
<g id="edge1" class="edge">
<title>Node1&#45;&gt;Node2</title>
<path fill="none" stroke="#63b8ff" d="M91.5,-219.75C91.5,-212.8 91.5,-202.85 91.5,-194.13"/>
<polygon fill="#63b8ff" stroke="#63b8ff" points="95,-194.09 91.5,-184.09 88,-194.09 95,-194.09"/>
</g>
<!-- Node3 -->
<g id="node3" class="node">
<title>Node3</title>
<g id="a_node3"><a xlink:href="min__heap_8hpp.html" target="_top" xlink:title=" ">
<polygon fill="white" stroke="#666666" points="89.5,-74 3.5,-74 3.5,-55 89.5,-55 89.5,-74"/>
<text text-anchor="middle" x="46.5" y="-62" font-family="Helvetica,sans-Serif" font-size="10.00">min_heap.hpp</text>
</a>
</g>
</g>
<!-- Node2&#45;&gt;Node3 -->
<g id="edge2" class="edge">
<title>Node2&#45;&gt;Node3</title>
<path fill="none" stroke="#63b8ff" d="M87.82,-164.66C80.46,-147.01 63.83,-107.09 54.06,-83.64"/>
<polygon fill="#63b8ff" stroke="#63b8ff" points="57.18,-82.04 50.11,-74.16 50.72,-84.74 57.18,-82.04"/>
</g>
<!-- Node7 -->
<g id="node7" class="node">
<title>Node7</title>
<g id="a_node7"><a xlink:href="logger_8hpp.html" target="_top" xlink:title=" ">
<polygon fill="white" stroke="#666666" points="169.5,-129 101.5,-129 101.5,-110 169.5,-110 169.5,-129"/>
<text text-anchor="middle" x="135.5" y="-117" font-family="Helvetica,sans-Serif" font-size="10.00">logger.hpp</text>
</a>
</g>
</g>
<!-- Node2&#45;&gt;Node7 -->
<g id="edge6" class="edge">
<title>Node2&#45;&gt;Node7</title>
<path fill="none" stroke="#63b8ff" d="M98.77,-164.75C105.04,-157.18 114.29,-146.05 121.93,-136.84"/>
<polygon fill="#63b8ff" stroke="#63b8ff" points="124.67,-139.02 128.37,-129.09 119.29,-134.55 124.67,-139.02"/>
</g>
<!-- Node4 -->
<g id="node4" class="node">
<title>Node4</title>
<g id="a_node4"><a xlink:title=" ">
<polygon fill="#e0e0e0" stroke="#999999" points="47,-19 0,-19 0,0 47,0 47,-19"/>
<text text-anchor="middle" x="23.5" y="-7" font-family="Helvetica,sans-Serif" font-size="10.00">vector</text>
</a>
</g>
</g>
<!-- Node3&#45;&gt;Node4 -->
<g id="edge3" class="edge">
<title>Node3&#45;&gt;Node4</title>
<path fill="none" stroke="#63b8ff" d="M42.7,-54.75C39.59,-47.57 35.08,-37.18 31.21,-28.27"/>
<polygon fill="#63b8ff" stroke="#63b8ff" points="34.42,-26.87 27.23,-19.09 28,-29.66 34.42,-26.87"/>
</g>
<!-- Node5 -->
<g id="node5" class="node">
<title>Node5</title>
<g id="a_node5"><a xlink:title=" ">
<polygon fill="#e0e0e0" stroke="#999999" points="123.5,-19 65.5,-19 65.5,0 123.5,0 123.5,-19"/>
<text text-anchor="middle" x="94.5" y="-7" font-family="Helvetica,sans-Serif" font-size="10.00">memory</text>
</a>
</g>
</g>
<!-- Node3&#45;&gt;Node5 -->
<g id="edge4" class="edge">
<title>Node3&#45;&gt;Node5</title>
<path fill="none" stroke="#63b8ff" d="M54.43,-54.75C61.35,-47.11 71.57,-35.82 79.95,-26.56"/>
<polygon fill="#63b8ff" stroke="#63b8ff" points="82.6,-28.85 86.72,-19.09 77.41,-24.15 82.6,-28.85"/>
</g>
<!-- Node6 -->
<g id="node6" class="node">
<title>Node6</title>
<g id="a_node6"><a xlink:title=" ">
<polygon fill="#e0e0e0" stroke="#999999" points="201.5,-19 141.5,-19 141.5,0 201.5,0 201.5,-19"/>
<text text-anchor="middle" x="171.5" y="-7" font-family="Helvetica,sans-Serif" font-size="10.00">iostream</text>
</a>
</g>
</g>
<!-- Node3&#45;&gt;Node6 -->
<g id="edge5" class="edge">
<title>Node3&#45;&gt;Node6</title>
<path fill="none" stroke="#63b8ff" d="M66.58,-54.98C86.87,-46.38 118.46,-32.99 141.67,-23.15"/>
<polygon fill="#63b8ff" stroke="#63b8ff" points="143.21,-26.3 151.05,-19.17 140.48,-19.85 143.21,-26.3"/>
</g>
<!-- Node8 -->
<g id="node8" class="node">
<title>Node8</title>
<g id="a_node8"><a xlink:title=" ">
<polygon fill="#e0e0e0" stroke="#999999" points="163,-74 108,-74 108,-55 163,-55 163,-74"/>
<text text-anchor="middle" x="135.5" y="-62" font-family="Helvetica,sans-Serif" font-size="10.00">fstream</text>
</a>
</g>
</g>
<!-- Node7&#45;&gt;Node8 -->
<g id="edge7" class="edge">
<title>Node7&#45;&gt;Node8</title>
<path fill="none" stroke="#63b8ff" d="M135.5,-109.75C135.5,-102.8 135.5,-92.85 135.5,-84.13"/>
<polygon fill="#63b8ff" stroke="#63b8ff" points="139,-84.09 135.5,-74.09 132,-84.09 139,-84.09"/>
</g>
<!-- Node9 -->
<g id="node9" class="node">
<title>Node9</title>
<g id="a_node9"><a xlink:href="process_8hpp.html" target="_top" xlink:title=" ">
<polygon fill="white" stroke="#666666" points="256,-74 181,-74 181,-55 256,-55 256,-74"/>
<text text-anchor="middle" x="218.5" y="-62" font-family="Helvetica,sans-Serif" font-size="10.00">process.hpp</text>
</a>
</g>
</g>
<!-- Node7&#45;&gt;Node9 -->
<g id="edge8" class="edge">
<title>Node7&#45;&gt;Node9</title>
<path fill="none" stroke="#63b8ff" d="M148.84,-109.98C161.59,-101.84 181.05,-89.41 196.17,-79.76"/>
<polygon fill="#63b8ff" stroke="#63b8ff" points="198.38,-82.5 204.92,-74.17 194.61,-76.6 198.38,-82.5"/>
</g>
<!-- Node9&#45;&gt;Node5 -->
<g id="edge11" class="edge">
<title>Node9&#45;&gt;Node5</title>
<path fill="none" stroke="#63b8ff" d="M198.58,-54.98C178.45,-46.38 147.12,-32.99 124.09,-23.15"/>
<polygon fill="#63b8ff" stroke="#63b8ff" points="125.36,-19.88 114.79,-19.17 122.6,-26.32 125.36,-19.88"/>
</g>
<!-- Node9&#45;&gt;Node6 -->
<g id="edge9" class="edge">
<title>Node9&#45;&gt;Node6</title>
<path fill="none" stroke="#63b8ff" d="M210.74,-54.75C204.03,-47.18 194.16,-36.05 185.99,-26.84"/>
<polygon fill="#63b8ff" stroke="#63b8ff" points="188.37,-24.25 179.12,-19.09 183.13,-28.89 188.37,-24.25"/>
</g>
<!-- Node10 -->
<g id="node10" class="node">
<title>Node10</title>
<g id="a_node10"><a xlink:title=" ">
<polygon fill="#e0e0e0" stroke="#999999" points="263.5,-19 219.5,-19 219.5,0 263.5,0 263.5,-19"/>
<text text-anchor="middle" x="241.5" y="-7" font-family="Helvetica,sans-Serif" font-size="10.00">string</text>
</a>
</g>
</g>
<!-- Node9&#45;&gt;Node10 -->
<g id="edge10" class="edge">
<title>Node9&#45;&gt;Node10</title>
<path fill="none" stroke="#63b8ff" d="M222.3,-54.75C225.41,-47.57 229.92,-37.18 233.79,-28.27"/>
<polygon fill="#63b8ff" stroke="#63b8ff" points="237,-29.66 237.77,-19.09 230.58,-26.87 237,-29.66"/>
</g>
</g>
</svg>
