<?xml version="1.0" encoding="UTF-8" standalone="no"?>
<!DOCTYPE svg PUBLIC "-//W3C//DTD SVG 1.1//EN"
 "http://www.w3.org/Graphics/SVG/1.1/DTD/svg11.dtd">
<!-- Generated by graphviz version 2.43.0 (0)
 -->
<!-- Title: src/min_heap.hpp Pages: 1 -->
<svg width="327pt" height="137pt"
 viewBox="0.00 0.00 326.50 137.00" xmlns="http://www.w3.org/2000/svg" xmlns:xlink="http://www.w3.org/1999/xlink">
<g id="graph0" class="graph" transform="scale(1 1) rotate(0) translate(4 133)">
<title>src/min_heap.hpp</title>
<!-- Node1 -->
<g id="node1" class="node">
<title>Node1</title>
<g id="a_node1"><a xlink:title=" ">
<polygon fill="#999999" stroke="#666666" points="119,-129 16,-129 16,-110 119,-110 119,-129"/>
<text text-anchor="middle" x="67.5" y="-117" font-family="Helvetica,sans-Serif" font-size="10.00">src/min_heap.hpp</text>
</a>
</g>
</g>
<!-- Node2 -->
<g id="node2" class="node">
<title>Node2</title>
<g id="a_node2"><a xlink:href="main_8cpp.html" target="_top" xlink:title=" ">
<polygon fill="white" stroke="#666666" points="79,-19 0,-19 0,0 79,0 79,-19"/>
<text text-anchor="middle" x="39.5" y="-7" font-family="Helvetica,sans-Serif" font-size="10.00">src/main.cpp</text>
</a>
</g>
</g>
<!-- Node1&#45;&gt;Node2 -->
<g id="edge1" class="edge">
<title>Node1&#45;&gt;Node2</title>
<path fill="none" stroke="#63b8ff" d="M38.97,-104.95C26.94,-97.61 14.19,-87.29 7.5,-74 -2.38,-54.37 16.95,-31.34 29.65,-19.13"/>
<polygon fill="#63b8ff" stroke="#63b8ff" points="37.49,-108.13 47.92,-109.98 40.92,-102.03 37.49,-108.13"/>
</g>
<!-- Node3 -->
<g id="node3" class="node">
<title>Node3</title>
<g id="a_node3"><a xlink:href="min__heap_8cpp.html" target="_top" xlink:title=" ">
<polygon fill="white" stroke="#666666" points="118.5,-74 16.5,-74 16.5,-55 118.5,-55 118.5,-74"/>
<text text-anchor="middle" x="67.5" y="-62" font-family="Helvetica,sans-Serif" font-size="10.00">src/min_heap.cpp</text>
</a>
</g>
</g>
<!-- Node1&#45;&gt;Node3 -->
<g id="edge2" class="edge">
<title>Node1&#45;&gt;Node3</title>
<path fill="none" stroke="#63b8ff" d="M67.5,-99.66C67.5,-90.93 67.5,-80.99 67.5,-74.09"/>
<polygon fill="#63b8ff" stroke="#63b8ff" points="64,-99.75 67.5,-109.75 71,-99.75 64,-99.75"/>
</g>
<!-- Node4 -->
<g id="node4" class="node">
<title>Node4</title>
<g id="a_node4"><a xlink:href="scheduler_8hpp.html" target="_top" xlink:title=" ">
<polygon fill="white" stroke="#666666" points="238,-74 137,-74 137,-55 238,-55 238,-74"/>
<text text-anchor="middle" x="187.5" y="-62" font-family="Helvetica,sans-Serif" font-size="10.00">src/scheduler.hpp</text>
</a>
</g>
</g>
<!-- Node1&#45;&gt;Node4 -->
<g id="edge3" class="edge">
<title>Node1&#45;&gt;Node4</title>
<path fill="none" stroke="#63b8ff" d="M96.03,-105.9C118.2,-96.11 148.35,-82.79 167.87,-74.17"/>
<polygon fill="#63b8ff" stroke="#63b8ff" points="94.51,-102.74 86.78,-109.98 97.34,-109.15 94.51,-102.74"/>
</g>
<!-- Node4&#45;&gt;Node2 -->
<g id="edge5" class="edge">
<title>Node4&#45;&gt;Node2</title>
<path fill="none" stroke="#63b8ff" d="M154.13,-51.55C126.65,-41.71 88.33,-27.98 63.71,-19.17"/>
<polygon fill="#63b8ff" stroke="#63b8ff" points="153.13,-54.91 163.72,-54.98 155.49,-48.32 153.13,-54.91"/>
</g>
<!-- Node5 -->
<g id="node5" class="node">
<title>Node5</title>
<g id="a_node5"><a xlink:href="FCFS_8cpp.html" target="_top" xlink:title=" ">
<polygon fill="white" stroke="#666666" points="200.5,-19 122.5,-19 122.5,0 200.5,0 200.5,-19"/>
<text text-anchor="middle" x="161.5" y="-7" font-family="Helvetica,sans-Serif" font-size="10.00">src/FCFS.cpp</text>
</a>
</g>
</g>
<!-- Node4&#45;&gt;Node5 -->
<g id="edge4" class="edge">
<title>Node4&#45;&gt;Node5</title>
<path fill="none" stroke="#63b8ff" d="M178.68,-45.53C174.3,-36.6 169.21,-26.22 165.71,-19.09"/>
<polygon fill="#63b8ff" stroke="#63b8ff" points="175.66,-47.31 183.21,-54.75 181.94,-44.23 175.66,-47.31"/>
</g>
<!-- Node6 -->
<g id="node6" class="node">
<title>Node6</title>
<g id="a_node6"><a xlink:href="simulator_8cpp.html" target="_top" xlink:title=" ">
<polygon fill="white" stroke="#666666" points="318.5,-19 218.5,-19 218.5,0 318.5,0 318.5,-19"/>
<text text-anchor="middle" x="268.5" y="-7" font-family="Helvetica,sans-Serif" font-size="10.00">src/simulator.cpp</text>
</a>
</g>
</g>
<!-- Node4&#45;&gt;Node6 -->
<g id="edge6" class="edge">
<title>Node4&#45;&gt;Node6</title>
<path fill="none" stroke="#63b8ff" d="M209.01,-49.42C223.71,-39.81 242.72,-27.37 255.25,-19.17"/>
<polygon fill="#63b8ff" stroke="#63b8ff" points="206.97,-46.58 200.51,-54.98 210.8,-52.44 206.97,-46.58"/>
</g>
</g>
</svg>
