<?xml version="1.0" encoding="UTF-8" standalone="no"?>
<!DOCTYPE svg PUBLIC "-//W3C//DTD SVG 1.1//EN"
 "http://www.w3.org/Graphics/SVG/1.1/DTD/svg11.dtd">
<!-- Generated by graphviz version 2.43.0 (0)
 -->
<!-- Title: src/min_heap.cpp Pages: 1 -->
<svg width="346pt" height="247pt"
 viewBox="0.00 0.00 345.50 247.00" xmlns="http://www.w3.org/2000/svg" xmlns:xlink="http://www.w3.org/1999/xlink">
<g id="graph0" class="graph" transform="scale(1 1) rotate(0) translate(4 243)">
<title>src/min_heap.cpp</title>
<!-- Node1 -->
<g id="node1" class="node">
<title>Node1</title>
<g id="a_node1"><a xlink:title=" ">
<polygon fill="#999999" stroke="#666666" points="189,-239 87,-239 87,-220 189,-220 189,-239"/>
<text text-anchor="middle" x="138" y="-227" font-family="Helvetica,sans-Serif" font-size="10.00">src/min_heap.cpp</text>
</a>
</g>
</g>
<!-- Node2 -->
<g id="node2" class="node">
<title>Node2</title>
<g id="a_node2"><a xlink:href="scheduler_8hpp.html" target="_top" xlink:title=" ">
<polygon fill="white" stroke="#666666" points="180,-184 96,-184 96,-165 180,-165 180,-184"/>
<text text-anchor="middle" x="138" y="-172" font-family="Helvetica,sans-Serif" font-size="10.00">scheduler.hpp</text>
</a>
</g>
</g>
<!-- Node1&#45;&gt;Node2 -->
<g id="edge1" class="edge">
<title>Node1&#45;&gt;Node2</title>
<path fill="none" stroke="#63b8ff" d="M138,-219.75C138,-212.8 138,-202.85 138,-194.13"/>
<polygon fill="#63b8ff" stroke="#63b8ff" points="141.5,-194.09 138,-184.09 134.5,-194.09 141.5,-194.09"/>
</g>
<!-- Node3 -->
<g id="node3" class="node">
<title>Node3</title>
<g id="a_node3"><a xlink:href="min__heap_8hpp.html" target="_top" xlink:title=" ">
<polygon fill="white" stroke="#666666" points="86,-74 0,-74 0,-55 86,-55 86,-74"/>
<text text-anchor="middle" x="43" y="-62" font-family="Helvetica,sans-Serif" font-size="10.00">min_heap.hpp</text>
</a>
</g>
</g>
<!-- Node2&#45;&gt;Node3 -->
<g id="edge2" class="edge">
<title>Node2&#45;&gt;Node3</title>
<path fill="none" stroke="#63b8ff" d="M130.23,-164.66C114.28,-146.54 77.67,-104.91 57.31,-81.77"/>
<polygon fill="#63b8ff" stroke="#63b8ff" points="59.85,-79.36 50.62,-74.16 54.59,-83.98 59.85,-79.36"/>
</g>
<!-- Node7 -->
<g id="node7" class="node">
<title>Node7</title>
<g id="a_node7"><a xlink:href="rbtree_8hpp.html" target="_top" xlink:title=" ">
<polygon fill="white" stroke="#666666" points="171.5,-74 104.5,-74 104.5,-55 171.5,-55 171.5,-74"/>
<text text-anchor="middle" x="138" y="-62" font-family="Helvetica,sans-Serif" font-size="10.00">rbtree.hpp</text>
</a>
</g>
</g>
<!-- Node2&#45;&gt;Node7 -->
<g id="edge6" class="edge">
<title>Node2&#45;&gt;Node7</title>
<path fill="none" stroke="#63b8ff" d="M138,-164.66C138,-147.17 138,-107.8 138,-84.27"/>
<polygon fill="#63b8ff" stroke="#63b8ff" points="141.5,-84.16 138,-74.16 134.5,-84.16 141.5,-84.16"/>
</g>
<!-- Node8 -->
<g id="node8" class="node">
<title>Node8</title>
<g id="a_node8"><a xlink:href="logger_8hpp.html" target="_top" xlink:title=" ">
<polygon fill="white" stroke="#666666" points="261,-129 193,-129 193,-110 261,-110 261,-129"/>
<text text-anchor="middle" x="227" y="-117" font-family="Helvetica,sans-Serif" font-size="10.00">logger.hpp</text>
</a>
</g>
</g>
<!-- Node2&#45;&gt;Node8 -->
<g id="edge9" class="edge">
<title>Node2&#45;&gt;Node8</title>
<path fill="none" stroke="#63b8ff" d="M152.3,-164.98C166.1,-156.77 187.24,-144.18 203.51,-134.49"/>
<polygon fill="#63b8ff" stroke="#63b8ff" points="205.64,-137.29 212.44,-129.17 202.06,-131.28 205.64,-137.29"/>
</g>
<!-- Node4 -->
<g id="node4" class="node">
<title>Node4</title>
<g id="a_node4"><a xlink:title=" ">
<polygon fill="#e0e0e0" stroke="#999999" points="49.5,-19 2.5,-19 2.5,0 49.5,0 49.5,-19"/>
<text text-anchor="middle" x="26" y="-7" font-family="Helvetica,sans-Serif" font-size="10.00">vector</text>
</a>
</g>
</g>
<!-- Node3&#45;&gt;Node4 -->
<g id="edge3" class="edge">
<title>Node3&#45;&gt;Node4</title>
<path fill="none" stroke="#63b8ff" d="M40.19,-54.75C37.94,-47.72 34.7,-37.62 31.88,-28.84"/>
<polygon fill="#63b8ff" stroke="#63b8ff" points="35.14,-27.54 28.75,-19.09 28.48,-29.68 35.14,-27.54"/>
</g>
<!-- Node5 -->
<g id="node5" class="node">
<title>Node5</title>
<g id="a_node5"><a xlink:title=" ">
<polygon fill="#e0e0e0" stroke="#999999" points="126,-19 68,-19 68,0 126,0 126,-19"/>
<text text-anchor="middle" x="97" y="-7" font-family="Helvetica,sans-Serif" font-size="10.00">memory</text>
</a>
</g>
</g>
<!-- Node3&#45;&gt;Node5 -->
<g id="edge4" class="edge">
<title>Node3&#45;&gt;Node5</title>
<path fill="none" stroke="#63b8ff" d="M51.92,-54.75C59.78,-47.03 71.43,-35.6 80.92,-26.28"/>
<polygon fill="#63b8ff" stroke="#63b8ff" points="83.56,-28.59 88.25,-19.09 78.66,-23.6 83.56,-28.59"/>
</g>
<!-- Node6 -->
<g id="node6" class="node">
<title>Node6</title>
<g id="a_node6"><a xlink:title=" ">
<polygon fill="#e0e0e0" stroke="#999999" points="204,-19 144,-19 144,0 204,0 204,-19"/>
<text text-anchor="middle" x="174" y="-7" font-family="Helvetica,sans-Serif" font-size="10.00">iostream</text>
</a>
</g>
</g>
<!-- Node3&#45;&gt;Node6 -->
<g id="edge5" class="edge">
<title>Node3&#45;&gt;Node6</title>
<path fill="none" stroke="#63b8ff" d="M64.05,-54.98C85.41,-46.34 118.7,-32.87 143.06,-23.02"/>
<polygon fill="#63b8ff" stroke="#63b8ff" points="144.61,-26.17 152.57,-19.17 141.99,-19.68 144.61,-26.17"/>
</g>
<!-- Node7&#45;&gt;Node5 -->
<g id="edge8" class="edge">
<title>Node7&#45;&gt;Node5</title>
<path fill="none" stroke="#63b8ff" d="M131.23,-54.75C125.44,-47.26 116.94,-36.28 109.86,-27.13"/>
<polygon fill="#63b8ff" stroke="#63b8ff" points="112.53,-24.86 103.64,-19.09 106.99,-29.14 112.53,-24.86"/>
</g>
<!-- Node7&#45;&gt;Node6 -->
<g id="edge7" class="edge">
<title>Node7&#45;&gt;Node6</title>
<path fill="none" stroke="#63b8ff" d="M143.94,-54.75C148.98,-47.34 156.34,-36.5 162.51,-27.41"/>
<polygon fill="#63b8ff" stroke="#63b8ff" points="165.44,-29.33 168.17,-19.09 159.65,-25.39 165.44,-29.33"/>
</g>
<!-- Node9 -->
<g id="node9" class="node">
<title>Node9</title>
<g id="a_node9"><a xlink:title=" ">
<polygon fill="#e0e0e0" stroke="#999999" points="337.5,-74 282.5,-74 282.5,-55 337.5,-55 337.5,-74"/>
<text text-anchor="middle" x="310" y="-62" font-family="Helvetica,sans-Serif" font-size="10.00">fstream</text>
</a>
</g>
</g>
<!-- Node8&#45;&gt;Node9 -->
<g id="edge10" class="edge">
<title>Node8&#45;&gt;Node9</title>
<path fill="none" stroke="#63b8ff" d="M240.34,-109.98C253.09,-101.84 272.55,-89.41 287.67,-79.76"/>
<polygon fill="#63b8ff" stroke="#63b8ff" points="289.88,-82.5 296.42,-74.17 286.11,-76.6 289.88,-82.5"/>
</g>
<!-- Node10 -->
<g id="node10" class="node">
<title>Node10</title>
<g id="a_node10"><a xlink:href="process_8hpp.html" target="_top" xlink:title=" ">
<polygon fill="white" stroke="#666666" points="264.5,-74 189.5,-74 189.5,-55 264.5,-55 264.5,-74"/>
<text text-anchor="middle" x="227" y="-62" font-family="Helvetica,sans-Serif" font-size="10.00">process.hpp</text>
</a>
</g>
</g>
<!-- Node8&#45;&gt;Node10 -->
<g id="edge11" class="edge">
<title>Node8&#45;&gt;Node10</title>
<path fill="none" stroke="#63b8ff" d="M227,-109.75C227,-102.8 227,-92.85 227,-84.13"/>
<polygon fill="#63b8ff" stroke="#63b8ff" points="230.5,-84.09 227,-74.09 223.5,-84.09 230.5,-84.09"/>
</g>
<!-- Node10&#45;&gt;Node5 -->
<g id="edge14" class="edge">
<title>Node10&#45;&gt;Node5</title>
<path fill="none" stroke="#63b8ff" d="M206.11,-54.98C184.92,-46.34 151.87,-32.87 127.7,-23.02"/>
<polygon fill="#63b8ff" stroke="#63b8ff" points="128.85,-19.7 118.27,-19.17 126.21,-26.19 128.85,-19.7"/>
</g>
<!-- Node10&#45;&gt;Node6 -->
<g id="edge12" class="edge">
<title>Node10&#45;&gt;Node6</title>
<path fill="none" stroke="#63b8ff" d="M218.25,-54.75C210.53,-47.03 199.1,-35.6 189.78,-26.28"/>
<polygon fill="#63b8ff" stroke="#63b8ff" points="192.14,-23.69 182.59,-19.09 187.19,-28.64 192.14,-23.69"/>
</g>
<!-- Node11 -->
<g id="node11" class="node">
<title>Node11</title>
<g id="a_node11"><a xlink:title=" ">
<polygon fill="#e0e0e0" stroke="#999999" points="266,-19 222,-19 222,0 266,0 266,-19"/>
<text text-anchor="middle" x="244" y="-7" font-family="Helvetica,sans-Serif" font-size="10.00">string</text>
</a>
</g>
</g>
<!-- Node10&#45;&gt;Node11 -->
<g id="edge13" class="edge">
<title>Node10&#45;&gt;Node11</title>
<path fill="none" stroke="#63b8ff" d="M229.81,-54.75C232.06,-47.72 235.3,-37.62 238.12,-28.84"/>
<polygon fill="#63b8ff" stroke="#63b8ff" points="241.52,-29.68 241.25,-19.09 234.86,-27.54 241.52,-29.68"/>
</g>
</g>
</svg>
