<?xml version="1.0" encoding="UTF-8" standalone="no"?>
<!DOCTYPE svg PUBLIC "-//W3C//DTD SVG 1.1//EN"
 "http://www.w3.org/Graphics/SVG/1.1/DTD/svg11.dtd">
<!-- Generated by graphviz version 2.43.0 (0)
 -->
<!-- Title: src/min_heap.cpp Pages: 1 -->
<svg width="317pt" height="247pt"
 viewBox="0.00 0.00 317.32 247.00" xmlns="http://www.w3.org/2000/svg" xmlns:xlink="http://www.w3.org/1999/xlink">
<g id="graph0" class="graph" transform="scale(1 1) rotate(0) translate(4 243)">
<title>src/min_heap.cpp</title>
<!-- Node1 -->
<g id="node1" class="node">
<title>Node1</title>
<g id="a_node1"><a xlink:title=" ">
<polygon fill="#999999" stroke="#666666" points="244.07,-239 142.07,-239 142.07,-220 244.07,-220 244.07,-239"/>
<text text-anchor="middle" x="193.07" y="-227" font-family="Helvetica,sans-Serif" font-size="10.00">src/min_heap.cpp</text>
</a>
</g>
</g>
<!-- Node2 -->
<g id="node2" class="node">
<title>Node2</title>
<g id="a_node2"><a xlink:href="min__heap_8hpp.html" target="_top" xlink:title=" ">
<polygon fill="white" stroke="#666666" points="307.07,-129 221.07,-129 221.07,-110 307.07,-110 307.07,-129"/>
<text text-anchor="middle" x="264.07" y="-117" font-family="Helvetica,sans-Serif" font-size="10.00">min_heap.hpp</text>
</a>
</g>
</g>
<!-- Node1&#45;&gt;Node2 -->
<g id="edge1" class="edge">
<title>Node1&#45;&gt;Node2</title>
<path fill="none" stroke="#63b8ff" d="M198.89,-219.66C210.64,-201.77 237.45,-161 252.77,-137.69"/>
<polygon fill="#63b8ff" stroke="#63b8ff" points="255.81,-139.44 258.38,-129.16 249.96,-135.59 255.81,-139.44"/>
</g>
<!-- Node6 -->
<g id="node6" class="node">
<title>Node6</title>
<g id="a_node6"><a xlink:href="process_8hpp.html" target="_top" xlink:title=" ">
<polygon fill="white" stroke="#666666" points="193.57,-74 118.57,-74 118.57,-55 193.57,-55 193.57,-74"/>
<text text-anchor="middle" x="156.07" y="-62" font-family="Helvetica,sans-Serif" font-size="10.00">process.hpp</text>
</a>
</g>
</g>
<!-- Node1&#45;&gt;Node6 -->
<g id="edge5" class="edge">
<title>Node1&#45;&gt;Node6</title>
<path fill="none" stroke="#63b8ff" d="M191.09,-219.74C185.29,-194.2 168.32,-119.43 160.33,-84.23"/>
<polygon fill="#63b8ff" stroke="#63b8ff" points="163.7,-83.28 158.07,-74.31 156.87,-84.83 163.7,-83.28"/>
</g>
<!-- Node8 -->
<g id="node8" class="node">
<title>Node8</title>
<g id="a_node8"><a xlink:href="scheduler_8hpp.html" target="_top" xlink:title=" ">
<polygon fill="white" stroke="#666666" points="165.07,-184 81.07,-184 81.07,-165 165.07,-165 165.07,-184"/>
<text text-anchor="middle" x="123.07" y="-172" font-family="Helvetica,sans-Serif" font-size="10.00">scheduler.hpp</text>
</a>
</g>
</g>
<!-- Node1&#45;&gt;Node8 -->
<g id="edge9" class="edge">
<title>Node1&#45;&gt;Node8</title>
<path fill="none" stroke="#63b8ff" d="M181.83,-219.98C171.28,-212 155.27,-199.88 142.63,-190.31"/>
<polygon fill="#63b8ff" stroke="#63b8ff" points="144.61,-187.42 134.53,-184.17 140.39,-193 144.61,-187.42"/>
</g>
<!-- Node3 -->
<g id="node3" class="node">
<title>Node3</title>
<g id="a_node3"><a xlink:title=" ">
<polygon fill="#e0e0e0" stroke="#999999" points="297.57,-74 250.57,-74 250.57,-55 297.57,-55 297.57,-74"/>
<text text-anchor="middle" x="274.07" y="-62" font-family="Helvetica,sans-Serif" font-size="10.00">vector</text>
</a>
</g>
</g>
<!-- Node2&#45;&gt;Node3 -->
<g id="edge2" class="edge">
<title>Node2&#45;&gt;Node3</title>
<path fill="none" stroke="#63b8ff" d="M265.73,-109.75C267.04,-102.8 268.92,-92.85 270.56,-84.13"/>
<polygon fill="#63b8ff" stroke="#63b8ff" points="274.04,-84.56 272.45,-74.09 267.16,-83.27 274.04,-84.56"/>
</g>
<!-- Node4 -->
<g id="node4" class="node">
<title>Node4</title>
<g id="a_node4"><a xlink:title=" ">
<polygon fill="#e0e0e0" stroke="#999999" points="308.07,-19 250.07,-19 250.07,0 308.07,0 308.07,-19"/>
<text text-anchor="middle" x="279.07" y="-7" font-family="Helvetica,sans-Serif" font-size="10.00">memory</text>
</a>
</g>
</g>
<!-- Node2&#45;&gt;Node4 -->
<g id="edge3" class="edge">
<title>Node2&#45;&gt;Node4</title>
<path fill="none" stroke="#63b8ff" d="M276.57,-109.93C286.94,-101.99 300.96,-89.14 307.07,-74 313.6,-57.84 303.82,-39.68 294.07,-26.93"/>
<polygon fill="#63b8ff" stroke="#63b8ff" points="296.61,-24.51 287.53,-19.06 291.23,-28.98 296.61,-24.51"/>
</g>
<!-- Node5 -->
<g id="node5" class="node">
<title>Node5</title>
<g id="a_node5"><a xlink:title=" ">
<polygon fill="#e0e0e0" stroke="#999999" points="186.07,-19 126.07,-19 126.07,0 186.07,0 186.07,-19"/>
<text text-anchor="middle" x="156.07" y="-7" font-family="Helvetica,sans-Serif" font-size="10.00">iostream</text>
</a>
</g>
</g>
<!-- Node2&#45;&gt;Node5 -->
<g id="edge4" class="edge">
<title>Node2&#45;&gt;Node5</title>
<path fill="none" stroke="#63b8ff" d="M255.73,-109.8C243.89,-97.49 221.51,-74.35 202.07,-55 192.43,-45.4 181.48,-34.8 172.69,-26.35"/>
<polygon fill="#63b8ff" stroke="#63b8ff" points="174.96,-23.68 165.31,-19.29 170.12,-28.73 174.96,-23.68"/>
</g>
<!-- Node6&#45;&gt;Node4 -->
<g id="edge8" class="edge">
<title>Node6&#45;&gt;Node4</title>
<path fill="none" stroke="#63b8ff" d="M175.84,-54.98C195.8,-46.38 226.88,-32.99 249.72,-23.15"/>
<polygon fill="#63b8ff" stroke="#63b8ff" points="251.15,-26.34 258.95,-19.17 248.38,-19.91 251.15,-26.34"/>
</g>
<!-- Node6&#45;&gt;Node5 -->
<g id="edge6" class="edge">
<title>Node6&#45;&gt;Node5</title>
<path fill="none" stroke="#63b8ff" d="M156.07,-54.75C156.07,-47.8 156.07,-37.85 156.07,-29.13"/>
<polygon fill="#63b8ff" stroke="#63b8ff" points="159.57,-29.09 156.07,-19.09 152.57,-29.09 159.57,-29.09"/>
</g>
<!-- Node7 -->
<g id="node7" class="node">
<title>Node7</title>
<g id="a_node7"><a xlink:title=" ">
<polygon fill="#e0e0e0" stroke="#999999" points="55.07,-19 11.07,-19 11.07,0 55.07,0 55.07,-19"/>
<text text-anchor="middle" x="33.07" y="-7" font-family="Helvetica,sans-Serif" font-size="10.00">string</text>
</a>
</g>
</g>
<!-- Node6&#45;&gt;Node7 -->
<g id="edge7" class="edge">
<title>Node6&#45;&gt;Node7</title>
<path fill="none" stroke="#63b8ff" d="M136.31,-54.98C116.35,-46.38 85.27,-32.99 62.43,-23.15"/>
<polygon fill="#63b8ff" stroke="#63b8ff" points="63.77,-19.91 53.2,-19.17 61,-26.34 63.77,-19.91"/>
</g>
<!-- Node8&#45;&gt;Node2 -->
<g id="edge11" class="edge">
<title>Node8&#45;&gt;Node2</title>
<path fill="none" stroke="#63b8ff" d="M145.73,-164.98C168.92,-156.27 205.2,-142.63 231.47,-132.75"/>
<polygon fill="#63b8ff" stroke="#63b8ff" points="232.88,-135.97 241.01,-129.17 230.42,-129.41 232.88,-135.97"/>
</g>
<!-- Node8&#45;&gt;Node6 -->
<g id="edge10" class="edge">
<title>Node8&#45;&gt;Node6</title>
<path fill="none" stroke="#63b8ff" d="M125.78,-164.66C131.14,-147.09 143.26,-107.45 150.44,-83.95"/>
<polygon fill="#63b8ff" stroke="#63b8ff" points="153.85,-84.74 153.43,-74.16 147.16,-82.7 153.85,-84.74"/>
</g>
<!-- Node9 -->
<g id="node9" class="node">
<title>Node9</title>
<g id="a_node9"><a xlink:href="logger_8hpp.html" target="_top" xlink:title=" ">
<polygon fill="white" stroke="#666666" points="107.07,-129 39.07,-129 39.07,-110 107.07,-110 107.07,-129"/>
<text text-anchor="middle" x="73.07" y="-117" font-family="Helvetica,sans-Serif" font-size="10.00">logger.hpp</text>
</a>
</g>
</g>
<!-- Node8&#45;&gt;Node9 -->
<g id="edge12" class="edge">
<title>Node8&#45;&gt;Node9</title>
<path fill="none" stroke="#63b8ff" d="M114.82,-164.75C107.61,-157.11 96.97,-145.82 88.23,-136.56"/>
<polygon fill="#63b8ff" stroke="#63b8ff" points="90.59,-133.96 81.18,-129.09 85.49,-138.76 90.59,-133.96"/>
</g>
<!-- Node9&#45;&gt;Node5 -->
<g id="edge13" class="edge">
<title>Node9&#45;&gt;Node5</title>
<path fill="none" stroke="#63b8ff" d="M61.51,-109.81C46.32,-97.32 23.03,-73.75 36.07,-55 53.91,-29.36 88.33,-18.46 115.75,-13.85"/>
<polygon fill="#63b8ff" stroke="#63b8ff" points="116.48,-17.28 125.87,-12.37 115.47,-10.35 116.48,-17.28"/>
</g>
<!-- Node9&#45;&gt;Node6 -->
<g id="edge16" class="edge">
<title>Node9&#45;&gt;Node6</title>
<path fill="none" stroke="#63b8ff" d="M86.41,-109.98C99.16,-101.84 118.63,-89.41 133.75,-79.76"/>
<polygon fill="#63b8ff" stroke="#63b8ff" points="135.95,-82.5 142.5,-74.17 132.18,-76.6 135.95,-82.5"/>
</g>
<!-- Node9&#45;&gt;Node7 -->
<g id="edge15" class="edge">
<title>Node9&#45;&gt;Node7</title>
<path fill="none" stroke="#63b8ff" d="M48.27,-109.95C32.24,-102.99 12.64,-91.42 3.07,-74 -5.5,-58.4 5.47,-39.93 16.47,-26.95"/>
<polygon fill="#63b8ff" stroke="#63b8ff" points="19.32,-29.03 23.51,-19.29 14.16,-24.29 19.32,-29.03"/>
</g>
<!-- Node10 -->
<g id="node10" class="node">
<title>Node10</title>
<g id="a_node10"><a xlink:title=" ">
<polygon fill="#e0e0e0" stroke="#999999" points="100.57,-74 45.57,-74 45.57,-55 100.57,-55 100.57,-74"/>
<text text-anchor="middle" x="73.07" y="-62" font-family="Helvetica,sans-Serif" font-size="10.00">fstream</text>
</a>
</g>
</g>
<!-- Node9&#45;&gt;Node10 -->
<g id="edge14" class="edge">
<title>Node9&#45;&gt;Node10</title>
<path fill="none" stroke="#63b8ff" d="M73.07,-109.75C73.07,-102.8 73.07,-92.85 73.07,-84.13"/>
<polygon fill="#63b8ff" stroke="#63b8ff" points="76.57,-84.09 73.07,-74.09 69.57,-84.09 76.57,-84.09"/>
</g>
</g>
</svg>
