<?xml version="1.0" encoding="UTF-8" standalone="no"?>
<!DOCTYPE svg PUBLIC "-//W3C//DTD SVG 1.1//EN"
 "http://www.w3.org/Graphics/SVG/1.1/DTD/svg11.dtd">
<!-- Generated by graphviz version 2.43.0 (0)
 -->
<!-- Title: src/process_creator.hpp Pages: 1 -->
<svg width="231pt" height="137pt"
 viewBox="0.00 0.00 230.50 137.00" xmlns="http://www.w3.org/2000/svg" xmlns:xlink="http://www.w3.org/1999/xlink">
<g id="graph0" class="graph" transform="scale(1 1) rotate(0) translate(4 133)">
<title>src/process_creator.hpp</title>
<!-- Node1 -->
<g id="node1" class="node">
<title>Node1</title>
<g id="a_node1"><a xlink:title=" ">
<polygon fill="#999999" stroke="#666666" points="131,-129 0,-129 0,-110 131,-110 131,-129"/>
<text text-anchor="middle" x="65.5" y="-117" font-family="Helvetica,sans-Serif" font-size="10.00">src/process_creator.hpp</text>
</a>
</g>
</g>
<!-- Node2 -->
<g id="node2" class="node">
<title>Node2</title>
<g id="a_node2"><a xlink:title=" ">
<polygon fill="#e0e0e0" stroke="#999999" points="69.5,-19 11.5,-19 11.5,0 69.5,0 69.5,-19"/>
<text text-anchor="middle" x="40.5" y="-7" font-family="Helvetica,sans-Serif" font-size="10.00">memory</text>
</a>
</g>
</g>
<!-- Node1&#45;&gt;Node2 -->
<g id="edge1" class="edge">
<title>Node1&#45;&gt;Node2</title>
<path fill="none" stroke="#63b8ff" d="M56.48,-109.96C48.43,-101.66 37.21,-88.25 32.5,-74 27.65,-59.33 30.43,-41.86 33.98,-28.96"/>
<polygon fill="#63b8ff" stroke="#63b8ff" points="37.34,-29.95 37,-19.36 30.66,-27.85 37.34,-29.95"/>
</g>
<!-- Node3 -->
<g id="node3" class="node">
<title>Node3</title>
<g id="a_node3"><a xlink:title=" ">
<polygon fill="#e0e0e0" stroke="#999999" points="89,-74 42,-74 42,-55 89,-55 89,-74"/>
<text text-anchor="middle" x="65.5" y="-62" font-family="Helvetica,sans-Serif" font-size="10.00">vector</text>
</a>
</g>
</g>
<!-- Node1&#45;&gt;Node3 -->
<g id="edge2" class="edge">
<title>Node1&#45;&gt;Node3</title>
<path fill="none" stroke="#63b8ff" d="M65.5,-109.75C65.5,-102.8 65.5,-92.85 65.5,-84.13"/>
<polygon fill="#63b8ff" stroke="#63b8ff" points="69,-84.09 65.5,-74.09 62,-84.09 69,-84.09"/>
</g>
<!-- Node4 -->
<g id="node4" class="node">
<title>Node4</title>
<g id="a_node4"><a xlink:href="process_8hpp.html" target="_top" xlink:title=" ">
<polygon fill="white" stroke="#666666" points="182,-74 107,-74 107,-55 182,-55 182,-74"/>
<text text-anchor="middle" x="144.5" y="-62" font-family="Helvetica,sans-Serif" font-size="10.00">process.hpp</text>
</a>
</g>
</g>
<!-- Node1&#45;&gt;Node4 -->
<g id="edge3" class="edge">
<title>Node1&#45;&gt;Node4</title>
<path fill="none" stroke="#63b8ff" d="M78.19,-109.98C90.33,-101.84 108.86,-89.41 123.25,-79.76"/>
<polygon fill="#63b8ff" stroke="#63b8ff" points="125.22,-82.65 131.58,-74.17 121.32,-76.84 125.22,-82.65"/>
</g>
<!-- Node4&#45;&gt;Node2 -->
<g id="edge6" class="edge">
<title>Node4&#45;&gt;Node2</title>
<path fill="none" stroke="#63b8ff" d="M127.79,-54.98C111.29,-46.57 85.8,-33.59 66.62,-23.81"/>
<polygon fill="#63b8ff" stroke="#63b8ff" points="68.01,-20.59 57.51,-19.17 64.83,-26.83 68.01,-20.59"/>
</g>
<!-- Node5 -->
<g id="node5" class="node">
<title>Node5</title>
<g id="a_node5"><a xlink:title=" ">
<polygon fill="#e0e0e0" stroke="#999999" points="160.5,-19 100.5,-19 100.5,0 160.5,0 160.5,-19"/>
<text text-anchor="middle" x="130.5" y="-7" font-family="Helvetica,sans-Serif" font-size="10.00">iostream</text>
</a>
</g>
</g>
<!-- Node4&#45;&gt;Node5 -->
<g id="edge4" class="edge">
<title>Node4&#45;&gt;Node5</title>
<path fill="none" stroke="#63b8ff" d="M142.19,-54.75C140.33,-47.72 137.66,-37.62 135.35,-28.84"/>
<polygon fill="#63b8ff" stroke="#63b8ff" points="138.71,-27.86 132.77,-19.09 131.94,-29.65 138.71,-27.86"/>
</g>
<!-- Node6 -->
<g id="node6" class="node">
<title>Node6</title>
<g id="a_node6"><a xlink:title=" ">
<polygon fill="#e0e0e0" stroke="#999999" points="222.5,-19 178.5,-19 178.5,0 222.5,0 222.5,-19"/>
<text text-anchor="middle" x="200.5" y="-7" font-family="Helvetica,sans-Serif" font-size="10.00">string</text>
</a>
</g>
</g>
<!-- Node4&#45;&gt;Node6 -->
<g id="edge5" class="edge">
<title>Node4&#45;&gt;Node6</title>
<path fill="none" stroke="#63b8ff" d="M153.5,-54.98C161.69,-47.23 174.01,-35.58 183.97,-26.14"/>
<polygon fill="#63b8ff" stroke="#63b8ff" points="186.48,-28.59 191.34,-19.17 181.67,-23.5 186.48,-28.59"/>
</g>
</g>
</svg>
