<?xml version="1.0" encoding="UTF-8" standalone="no"?>
<!DOCTYPE svg PUBLIC "-//W3C//DTD SVG 1.1//EN"
 "http://www.w3.org/Graphics/SVG/1.1/DTD/svg11.dtd">
<!-- Generated by graphviz version 2.43.0 (0)
 -->
<!-- Title: src/process.hpp Pages: 1 -->
<svg width="842pt" height="247pt"
 viewBox="0.00 0.00 842.00 247.00" xmlns="http://www.w3.org/2000/svg" xmlns:xlink="http://www.w3.org/1999/xlink">
<g id="graph0" class="graph" transform="scale(1 1) rotate(0) translate(4 243)">
<title>src/process.hpp</title>
<!-- Node1 -->
<g id="node1" class="node">
<title>Node1</title>
<g id="a_node1"><a xlink:title=" ">
<polygon fill="#999999" stroke="#666666" points="429,-239 337,-239 337,-220 429,-220 429,-239"/>
<text text-anchor="middle" x="383" y="-227" font-family="Helvetica,sans-Serif" font-size="10.00">src/process.hpp</text>
</a>
</g>
</g>
<!-- Node2 -->
<g id="node2" class="node">
<title>Node2</title>
<g id="a_node2"><a xlink:href="FCFS_8cpp.html" target="_top" xlink:title=" ">
<polygon fill="white" stroke="#666666" points="78,-74 0,-74 0,-55 78,-55 78,-74"/>
<text text-anchor="middle" x="39" y="-62" font-family="Helvetica,sans-Serif" font-size="10.00">src/FCFS.cpp</text>
</a>
</g>
</g>
<!-- Node1&#45;&gt;Node2 -->
<g id="edge1" class="edge">
<title>Node1&#45;&gt;Node2</title>
<path fill="none" stroke="#63b8ff" d="M341.9,-217.1C314.98,-209.09 279.3,-197.43 249,-184 171.31,-149.57 84.78,-95.23 52.29,-74.21"/>
<polygon fill="#63b8ff" stroke="#63b8ff" points="341.18,-220.54 351.76,-219.99 343.15,-213.82 341.18,-220.54"/>
</g>
<!-- Node3 -->
<g id="node3" class="node">
<title>Node3</title>
<g id="a_node3"><a xlink:href="RR_8cpp.html" target="_top" xlink:title=" ">
<polygon fill="white" stroke="#666666" points="164,-74 96,-74 96,-55 164,-55 164,-74"/>
<text text-anchor="middle" x="130" y="-62" font-family="Helvetica,sans-Serif" font-size="10.00">src/RR.cpp</text>
</a>
</g>
</g>
<!-- Node1&#45;&gt;Node3 -->
<g id="edge2" class="edge">
<title>Node1&#45;&gt;Node3</title>
<path fill="none" stroke="#63b8ff" d="M349.16,-216.25C328.78,-208.26 302.67,-196.94 281,-184 222.92,-149.31 162,-95.13 139.27,-74.17"/>
<polygon fill="#63b8ff" stroke="#63b8ff" points="348.07,-219.58 358.66,-219.89 350.58,-213.04 348.07,-219.58"/>
</g>
<!-- Node4 -->
<g id="node4" class="node">
<title>Node4</title>
<g id="a_node4"><a xlink:href="logger_8hpp.html" target="_top" xlink:title=" ">
<polygon fill="white" stroke="#666666" points="425.5,-184 340.5,-184 340.5,-165 425.5,-165 425.5,-184"/>
<text text-anchor="middle" x="383" y="-172" font-family="Helvetica,sans-Serif" font-size="10.00">src/logger.hpp</text>
</a>
</g>
</g>
<!-- Node1&#45;&gt;Node4 -->
<g id="edge3" class="edge">
<title>Node1&#45;&gt;Node4</title>
<path fill="none" stroke="#63b8ff" d="M383,-209.66C383,-200.93 383,-190.99 383,-184.09"/>
<polygon fill="#63b8ff" stroke="#63b8ff" points="379.5,-209.75 383,-219.75 386.5,-209.75 379.5,-209.75"/>
</g>
<!-- Node5 -->
<g id="node5" class="node">
<title>Node5</title>
<g id="a_node5"><a xlink:href="scheduler_8hpp.html" target="_top" xlink:title=" ">
<polygon fill="white" stroke="#666666" points="362.5,-129 261.5,-129 261.5,-110 362.5,-110 362.5,-129"/>
<text text-anchor="middle" x="312" y="-117" font-family="Helvetica,sans-Serif" font-size="10.00">src/scheduler.hpp</text>
</a>
</g>
</g>
<!-- Node1&#45;&gt;Node5 -->
<g id="edge21" class="edge">
<title>Node1&#45;&gt;Node5</title>
<path fill="none" stroke="#63b8ff" d="M361.33,-213.91C351.16,-206.1 339.64,-195.68 332,-184 320.61,-166.59 315.35,-142.27 313.23,-129.36"/>
<polygon fill="#63b8ff" stroke="#63b8ff" points="359.29,-216.76 369.43,-219.84 363.42,-211.11 359.29,-216.76"/>
</g>
<!-- Node7 -->
<g id="node7" class="node">
<title>Node7</title>
<g id="a_node7"><a xlink:href="min__heap_8cpp.html" target="_top" xlink:title=" ">
<polygon fill="white" stroke="#666666" points="284,-74 182,-74 182,-55 284,-55 284,-74"/>
<text text-anchor="middle" x="233" y="-62" font-family="Helvetica,sans-Serif" font-size="10.00">src/min_heap.cpp</text>
</a>
</g>
</g>
<!-- Node1&#45;&gt;Node7 -->
<g id="edge13" class="edge">
<title>Node1&#45;&gt;Node7</title>
<path fill="none" stroke="#63b8ff" d="M356.05,-215.16C326.08,-198.93 278.41,-168.69 252,-129 240.53,-111.76 235.79,-87.37 234,-74.41"/>
<polygon fill="#63b8ff" stroke="#63b8ff" points="354.63,-218.37 365.11,-219.94 357.9,-212.18 354.63,-218.37"/>
</g>
<!-- Node8 -->
<g id="node8" class="node">
<title>Node8</title>
<g id="a_node8"><a xlink:href="simulator_8hpp.html" target="_top" xlink:title=" ">
<polygon fill="white" stroke="#666666" points="441.5,-74 340.5,-74 340.5,-55 441.5,-55 441.5,-74"/>
<text text-anchor="middle" x="391" y="-62" font-family="Helvetica,sans-Serif" font-size="10.00">src/simulator.hpp</text>
</a>
</g>
</g>
<!-- Node1&#45;&gt;Node8 -->
<g id="edge22" class="edge">
<title>Node1&#45;&gt;Node8</title>
<path fill="none" stroke="#63b8ff" d="M439.47,-222.62C491.51,-216.06 563.67,-203.7 584,-184 608.04,-160.71 619.03,-136.04 598,-110 578.71,-86.12 496.5,-74.46 441.67,-69.24"/>
<polygon fill="#63b8ff" stroke="#63b8ff" points="438.85,-219.17 429.35,-223.86 439.7,-226.12 438.85,-219.17"/>
</g>
<!-- Node10 -->
<g id="node10" class="node">
<title>Node10</title>
<g id="a_node10"><a xlink:href="printer_8hpp.html" target="_top" xlink:title=" ">
<polygon fill="white" stroke="#666666" points="834,-184 748,-184 748,-165 834,-165 834,-184"/>
<text text-anchor="middle" x="791" y="-172" font-family="Helvetica,sans-Serif" font-size="10.00">src/printer.hpp</text>
</a>
</g>
</g>
<!-- Node1&#45;&gt;Node10 -->
<g id="edge14" class="edge">
<title>Node1&#45;&gt;Node10</title>
<path fill="none" stroke="#63b8ff" d="M439.12,-222.15C509.34,-214.05 633.23,-199.25 739,-184 741.9,-183.58 744.88,-183.14 747.89,-182.68"/>
<polygon fill="#63b8ff" stroke="#63b8ff" points="438.69,-218.67 429.16,-223.29 439.49,-225.63 438.69,-218.67"/>
</g>
<!-- Node12 -->
<g id="node12" class="node">
<title>Node12</title>
<g id="a_node12"><a xlink:href="process_8cpp.html" target="_top" xlink:title=" ">
<polygon fill="white" stroke="#666666" points="730,-184 638,-184 638,-165 730,-165 730,-184"/>
<text text-anchor="middle" x="684" y="-172" font-family="Helvetica,sans-Serif" font-size="10.00">src/process.cpp</text>
</a>
</g>
</g>
<!-- Node1&#45;&gt;Node12 -->
<g id="edge17" class="edge">
<title>Node1&#45;&gt;Node12</title>
<path fill="none" stroke="#63b8ff" d="M439.03,-218.63C496.4,-208.53 584.52,-193.02 637.96,-183.61"/>
<polygon fill="#63b8ff" stroke="#63b8ff" points="438.28,-215.21 429.04,-220.39 439.5,-222.11 438.28,-215.21"/>
</g>
<!-- Node13 -->
<g id="node13" class="node">
<title>Node13</title>
<g id="a_node13"><a xlink:href="process__creator_8hpp.html" target="_top" xlink:title=" ">
<polygon fill="white" stroke="#666666" points="574.5,-184 443.5,-184 443.5,-165 574.5,-165 574.5,-184"/>
<text text-anchor="middle" x="509" y="-172" font-family="Helvetica,sans-Serif" font-size="10.00">src/process_creator.hpp</text>
</a>
</g>
</g>
<!-- Node1&#45;&gt;Node13 -->
<g id="edge18" class="edge">
<title>Node1&#45;&gt;Node13</title>
<path fill="none" stroke="#63b8ff" d="M412.65,-216.03C435.95,-206.23 467.8,-192.83 488.39,-184.17"/>
<polygon fill="#63b8ff" stroke="#63b8ff" points="411.1,-212.88 403.24,-219.98 413.82,-219.33 411.1,-212.88"/>
</g>
<!-- Node4&#45;&gt;Node5 -->
<g id="edge4" class="edge">
<title>Node4&#45;&gt;Node5</title>
<path fill="none" stroke="#63b8ff" d="M363.41,-158.88C350.63,-149.34 334.39,-137.21 323.61,-129.17"/>
<polygon fill="#63b8ff" stroke="#63b8ff" points="361.49,-161.81 371.59,-164.98 365.67,-156.2 361.49,-161.81"/>
</g>
<!-- Node4&#45;&gt;Node8 -->
<g id="edge12" class="edge">
<title>Node4&#45;&gt;Node8</title>
<path fill="none" stroke="#63b8ff" d="M384.41,-154.48C386.16,-130.84 389.07,-91.5 390.36,-74.16"/>
<polygon fill="#63b8ff" stroke="#63b8ff" points="380.9,-154.43 383.65,-164.66 387.88,-154.95 380.9,-154.43"/>
</g>
<!-- Node5&#45;&gt;Node2 -->
<g id="edge5" class="edge">
<title>Node5&#45;&gt;Node2</title>
<path fill="none" stroke="#63b8ff" d="M258.25,-108.06C205.28,-97.78 125.63,-82.32 78.32,-73.13"/>
<polygon fill="#63b8ff" stroke="#63b8ff" points="257.65,-111.51 268.14,-109.98 258.99,-104.64 257.65,-111.51"/>
</g>
<!-- Node5&#45;&gt;Node3 -->
<g id="edge6" class="edge">
<title>Node5&#45;&gt;Node3</title>
<path fill="none" stroke="#63b8ff" d="M273.14,-107.18C239.1,-97.27 190.38,-83.08 159.47,-74.08"/>
<polygon fill="#63b8ff" stroke="#63b8ff" points="272.18,-110.55 282.76,-109.98 274.14,-103.83 272.18,-110.55"/>
</g>
<!-- Node6 -->
<g id="node6" class="node">
<title>Node6</title>
<g id="a_node6"><a xlink:href="main_8cpp.html" target="_top" xlink:title=" ">
<polygon fill="white" stroke="#666666" points="430.5,-19 351.5,-19 351.5,0 430.5,0 430.5,-19"/>
<text text-anchor="middle" x="391" y="-7" font-family="Helvetica,sans-Serif" font-size="10.00">src/main.cpp</text>
</a>
</g>
</g>
<!-- Node5&#45;&gt;Node6 -->
<g id="edge7" class="edge">
<title>Node5&#45;&gt;Node6</title>
<path fill="none" stroke="#63b8ff" d="M314.72,-99.97C317.4,-86.53 322.52,-68.42 332,-55 343.03,-39.38 361.2,-26.87 374.47,-19.14"/>
<polygon fill="#63b8ff" stroke="#63b8ff" points="311.25,-99.51 313.01,-109.96 318.15,-100.69 311.25,-99.51"/>
</g>
<!-- Node5&#45;&gt;Node7 -->
<g id="edge8" class="edge">
<title>Node5&#45;&gt;Node7</title>
<path fill="none" stroke="#63b8ff" d="M290.61,-104.15C276.33,-94.57 258.03,-82.29 245.92,-74.17"/>
<polygon fill="#63b8ff" stroke="#63b8ff" points="289.05,-107.32 299.31,-109.98 292.95,-101.51 289.05,-107.32"/>
</g>
<!-- Node5&#45;&gt;Node8 -->
<g id="edge9" class="edge">
<title>Node5&#45;&gt;Node8</title>
<path fill="none" stroke="#63b8ff" d="M333.39,-104.15C347.67,-94.57 365.97,-82.29 378.08,-74.17"/>
<polygon fill="#63b8ff" stroke="#63b8ff" points="331.05,-101.51 324.69,-109.98 334.95,-107.32 331.05,-101.51"/>
</g>
<!-- Node8&#45;&gt;Node6 -->
<g id="edge10" class="edge">
<title>Node8&#45;&gt;Node6</title>
<path fill="none" stroke="#63b8ff" d="M391,-44.66C391,-35.93 391,-25.99 391,-19.09"/>
<polygon fill="#63b8ff" stroke="#63b8ff" points="387.5,-44.75 391,-54.75 394.5,-44.75 387.5,-44.75"/>
</g>
<!-- Node9 -->
<g id="node9" class="node">
<title>Node9</title>
<g id="a_node9"><a xlink:href="simulator_8cpp.html" target="_top" xlink:title=" ">
<polygon fill="white" stroke="#666666" points="691,-19 591,-19 591,0 691,0 691,-19"/>
<text text-anchor="middle" x="641" y="-7" font-family="Helvetica,sans-Serif" font-size="10.00">src/simulator.cpp</text>
</a>
</g>
</g>
<!-- Node8&#45;&gt;Node9 -->
<g id="edge11" class="edge">
<title>Node8&#45;&gt;Node9</title>
<path fill="none" stroke="#63b8ff" d="M441.1,-52.88C487.96,-42.94 557.06,-28.3 600.52,-19.08"/>
<polygon fill="#63b8ff" stroke="#63b8ff" points="440.22,-49.49 431.17,-54.98 441.68,-56.33 440.22,-49.49"/>
</g>
<!-- Node10&#45;&gt;Node9 -->
<g id="edge16" class="edge">
<title>Node10&#45;&gt;Node9</title>
<path fill="none" stroke="#63b8ff" d="M788.6,-154.98C786.15,-141.55 781.32,-123.45 772,-110 741.91,-66.57 686.9,-33.95 658.7,-19.19"/>
<polygon fill="#63b8ff" stroke="#63b8ff" points="785.16,-155.62 790.15,-164.96 792.07,-154.55 785.16,-155.62"/>
</g>
<!-- Node11 -->
<g id="node11" class="node">
<title>Node11</title>
<g id="a_node11"><a xlink:href="printer_8cpp.html" target="_top" xlink:title=" ">
<polygon fill="white" stroke="#666666" points="763,-129 677,-129 677,-110 763,-110 763,-129"/>
<text text-anchor="middle" x="720" y="-117" font-family="Helvetica,sans-Serif" font-size="10.00">src/printer.cpp</text>
</a>
</g>
</g>
<!-- Node10&#45;&gt;Node11 -->
<g id="edge15" class="edge">
<title>Node10&#45;&gt;Node11</title>
<path fill="none" stroke="#63b8ff" d="M771.41,-158.88C758.63,-149.34 742.39,-137.21 731.61,-129.17"/>
<polygon fill="#63b8ff" stroke="#63b8ff" points="769.49,-161.81 779.59,-164.98 773.67,-156.2 769.49,-161.81"/>
</g>
<!-- Node13&#45;&gt;Node6 -->
<g id="edge19" class="edge">
<title>Node13&#45;&gt;Node6</title>
<path fill="none" stroke="#63b8ff" d="M480.47,-159.95C468.44,-152.61 455.69,-142.29 449,-129 434.21,-99.61 465.79,-84.39 451,-55 442.6,-38.32 424.67,-26.32 410.58,-19.02"/>
<polygon fill="#63b8ff" stroke="#63b8ff" points="478.99,-163.13 489.42,-164.98 482.42,-157.03 478.99,-163.13"/>
</g>
<!-- Node14 -->
<g id="node14" class="node">
<title>Node14</title>
<g id="a_node14"><a xlink:href="process__creator_8cpp.html" target="_top" xlink:title=" ">
<polygon fill="white" stroke="#666666" points="588.5,-129 457.5,-129 457.5,-110 588.5,-110 588.5,-129"/>
<text text-anchor="middle" x="523" y="-117" font-family="Helvetica,sans-Serif" font-size="10.00">src/process_creator.cpp</text>
</a>
</g>
</g>
<!-- Node13&#45;&gt;Node14 -->
<g id="edge20" class="edge">
<title>Node13&#45;&gt;Node14</title>
<path fill="none" stroke="#63b8ff" d="M513.9,-154.95C516.22,-146.15 518.89,-136.06 520.73,-129.09"/>
<polygon fill="#63b8ff" stroke="#63b8ff" points="510.48,-154.19 511.31,-164.75 517.25,-155.97 510.48,-154.19"/>
</g>
</g>
</svg>
