<?xml version="1.0" encoding="UTF-8" standalone="no"?>
<!DOCTYPE svg PUBLIC "-//W3C//DTD SVG 1.1//EN"
 "http://www.w3.org/Graphics/SVG/1.1/DTD/svg11.dtd">
<!-- Generated by graphviz version 2.43.0 (0)
 -->
<!-- Title: src/process_creator.hpp Pages: 1 -->
<svg width="244pt" height="137pt"
 viewBox="0.00 0.00 244.00 137.00" xmlns="http://www.w3.org/2000/svg" xmlns:xlink="http://www.w3.org/1999/xlink">
<g id="graph0" class="graph" transform="scale(1 1) rotate(0) translate(4 133)">
<title>src/process_creator.hpp</title>
<!-- Node1 -->
<g id="node1" class="node">
<title>Node1</title>
<g id="a_node1"><a xlink:title=" ">
<polygon fill="#999999" stroke="#666666" points="165.5,-129 34.5,-129 34.5,-110 165.5,-110 165.5,-129"/>
<text text-anchor="middle" x="100" y="-117" font-family="Helvetica,sans-Serif" font-size="10.00">src/process_creator.hpp</text>
</a>
</g>
</g>
<!-- Node2 -->
<g id="node2" class="node">
<title>Node2</title>
<g id="a_node2"><a xlink:title=" ">
<polygon fill="#e0e0e0" stroke="#999999" points="58,-74 0,-74 0,-55 58,-55 58,-74"/>
<text text-anchor="middle" x="29" y="-62" font-family="Helvetica,sans-Serif" font-size="10.00">memory</text>
</a>
</g>
</g>
<!-- Node1&#45;&gt;Node2 -->
<g id="edge1" class="edge">
<title>Node1&#45;&gt;Node2</title>
<path fill="none" stroke="#63b8ff" d="M88.59,-109.98C77.89,-102 61.66,-89.88 48.84,-80.31"/>
<polygon fill="#63b8ff" stroke="#63b8ff" points="50.72,-77.35 40.61,-74.17 46.53,-82.96 50.72,-77.35"/>
</g>
<!-- Node3 -->
<g id="node3" class="node">
<title>Node3</title>
<g id="a_node3"><a xlink:title=" ">
<polygon fill="#e0e0e0" stroke="#999999" points="123.5,-74 76.5,-74 76.5,-55 123.5,-55 123.5,-74"/>
<text text-anchor="middle" x="100" y="-62" font-family="Helvetica,sans-Serif" font-size="10.00">vector</text>
</a>
</g>
</g>
<!-- Node1&#45;&gt;Node3 -->
<g id="edge2" class="edge">
<title>Node1&#45;&gt;Node3</title>
<path fill="none" stroke="#63b8ff" d="M100,-109.75C100,-102.8 100,-92.85 100,-84.13"/>
<polygon fill="#63b8ff" stroke="#63b8ff" points="103.5,-84.09 100,-74.09 96.5,-84.09 103.5,-84.09"/>
</g>
<!-- Node4 -->
<g id="node4" class="node">
<title>Node4</title>
<g id="a_node4"><a xlink:href="process_8hpp.html" target="_top" xlink:title=" ">
<polygon fill="white" stroke="#666666" points="216.5,-74 141.5,-74 141.5,-55 216.5,-55 216.5,-74"/>
<text text-anchor="middle" x="179" y="-62" font-family="Helvetica,sans-Serif" font-size="10.00">process.hpp</text>
</a>
</g>
</g>
<!-- Node1&#45;&gt;Node4 -->
<g id="edge3" class="edge">
<title>Node1&#45;&gt;Node4</title>
<path fill="none" stroke="#63b8ff" d="M112.69,-109.98C124.83,-101.84 143.36,-89.41 157.75,-79.76"/>
<polygon fill="#63b8ff" stroke="#63b8ff" points="159.72,-82.65 166.08,-74.17 155.82,-76.84 159.72,-82.65"/>
</g>
<!-- Node5 -->
<g id="node5" class="node">
<title>Node5</title>
<g id="a_node5"><a xlink:title=" ">
<polygon fill="#e0e0e0" stroke="#999999" points="174,-19 114,-19 114,0 174,0 174,-19"/>
<text text-anchor="middle" x="144" y="-7" font-family="Helvetica,sans-Serif" font-size="10.00">iostream</text>
</a>
</g>
</g>
<!-- Node4&#45;&gt;Node5 -->
<g id="edge4" class="edge">
<title>Node4&#45;&gt;Node5</title>
<path fill="none" stroke="#63b8ff" d="M173.22,-54.75C168.38,-47.42 161.32,-36.73 155.36,-27.7"/>
<polygon fill="#63b8ff" stroke="#63b8ff" points="158.1,-25.5 149.67,-19.09 152.26,-29.36 158.1,-25.5"/>
</g>
<!-- Node6 -->
<g id="node6" class="node">
<title>Node6</title>
<g id="a_node6"><a xlink:title=" ">
<polygon fill="#e0e0e0" stroke="#999999" points="236,-19 192,-19 192,0 236,0 236,-19"/>
<text text-anchor="middle" x="214" y="-7" font-family="Helvetica,sans-Serif" font-size="10.00">string</text>
</a>
</g>
</g>
<!-- Node4&#45;&gt;Node6 -->
<g id="edge5" class="edge">
<title>Node4&#45;&gt;Node6</title>
<path fill="none" stroke="#63b8ff" d="M184.78,-54.75C189.62,-47.42 196.68,-36.73 202.64,-27.7"/>
<polygon fill="#63b8ff" stroke="#63b8ff" points="205.74,-29.36 208.33,-19.09 199.9,-25.5 205.74,-29.36"/>
</g>
</g>
</svg>
