<?xml version="1.0" encoding="UTF-8" standalone="no"?>
<!DOCTYPE svg PUBLIC "-//W3C//DTD SVG 1.1//EN"
 "http://www.w3.org/Graphics/SVG/1.1/DTD/svg11.dtd">
<!-- Generated by graphviz version 2.43.0 (0)
 -->
<!-- Title: src/process_creator.cpp Pages: 1 -->
<svg width="255pt" height="192pt"
 viewBox="0.00 0.00 254.50 192.00" xmlns="http://www.w3.org/2000/svg" xmlns:xlink="http://www.w3.org/1999/xlink">
<g id="graph0" class="graph" transform="scale(1 1) rotate(0) translate(4 188)">
<title>src/process_creator.cpp</title>
<!-- Node1 -->
<g id="node1" class="node">
<title>Node1</title>
<g id="a_node1"><a xlink:title=" ">
<polygon fill="#999999" stroke="#666666" points="135,-184 4,-184 4,-165 135,-165 135,-184"/>
<text text-anchor="middle" x="69.5" y="-172" font-family="Helvetica,sans-Serif" font-size="10.00">src/process_creator.cpp</text>
</a>
</g>
</g>
<!-- Node2 -->
<g id="node2" class="node">
<title>Node2</title>
<g id="a_node2"><a xlink:title=" ">
<polygon fill="#e0e0e0" stroke="#999999" points="47,-129 0,-129 0,-110 47,-110 47,-129"/>
<text text-anchor="middle" x="23.5" y="-117" font-family="Helvetica,sans-Serif" font-size="10.00">cmath</text>
</a>
</g>
</g>
<!-- Node1&#45;&gt;Node2 -->
<g id="edge1" class="edge">
<title>Node1&#45;&gt;Node2</title>
<path fill="none" stroke="#63b8ff" d="M61.9,-164.75C55.34,-157.18 45.68,-146.05 37.69,-136.84"/>
<polygon fill="#63b8ff" stroke="#63b8ff" points="40.15,-134.35 30.95,-129.09 34.87,-138.94 40.15,-134.35"/>
</g>
<!-- Node3 -->
<g id="node3" class="node">
<title>Node3</title>
<g id="a_node3"><a xlink:href="process__creator_8h.html" target="_top" xlink:title=" ">
<polygon fill="white" stroke="#666666" points="167.5,-129 65.5,-129 65.5,-110 167.5,-110 167.5,-129"/>
<text text-anchor="middle" x="116.5" y="-117" font-family="Helvetica,sans-Serif" font-size="10.00">process_creator.h</text>
</a>
</g>
</g>
<!-- Node1&#45;&gt;Node3 -->
<g id="edge2" class="edge">
<title>Node1&#45;&gt;Node3</title>
<path fill="none" stroke="#63b8ff" d="M77.26,-164.75C83.97,-157.18 93.84,-146.05 102.01,-136.84"/>
<polygon fill="#63b8ff" stroke="#63b8ff" points="104.87,-138.89 108.88,-129.09 99.63,-134.25 104.87,-138.89"/>
</g>
<!-- Node4 -->
<g id="node4" class="node">
<title>Node4</title>
<g id="a_node4"><a xlink:title=" ">
<polygon fill="#e0e0e0" stroke="#999999" points="74.5,-74 16.5,-74 16.5,-55 74.5,-55 74.5,-74"/>
<text text-anchor="middle" x="45.5" y="-62" font-family="Helvetica,sans-Serif" font-size="10.00">memory</text>
</a>
</g>
</g>
<!-- Node3&#45;&gt;Node4 -->
<g id="edge3" class="edge">
<title>Node3&#45;&gt;Node4</title>
<path fill="none" stroke="#63b8ff" d="M105.09,-109.98C94.39,-102 78.16,-89.88 65.34,-80.31"/>
<polygon fill="#63b8ff" stroke="#63b8ff" points="67.22,-77.35 57.11,-74.17 63.03,-82.96 67.22,-77.35"/>
</g>
<!-- Node5 -->
<g id="node5" class="node">
<title>Node5</title>
<g id="a_node5"><a xlink:title=" ">
<polygon fill="#e0e0e0" stroke="#999999" points="140,-74 93,-74 93,-55 140,-55 140,-74"/>
<text text-anchor="middle" x="116.5" y="-62" font-family="Helvetica,sans-Serif" font-size="10.00">vector</text>
</a>
</g>
</g>
<!-- Node3&#45;&gt;Node5 -->
<g id="edge4" class="edge">
<title>Node3&#45;&gt;Node5</title>
<path fill="none" stroke="#63b8ff" d="M116.5,-109.75C116.5,-102.8 116.5,-92.85 116.5,-84.13"/>
<polygon fill="#63b8ff" stroke="#63b8ff" points="120,-84.09 116.5,-74.09 113,-84.09 120,-84.09"/>
</g>
<!-- Node6 -->
<g id="node6" class="node">
<title>Node6</title>
<g id="a_node6"><a xlink:href="process_8h.html" target="_top" xlink:title=" ">
<polygon fill="white" stroke="#666666" points="221,-74 158,-74 158,-55 221,-55 221,-74"/>
<text text-anchor="middle" x="189.5" y="-62" font-family="Helvetica,sans-Serif" font-size="10.00">process.h</text>
</a>
</g>
</g>
<!-- Node3&#45;&gt;Node6 -->
<g id="edge5" class="edge">
<title>Node3&#45;&gt;Node6</title>
<path fill="none" stroke="#63b8ff" d="M128.23,-109.98C139.23,-102 155.92,-89.88 169.1,-80.31"/>
<polygon fill="#63b8ff" stroke="#63b8ff" points="171.52,-82.88 177.56,-74.17 167.41,-77.21 171.52,-82.88"/>
</g>
<!-- Node7 -->
<g id="node7" class="node">
<title>Node7</title>
<g id="a_node7"><a xlink:title=" ">
<polygon fill="#e0e0e0" stroke="#999999" points="184.5,-19 124.5,-19 124.5,0 184.5,0 184.5,-19"/>
<text text-anchor="middle" x="154.5" y="-7" font-family="Helvetica,sans-Serif" font-size="10.00">iostream</text>
</a>
</g>
</g>
<!-- Node6&#45;&gt;Node7 -->
<g id="edge6" class="edge">
<title>Node6&#45;&gt;Node7</title>
<path fill="none" stroke="#63b8ff" d="M183.72,-54.75C178.88,-47.42 171.82,-36.73 165.86,-27.7"/>
<polygon fill="#63b8ff" stroke="#63b8ff" points="168.6,-25.5 160.17,-19.09 162.76,-29.36 168.6,-25.5"/>
</g>
<!-- Node8 -->
<g id="node8" class="node">
<title>Node8</title>
<g id="a_node8"><a xlink:title=" ">
<polygon fill="#e0e0e0" stroke="#999999" points="246.5,-19 202.5,-19 202.5,0 246.5,0 246.5,-19"/>
<text text-anchor="middle" x="224.5" y="-7" font-family="Helvetica,sans-Serif" font-size="10.00">string</text>
</a>
</g>
</g>
<!-- Node6&#45;&gt;Node8 -->
<g id="edge7" class="edge">
<title>Node6&#45;&gt;Node8</title>
<path fill="none" stroke="#63b8ff" d="M195.28,-54.75C200.12,-47.42 207.18,-36.73 213.14,-27.7"/>
<polygon fill="#63b8ff" stroke="#63b8ff" points="216.24,-29.36 218.83,-19.09 210.4,-25.5 216.24,-29.36"/>
</g>
</g>
</svg>
