<?xml version="1.0" encoding="UTF-8" standalone="no"?>
<!DOCTYPE svg PUBLIC "-//W3C//DTD SVG 1.1//EN"
 "http://www.w3.org/Graphics/SVG/1.1/DTD/svg11.dtd">
<!-- Generated by graphviz version 2.43.0 (0)
 -->
<!-- Title: src/process.hpp Pages: 1 -->
<svg width="723pt" height="192pt"
 viewBox="0.00 0.00 723.00 192.00" xmlns="http://www.w3.org/2000/svg" xmlns:xlink="http://www.w3.org/1999/xlink">
<g id="graph0" class="graph" transform="scale(1 1) rotate(0) translate(4 188)">
<title>src/process.hpp</title>
<!-- Node1 -->
<g id="node1" class="node">
<title>Node1</title>
<g id="a_node1"><a xlink:title=" ">
<polygon fill="#999999" stroke="#666666" points="314,-184 222,-184 222,-165 314,-165 314,-184"/>
<text text-anchor="middle" x="268" y="-172" font-family="Helvetica,sans-Serif" font-size="10.00">src/process.hpp</text>
</a>
</g>
</g>
<!-- Node2 -->
<g id="node2" class="node">
<title>Node2</title>
<g id="a_node2"><a xlink:href="FCFS_8cpp.html" target="_top" xlink:title=" ">
<polygon fill="white" stroke="#666666" points="78,-19 0,-19 0,0 78,0 78,-19"/>
<text text-anchor="middle" x="39" y="-7" font-family="Helvetica,sans-Serif" font-size="10.00">src/FCFS.cpp</text>
</a>
</g>
</g>
<!-- Node1&#45;&gt;Node2 -->
<g id="edge1" class="edge">
<title>Node1&#45;&gt;Node2</title>
<path fill="none" stroke="#63b8ff" d="M211.45,-166.97C173.52,-160.93 123.32,-149.63 83,-129 49.61,-111.91 34.65,-108.08 19,-74 10.42,-55.3 23.44,-31.91 32.17,-19.39"/>
<polygon fill="#63b8ff" stroke="#63b8ff" points="211.39,-170.5 221.8,-168.54 212.44,-163.58 211.39,-170.5"/>
</g>
<!-- Node3 -->
<g id="node3" class="node">
<title>Node3</title>
<g id="a_node3"><a xlink:href="logger_8hpp.html" target="_top" xlink:title=" ">
<polygon fill="white" stroke="#666666" points="192.5,-129 107.5,-129 107.5,-110 192.5,-110 192.5,-129"/>
<text text-anchor="middle" x="150" y="-117" font-family="Helvetica,sans-Serif" font-size="10.00">src/logger.hpp</text>
</a>
</g>
</g>
<!-- Node1&#45;&gt;Node3 -->
<g id="edge2" class="edge">
<title>Node1&#45;&gt;Node3</title>
<path fill="none" stroke="#63b8ff" d="M239.65,-160.77C217.88,-150.99 188.41,-137.75 169.3,-129.17"/>
<polygon fill="#63b8ff" stroke="#63b8ff" points="238.49,-164.08 249.04,-164.98 241.35,-157.69 238.49,-164.08"/>
</g>
<!-- Node4 -->
<g id="node4" class="node">
<title>Node4</title>
<g id="a_node4"><a xlink:href="scheduler_8hpp.html" target="_top" xlink:title=" ">
<polygon fill="white" stroke="#666666" points="129.5,-74 28.5,-74 28.5,-55 129.5,-55 129.5,-74"/>
<text text-anchor="middle" x="79" y="-62" font-family="Helvetica,sans-Serif" font-size="10.00">src/scheduler.hpp</text>
</a>
</g>
</g>
<!-- Node1&#45;&gt;Node4 -->
<g id="edge18" class="edge">
<title>Node1&#45;&gt;Node4</title>
<path fill="none" stroke="#63b8ff" d="M211.53,-172.42C174.71,-168.76 128.09,-158.06 98,-129 82.77,-114.29 79.62,-87.92 79.05,-74.25"/>
<polygon fill="#63b8ff" stroke="#63b8ff" points="211.37,-175.92 221.63,-173.28 211.96,-168.95 211.37,-175.92"/>
</g>
<!-- Node7 -->
<g id="node7" class="node">
<title>Node7</title>
<g id="a_node7"><a xlink:href="simulator_8hpp.html" target="_top" xlink:title=" ">
<polygon fill="white" stroke="#666666" points="248.5,-74 147.5,-74 147.5,-55 248.5,-55 248.5,-74"/>
<text text-anchor="middle" x="198" y="-62" font-family="Helvetica,sans-Serif" font-size="10.00">src/simulator.hpp</text>
</a>
</g>
</g>
<!-- Node1&#45;&gt;Node7 -->
<g id="edge19" class="edge">
<title>Node1&#45;&gt;Node7</title>
<path fill="none" stroke="#63b8ff" d="M256.7,-156.07C241.52,-132.64 215.11,-91.89 203.61,-74.16"/>
<polygon fill="#63b8ff" stroke="#63b8ff" points="253.9,-158.17 262.27,-164.66 259.77,-154.37 253.9,-158.17"/>
</g>
<!-- Node8 -->
<g id="node8" class="node">
<title>Node8</title>
<g id="a_node8"><a xlink:href="min__heap_8cpp.html" target="_top" xlink:title=" ">
<polygon fill="white" stroke="#666666" points="605,-129 503,-129 503,-110 605,-110 605,-129"/>
<text text-anchor="middle" x="554" y="-117" font-family="Helvetica,sans-Serif" font-size="10.00">src/min_heap.cpp</text>
</a>
</g>
</g>
<!-- Node1&#45;&gt;Node8 -->
<g id="edge10" class="edge">
<title>Node1&#45;&gt;Node8</title>
<path fill="none" stroke="#63b8ff" d="M323.97,-163.13C377.59,-153.19 457.55,-138.37 507.69,-129.08"/>
<polygon fill="#63b8ff" stroke="#63b8ff" points="323.15,-159.72 313.95,-164.98 324.42,-166.6 323.15,-159.72"/>
</g>
<!-- Node9 -->
<g id="node9" class="node">
<title>Node9</title>
<g id="a_node9"><a xlink:href="printer_8hpp.html" target="_top" xlink:title=" ">
<polygon fill="white" stroke="#666666" points="485,-129 399,-129 399,-110 485,-110 485,-129"/>
<text text-anchor="middle" x="442" y="-117" font-family="Helvetica,sans-Serif" font-size="10.00">src/printer.hpp</text>
</a>
</g>
</g>
<!-- Node1&#45;&gt;Node9 -->
<g id="edge11" class="edge">
<title>Node1&#45;&gt;Node9</title>
<path fill="none" stroke="#63b8ff" d="M305.57,-162.06C338.09,-152.15 384.4,-138.04 413.82,-129.08"/>
<polygon fill="#63b8ff" stroke="#63b8ff" points="304.5,-158.72 295.96,-164.98 306.54,-165.42 304.5,-158.72"/>
</g>
<!-- Node11 -->
<g id="node11" class="node">
<title>Node11</title>
<g id="a_node11"><a xlink:href="process_8cpp.html" target="_top" xlink:title=" ">
<polygon fill="white" stroke="#666666" points="715,-129 623,-129 623,-110 715,-110 715,-129"/>
<text text-anchor="middle" x="669" y="-117" font-family="Helvetica,sans-Serif" font-size="10.00">src/process.cpp</text>
</a>
</g>
</g>
<!-- Node1&#45;&gt;Node11 -->
<g id="edge14" class="edge">
<title>Node1&#45;&gt;Node11</title>
<path fill="none" stroke="#63b8ff" d="M324.37,-166.7C392.9,-158.32 512.04,-143.43 614,-129 616.87,-128.59 619.82,-128.17 622.8,-127.73"/>
<polygon fill="#63b8ff" stroke="#63b8ff" points="323.72,-163.25 314.22,-167.93 324.57,-170.2 323.72,-163.25"/>
</g>
<!-- Node12 -->
<g id="node12" class="node">
<title>Node12</title>
<g id="a_node12"><a xlink:href="process__creator_8hpp.html" target="_top" xlink:title=" ">
<polygon fill="white" stroke="#666666" points="380.5,-129 249.5,-129 249.5,-110 380.5,-110 380.5,-129"/>
<text text-anchor="middle" x="315" y="-117" font-family="Helvetica,sans-Serif" font-size="10.00">src/process_creator.hpp</text>
</a>
</g>
</g>
<!-- Node1&#45;&gt;Node12 -->
<g id="edge15" class="edge">
<title>Node1&#45;&gt;Node12</title>
<path fill="none" stroke="#63b8ff" d="M282.42,-157.24C290.66,-147.95 300.65,-136.68 307.38,-129.09"/>
<polygon fill="#63b8ff" stroke="#63b8ff" points="279.78,-154.94 275.76,-164.75 285.01,-159.59 279.78,-154.94"/>
</g>
<!-- Node3&#45;&gt;Node4 -->
<g id="edge3" class="edge">
<title>Node3&#45;&gt;Node4</title>
<path fill="none" stroke="#63b8ff" d="M130.41,-103.88C117.63,-94.34 101.39,-82.21 90.61,-74.17"/>
<polygon fill="#63b8ff" stroke="#63b8ff" points="128.49,-106.81 138.59,-109.98 132.67,-101.2 128.49,-106.81"/>
</g>
<!-- Node3&#45;&gt;Node7 -->
<g id="edge7" class="edge">
<title>Node3&#45;&gt;Node7</title>
<path fill="none" stroke="#63b8ff" d="M164.73,-102.24C173.14,-92.95 183.35,-81.68 190.22,-74.09"/>
<polygon fill="#63b8ff" stroke="#63b8ff" points="162.04,-99.99 157.93,-109.75 167.23,-104.69 162.04,-99.99"/>
</g>
<!-- Node4&#45;&gt;Node2 -->
<g id="edge4" class="edge">
<title>Node4&#45;&gt;Node2</title>
<path fill="none" stroke="#63b8ff" d="M66.3,-46.67C59.37,-37.5 51.09,-26.52 45.48,-19.09"/>
<polygon fill="#63b8ff" stroke="#63b8ff" points="63.58,-48.87 72.39,-54.75 69.16,-44.66 63.58,-48.87"/>
</g>
<!-- Node5 -->
<g id="node5" class="node">
<title>Node5</title>
<g id="a_node5"><a xlink:href="main_8cpp.html" target="_top" xlink:title=" ">
<polygon fill="white" stroke="#666666" points="206.5,-19 127.5,-19 127.5,0 206.5,0 206.5,-19"/>
<text text-anchor="middle" x="167" y="-7" font-family="Helvetica,sans-Serif" font-size="10.00">src/main.cpp</text>
</a>
</g>
</g>
<!-- Node4&#45;&gt;Node5 -->
<g id="edge5" class="edge">
<title>Node4&#45;&gt;Node5</title>
<path fill="none" stroke="#63b8ff" d="M101.92,-49.7C117.95,-40.04 138.87,-27.44 152.6,-19.17"/>
<polygon fill="#63b8ff" stroke="#63b8ff" points="99.9,-46.83 93.14,-54.98 103.51,-52.82 99.9,-46.83"/>
</g>
<!-- Node6 -->
<g id="node6" class="node">
<title>Node6</title>
<g id="a_node6"><a xlink:href="simulator_8cpp.html" target="_top" xlink:title=" ">
<polygon fill="white" stroke="#666666" points="325,-19 225,-19 225,0 325,0 325,-19"/>
<text text-anchor="middle" x="275" y="-7" font-family="Helvetica,sans-Serif" font-size="10.00">src/simulator.cpp</text>
</a>
</g>
</g>
<!-- Node4&#45;&gt;Node6 -->
<g id="edge6" class="edge">
<title>Node4&#45;&gt;Node6</title>
<path fill="none" stroke="#63b8ff" d="M120.38,-52.31C157.05,-42.39 209.83,-28.12 243.26,-19.08"/>
<polygon fill="#63b8ff" stroke="#63b8ff" points="119.23,-49 110.49,-54.98 121.06,-55.75 119.23,-49"/>
</g>
<!-- Node7&#45;&gt;Node5 -->
<g id="edge8" class="edge">
<title>Node7&#45;&gt;Node5</title>
<path fill="none" stroke="#63b8ff" d="M187.82,-46.1C182.53,-37.04 176.28,-26.37 172.02,-19.09"/>
<polygon fill="#63b8ff" stroke="#63b8ff" points="184.81,-47.88 192.88,-54.75 190.85,-44.35 184.81,-47.88"/>
</g>
<!-- Node7&#45;&gt;Node6 -->
<g id="edge9" class="edge">
<title>Node7&#45;&gt;Node6</title>
<path fill="none" stroke="#63b8ff" d="M218.85,-49.15C232.76,-39.57 250.61,-27.29 262.4,-19.17"/>
<polygon fill="#63b8ff" stroke="#63b8ff" points="216.62,-46.43 210.37,-54.98 220.59,-52.2 216.62,-46.43"/>
</g>
<!-- Node9&#45;&gt;Node6 -->
<g id="edge13" class="edge">
<title>Node9&#45;&gt;Node6</title>
<path fill="none" stroke="#63b8ff" d="M494.06,-107.37C531.13,-97.07 570.97,-79.63 550,-55 521.71,-21.76 396.6,-13.27 325.27,-11.16"/>
<polygon fill="#63b8ff" stroke="#63b8ff" points="493.01,-104.02 484.23,-109.96 494.79,-110.79 493.01,-104.02"/>
</g>
<!-- Node10 -->
<g id="node10" class="node">
<title>Node10</title>
<g id="a_node10"><a xlink:href="printer_8cpp.html" target="_top" xlink:title=" ">
<polygon fill="white" stroke="#666666" points="541,-74 455,-74 455,-55 541,-55 541,-74"/>
<text text-anchor="middle" x="498" y="-62" font-family="Helvetica,sans-Serif" font-size="10.00">src/printer.cpp</text>
</a>
</g>
</g>
<!-- Node9&#45;&gt;Node10 -->
<g id="edge12" class="edge">
<title>Node9&#45;&gt;Node10</title>
<path fill="none" stroke="#63b8ff" d="M458.33,-103.04C468.26,-93.64 480.59,-81.98 488.84,-74.17"/>
<polygon fill="#63b8ff" stroke="#63b8ff" points="455.85,-100.57 451,-109.98 460.67,-105.65 455.85,-100.57"/>
</g>
<!-- Node12&#45;&gt;Node5 -->
<g id="edge16" class="edge">
<title>Node12&#45;&gt;Node5</title>
<path fill="none" stroke="#63b8ff" d="M302.46,-101.58C291.58,-87.77 274.81,-68.4 257,-55 236.24,-39.39 209.16,-26.87 190.15,-19.14"/>
<polygon fill="#63b8ff" stroke="#63b8ff" points="299.85,-103.93 308.71,-109.74 305.4,-99.68 299.85,-103.93"/>
</g>
<!-- Node13 -->
<g id="node13" class="node">
<title>Node13</title>
<g id="a_node13"><a xlink:href="process__creator_8cpp.html" target="_top" xlink:title=" ">
<polygon fill="white" stroke="#666666" points="436.5,-74 305.5,-74 305.5,-55 436.5,-55 436.5,-74"/>
<text text-anchor="middle" x="371" y="-62" font-family="Helvetica,sans-Serif" font-size="10.00">src/process_creator.cpp</text>
</a>
</g>
</g>
<!-- Node12&#45;&gt;Node13 -->
<g id="edge17" class="edge">
<title>Node12&#45;&gt;Node13</title>
<path fill="none" stroke="#63b8ff" d="M331.33,-103.04C341.26,-93.64 353.59,-81.98 361.84,-74.17"/>
<polygon fill="#63b8ff" stroke="#63b8ff" points="328.85,-100.57 324,-109.98 333.67,-105.65 328.85,-100.57"/>
</g>
</g>
</svg>
