<?xml version="1.0" encoding="UTF-8" standalone="no"?>
<!DOCTYPE svg PUBLIC "-//W3C//DTD SVG 1.1//EN"
 "http://www.w3.org/Graphics/SVG/1.1/DTD/svg11.dtd">
<!-- Generated by graphviz version 2.43.0 (0)
 -->
<!-- Title: src/process.hpp Pages: 1 -->
<svg width="658pt" height="192pt"
 viewBox="0.00 0.00 658.00 192.00" xmlns="http://www.w3.org/2000/svg" xmlns:xlink="http://www.w3.org/1999/xlink">
<g id="graph0" class="graph" transform="scale(1 1) rotate(0) translate(4 188)">
<title>src/process.hpp</title>
<!-- Node1 -->
<g id="node1" class="node">
<title>Node1</title>
<g id="a_node1"><a xlink:title=" ">
<polygon fill="#999999" stroke="#666666" points="306,-184 214,-184 214,-165 306,-165 306,-184"/>
<text text-anchor="middle" x="260" y="-172" font-family="Helvetica,sans-Serif" font-size="10.00">src/process.hpp</text>
</a>
</g>
</g>
<!-- Node2 -->
<g id="node2" class="node">
<title>Node2</title>
<g id="a_node2"><a xlink:href="FCFS_8cpp.html" target="_top" xlink:title=" ">
<polygon fill="white" stroke="#666666" points="78,-19 0,-19 0,0 78,0 78,-19"/>
<text text-anchor="middle" x="39" y="-7" font-family="Helvetica,sans-Serif" font-size="10.00">src/FCFS.cpp</text>
</a>
</g>
</g>
<!-- Node1&#45;&gt;Node2 -->
<g id="edge1" class="edge">
<title>Node1&#45;&gt;Node2</title>
<path fill="none" stroke="#63b8ff" d="M209.58,-162.41C182.53,-155.21 149.26,-144.28 122,-129 89.28,-110.66 78.42,-105.46 58,-74 46.72,-56.63 41.91,-32.29 40.05,-19.37"/>
<polygon fill="#63b8ff" stroke="#63b8ff" points="209.05,-165.89 219.61,-164.98 210.8,-159.11 209.05,-165.89"/>
</g>
<!-- Node3 -->
<g id="node3" class="node">
<title>Node3</title>
<g id="a_node3"><a xlink:href="logger_8hpp.html" target="_top" xlink:title=" ">
<polygon fill="white" stroke="#666666" points="231.5,-129 146.5,-129 146.5,-110 231.5,-110 231.5,-129"/>
<text text-anchor="middle" x="189" y="-117" font-family="Helvetica,sans-Serif" font-size="10.00">src/logger.hpp</text>
</a>
</g>
</g>
<!-- Node1&#45;&gt;Node3 -->
<g id="edge2" class="edge">
<title>Node1&#45;&gt;Node3</title>
<path fill="none" stroke="#63b8ff" d="M240.41,-158.88C227.63,-149.34 211.39,-137.21 200.61,-129.17"/>
<polygon fill="#63b8ff" stroke="#63b8ff" points="238.49,-161.81 248.59,-164.98 242.67,-156.2 238.49,-161.81"/>
</g>
<!-- Node4 -->
<g id="node4" class="node">
<title>Node4</title>
<g id="a_node4"><a xlink:href="scheduler_8hpp.html" target="_top" xlink:title=" ">
<polygon fill="white" stroke="#666666" points="168.5,-74 67.5,-74 67.5,-55 168.5,-55 168.5,-74"/>
<text text-anchor="middle" x="118" y="-62" font-family="Helvetica,sans-Serif" font-size="10.00">src/scheduler.hpp</text>
</a>
</g>
</g>
<!-- Node1&#45;&gt;Node4 -->
<g id="edge15" class="edge">
<title>Node1&#45;&gt;Node4</title>
<path fill="none" stroke="#63b8ff" d="M203.89,-164.72C180.4,-158.4 154.54,-147.56 137,-129 122.46,-113.61 119,-87.54 118.21,-74.09"/>
<polygon fill="#63b8ff" stroke="#63b8ff" points="203.23,-168.16 213.78,-167.16 204.91,-161.37 203.23,-168.16"/>
</g>
<!-- Node7 -->
<g id="node7" class="node">
<title>Node7</title>
<g id="a_node7"><a xlink:href="simulator_8hpp.html" target="_top" xlink:title=" ">
<polygon fill="white" stroke="#666666" points="287.5,-74 186.5,-74 186.5,-55 287.5,-55 287.5,-74"/>
<text text-anchor="middle" x="237" y="-62" font-family="Helvetica,sans-Serif" font-size="10.00">src/simulator.hpp</text>
</a>
</g>
</g>
<!-- Node1&#45;&gt;Node7 -->
<g id="edge16" class="edge">
<title>Node1&#45;&gt;Node7</title>
<path fill="none" stroke="#63b8ff" d="M256.02,-154.8C250.99,-131.2 242.55,-91.58 238.84,-74.16"/>
<polygon fill="#63b8ff" stroke="#63b8ff" points="252.61,-155.61 258.12,-164.66 259.46,-154.15 252.61,-155.61"/>
</g>
<!-- Node8 -->
<g id="node8" class="node">
<title>Node8</title>
<g id="a_node8"><a xlink:href="min__heap_8cpp.html" target="_top" xlink:title=" ">
<polygon fill="white" stroke="#666666" points="540,-129 438,-129 438,-110 540,-110 540,-129"/>
<text text-anchor="middle" x="489" y="-117" font-family="Helvetica,sans-Serif" font-size="10.00">src/min_heap.cpp</text>
</a>
</g>
</g>
<!-- Node1&#45;&gt;Node8 -->
<g id="edge10" class="edge">
<title>Node1&#45;&gt;Node8</title>
<path fill="none" stroke="#63b8ff" d="M306.71,-162.69C349.61,-152.76 412.36,-138.24 451.92,-129.08"/>
<polygon fill="#63b8ff" stroke="#63b8ff" points="305.75,-159.32 296.79,-164.98 307.32,-166.14 305.75,-159.32"/>
</g>
<!-- Node9 -->
<g id="node9" class="node">
<title>Node9</title>
<g id="a_node9"><a xlink:href="process_8cpp.html" target="_top" xlink:title=" ">
<polygon fill="white" stroke="#666666" points="650,-129 558,-129 558,-110 650,-110 650,-129"/>
<text text-anchor="middle" x="604" y="-117" font-family="Helvetica,sans-Serif" font-size="10.00">src/process.cpp</text>
</a>
</g>
</g>
<!-- Node1&#45;&gt;Node9 -->
<g id="edge11" class="edge">
<title>Node1&#45;&gt;Node9</title>
<path fill="none" stroke="#63b8ff" d="M316.15,-164.86C374.38,-155.91 468.07,-141.49 549,-129 551.86,-128.56 554.81,-128.1 557.79,-127.64"/>
<polygon fill="#63b8ff" stroke="#63b8ff" points="315.4,-161.44 306.05,-166.42 316.47,-168.36 315.4,-161.44"/>
</g>
<!-- Node10 -->
<g id="node10" class="node">
<title>Node10</title>
<g id="a_node10"><a xlink:href="process__creator_8hpp.html" target="_top" xlink:title=" ">
<polygon fill="white" stroke="#666666" points="419.5,-129 288.5,-129 288.5,-110 419.5,-110 419.5,-129"/>
<text text-anchor="middle" x="354" y="-117" font-family="Helvetica,sans-Serif" font-size="10.00">src/process_creator.hpp</text>
</a>
</g>
</g>
<!-- Node1&#45;&gt;Node10 -->
<g id="edge12" class="edge">
<title>Node1&#45;&gt;Node10</title>
<path fill="none" stroke="#63b8ff" d="M284,-159.97C301.19,-150.28 323.81,-137.52 338.62,-129.17"/>
<polygon fill="#63b8ff" stroke="#63b8ff" points="282.09,-157.02 275.1,-164.98 285.53,-163.12 282.09,-157.02"/>
</g>
<!-- Node3&#45;&gt;Node4 -->
<g id="edge3" class="edge">
<title>Node3&#45;&gt;Node4</title>
<path fill="none" stroke="#63b8ff" d="M169.41,-103.88C156.63,-94.34 140.39,-82.21 129.61,-74.17"/>
<polygon fill="#63b8ff" stroke="#63b8ff" points="167.49,-106.81 177.59,-109.98 171.67,-101.2 167.49,-106.81"/>
</g>
<!-- Node3&#45;&gt;Node7 -->
<g id="edge7" class="edge">
<title>Node3&#45;&gt;Node7</title>
<path fill="none" stroke="#63b8ff" d="M203.73,-102.24C212.14,-92.95 222.35,-81.68 229.22,-74.09"/>
<polygon fill="#63b8ff" stroke="#63b8ff" points="201.04,-99.99 196.93,-109.75 206.23,-104.69 201.04,-99.99"/>
</g>
<!-- Node4&#45;&gt;Node2 -->
<g id="edge4" class="edge">
<title>Node4&#45;&gt;Node2</title>
<path fill="none" stroke="#63b8ff" d="M96.61,-49.15C82.33,-39.57 64.03,-27.29 51.92,-19.17"/>
<polygon fill="#63b8ff" stroke="#63b8ff" points="95.05,-52.32 105.31,-54.98 98.95,-46.51 95.05,-52.32"/>
</g>
<!-- Node5 -->
<g id="node5" class="node">
<title>Node5</title>
<g id="a_node5"><a xlink:href="main_8cpp.html" target="_top" xlink:title=" ">
<polygon fill="white" stroke="#666666" points="293.5,-19 214.5,-19 214.5,0 293.5,0 293.5,-19"/>
<text text-anchor="middle" x="254" y="-7" font-family="Helvetica,sans-Serif" font-size="10.00">src/main.cpp</text>
</a>
</g>
</g>
<!-- Node4&#45;&gt;Node5 -->
<g id="edge5" class="edge">
<title>Node4&#45;&gt;Node5</title>
<path fill="none" stroke="#63b8ff" d="M149.33,-51.29C174.54,-41.47 209.33,-27.91 231.75,-19.17"/>
<polygon fill="#63b8ff" stroke="#63b8ff" points="147.9,-48.09 139.85,-54.98 150.44,-54.61 147.9,-48.09"/>
</g>
<!-- Node6 -->
<g id="node6" class="node">
<title>Node6</title>
<g id="a_node6"><a xlink:href="simulator_8cpp.html" target="_top" xlink:title=" ">
<polygon fill="white" stroke="#666666" points="196,-19 96,-19 96,0 196,0 196,-19"/>
<text text-anchor="middle" x="146" y="-7" font-family="Helvetica,sans-Serif" font-size="10.00">src/simulator.cpp</text>
</a>
</g>
</g>
<!-- Node4&#45;&gt;Node6 -->
<g id="edge6" class="edge">
<title>Node4&#45;&gt;Node6</title>
<path fill="none" stroke="#63b8ff" d="M127.34,-45.82C132.09,-36.82 137.66,-26.29 141.46,-19.09"/>
<polygon fill="#63b8ff" stroke="#63b8ff" points="124.2,-44.27 122.62,-54.75 130.39,-47.54 124.2,-44.27"/>
</g>
<!-- Node7&#45;&gt;Node5 -->
<g id="edge8" class="edge">
<title>Node7&#45;&gt;Node5</title>
<path fill="none" stroke="#63b8ff" d="M242.95,-44.95C245.77,-36.15 249.01,-26.06 251.25,-19.09"/>
<polygon fill="#63b8ff" stroke="#63b8ff" points="239.53,-44.16 239.81,-54.75 246.19,-46.29 239.53,-44.16"/>
</g>
<!-- Node7&#45;&gt;Node6 -->
<g id="edge9" class="edge">
<title>Node7&#45;&gt;Node6</title>
<path fill="none" stroke="#63b8ff" d="M213.3,-49.7C196.72,-40.04 175.09,-27.44 160.89,-19.17"/>
<polygon fill="#63b8ff" stroke="#63b8ff" points="211.98,-52.98 222.38,-54.98 215.5,-46.93 211.98,-52.98"/>
</g>
<!-- Node10&#45;&gt;Node5 -->
<g id="edge13" class="edge">
<title>Node10&#45;&gt;Node5</title>
<path fill="none" stroke="#63b8ff" d="M397.01,-106.77C429,-95.89 464.22,-77.93 446,-55 427.37,-31.56 344.49,-19.37 293.91,-14.01"/>
<polygon fill="#63b8ff" stroke="#63b8ff" points="395.69,-103.52 387.24,-109.92 397.84,-110.18 395.69,-103.52"/>
</g>
<!-- Node11 -->
<g id="node11" class="node">
<title>Node11</title>
<g id="a_node11"><a xlink:href="process__creator_8cpp.html" target="_top" xlink:title=" ">
<polygon fill="white" stroke="#666666" points="436.5,-74 305.5,-74 305.5,-55 436.5,-55 436.5,-74"/>
<text text-anchor="middle" x="371" y="-62" font-family="Helvetica,sans-Serif" font-size="10.00">src/process_creator.cpp</text>
</a>
</g>
</g>
<!-- Node10&#45;&gt;Node11 -->
<g id="edge14" class="edge">
<title>Node10&#45;&gt;Node11</title>
<path fill="none" stroke="#63b8ff" d="M359.95,-99.95C362.77,-91.15 366.01,-81.06 368.25,-74.09"/>
<polygon fill="#63b8ff" stroke="#63b8ff" points="356.53,-99.16 356.81,-109.75 363.19,-101.29 356.53,-99.16"/>
</g>
</g>
</svg>
