<?xml version="1.0" encoding="UTF-8" standalone="no"?>
<!DOCTYPE svg PUBLIC "-//W3C//DTD SVG 1.1//EN"
 "http://www.w3.org/Graphics/SVG/1.1/DTD/svg11.dtd">
<!-- Generated by graphviz version 2.43.0 (0)
 -->
<!-- Title: src/process.hpp Pages: 1 -->
<svg width="740pt" height="137pt"
 viewBox="0.00 0.00 740.00 137.00" xmlns="http://www.w3.org/2000/svg" xmlns:xlink="http://www.w3.org/1999/xlink">
<g id="graph0" class="graph" transform="scale(1 1) rotate(0) translate(4 133)">
<title>src/process.hpp</title>
<!-- Node1 -->
<g id="node1" class="node">
<title>Node1</title>
<g id="a_node1"><a xlink:title=" ">
<polygon fill="#999999" stroke="#666666" points="348,-129 256,-129 256,-110 348,-110 348,-129"/>
<text text-anchor="middle" x="302" y="-117" font-family="Helvetica,sans-Serif" font-size="10.00">src/process.hpp</text>
</a>
</g>
</g>
<!-- Node2 -->
<g id="node2" class="node">
<title>Node2</title>
<g id="a_node2"><a xlink:href="FCFS_8cpp.html" target="_top" xlink:title=" ">
<polygon fill="white" stroke="#666666" points="78,-19 0,-19 0,0 78,0 78,-19"/>
<text text-anchor="middle" x="39" y="-7" font-family="Helvetica,sans-Serif" font-size="10.00">src/FCFS.cpp</text>
</a>
</g>
</g>
<!-- Node1&#45;&gt;Node2 -->
<g id="edge1" class="edge">
<title>Node1&#45;&gt;Node2</title>
<path fill="none" stroke="#63b8ff" d="M245.76,-117.92C171.96,-115.82 48.45,-107.29 20,-74 6.39,-58.08 21.74,-32.7 31.74,-19.36"/>
<polygon fill="#63b8ff" stroke="#63b8ff" points="245.75,-121.42 255.83,-118.17 245.92,-114.42 245.75,-121.42"/>
</g>
<!-- Node3 -->
<g id="node3" class="node">
<title>Node3</title>
<g id="a_node3"><a xlink:href="logger_8hpp.html" target="_top" xlink:title=" ">
<polygon fill="white" stroke="#666666" points="114.5,-74 29.5,-74 29.5,-55 114.5,-55 114.5,-74"/>
<text text-anchor="middle" x="72" y="-62" font-family="Helvetica,sans-Serif" font-size="10.00">src/logger.hpp</text>
</a>
</g>
</g>
<!-- Node1&#45;&gt;Node3 -->
<g id="edge2" class="edge">
<title>Node1&#45;&gt;Node3</title>
<path fill="none" stroke="#63b8ff" d="M255.09,-107.69C212,-97.76 148.97,-83.24 109.24,-74.08"/>
<polygon fill="#63b8ff" stroke="#63b8ff" points="254.52,-111.15 265.05,-109.98 256.09,-104.33 254.52,-111.15"/>
</g>
<!-- Node5 -->
<g id="node5" class="node">
<title>Node5</title>
<g id="a_node5"><a xlink:href="min__heap_8cpp.html" target="_top" xlink:title=" ">
<polygon fill="white" stroke="#666666" points="622,-74 520,-74 520,-55 622,-55 622,-74"/>
<text text-anchor="middle" x="571" y="-62" font-family="Helvetica,sans-Serif" font-size="10.00">src/min_heap.cpp</text>
</a>
</g>
</g>
<!-- Node1&#45;&gt;Node5 -->
<g id="edge4" class="edge">
<title>Node1&#45;&gt;Node5</title>
<path fill="none" stroke="#63b8ff" d="M355.28,-108C405.7,-98.07 480.48,-83.33 527.44,-74.08"/>
<polygon fill="#63b8ff" stroke="#63b8ff" points="354.35,-104.62 345.22,-109.98 355.71,-111.49 354.35,-104.62"/>
</g>
<!-- Node6 -->
<g id="node6" class="node">
<title>Node6</title>
<g id="a_node6"><a xlink:href="process_8cpp.html" target="_top" xlink:title=" ">
<polygon fill="white" stroke="#666666" points="732,-74 640,-74 640,-55 732,-55 732,-74"/>
<text text-anchor="middle" x="686" y="-62" font-family="Helvetica,sans-Serif" font-size="10.00">src/process.cpp</text>
</a>
</g>
</g>
<!-- Node1&#45;&gt;Node6 -->
<g id="edge5" class="edge">
<title>Node1&#45;&gt;Node6</title>
<path fill="none" stroke="#63b8ff" d="M358.19,-111.23C423.73,-102.67 535.3,-87.87 631,-74 633.87,-73.58 636.82,-73.15 639.8,-72.71"/>
<polygon fill="#63b8ff" stroke="#63b8ff" points="357.54,-107.78 348.08,-112.55 358.45,-114.72 357.54,-107.78"/>
</g>
<!-- Node7 -->
<g id="node7" class="node">
<title>Node7</title>
<g id="a_node7"><a xlink:href="process__creator_8hpp.html" target="_top" xlink:title=" ">
<polygon fill="white" stroke="#666666" points="501.5,-74 370.5,-74 370.5,-55 501.5,-55 501.5,-74"/>
<text text-anchor="middle" x="436" y="-62" font-family="Helvetica,sans-Serif" font-size="10.00">src/process_creator.hpp</text>
</a>
</g>
</g>
<!-- Node1&#45;&gt;Node7 -->
<g id="edge6" class="edge">
<title>Node1&#45;&gt;Node7</title>
<path fill="none" stroke="#63b8ff" d="M332.87,-106.29C357.7,-96.47 391.99,-82.91 414.08,-74.17"/>
<polygon fill="#63b8ff" stroke="#63b8ff" points="331.54,-103.05 323.53,-109.98 334.12,-109.56 331.54,-103.05"/>
</g>
<!-- Node10 -->
<g id="node10" class="node">
<title>Node10</title>
<g id="a_node10"><a xlink:href="scheduler_8hpp.html" target="_top" xlink:title=" ">
<polygon fill="white" stroke="#666666" points="233.5,-74 132.5,-74 132.5,-55 233.5,-55 233.5,-74"/>
<text text-anchor="middle" x="183" y="-62" font-family="Helvetica,sans-Serif" font-size="10.00">src/scheduler.hpp</text>
</a>
</g>
</g>
<!-- Node1&#45;&gt;Node10 -->
<g id="edge9" class="edge">
<title>Node1&#45;&gt;Node10</title>
<path fill="none" stroke="#63b8ff" d="M273.7,-105.9C251.72,-96.11 221.82,-82.79 202.47,-74.17"/>
<polygon fill="#63b8ff" stroke="#63b8ff" points="272.32,-109.11 282.88,-109.98 275.17,-102.72 272.32,-109.11"/>
</g>
<!-- Node11 -->
<g id="node11" class="node">
<title>Node11</title>
<g id="a_node11"><a xlink:href="simulator_8hpp.html" target="_top" xlink:title=" ">
<polygon fill="white" stroke="#666666" points="352.5,-74 251.5,-74 251.5,-55 352.5,-55 352.5,-74"/>
<text text-anchor="middle" x="302" y="-62" font-family="Helvetica,sans-Serif" font-size="10.00">src/simulator.hpp</text>
</a>
</g>
</g>
<!-- Node1&#45;&gt;Node11 -->
<g id="edge13" class="edge">
<title>Node1&#45;&gt;Node11</title>
<path fill="none" stroke="#63b8ff" d="M302,-99.66C302,-90.93 302,-80.99 302,-74.09"/>
<polygon fill="#63b8ff" stroke="#63b8ff" points="298.5,-99.75 302,-109.75 305.5,-99.75 298.5,-99.75"/>
</g>
<!-- Node4 -->
<g id="node4" class="node">
<title>Node4</title>
<g id="a_node4"><a xlink:href="simulator_8cpp.html" target="_top" xlink:title=" ">
<polygon fill="white" stroke="#666666" points="233,-19 133,-19 133,0 233,0 233,-19"/>
<text text-anchor="middle" x="183" y="-7" font-family="Helvetica,sans-Serif" font-size="10.00">src/simulator.cpp</text>
</a>
</g>
</g>
<!-- Node3&#45;&gt;Node4 -->
<g id="edge3" class="edge">
<title>Node3&#45;&gt;Node4</title>
<path fill="none" stroke="#63b8ff" d="M98.95,-50.63C119.39,-40.87 146.95,-27.71 164.84,-19.17"/>
<polygon fill="#63b8ff" stroke="#63b8ff" points="97.35,-47.52 89.83,-54.98 100.37,-53.83 97.35,-47.52"/>
</g>
<!-- Node8 -->
<g id="node8" class="node">
<title>Node8</title>
<g id="a_node8"><a xlink:href="main_8cpp.html" target="_top" xlink:title=" ">
<polygon fill="white" stroke="#666666" points="341.5,-19 262.5,-19 262.5,0 341.5,0 341.5,-19"/>
<text text-anchor="middle" x="302" y="-7" font-family="Helvetica,sans-Serif" font-size="10.00">src/main.cpp</text>
</a>
</g>
</g>
<!-- Node7&#45;&gt;Node8 -->
<g id="edge7" class="edge">
<title>Node7&#45;&gt;Node8</title>
<path fill="none" stroke="#63b8ff" d="M405.13,-51.29C380.3,-41.47 346.01,-27.91 323.92,-19.17"/>
<polygon fill="#63b8ff" stroke="#63b8ff" points="403.88,-54.56 414.47,-54.98 406.46,-48.05 403.88,-54.56"/>
</g>
<!-- Node9 -->
<g id="node9" class="node">
<title>Node9</title>
<g id="a_node9"><a xlink:href="process__creator_8cpp.html" target="_top" xlink:title=" ">
<polygon fill="white" stroke="#666666" points="501.5,-19 370.5,-19 370.5,0 501.5,0 501.5,-19"/>
<text text-anchor="middle" x="436" y="-7" font-family="Helvetica,sans-Serif" font-size="10.00">src/process_creator.cpp</text>
</a>
</g>
</g>
<!-- Node7&#45;&gt;Node9 -->
<g id="edge8" class="edge">
<title>Node7&#45;&gt;Node9</title>
<path fill="none" stroke="#63b8ff" d="M436,-44.66C436,-35.93 436,-25.99 436,-19.09"/>
<polygon fill="#63b8ff" stroke="#63b8ff" points="432.5,-44.75 436,-54.75 439.5,-44.75 432.5,-44.75"/>
</g>
<!-- Node10&#45;&gt;Node2 -->
<g id="edge10" class="edge">
<title>Node10&#45;&gt;Node2</title>
<path fill="none" stroke="#63b8ff" d="M150.18,-51.42C123.47,-41.59 86.4,-27.95 62.56,-19.17"/>
<polygon fill="#63b8ff" stroke="#63b8ff" points="149.27,-54.82 159.86,-54.98 151.69,-48.25 149.27,-54.82"/>
</g>
<!-- Node10&#45;&gt;Node4 -->
<g id="edge12" class="edge">
<title>Node10&#45;&gt;Node4</title>
<path fill="none" stroke="#63b8ff" d="M183,-44.66C183,-35.93 183,-25.99 183,-19.09"/>
<polygon fill="#63b8ff" stroke="#63b8ff" points="179.5,-44.75 183,-54.75 186.5,-44.75 179.5,-44.75"/>
</g>
<!-- Node10&#45;&gt;Node8 -->
<g id="edge11" class="edge">
<title>Node10&#45;&gt;Node8</title>
<path fill="none" stroke="#63b8ff" d="M211.3,-50.9C233.28,-41.11 263.18,-27.79 282.53,-19.17"/>
<polygon fill="#63b8ff" stroke="#63b8ff" points="209.83,-47.72 202.12,-54.98 212.68,-54.11 209.83,-47.72"/>
</g>
<!-- Node11&#45;&gt;Node4 -->
<g id="edge15" class="edge">
<title>Node11&#45;&gt;Node4</title>
<path fill="none" stroke="#63b8ff" d="M273.7,-50.9C251.72,-41.11 221.82,-27.79 202.47,-19.17"/>
<polygon fill="#63b8ff" stroke="#63b8ff" points="272.32,-54.11 282.88,-54.98 275.17,-47.72 272.32,-54.11"/>
</g>
<!-- Node11&#45;&gt;Node8 -->
<g id="edge14" class="edge">
<title>Node11&#45;&gt;Node8</title>
<path fill="none" stroke="#63b8ff" d="M302,-44.66C302,-35.93 302,-25.99 302,-19.09"/>
<polygon fill="#63b8ff" stroke="#63b8ff" points="298.5,-44.75 302,-54.75 305.5,-44.75 298.5,-44.75"/>
</g>
</g>
</svg>
