<?xml version="1.0" encoding="UTF-8" standalone="no"?>
<!DOCTYPE svg PUBLIC "-//W3C//DTD SVG 1.1//EN"
 "http://www.w3.org/Graphics/SVG/1.1/DTD/svg11.dtd">
<!-- Generated by graphviz version 2.43.0 (0)
 -->
<!-- Title: src/process.hpp Pages: 1 -->
<svg width="486pt" height="247pt"
 viewBox="0.00 0.00 485.90 247.00" xmlns="http://www.w3.org/2000/svg" xmlns:xlink="http://www.w3.org/1999/xlink">
<g id="graph0" class="graph" transform="scale(1 1) rotate(0) translate(4 243)">
<title>src/process.hpp</title>
<!-- Node1 -->
<g id="node1" class="node">
<title>Node1</title>
<g id="a_node1"><a xlink:title=" ">
<polygon fill="#999999" stroke="#666666" points="274.4,-239 182.4,-239 182.4,-220 274.4,-220 274.4,-239"/>
<text text-anchor="middle" x="228.4" y="-227" font-family="Helvetica,sans-Serif" font-size="10.00">src/process.hpp</text>
</a>
</g>
</g>
<!-- Node2 -->
<g id="node2" class="node">
<title>Node2</title>
<g id="a_node2"><a xlink:href="logger_8hpp.html" target="_top" xlink:title=" ">
<polygon fill="white" stroke="#666666" points="217.9,-184 132.9,-184 132.9,-165 217.9,-165 217.9,-184"/>
<text text-anchor="middle" x="175.4" y="-172" font-family="Helvetica,sans-Serif" font-size="10.00">src/logger.hpp</text>
</a>
</g>
</g>
<!-- Node1&#45;&gt;Node2 -->
<g id="edge1" class="edge">
<title>Node1&#45;&gt;Node2</title>
<path fill="none" stroke="#63b8ff" d="M212.42,-212.52C203.08,-203.18 191.65,-191.75 183.99,-184.09"/>
<polygon fill="#63b8ff" stroke="#63b8ff" points="210.1,-215.15 219.65,-219.75 215.05,-210.2 210.1,-215.15"/>
</g>
<!-- Node10 -->
<g id="node10" class="node">
<title>Node10</title>
<g id="a_node10"><a xlink:href="printer_8hpp.html" target="_top" xlink:title=" ">
<polygon fill="white" stroke="#666666" points="109.4,-184 23.4,-184 23.4,-165 109.4,-165 109.4,-184"/>
<text text-anchor="middle" x="66.4" y="-172" font-family="Helvetica,sans-Serif" font-size="10.00">src/printer.hpp</text>
</a>
</g>
</g>
<!-- Node1&#45;&gt;Node10 -->
<g id="edge9" class="edge">
<title>Node1&#45;&gt;Node10</title>
<path fill="none" stroke="#63b8ff" d="M192.63,-216.8C162.4,-206.91 119.79,-192.97 92.63,-184.08"/>
<polygon fill="#63b8ff" stroke="#63b8ff" points="191.78,-220.2 202.37,-219.98 193.96,-213.55 191.78,-220.2"/>
</g>
<!-- Node12 -->
<g id="node12" class="node">
<title>Node12</title>
<g id="a_node12"><a xlink:href="process_8cpp.html" target="_top" xlink:title=" ">
<polygon fill="white" stroke="#666666" points="328.4,-184 236.4,-184 236.4,-165 328.4,-165 328.4,-184"/>
<text text-anchor="middle" x="282.4" y="-172" font-family="Helvetica,sans-Serif" font-size="10.00">src/process.cpp</text>
</a>
</g>
</g>
<!-- Node1&#45;&gt;Node12 -->
<g id="edge12" class="edge">
<title>Node1&#45;&gt;Node12</title>
<path fill="none" stroke="#63b8ff" d="M244.68,-212.52C254.2,-203.18 265.84,-191.75 273.65,-184.09"/>
<polygon fill="#63b8ff" stroke="#63b8ff" points="242,-210.25 237.32,-219.75 246.9,-215.24 242,-210.25"/>
</g>
<!-- Node13 -->
<g id="node13" class="node">
<title>Node13</title>
<g id="a_node13"><a xlink:href="process__creator_8hpp.html" target="_top" xlink:title=" ">
<polygon fill="white" stroke="#666666" points="477.9,-184 346.9,-184 346.9,-165 477.9,-165 477.9,-184"/>
<text text-anchor="middle" x="412.4" y="-172" font-family="Helvetica,sans-Serif" font-size="10.00">src/process_creator.hpp</text>
</a>
</g>
</g>
<!-- Node1&#45;&gt;Node13 -->
<g id="edge13" class="edge">
<title>Node1&#45;&gt;Node13</title>
<path fill="none" stroke="#63b8ff" d="M267.69,-217.18C302.1,-207.27 351.36,-193.08 382.6,-184.08"/>
<polygon fill="#63b8ff" stroke="#63b8ff" points="266.6,-213.85 257.96,-219.98 268.54,-220.58 266.6,-213.85"/>
</g>
<!-- Node3 -->
<g id="node3" class="node">
<title>Node3</title>
<g id="a_node3"><a xlink:href="scheduler_8hpp.html" target="_top" xlink:title=" ">
<polygon fill="white" stroke="#666666" points="230.9,-129 129.9,-129 129.9,-110 230.9,-110 230.9,-129"/>
<text text-anchor="middle" x="180.4" y="-117" font-family="Helvetica,sans-Serif" font-size="10.00">src/scheduler.hpp</text>
</a>
</g>
</g>
<!-- Node2&#45;&gt;Node3 -->
<g id="edge2" class="edge">
<title>Node2&#45;&gt;Node3</title>
<path fill="none" stroke="#63b8ff" d="M177.18,-154.66C178,-145.93 178.94,-135.99 179.59,-129.09"/>
<polygon fill="#63b8ff" stroke="#63b8ff" points="173.68,-154.46 176.22,-164.75 180.65,-155.12 173.68,-154.46"/>
</g>
<!-- Node4 -->
<g id="node4" class="node">
<title>Node4</title>
<g id="a_node4"><a xlink:href="FCFS_8cpp.html" target="_top" xlink:title=" ">
<polygon fill="white" stroke="#666666" points="219.4,-74 141.4,-74 141.4,-55 219.4,-55 219.4,-74"/>
<text text-anchor="middle" x="180.4" y="-62" font-family="Helvetica,sans-Serif" font-size="10.00">src/FCFS.cpp</text>
</a>
</g>
</g>
<!-- Node3&#45;&gt;Node4 -->
<g id="edge3" class="edge">
<title>Node3&#45;&gt;Node4</title>
<path fill="none" stroke="#63b8ff" d="M180.4,-99.66C180.4,-90.93 180.4,-80.99 180.4,-74.09"/>
<polygon fill="#63b8ff" stroke="#63b8ff" points="176.9,-99.75 180.4,-109.75 183.9,-99.75 176.9,-99.75"/>
</g>
<!-- Node5 -->
<g id="node5" class="node">
<title>Node5</title>
<g id="a_node5"><a xlink:href="RR_8cpp.html" target="_top" xlink:title=" ">
<polygon fill="white" stroke="#666666" points="305.4,-74 237.4,-74 237.4,-55 305.4,-55 305.4,-74"/>
<text text-anchor="middle" x="271.4" y="-62" font-family="Helvetica,sans-Serif" font-size="10.00">src/RR.cpp</text>
</a>
</g>
</g>
<!-- Node3&#45;&gt;Node5 -->
<g id="edge4" class="edge">
<title>Node3&#45;&gt;Node5</title>
<path fill="none" stroke="#63b8ff" d="M204.1,-104.7C220.68,-95.04 242.31,-82.44 256.51,-74.17"/>
<polygon fill="#63b8ff" stroke="#63b8ff" points="201.9,-101.93 195.02,-109.98 205.42,-107.98 201.9,-101.93"/>
</g>
<!-- Node6 -->
<g id="node6" class="node">
<title>Node6</title>
<g id="a_node6"><a xlink:href="min__heap_8cpp.html" target="_top" xlink:title=" ">
<polygon fill="white" stroke="#666666" points="123.4,-74 21.4,-74 21.4,-55 123.4,-55 123.4,-74"/>
<text text-anchor="middle" x="72.4" y="-62" font-family="Helvetica,sans-Serif" font-size="10.00">src/min_heap.cpp</text>
</a>
</g>
</g>
<!-- Node3&#45;&gt;Node6 -->
<g id="edge5" class="edge">
<title>Node3&#45;&gt;Node6</title>
<path fill="none" stroke="#63b8ff" d="M153.91,-105.5C134.04,-95.75 107.4,-82.68 90.07,-74.17"/>
<polygon fill="#63b8ff" stroke="#63b8ff" points="152.53,-108.72 163.05,-109.98 155.61,-102.44 152.53,-108.72"/>
</g>
<!-- Node7 -->
<g id="node7" class="node">
<title>Node7</title>
<g id="a_node7"><a xlink:href="simulator_8hpp.html" target="_top" xlink:title=" ">
<polygon fill="white" stroke="#666666" points="424.9,-74 323.9,-74 323.9,-55 424.9,-55 424.9,-74"/>
<text text-anchor="middle" x="374.4" y="-62" font-family="Helvetica,sans-Serif" font-size="10.00">src/simulator.hpp</text>
</a>
</g>
</g>
<!-- Node3&#45;&gt;Node7 -->
<g id="edge6" class="edge">
<title>Node3&#45;&gt;Node7</title>
<path fill="none" stroke="#63b8ff" d="M221.36,-107.31C257.66,-97.39 309.9,-83.12 342.99,-74.08"/>
<polygon fill="#63b8ff" stroke="#63b8ff" points="220.29,-103.97 211.57,-109.98 222.14,-110.73 220.29,-103.97"/>
</g>
<!-- Node8 -->
<g id="node8" class="node">
<title>Node8</title>
<g id="a_node8"><a xlink:href="main_8cpp.html" target="_top" xlink:title=" ">
<polygon fill="white" stroke="#666666" points="452.9,-19 373.9,-19 373.9,0 452.9,0 452.9,-19"/>
<text text-anchor="middle" x="413.4" y="-7" font-family="Helvetica,sans-Serif" font-size="10.00">src/main.cpp</text>
</a>
</g>
</g>
<!-- Node7&#45;&gt;Node8 -->
<g id="edge7" class="edge">
<title>Node7&#45;&gt;Node8</title>
<path fill="none" stroke="#63b8ff" d="M386.78,-46.67C393.53,-37.5 401.61,-26.52 407.08,-19.09"/>
<polygon fill="#63b8ff" stroke="#63b8ff" points="383.95,-44.62 380.84,-54.75 389.59,-48.77 383.95,-44.62"/>
</g>
<!-- Node9 -->
<g id="node9" class="node">
<title>Node9</title>
<g id="a_node9"><a xlink:href="simulator_8cpp.html" target="_top" xlink:title=" ">
<polygon fill="white" stroke="#666666" points="219.4,-19 119.4,-19 119.4,0 219.4,0 219.4,-19"/>
<text text-anchor="middle" x="169.4" y="-7" font-family="Helvetica,sans-Serif" font-size="10.00">src/simulator.cpp</text>
</a>
</g>
</g>
<!-- Node7&#45;&gt;Node9 -->
<g id="edge8" class="edge">
<title>Node7&#45;&gt;Node9</title>
<path fill="none" stroke="#63b8ff" d="M331.61,-52.44C293.23,-42.52 237.71,-28.16 202.59,-19.08"/>
<polygon fill="#63b8ff" stroke="#63b8ff" points="330.9,-55.87 341.46,-54.98 332.66,-49.09 330.9,-55.87"/>
</g>
<!-- Node10&#45;&gt;Node9 -->
<g id="edge11" class="edge">
<title>Node10&#45;&gt;Node9</title>
<path fill="none" stroke="#63b8ff" d="M42.03,-159.19C31.56,-151.65 20.37,-141.37 14.4,-129 0.1,-99.37 -7.44,-81.25 12.4,-55 25.38,-37.82 78.3,-25.36 119.15,-18.06"/>
<polygon fill="#63b8ff" stroke="#63b8ff" points="40.27,-162.23 50.52,-164.88 44.16,-156.41 40.27,-162.23"/>
</g>
<!-- Node11 -->
<g id="node11" class="node">
<title>Node11</title>
<g id="a_node11"><a xlink:href="printer_8cpp.html" target="_top" xlink:title=" ">
<polygon fill="white" stroke="#666666" points="109.4,-129 23.4,-129 23.4,-110 109.4,-110 109.4,-129"/>
<text text-anchor="middle" x="66.4" y="-117" font-family="Helvetica,sans-Serif" font-size="10.00">src/printer.cpp</text>
</a>
</g>
</g>
<!-- Node10&#45;&gt;Node11 -->
<g id="edge10" class="edge">
<title>Node10&#45;&gt;Node11</title>
<path fill="none" stroke="#63b8ff" d="M66.4,-154.66C66.4,-145.93 66.4,-135.99 66.4,-129.09"/>
<polygon fill="#63b8ff" stroke="#63b8ff" points="62.9,-154.75 66.4,-164.75 69.9,-154.75 62.9,-154.75"/>
</g>
<!-- Node13&#45;&gt;Node8 -->
<g id="edge14" class="edge">
<title>Node13&#45;&gt;Node8</title>
<path fill="none" stroke="#63b8ff" d="M423.33,-156.09C427.69,-148.15 432.2,-138.43 434.4,-129 441.88,-96.97 441.59,-87.09 434.4,-55 431.45,-41.83 424.14,-27.97 418.98,-19.28"/>
<polygon fill="#63b8ff" stroke="#63b8ff" points="420.28,-154.36 418.24,-164.76 426.32,-157.91 420.28,-154.36"/>
</g>
<!-- Node14 -->
<g id="node14" class="node">
<title>Node14</title>
<g id="a_node14"><a xlink:href="process__creator_8cpp.html" target="_top" xlink:title=" ">
<polygon fill="white" stroke="#666666" points="424.9,-129 293.9,-129 293.9,-110 424.9,-110 424.9,-129"/>
<text text-anchor="middle" x="359.4" y="-117" font-family="Helvetica,sans-Serif" font-size="10.00">src/process_creator.cpp</text>
</a>
</g>
</g>
<!-- Node13&#45;&gt;Node14 -->
<g id="edge15" class="edge">
<title>Node13&#45;&gt;Node14</title>
<path fill="none" stroke="#63b8ff" d="M396.42,-157.52C387.08,-148.18 375.65,-136.75 367.99,-129.09"/>
<polygon fill="#63b8ff" stroke="#63b8ff" points="394.1,-160.15 403.65,-164.75 399.05,-155.2 394.1,-160.15"/>
</g>
</g>
</svg>
