<?xml version="1.0" encoding="UTF-8" standalone="no"?>
<!DOCTYPE svg PUBLIC "-//W3C//DTD SVG 1.1//EN"
 "http://www.w3.org/Graphics/SVG/1.1/DTD/svg11.dtd">
<!-- Generated by graphviz version 2.43.0 (0)
 -->
<!-- Title: src/process.hpp Pages: 1 -->
<svg width="781pt" height="192pt"
 viewBox="0.00 0.00 781.00 192.00" xmlns="http://www.w3.org/2000/svg" xmlns:xlink="http://www.w3.org/1999/xlink">
<g id="graph0" class="graph" transform="scale(1 1) rotate(0) translate(4 188)">
<title>src/process.hpp</title>
<!-- Node1 -->
<g id="node1" class="node">
<title>Node1</title>
<g id="a_node1"><a xlink:title=" ">
<polygon fill="#999999" stroke="#666666" points="430,-184 338,-184 338,-165 430,-165 430,-184"/>
<text text-anchor="middle" x="384" y="-172" font-family="Helvetica,sans-Serif" font-size="10.00">src/process.hpp</text>
</a>
</g>
</g>
<!-- Node2 -->
<g id="node2" class="node">
<title>Node2</title>
<g id="a_node2"><a xlink:href="FCFS_8cpp.html" target="_top" xlink:title=" ">
<polygon fill="white" stroke="#666666" points="78,-19 0,-19 0,0 78,0 78,-19"/>
<text text-anchor="middle" x="39" y="-7" font-family="Helvetica,sans-Serif" font-size="10.00">src/FCFS.cpp</text>
</a>
</g>
</g>
<!-- Node1&#45;&gt;Node2 -->
<g id="edge1" class="edge">
<title>Node1&#45;&gt;Node2</title>
<path fill="none" stroke="#63b8ff" d="M327.54,-170.16C254.63,-164.95 132.63,-152.89 95,-129 55.24,-103.75 43.16,-41.86 40,-19.09"/>
<polygon fill="#63b8ff" stroke="#63b8ff" points="327.71,-173.68 337.92,-170.88 328.19,-166.7 327.71,-173.68"/>
</g>
<!-- Node3 -->
<g id="node3" class="node">
<title>Node3</title>
<g id="a_node3"><a xlink:href="RR_8cpp.html" target="_top" xlink:title=" ">
<polygon fill="white" stroke="#666666" points="225,-19 157,-19 157,0 225,0 225,-19"/>
<text text-anchor="middle" x="191" y="-7" font-family="Helvetica,sans-Serif" font-size="10.00">src/RR.cpp</text>
</a>
</g>
</g>
<!-- Node1&#45;&gt;Node3 -->
<g id="edge2" class="edge">
<title>Node1&#45;&gt;Node3</title>
<path fill="none" stroke="#63b8ff" d="M327.41,-169.79C277.52,-164.96 203.69,-153.94 144,-129 104.52,-112.51 84.81,-111.92 65,-74 44.93,-35.57 112.85,-19.92 156.67,-13.93"/>
<polygon fill="#63b8ff" stroke="#63b8ff" points="327.4,-173.3 337.68,-170.73 328.04,-166.33 327.4,-173.3"/>
</g>
<!-- Node4 -->
<g id="node4" class="node">
<title>Node4</title>
<g id="a_node4"><a xlink:href="logger_8hpp.html" target="_top" xlink:title=" ">
<polygon fill="white" stroke="#666666" points="426.5,-129 341.5,-129 341.5,-110 426.5,-110 426.5,-129"/>
<text text-anchor="middle" x="384" y="-117" font-family="Helvetica,sans-Serif" font-size="10.00">src/logger.hpp</text>
</a>
</g>
</g>
<!-- Node1&#45;&gt;Node4 -->
<g id="edge3" class="edge">
<title>Node1&#45;&gt;Node4</title>
<path fill="none" stroke="#63b8ff" d="M384,-154.66C384,-145.93 384,-135.99 384,-129.09"/>
<polygon fill="#63b8ff" stroke="#63b8ff" points="380.5,-154.75 384,-164.75 387.5,-154.75 380.5,-154.75"/>
</g>
<!-- Node5 -->
<g id="node5" class="node">
<title>Node5</title>
<g id="a_node5"><a xlink:href="scheduler_8hpp.html" target="_top" xlink:title=" ">
<polygon fill="white" stroke="#666666" points="363.5,-74 262.5,-74 262.5,-55 363.5,-55 363.5,-74"/>
<text text-anchor="middle" x="313" y="-62" font-family="Helvetica,sans-Serif" font-size="10.00">src/scheduler.hpp</text>
</a>
</g>
</g>
<!-- Node1&#45;&gt;Node5 -->
<g id="edge21" class="edge">
<title>Node1&#45;&gt;Node5</title>
<path fill="none" stroke="#63b8ff" d="M361.82,-159.04C351.44,-151.26 339.7,-140.83 332,-129 320.7,-111.64 315.9,-87.3 314.04,-74.38"/>
<polygon fill="#63b8ff" stroke="#63b8ff" points="359.93,-161.99 370.1,-164.93 363.98,-156.28 359.93,-161.99"/>
</g>
<!-- Node7 -->
<g id="node7" class="node">
<title>Node7</title>
<g id="a_node7"><a xlink:href="min__heap_8cpp.html" target="_top" xlink:title=" ">
<polygon fill="white" stroke="#666666" points="653,-19 551,-19 551,0 653,0 653,-19"/>
<text text-anchor="middle" x="602" y="-7" font-family="Helvetica,sans-Serif" font-size="10.00">src/min_heap.cpp</text>
</a>
</g>
</g>
<!-- Node1&#45;&gt;Node7 -->
<g id="edge13" class="edge">
<title>Node1&#45;&gt;Node7</title>
<path fill="none" stroke="#63b8ff" d="M440.28,-168.22C495.23,-161.94 573.73,-149.63 596,-129 626.98,-100.3 612.19,-41.58 605.07,-19.32"/>
<polygon fill="#63b8ff" stroke="#63b8ff" points="439.87,-164.74 430.31,-169.32 440.64,-171.7 439.87,-164.74"/>
</g>
<!-- Node9 -->
<g id="node9" class="node">
<title>Node9</title>
<g id="a_node9"><a xlink:href="simulator_8hpp.html" target="_top" xlink:title=" ">
<polygon fill="white" stroke="#666666" points="482.5,-74 381.5,-74 381.5,-55 482.5,-55 482.5,-74"/>
<text text-anchor="middle" x="432" y="-62" font-family="Helvetica,sans-Serif" font-size="10.00">src/simulator.hpp</text>
</a>
</g>
</g>
<!-- Node1&#45;&gt;Node9 -->
<g id="edge22" class="edge">
<title>Node1&#45;&gt;Node9</title>
<path fill="none" stroke="#63b8ff" d="M408.11,-159.19C418.43,-151.64 429.38,-141.37 435,-129 443.22,-110.92 438.4,-86.87 434.81,-74.19"/>
<polygon fill="#63b8ff" stroke="#63b8ff" points="406.04,-156.37 399.73,-164.88 409.97,-162.16 406.04,-156.37"/>
</g>
<!-- Node10 -->
<g id="node10" class="node">
<title>Node10</title>
<g id="a_node10"><a xlink:href="printer_8hpp.html" target="_top" xlink:title=" ">
<polygon fill="white" stroke="#666666" points="587,-129 501,-129 501,-110 587,-110 587,-129"/>
<text text-anchor="middle" x="544" y="-117" font-family="Helvetica,sans-Serif" font-size="10.00">src/printer.hpp</text>
</a>
</g>
</g>
<!-- Node1&#45;&gt;Node10 -->
<g id="edge14" class="edge">
<title>Node1&#45;&gt;Node10</title>
<path fill="none" stroke="#63b8ff" d="M419.33,-161.8C449.19,-151.91 491.27,-137.97 518.09,-129.08"/>
<polygon fill="#63b8ff" stroke="#63b8ff" points="418.1,-158.52 409.71,-164.98 420.3,-165.16 418.1,-158.52"/>
</g>
<!-- Node12 -->
<g id="node12" class="node">
<title>Node12</title>
<g id="a_node12"><a xlink:href="process_8cpp.html" target="_top" xlink:title=" ">
<polygon fill="white" stroke="#666666" points="773,-129 681,-129 681,-110 773,-110 773,-129"/>
<text text-anchor="middle" x="727" y="-117" font-family="Helvetica,sans-Serif" font-size="10.00">src/process.cpp</text>
</a>
</g>
</g>
<!-- Node1&#45;&gt;Node12 -->
<g id="edge17" class="edge">
<title>Node1&#45;&gt;Node12</title>
<path fill="none" stroke="#63b8ff" d="M440.25,-164.81C507.44,-154.43 618.58,-137.25 680.93,-127.62"/>
<polygon fill="#63b8ff" stroke="#63b8ff" points="439.61,-161.37 430.26,-166.35 440.68,-168.28 439.61,-161.37"/>
</g>
<!-- Node13 -->
<g id="node13" class="node">
<title>Node13</title>
<g id="a_node13"><a xlink:href="process__creator_8hpp.html" target="_top" xlink:title=" ">
<polygon fill="white" stroke="#666666" points="284.5,-129 153.5,-129 153.5,-110 284.5,-110 284.5,-129"/>
<text text-anchor="middle" x="219" y="-117" font-family="Helvetica,sans-Serif" font-size="10.00">src/process_creator.hpp</text>
</a>
</g>
</g>
<!-- Node1&#45;&gt;Node13 -->
<g id="edge18" class="edge">
<title>Node1&#45;&gt;Node13</title>
<path fill="none" stroke="#63b8ff" d="M347.57,-161.8C316.78,-151.91 273.38,-137.97 245.72,-129.08"/>
<polygon fill="#63b8ff" stroke="#63b8ff" points="346.9,-165.26 357.49,-164.98 349.04,-158.59 346.9,-165.26"/>
</g>
<!-- Node4&#45;&gt;Node5 -->
<g id="edge4" class="edge">
<title>Node4&#45;&gt;Node5</title>
<path fill="none" stroke="#63b8ff" d="M364.41,-103.88C351.63,-94.34 335.39,-82.21 324.61,-74.17"/>
<polygon fill="#63b8ff" stroke="#63b8ff" points="362.49,-106.81 372.59,-109.98 366.67,-101.2 362.49,-106.81"/>
</g>
<!-- Node4&#45;&gt;Node9 -->
<g id="edge10" class="edge">
<title>Node4&#45;&gt;Node9</title>
<path fill="none" stroke="#63b8ff" d="M398.73,-102.24C407.14,-92.95 417.35,-81.68 424.22,-74.09"/>
<polygon fill="#63b8ff" stroke="#63b8ff" points="396.04,-99.99 391.93,-109.75 401.23,-104.69 396.04,-99.99"/>
</g>
<!-- Node5&#45;&gt;Node2 -->
<g id="edge5" class="edge">
<title>Node5&#45;&gt;Node2</title>
<path fill="none" stroke="#63b8ff" d="M259.02,-53.06C205.7,-42.75 125.45,-27.22 78.03,-18.05"/>
<polygon fill="#63b8ff" stroke="#63b8ff" points="258.49,-56.52 268.98,-54.98 259.82,-49.65 258.49,-56.52"/>
</g>
<!-- Node5&#45;&gt;Node3 -->
<g id="edge6" class="edge">
<title>Node5&#45;&gt;Node3</title>
<path fill="none" stroke="#63b8ff" d="M283.99,-50.9C261.46,-41.11 230.8,-27.79 210.96,-19.17"/>
<polygon fill="#63b8ff" stroke="#63b8ff" points="282.83,-54.21 293.4,-54.98 285.62,-47.79 282.83,-54.21"/>
</g>
<!-- Node6 -->
<g id="node6" class="node">
<title>Node6</title>
<g id="a_node6"><a xlink:href="main_8cpp.html" target="_top" xlink:title=" ">
<polygon fill="white" stroke="#666666" points="352.5,-19 273.5,-19 273.5,0 352.5,0 352.5,-19"/>
<text text-anchor="middle" x="313" y="-7" font-family="Helvetica,sans-Serif" font-size="10.00">src/main.cpp</text>
</a>
</g>
</g>
<!-- Node5&#45;&gt;Node6 -->
<g id="edge7" class="edge">
<title>Node5&#45;&gt;Node6</title>
<path fill="none" stroke="#63b8ff" d="M313,-44.66C313,-35.93 313,-25.99 313,-19.09"/>
<polygon fill="#63b8ff" stroke="#63b8ff" points="309.5,-44.75 313,-54.75 316.5,-44.75 309.5,-44.75"/>
</g>
<!-- Node5&#45;&gt;Node7 -->
<g id="edge8" class="edge">
<title>Node5&#45;&gt;Node7</title>
<path fill="none" stroke="#63b8ff" d="M369.56,-53.13C423.74,-43.19 504.54,-28.37 555.2,-19.08"/>
<polygon fill="#63b8ff" stroke="#63b8ff" points="368.64,-49.74 359.43,-54.98 369.9,-56.62 368.64,-49.74"/>
</g>
<!-- Node8 -->
<g id="node8" class="node">
<title>Node8</title>
<g id="a_node8"><a xlink:href="simulator_8cpp.html" target="_top" xlink:title=" ">
<polygon fill="white" stroke="#666666" points="482,-19 382,-19 382,0 482,0 482,-19"/>
<text text-anchor="middle" x="432" y="-7" font-family="Helvetica,sans-Serif" font-size="10.00">src/simulator.cpp</text>
</a>
</g>
</g>
<!-- Node5&#45;&gt;Node8 -->
<g id="edge9" class="edge">
<title>Node5&#45;&gt;Node8</title>
<path fill="none" stroke="#63b8ff" d="M341.3,-50.9C363.28,-41.11 393.18,-27.79 412.53,-19.17"/>
<polygon fill="#63b8ff" stroke="#63b8ff" points="339.83,-47.72 332.12,-54.98 342.68,-54.11 339.83,-47.72"/>
</g>
<!-- Node9&#45;&gt;Node6 -->
<g id="edge11" class="edge">
<title>Node9&#45;&gt;Node6</title>
<path fill="none" stroke="#63b8ff" d="M403.7,-50.9C381.72,-41.11 351.82,-27.79 332.47,-19.17"/>
<polygon fill="#63b8ff" stroke="#63b8ff" points="402.32,-54.11 412.88,-54.98 405.17,-47.72 402.32,-54.11"/>
</g>
<!-- Node9&#45;&gt;Node8 -->
<g id="edge12" class="edge">
<title>Node9&#45;&gt;Node8</title>
<path fill="none" stroke="#63b8ff" d="M432,-44.66C432,-35.93 432,-25.99 432,-19.09"/>
<polygon fill="#63b8ff" stroke="#63b8ff" points="428.5,-44.75 432,-54.75 435.5,-44.75 428.5,-44.75"/>
</g>
<!-- Node10&#45;&gt;Node8 -->
<g id="edge16" class="edge">
<title>Node10&#45;&gt;Node8</title>
<path fill="none" stroke="#63b8ff" d="M568.73,-104.47C587.95,-91.74 609.29,-72.37 596,-55 582.15,-36.9 525.29,-24.44 482.37,-17.4"/>
<polygon fill="#63b8ff" stroke="#63b8ff" points="566.8,-101.54 560.18,-109.81 570.51,-107.48 566.8,-101.54"/>
</g>
<!-- Node11 -->
<g id="node11" class="node">
<title>Node11</title>
<g id="a_node11"><a xlink:href="printer_8cpp.html" target="_top" xlink:title=" ">
<polygon fill="white" stroke="#666666" points="587,-74 501,-74 501,-55 587,-55 587,-74"/>
<text text-anchor="middle" x="544" y="-62" font-family="Helvetica,sans-Serif" font-size="10.00">src/printer.cpp</text>
</a>
</g>
</g>
<!-- Node10&#45;&gt;Node11 -->
<g id="edge15" class="edge">
<title>Node10&#45;&gt;Node11</title>
<path fill="none" stroke="#63b8ff" d="M544,-99.66C544,-90.93 544,-80.99 544,-74.09"/>
<polygon fill="#63b8ff" stroke="#63b8ff" points="540.5,-99.75 544,-109.75 547.5,-99.75 540.5,-99.75"/>
</g>
<!-- Node13&#45;&gt;Node6 -->
<g id="edge19" class="edge">
<title>Node13&#45;&gt;Node6</title>
<path fill="none" stroke="#63b8ff" d="M226.12,-100.39C232,-86.92 241.27,-68.59 253,-55 265.97,-39.98 284.87,-27.02 297.97,-19.02"/>
<polygon fill="#63b8ff" stroke="#63b8ff" points="222.75,-99.39 222.15,-109.97 229.21,-102.07 222.75,-99.39"/>
</g>
<!-- Node14 -->
<g id="node14" class="node">
<title>Node14</title>
<g id="a_node14"><a xlink:href="process__creator_8cpp.html" target="_top" xlink:title=" ">
<polygon fill="white" stroke="#666666" points="205.5,-74 74.5,-74 74.5,-55 205.5,-55 205.5,-74"/>
<text text-anchor="middle" x="140" y="-62" font-family="Helvetica,sans-Serif" font-size="10.00">src/process_creator.cpp</text>
</a>
</g>
</g>
<!-- Node13&#45;&gt;Node14 -->
<g id="edge20" class="edge">
<title>Node13&#45;&gt;Node14</title>
<path fill="none" stroke="#63b8ff" d="M197.61,-104.15C183.33,-94.57 165.03,-82.29 152.92,-74.17"/>
<polygon fill="#63b8ff" stroke="#63b8ff" points="196.05,-107.32 206.31,-109.98 199.95,-101.51 196.05,-107.32"/>
</g>
</g>
</svg>
