<?xml version="1.0" encoding="UTF-8" standalone="no"?>
<!DOCTYPE svg PUBLIC "-//W3C//DTD SVG 1.1//EN"
 "http://www.w3.org/Graphics/SVG/1.1/DTD/svg11.dtd">
<!-- Generated by graphviz version 2.43.0 (0)
 -->
<!-- Title: src/process_creator.cpp Pages: 1 -->
<svg width="267pt" height="192pt"
 viewBox="0.00 0.00 266.50 192.00" xmlns="http://www.w3.org/2000/svg" xmlns:xlink="http://www.w3.org/1999/xlink">
<g id="graph0" class="graph" transform="scale(1 1) rotate(0) translate(4 188)">
<title>src/process_creator.cpp</title>
<!-- Node1 -->
<g id="node1" class="node">
<title>Node1</title>
<g id="a_node1"><a xlink:title=" ">
<polygon fill="#999999" stroke="#666666" points="138,-184 7,-184 7,-165 138,-165 138,-184"/>
<text text-anchor="middle" x="72.5" y="-172" font-family="Helvetica,sans-Serif" font-size="10.00">src/process_creator.cpp</text>
</a>
</g>
</g>
<!-- Node2 -->
<g id="node2" class="node">
<title>Node2</title>
<g id="a_node2"><a xlink:title=" ">
<polygon fill="#e0e0e0" stroke="#999999" points="47,-129 0,-129 0,-110 47,-110 47,-129"/>
<text text-anchor="middle" x="23.5" y="-117" font-family="Helvetica,sans-Serif" font-size="10.00">cmath</text>
</a>
</g>
</g>
<!-- Node1&#45;&gt;Node2 -->
<g id="edge1" class="edge">
<title>Node1&#45;&gt;Node2</title>
<path fill="none" stroke="#63b8ff" d="M64.41,-164.75C57.34,-157.11 46.91,-145.82 38.35,-136.56"/>
<polygon fill="#63b8ff" stroke="#63b8ff" points="40.8,-134.06 31.44,-129.09 35.66,-138.81 40.8,-134.06"/>
</g>
<!-- Node3 -->
<g id="node3" class="node">
<title>Node3</title>
<g id="a_node3"><a xlink:href="process__creator_8hpp.html" target="_top" xlink:title=" ">
<polygon fill="white" stroke="#666666" points="179.5,-129 65.5,-129 65.5,-110 179.5,-110 179.5,-129"/>
<text text-anchor="middle" x="122.5" y="-117" font-family="Helvetica,sans-Serif" font-size="10.00">process_creator.hpp</text>
</a>
</g>
</g>
<!-- Node1&#45;&gt;Node3 -->
<g id="edge2" class="edge">
<title>Node1&#45;&gt;Node3</title>
<path fill="none" stroke="#63b8ff" d="M80.76,-164.75C87.96,-157.11 98.61,-145.82 107.35,-136.56"/>
<polygon fill="#63b8ff" stroke="#63b8ff" points="110.08,-138.76 114.4,-129.09 104.99,-133.96 110.08,-138.76"/>
</g>
<!-- Node4 -->
<g id="node4" class="node">
<title>Node4</title>
<g id="a_node4"><a xlink:title=" ">
<polygon fill="#e0e0e0" stroke="#999999" points="80.5,-74 22.5,-74 22.5,-55 80.5,-55 80.5,-74"/>
<text text-anchor="middle" x="51.5" y="-62" font-family="Helvetica,sans-Serif" font-size="10.00">memory</text>
</a>
</g>
</g>
<!-- Node3&#45;&gt;Node4 -->
<g id="edge3" class="edge">
<title>Node3&#45;&gt;Node4</title>
<path fill="none" stroke="#63b8ff" d="M111.09,-109.98C100.39,-102 84.16,-89.88 71.34,-80.31"/>
<polygon fill="#63b8ff" stroke="#63b8ff" points="73.22,-77.35 63.11,-74.17 69.03,-82.96 73.22,-77.35"/>
</g>
<!-- Node5 -->
<g id="node5" class="node">
<title>Node5</title>
<g id="a_node5"><a xlink:title=" ">
<polygon fill="#e0e0e0" stroke="#999999" points="146,-74 99,-74 99,-55 146,-55 146,-74"/>
<text text-anchor="middle" x="122.5" y="-62" font-family="Helvetica,sans-Serif" font-size="10.00">vector</text>
</a>
</g>
</g>
<!-- Node3&#45;&gt;Node5 -->
<g id="edge4" class="edge">
<title>Node3&#45;&gt;Node5</title>
<path fill="none" stroke="#63b8ff" d="M122.5,-109.75C122.5,-102.8 122.5,-92.85 122.5,-84.13"/>
<polygon fill="#63b8ff" stroke="#63b8ff" points="126,-84.09 122.5,-74.09 119,-84.09 126,-84.09"/>
</g>
<!-- Node6 -->
<g id="node6" class="node">
<title>Node6</title>
<g id="a_node6"><a xlink:href="process_8hpp.html" target="_top" xlink:title=" ">
<polygon fill="white" stroke="#666666" points="239,-74 164,-74 164,-55 239,-55 239,-74"/>
<text text-anchor="middle" x="201.5" y="-62" font-family="Helvetica,sans-Serif" font-size="10.00">process.hpp</text>
</a>
</g>
</g>
<!-- Node3&#45;&gt;Node6 -->
<g id="edge5" class="edge">
<title>Node3&#45;&gt;Node6</title>
<path fill="none" stroke="#63b8ff" d="M135.19,-109.98C147.33,-101.84 165.86,-89.41 180.25,-79.76"/>
<polygon fill="#63b8ff" stroke="#63b8ff" points="182.22,-82.65 188.58,-74.17 178.32,-76.84 182.22,-82.65"/>
</g>
<!-- Node7 -->
<g id="node7" class="node">
<title>Node7</title>
<g id="a_node7"><a xlink:title=" ">
<polygon fill="#e0e0e0" stroke="#999999" points="196.5,-19 136.5,-19 136.5,0 196.5,0 196.5,-19"/>
<text text-anchor="middle" x="166.5" y="-7" font-family="Helvetica,sans-Serif" font-size="10.00">iostream</text>
</a>
</g>
</g>
<!-- Node6&#45;&gt;Node7 -->
<g id="edge6" class="edge">
<title>Node6&#45;&gt;Node7</title>
<path fill="none" stroke="#63b8ff" d="M195.72,-54.75C190.88,-47.42 183.82,-36.73 177.86,-27.7"/>
<polygon fill="#63b8ff" stroke="#63b8ff" points="180.6,-25.5 172.17,-19.09 174.76,-29.36 180.6,-25.5"/>
</g>
<!-- Node8 -->
<g id="node8" class="node">
<title>Node8</title>
<g id="a_node8"><a xlink:title=" ">
<polygon fill="#e0e0e0" stroke="#999999" points="258.5,-19 214.5,-19 214.5,0 258.5,0 258.5,-19"/>
<text text-anchor="middle" x="236.5" y="-7" font-family="Helvetica,sans-Serif" font-size="10.00">string</text>
</a>
</g>
</g>
<!-- Node6&#45;&gt;Node8 -->
<g id="edge7" class="edge">
<title>Node6&#45;&gt;Node8</title>
<path fill="none" stroke="#63b8ff" d="M207.28,-54.75C212.12,-47.42 219.18,-36.73 225.14,-27.7"/>
<polygon fill="#63b8ff" stroke="#63b8ff" points="228.24,-29.36 230.83,-19.09 222.4,-25.5 228.24,-29.36"/>
</g>
</g>
</svg>
