<?xml version="1.0" encoding="UTF-8" standalone="no"?>
<!DOCTYPE svg PUBLIC "-//W3C//DTD SVG 1.1//EN"
 "http://www.w3.org/Graphics/SVG/1.1/DTD/svg11.dtd">
<!-- Generated by graphviz version 2.43.0 (0)
 -->
<!-- Title: src/process.h Pages: 1 -->
<svg width="345pt" height="137pt"
 viewBox="0.00 0.00 344.50 137.00" xmlns="http://www.w3.org/2000/svg" xmlns:xlink="http://www.w3.org/1999/xlink">
<g id="graph0" class="graph" transform="scale(1 1) rotate(0) translate(4 133)">
<title>src/process.h</title>
<!-- Node1 -->
<g id="node1" class="node">
<title>Node1</title>
<g id="a_node1"><a xlink:title=" ">
<polygon fill="#999999" stroke="#666666" points="210,-129 130,-129 130,-110 210,-110 210,-129"/>
<text text-anchor="middle" x="170" y="-117" font-family="Helvetica,sans-Serif" font-size="10.00">src/process.h</text>
</a>
</g>
</g>
<!-- Node2 -->
<g id="node2" class="node">
<title>Node2</title>
<g id="a_node2"><a xlink:href="process_8cpp.html" target="_top" xlink:title=" ">
<polygon fill="white" stroke="#666666" points="92,-74 0,-74 0,-55 92,-55 92,-74"/>
<text text-anchor="middle" x="46" y="-62" font-family="Helvetica,sans-Serif" font-size="10.00">src/process.cpp</text>
</a>
</g>
</g>
<!-- Node1&#45;&gt;Node2 -->
<g id="edge1" class="edge">
<title>Node1&#45;&gt;Node2</title>
<path fill="none" stroke="#63b8ff" d="M140.82,-106.03C117.89,-96.23 86.55,-82.83 66.29,-74.17"/>
<polygon fill="#63b8ff" stroke="#63b8ff" points="139.51,-109.27 150.08,-109.98 142.26,-102.84 139.51,-109.27"/>
</g>
<!-- Node3 -->
<g id="node3" class="node">
<title>Node3</title>
<g id="a_node3"><a xlink:href="process__creator_8h.html" target="_top" xlink:title=" ">
<polygon fill="white" stroke="#666666" points="229.5,-74 110.5,-74 110.5,-55 229.5,-55 229.5,-74"/>
<text text-anchor="middle" x="170" y="-62" font-family="Helvetica,sans-Serif" font-size="10.00">src/process_creator.h</text>
</a>
</g>
</g>
<!-- Node1&#45;&gt;Node3 -->
<g id="edge2" class="edge">
<title>Node1&#45;&gt;Node3</title>
<path fill="none" stroke="#63b8ff" d="M170,-99.66C170,-90.93 170,-80.99 170,-74.09"/>
<polygon fill="#63b8ff" stroke="#63b8ff" points="166.5,-99.75 170,-109.75 173.5,-99.75 166.5,-99.75"/>
</g>
<!-- Node6 -->
<g id="node6" class="node">
<title>Node6</title>
<g id="a_node6"><a xlink:href="scheduler_8h.html" target="_top" xlink:title=" ">
<polygon fill="white" stroke="#666666" points="336.5,-74 247.5,-74 247.5,-55 336.5,-55 336.5,-74"/>
<text text-anchor="middle" x="292" y="-62" font-family="Helvetica,sans-Serif" font-size="10.00">src/scheduler.h</text>
</a>
</g>
</g>
<!-- Node1&#45;&gt;Node6 -->
<g id="edge5" class="edge">
<title>Node1&#45;&gt;Node6</title>
<path fill="none" stroke="#63b8ff" d="M199.01,-105.9C221.54,-96.11 252.2,-82.79 272.04,-74.17"/>
<polygon fill="#63b8ff" stroke="#63b8ff" points="197.38,-102.79 189.6,-109.98 200.17,-109.21 197.38,-102.79"/>
</g>
<!-- Node4 -->
<g id="node4" class="node">
<title>Node4</title>
<g id="a_node4"><a xlink:href="main_8cpp.html" target="_top" xlink:title=" ">
<polygon fill="white" stroke="#666666" points="147.5,-19 68.5,-19 68.5,0 147.5,0 147.5,-19"/>
<text text-anchor="middle" x="108" y="-7" font-family="Helvetica,sans-Serif" font-size="10.00">src/main.cpp</text>
</a>
</g>
</g>
<!-- Node3&#45;&gt;Node4 -->
<g id="edge3" class="edge">
<title>Node3&#45;&gt;Node4</title>
<path fill="none" stroke="#63b8ff" d="M152.25,-48.32C141.19,-38.87 127.37,-27.06 118.14,-19.17"/>
<polygon fill="#63b8ff" stroke="#63b8ff" points="150.16,-51.15 160.04,-54.98 154.71,-45.83 150.16,-51.15"/>
</g>
<!-- Node5 -->
<g id="node5" class="node">
<title>Node5</title>
<g id="a_node5"><a xlink:href="process__creator_8cpp.html" target="_top" xlink:title=" ">
<polygon fill="white" stroke="#666666" points="296.5,-19 165.5,-19 165.5,0 296.5,0 296.5,-19"/>
<text text-anchor="middle" x="231" y="-7" font-family="Helvetica,sans-Serif" font-size="10.00">src/process_creator.cpp</text>
</a>
</g>
</g>
<!-- Node3&#45;&gt;Node5 -->
<g id="edge4" class="edge">
<title>Node3&#45;&gt;Node5</title>
<path fill="none" stroke="#63b8ff" d="M187.47,-48.32C198.34,-38.87 211.94,-27.06 221.02,-19.17"/>
<polygon fill="#63b8ff" stroke="#63b8ff" points="185.05,-45.78 179.8,-54.98 189.65,-51.07 185.05,-45.78"/>
</g>
</g>
</svg>
