<?xml version="1.0" encoding="UTF-8" standalone="no"?>
<!DOCTYPE svg PUBLIC "-//W3C//DTD SVG 1.1//EN"
 "http://www.w3.org/Graphics/SVG/1.1/DTD/svg11.dtd">
<!-- Generated by graphviz version 2.43.0 (0)
 -->
<!-- Title: src/rbtree.cpp Pages: 1 -->
<svg width="350pt" height="247pt"
 viewBox="0.00 0.00 350.00 247.00" xmlns="http://www.w3.org/2000/svg" xmlns:xlink="http://www.w3.org/1999/xlink">
<g id="graph0" class="graph" transform="scale(1 1) rotate(0) translate(4 243)">
<title>src/rbtree.cpp</title>
<!-- Node1 -->
<g id="Node000001" class="node">
<title>Node1</title>
<g id="a_Node000001"><a xlink:title=" ">
<polygon fill="#999999" stroke="#666666" points="135,-239 52,-239 52,-220 135,-220 135,-239"/>
<text text-anchor="middle" x="93.5" y="-227" font-family="Helvetica,sans-Serif" font-size="10.00">src/rbtree.cpp</text>
</a>
</g>
</g>
<!-- Node2 -->
<g id="Node000002" class="node">
<title>Node2</title>
<g id="a_Node000002"><a xlink:href="rbtree_8hpp.html" target="_top" xlink:title=" ">
<polygon fill="white" stroke="#666666" points="96,-129 29,-129 29,-110 96,-110 96,-129"/>
<text text-anchor="middle" x="62.5" y="-117" font-family="Helvetica,sans-Serif" font-size="10.00">rbtree.hpp</text>
</a>
</g>
</g>
<!-- Node1&#45;&gt;Node2 -->
<g id="edge1_Node000001_Node000002" class="edge">
<title>Node1&#45;&gt;Node2</title>
<g id="a_edge1_Node000001_Node000002"><a xlink:title=" ">
<path fill="none" stroke="#63b8ff" d="M90.01,-219.73C86.55,-210.83 81.24,-196.59 77.5,-184 73.06,-169.05 69.06,-151.81 66.31,-139.08"/>
<polygon fill="#63b8ff" stroke="#63b8ff" points="69.72,-138.27 64.23,-129.21 62.87,-139.72 69.72,-138.27"/>
</a>
</g>
</g>
<!-- Node5 -->
<g id="Node000005" class="node">
<title>Node5</title>
<g id="a_Node000005"><a xlink:href="scheduler_8hpp.html" target="_top" xlink:title=" ">
<polygon fill="white" stroke="#666666" points="170.5,-184 86.5,-184 86.5,-165 170.5,-165 170.5,-184"/>
<text text-anchor="middle" x="128.5" y="-172" font-family="Helvetica,sans-Serif" font-size="10.00">scheduler.hpp</text>
</a>
</g>
</g>
<!-- Node1&#45;&gt;Node5 -->
<g id="edge4_Node000001_Node000005" class="edge">
<title>Node1&#45;&gt;Node5</title>
<g id="a_edge4_Node000001_Node000005"><a xlink:title=" ">
<path fill="none" stroke="#63b8ff" d="M99.28,-219.75C104.12,-212.42 111.18,-201.73 117.14,-192.7"/>
<polygon fill="#63b8ff" stroke="#63b8ff" points="120.24,-194.36 122.83,-184.09 114.4,-190.5 120.24,-194.36"/>
</a>
</g>
</g>
<!-- Node3 -->
<g id="Node000003" class="node">
<title>Node3</title>
<g id="a_Node000003"><a xlink:title=" ">
<polygon fill="#e0e0e0" stroke="#999999" points="201.5,-19 141.5,-19 141.5,0 201.5,0 201.5,-19"/>
<text text-anchor="middle" x="171.5" y="-7" font-family="Helvetica,sans-Serif" font-size="10.00">iostream</text>
</a>
</g>
</g>
<!-- Node2&#45;&gt;Node3 -->
<g id="edge2_Node000002_Node000003" class="edge">
<title>Node2&#45;&gt;Node3</title>
<g id="a_edge2_Node000002_Node000003"><a xlink:title=" ">
<path fill="none" stroke="#63b8ff" d="M89.13,-109.98C107.42,-102.92 131.1,-91.23 146.5,-74 157.84,-61.31 164.32,-42.88 167.83,-29.14"/>
<polygon fill="#63b8ff" stroke="#63b8ff" points="171.26,-29.84 170.04,-19.32 164.43,-28.31 171.26,-29.84"/>
</a>
</g>
</g>
<!-- Node4 -->
<g id="Node000004" class="node">
<title>Node4</title>
<g id="a_Node000004"><a xlink:title=" ">
<polygon fill="#e0e0e0" stroke="#999999" points="123.5,-19 65.5,-19 65.5,0 123.5,0 123.5,-19"/>
<text text-anchor="middle" x="94.5" y="-7" font-family="Helvetica,sans-Serif" font-size="10.00">memory</text>
</a>
</g>
</g>
<!-- Node2&#45;&gt;Node4 -->
<g id="edge3_Node000002_Node000004" class="edge">
<title>Node2&#45;&gt;Node4</title>
<g id="a_edge3_Node000002_Node000004"><a xlink:title=" ">
<path fill="none" stroke="#63b8ff" d="M55.67,-109.61C46.93,-97.09 33.9,-73.69 42.5,-55 48.25,-42.52 59.41,-32.24 69.92,-24.71"/>
<polygon fill="#63b8ff" stroke="#63b8ff" points="72.07,-27.49 78.47,-19.05 68.2,-21.65 72.07,-27.49"/>
</a>
</g>
</g>
<!-- Node5&#45;&gt;Node2 -->
<g id="edge9_Node000005_Node000002" class="edge">
<title>Node5&#45;&gt;Node2</title>
<g id="a_edge9_Node000005_Node000002"><a xlink:title=" ">
<path fill="none" stroke="#63b8ff" d="M117.9,-164.98C108.04,-157.07 93.15,-145.11 81.28,-135.58"/>
<polygon fill="#63b8ff" stroke="#63b8ff" points="83.29,-132.7 73.3,-129.17 78.9,-138.16 83.29,-132.7"/>
</a>
</g>
</g>
<!-- Node6 -->
<g id="Node000006" class="node">
<title>Node6</title>
<g id="a_Node000006"><a xlink:href="min__heap_8hpp.html" target="_top" xlink:title=" ">
<polygon fill="white" stroke="#666666" points="137.5,-74 51.5,-74 51.5,-55 137.5,-55 137.5,-74"/>
<text text-anchor="middle" x="94.5" y="-62" font-family="Helvetica,sans-Serif" font-size="10.00">min_heap.hpp</text>
</a>
</g>
</g>
<!-- Node5&#45;&gt;Node6 -->
<g id="edge5_Node000005_Node000006" class="edge">
<title>Node5&#45;&gt;Node6</title>
<g id="a_edge5_Node000005_Node000006"><a xlink:title=" ">
<path fill="none" stroke="#63b8ff" d="M125.72,-164.66C120.19,-147.09 107.71,-107.45 100.31,-83.95"/>
<polygon fill="#63b8ff" stroke="#63b8ff" points="103.57,-82.65 97.23,-74.16 96.89,-84.75 103.57,-82.65"/>
</a>
</g>
</g>
<!-- Node8 -->
<g id="Node000008" class="node">
<title>Node8</title>
<g id="a_Node000008"><a xlink:href="logger_8hpp.html" target="_top" xlink:title=" ">
<polygon fill="white" stroke="#666666" points="255.5,-129 187.5,-129 187.5,-110 255.5,-110 255.5,-129"/>
<text text-anchor="middle" x="221.5" y="-117" font-family="Helvetica,sans-Serif" font-size="10.00">logger.hpp</text>
</a>
</g>
</g>
<!-- Node5&#45;&gt;Node8 -->
<g id="edge10_Node000005_Node000008" class="edge">
<title>Node5&#45;&gt;Node8</title>
<g id="a_edge10_Node000005_Node000008"><a xlink:title=" ">
<path fill="none" stroke="#63b8ff" d="M143.44,-164.98C158,-156.69 180.37,-143.94 197.43,-134.22"/>
<polygon fill="#63b8ff" stroke="#63b8ff" points="199.33,-137.16 206.29,-129.17 195.86,-131.08 199.33,-137.16"/>
</a>
</g>
</g>
<!-- Node6&#45;&gt;Node3 -->
<g id="edge8_Node000006_Node000003" class="edge">
<title>Node6&#45;&gt;Node3</title>
<g id="a_edge8_Node000006_Node000003"><a xlink:title=" ">
<path fill="none" stroke="#63b8ff" d="M106.87,-54.98C118.59,-46.92 136.42,-34.65 150.39,-25.03"/>
<polygon fill="#63b8ff" stroke="#63b8ff" points="152.65,-27.72 158.9,-19.17 148.68,-21.96 152.65,-27.72"/>
</a>
</g>
</g>
<!-- Node6&#45;&gt;Node4 -->
<g id="edge7_Node000006_Node000004" class="edge">
<title>Node6&#45;&gt;Node4</title>
<g id="a_edge7_Node000006_Node000004"><a xlink:title=" ">
<path fill="none" stroke="#63b8ff" d="M94.5,-54.75C94.5,-47.8 94.5,-37.85 94.5,-29.13"/>
<polygon fill="#63b8ff" stroke="#63b8ff" points="98,-29.09 94.5,-19.09 91,-29.09 98,-29.09"/>
</a>
</g>
</g>
<!-- Node7 -->
<g id="Node000007" class="node">
<title>Node7</title>
<g id="a_Node000007"><a xlink:title=" ">
<polygon fill="#e0e0e0" stroke="#999999" points="47,-19 0,-19 0,0 47,0 47,-19"/>
<text text-anchor="middle" x="23.5" y="-7" font-family="Helvetica,sans-Serif" font-size="10.00">vector</text>
</a>
</g>
</g>
<!-- Node6&#45;&gt;Node7 -->
<g id="edge6_Node000006_Node000007" class="edge">
<title>Node6&#45;&gt;Node7</title>
<g id="a_edge6_Node000006_Node000007"><a xlink:title=" ">
<path fill="none" stroke="#63b8ff" d="M83.09,-54.98C72.39,-47 56.16,-34.88 43.34,-25.31"/>
<polygon fill="#63b8ff" stroke="#63b8ff" points="45.22,-22.35 35.11,-19.17 41.03,-27.96 45.22,-22.35"/>
</a>
</g>
</g>
<!-- Node9 -->
<g id="Node000009" class="node">
<title>Node9</title>
<g id="a_Node000009"><a xlink:title=" ">
<polygon fill="#e0e0e0" stroke="#999999" points="249,-74 194,-74 194,-55 249,-55 249,-74"/>
<text text-anchor="middle" x="221.5" y="-62" font-family="Helvetica,sans-Serif" font-size="10.00">fstream</text>
</a>
</g>
</g>
<!-- Node8&#45;&gt;Node9 -->
<g id="edge11_Node000008_Node000009" class="edge">
<title>Node8&#45;&gt;Node9</title>
<g id="a_edge11_Node000008_Node000009"><a xlink:title=" ">
<path fill="none" stroke="#63b8ff" d="M221.5,-109.75C221.5,-102.8 221.5,-92.85 221.5,-84.13"/>
<polygon fill="#63b8ff" stroke="#63b8ff" points="225,-84.09 221.5,-74.09 218,-84.09 225,-84.09"/>
</a>
</g>
</g>
<!-- Node10 -->
<g id="Node000010" class="node">
<title>Node10</title>
<g id="a_Node000010"><a xlink:href="process_8hpp.html" target="_top" xlink:title=" ">
<polygon fill="white" stroke="#666666" points="342,-74 267,-74 267,-55 342,-55 342,-74"/>
<text text-anchor="middle" x="304.5" y="-62" font-family="Helvetica,sans-Serif" font-size="10.00">process.hpp</text>
</a>
</g>
</g>
<!-- Node8&#45;&gt;Node10 -->
<g id="edge12_Node000008_Node000010" class="edge">
<title>Node8&#45;&gt;Node10</title>
<g id="a_edge12_Node000008_Node000010"><a xlink:title=" ">
<path fill="none" stroke="#63b8ff" d="M234.84,-109.98C247.59,-101.84 267.05,-89.41 282.17,-79.76"/>
<polygon fill="#63b8ff" stroke="#63b8ff" points="284.38,-82.5 290.92,-74.17 280.61,-76.6 284.38,-82.5"/>
</a>
</g>
</g>
<!-- Node10&#45;&gt;Node3 -->
<g id="edge13_Node000010_Node000003" class="edge">
<title>Node10&#45;&gt;Node3</title>
<g id="a_edge13_Node000010_Node000003"><a xlink:title=" ">
<path fill="none" stroke="#63b8ff" d="M283.13,-54.98C261.35,-46.3 227.34,-32.75 202.58,-22.88"/>
<polygon fill="#63b8ff" stroke="#63b8ff" points="203.84,-19.62 193.26,-19.17 201.25,-26.12 203.84,-19.62"/>
</a>
</g>
</g>
<!-- Node10&#45;&gt;Node4 -->
<g id="edge15_Node000010_Node000004" class="edge">
<title>Node10&#45;&gt;Node4</title>
<g id="a_edge15_Node000010_Node000004"><a xlink:title=" ">
<path fill="none" stroke="#63b8ff" d="M270.76,-54.98C233.32,-45.54 173,-30.31 133.55,-20.36"/>
<polygon fill="#63b8ff" stroke="#63b8ff" points="134.31,-16.94 123.75,-17.88 132.59,-23.72 134.31,-16.94"/>
</a>
</g>
</g>
<!-- Node11 -->
<g id="Node000011" class="node">
<title>Node11</title>
<g id="a_Node000011"><a xlink:title=" ">
<polygon fill="#e0e0e0" stroke="#999999" points="326.5,-19 282.5,-19 282.5,0 326.5,0 326.5,-19"/>
<text text-anchor="middle" x="304.5" y="-7" font-family="Helvetica,sans-Serif" font-size="10.00">string</text>
</a>
</g>
</g>
<!-- Node10&#45;&gt;Node11 -->
<g id="edge14_Node000010_Node000011" class="edge">
<title>Node10&#45;&gt;Node11</title>
<g id="a_edge14_Node000010_Node000011"><a xlink:title=" ">
<path fill="none" stroke="#63b8ff" d="M304.5,-54.75C304.5,-47.8 304.5,-37.85 304.5,-29.13"/>
<polygon fill="#63b8ff" stroke="#63b8ff" points="308,-29.09 304.5,-19.09 301,-29.09 308,-29.09"/>
</a>
</g>
</g>
</g>
</svg>
