<?xml version="1.0" encoding="UTF-8" standalone="no"?>
<!DOCTYPE svg PUBLIC "-//W3C//DTD SVG 1.1//EN"
 "http://www.w3.org/Graphics/SVG/1.1/DTD/svg11.dtd">
<!-- Generated by graphviz version 2.43.0 (0)
 -->
<!-- Title: src/rbtree.hpp Pages: 1 -->
<svg width="657pt" height="192pt"
 viewBox="0.00 0.00 656.50 192.00" xmlns="http://www.w3.org/2000/svg" xmlns:xlink="http://www.w3.org/1999/xlink">
<g id="graph0" class="graph" transform="scale(1 1) rotate(0) translate(4 188)">
<title>src/rbtree.hpp</title>
<!-- Node1 -->
<g id="Node000001" class="node">
<title>Node1</title>
<g id="a_Node000001"><a xlink:title=" ">
<polygon fill="#999999" stroke="#666666" points="177.5,-184 93.5,-184 93.5,-165 177.5,-165 177.5,-184"/>
<text text-anchor="middle" x="135.5" y="-172" font-family="Helvetica,sans-Serif" font-size="10.00">src/rbtree.hpp</text>
</a>
</g>
</g>
<!-- Node2 -->
<g id="Node000002" class="node">
<title>Node2</title>
<g id="a_Node000002"><a xlink:href="rbtree_8cpp.html" target="_top" xlink:title=" ">
<polygon fill="white" stroke="#666666" points="83,-74 0,-74 0,-55 83,-55 83,-74"/>
<text text-anchor="middle" x="41.5" y="-62" font-family="Helvetica,sans-Serif" font-size="10.00">src/rbtree.cpp</text>
</a>
</g>
</g>
<!-- Node1&#45;&gt;Node2 -->
<g id="edge1_Node000001_Node000002" class="edge">
<title>Node1&#45;&gt;Node2</title>
<g id="a_edge1_Node000001_Node000002"><a xlink:title=" ">
<path fill="none" stroke="#63b8ff" d="M121.14,-157C100.89,-133.73 64.68,-92.13 49.04,-74.16"/>
<polygon fill="#63b8ff" stroke="#63b8ff" points="118.6,-159.42 127.81,-164.66 123.88,-154.82 118.6,-159.42"/>
</a>
</g>
</g>
<!-- Node3 -->
<g id="Node000003" class="node">
<title>Node3</title>
<g id="a_Node000003"><a xlink:href="scheduler_8hpp.html" target="_top" xlink:title=" ">
<polygon fill="white" stroke="#666666" points="281,-129 180,-129 180,-110 281,-110 281,-129"/>
<text text-anchor="middle" x="230.5" y="-117" font-family="Helvetica,sans-Serif" font-size="10.00">src/scheduler.hpp</text>
</a>
</g>
</g>
<!-- Node1&#45;&gt;Node3 -->
<g id="edge2_Node000001_Node000003" class="edge">
<title>Node1&#45;&gt;Node3</title>
<g id="a_edge2_Node000001_Node000003"><a xlink:title=" ">
<path fill="none" stroke="#63b8ff" d="M159.76,-159.97C177.13,-150.28 199.99,-137.52 214.96,-129.17"/>
<polygon fill="#63b8ff" stroke="#63b8ff" points="157.79,-157.06 150.76,-164.98 161.2,-163.17 157.79,-157.06"/>
</a>
</g>
</g>
<!-- Node3&#45;&gt;Node2 -->
<g id="edge7_Node000003_Node000002" class="edge">
<title>Node3&#45;&gt;Node2</title>
<g id="a_edge7_Node000003_Node000002"><a xlink:title=" ">
<path fill="none" stroke="#63b8ff" d="M190.15,-107.18C154.8,-97.27 104.2,-83.08 72.1,-74.08"/>
<polygon fill="#63b8ff" stroke="#63b8ff" points="189.56,-110.65 200.13,-109.98 191.45,-103.91 189.56,-110.65"/>
</a>
</g>
</g>
<!-- Node4 -->
<g id="Node000004" class="node">
<title>Node4</title>
<g id="a_Node000004"><a xlink:href="CFS_8cpp.html" target="_top" xlink:title=" ">
<polygon fill="white" stroke="#666666" points="173.5,-74 101.5,-74 101.5,-55 173.5,-55 173.5,-74"/>
<text text-anchor="middle" x="137.5" y="-62" font-family="Helvetica,sans-Serif" font-size="10.00">src/CFS.cpp</text>
</a>
</g>
</g>
<!-- Node3&#45;&gt;Node4 -->
<g id="edge3_Node000003_Node000004" class="edge">
<title>Node3&#45;&gt;Node4</title>
<g id="a_edge3_Node000003_Node000004"><a xlink:title=" ">
<path fill="none" stroke="#63b8ff" d="M206.75,-104.97C189.75,-95.28 167.37,-82.52 152.71,-74.17"/>
<polygon fill="#63b8ff" stroke="#63b8ff" points="205.14,-108.07 215.56,-109.98 208.6,-101.99 205.14,-108.07"/>
</a>
</g>
</g>
<!-- Node5 -->
<g id="Node000005" class="node">
<title>Node5</title>
<g id="a_Node000005"><a xlink:href="FCFS_8cpp.html" target="_top" xlink:title=" ">
<polygon fill="white" stroke="#666666" points="269.5,-74 191.5,-74 191.5,-55 269.5,-55 269.5,-74"/>
<text text-anchor="middle" x="230.5" y="-62" font-family="Helvetica,sans-Serif" font-size="10.00">src/FCFS.cpp</text>
</a>
</g>
</g>
<!-- Node3&#45;&gt;Node5 -->
<g id="edge4_Node000003_Node000005" class="edge">
<title>Node3&#45;&gt;Node5</title>
<g id="a_edge4_Node000003_Node000005"><a xlink:title=" ">
<path fill="none" stroke="#63b8ff" d="M230.5,-99.66C230.5,-90.93 230.5,-80.99 230.5,-74.09"/>
<polygon fill="#63b8ff" stroke="#63b8ff" points="227,-99.75 230.5,-109.75 234,-99.75 227,-99.75"/>
</a>
</g>
</g>
<!-- Node6 -->
<g id="Node000006" class="node">
<title>Node6</title>
<g id="a_Node000006"><a xlink:href="RR_8cpp.html" target="_top" xlink:title=" ">
<polygon fill="white" stroke="#666666" points="355.5,-74 287.5,-74 287.5,-55 355.5,-55 355.5,-74"/>
<text text-anchor="middle" x="321.5" y="-62" font-family="Helvetica,sans-Serif" font-size="10.00">src/RR.cpp</text>
</a>
</g>
</g>
<!-- Node3&#45;&gt;Node6 -->
<g id="edge5_Node000003_Node000006" class="edge">
<title>Node3&#45;&gt;Node6</title>
<g id="a_edge5_Node000003_Node000006"><a xlink:title=" ">
<path fill="none" stroke="#63b8ff" d="M254.2,-104.7C270.78,-95.04 292.41,-82.44 306.61,-74.17"/>
<polygon fill="#63b8ff" stroke="#63b8ff" points="252,-101.93 245.12,-109.98 255.52,-107.98 252,-101.93"/>
</a>
</g>
</g>
<!-- Node7 -->
<g id="Node000007" class="node">
<title>Node7</title>
<g id="a_Node000007"><a xlink:href="min__heap_8cpp.html" target="_top" xlink:title=" ">
<polygon fill="white" stroke="#666666" points="475.5,-74 373.5,-74 373.5,-55 475.5,-55 475.5,-74"/>
<text text-anchor="middle" x="424.5" y="-62" font-family="Helvetica,sans-Serif" font-size="10.00">src/min_heap.cpp</text>
</a>
</g>
</g>
<!-- Node3&#45;&gt;Node7 -->
<g id="edge6_Node000003_Node000007" class="edge">
<title>Node3&#45;&gt;Node7</title>
<g id="a_edge6_Node000003_Node000007"><a xlink:title=" ">
<path fill="none" stroke="#63b8ff" d="M271.46,-107.31C307.76,-97.39 360,-83.12 393.09,-74.08"/>
<polygon fill="#63b8ff" stroke="#63b8ff" points="270.39,-103.97 261.67,-109.98 272.24,-110.73 270.39,-103.97"/>
</a>
</g>
</g>
<!-- Node8 -->
<g id="Node000008" class="node">
<title>Node8</title>
<g id="a_Node000008"><a xlink:href="simulator_8hpp.html" target="_top" xlink:title=" ">
<polygon fill="white" stroke="#666666" points="595,-74 494,-74 494,-55 595,-55 595,-74"/>
<text text-anchor="middle" x="544.5" y="-62" font-family="Helvetica,sans-Serif" font-size="10.00">src/simulator.hpp</text>
</a>
</g>
</g>
<!-- Node3&#45;&gt;Node8 -->
<g id="edge8_Node000003_Node000008" class="edge">
<title>Node3&#45;&gt;Node8</title>
<g id="a_edge8_Node000003_Node000008"><a xlink:title=" ">
<path fill="none" stroke="#63b8ff" d="M290.87,-108.31C349.84,-98.36 438.55,-83.38 493.92,-74.04"/>
<polygon fill="#63b8ff" stroke="#63b8ff" points="290.23,-104.87 280.95,-109.98 291.39,-111.77 290.23,-104.87"/>
</a>
</g>
</g>
<!-- Node9 -->
<g id="Node000009" class="node">
<title>Node9</title>
<g id="a_Node000009"><a xlink:href="main_8cpp.html" target="_top" xlink:title="Execution starts here.">
<polygon fill="white" stroke="#666666" points="530,-19 451,-19 451,0 530,0 530,-19"/>
<text text-anchor="middle" x="490.5" y="-7" font-family="Helvetica,sans-Serif" font-size="10.00">src/main.cpp</text>
</a>
</g>
</g>
<!-- Node8&#45;&gt;Node9 -->
<g id="edge9_Node000008_Node000009" class="edge">
<title>Node8&#45;&gt;Node9</title>
<g id="a_edge9_Node000008_Node000009"><a xlink:title=" ">
<path fill="none" stroke="#63b8ff" d="M528.22,-47.52C518.7,-38.18 507.06,-26.75 499.25,-19.09"/>
<polygon fill="#63b8ff" stroke="#63b8ff" points="525.99,-50.24 535.58,-54.75 530.9,-45.25 525.99,-50.24"/>
</a>
</g>
</g>
<!-- Node10 -->
<g id="Node000010" class="node">
<title>Node10</title>
<g id="a_Node000010"><a xlink:href="simulator_8cpp.html" target="_top" xlink:title=" ">
<polygon fill="white" stroke="#666666" points="648.5,-19 548.5,-19 548.5,0 648.5,0 648.5,-19"/>
<text text-anchor="middle" x="598.5" y="-7" font-family="Helvetica,sans-Serif" font-size="10.00">src/simulator.cpp</text>
</a>
</g>
</g>
<!-- Node8&#45;&gt;Node10 -->
<g id="edge10_Node000008_Node000010" class="edge">
<title>Node8&#45;&gt;Node10</title>
<g id="a_edge10_Node000008_Node000010"><a xlink:title=" ">
<path fill="none" stroke="#63b8ff" d="M560.78,-47.52C570.3,-38.18 581.94,-26.75 589.75,-19.09"/>
<polygon fill="#63b8ff" stroke="#63b8ff" points="558.1,-45.25 553.42,-54.75 563.01,-50.24 558.1,-45.25"/>
</a>
</g>
</g>
</g>
</svg>
