<?xml version="1.0" encoding="UTF-8" standalone="no"?>
<!DOCTYPE svg PUBLIC "-//W3C//DTD SVG 1.1//EN"
 "http://www.w3.org/Graphics/SVG/1.1/DTD/svg11.dtd">
<!-- Generated by graphviz version 2.43.0 (0)
 -->
<!-- Title: src/scheduler.hpp Pages: 1 -->
<svg width="272pt" height="137pt"
 viewBox="0.00 0.00 271.50 137.00" xmlns="http://www.w3.org/2000/svg" xmlns:xlink="http://www.w3.org/1999/xlink">
<g id="graph0" class="graph" transform="scale(1 1) rotate(0) translate(4 133)">
<title>src/scheduler.hpp</title>
<!-- Node1 -->
<g id="node1" class="node">
<title>Node1</title>
<g id="a_node1"><a xlink:title=" ">
<polygon fill="#999999" stroke="#666666" points="184,-129 83,-129 83,-110 184,-110 184,-129"/>
<text text-anchor="middle" x="133.5" y="-117" font-family="Helvetica,sans-Serif" font-size="10.00">src/scheduler.hpp</text>
</a>
</g>
</g>
<!-- Node2 -->
<g id="node2" class="node">
<title>Node2</title>
<g id="a_node2"><a xlink:href="process_8hpp.html" target="_top" xlink:title=" ">
<polygon fill="white" stroke="#666666" points="221,-74 146,-74 146,-55 221,-55 221,-74"/>
<text text-anchor="middle" x="183.5" y="-62" font-family="Helvetica,sans-Serif" font-size="10.00">process.hpp</text>
</a>
</g>
</g>
<!-- Node1&#45;&gt;Node2 -->
<g id="edge1" class="edge">
<title>Node1&#45;&gt;Node2</title>
<path fill="none" stroke="#63b8ff" d="M141.76,-109.75C148.96,-102.11 159.61,-90.82 168.35,-81.56"/>
<polygon fill="#63b8ff" stroke="#63b8ff" points="171.08,-83.76 175.4,-74.09 165.99,-78.96 171.08,-83.76"/>
</g>
<!-- Node6 -->
<g id="node6" class="node">
<title>Node6</title>
<g id="a_node6"><a xlink:href="min__heap_8hpp.html" target="_top" xlink:title=" ">
<polygon fill="white" stroke="#666666" points="127.5,-74 41.5,-74 41.5,-55 127.5,-55 127.5,-74"/>
<text text-anchor="middle" x="84.5" y="-62" font-family="Helvetica,sans-Serif" font-size="10.00">min_heap.hpp</text>
</a>
</g>
</g>
<!-- Node1&#45;&gt;Node6 -->
<g id="edge5" class="edge">
<title>Node1&#45;&gt;Node6</title>
<path fill="none" stroke="#63b8ff" d="M125.41,-109.75C118.34,-102.11 107.91,-90.82 99.35,-81.56"/>
<polygon fill="#63b8ff" stroke="#63b8ff" points="101.8,-79.06 92.44,-74.09 96.66,-83.81 101.8,-79.06"/>
</g>
<!-- Node3 -->
<g id="node3" class="node">
<title>Node3</title>
<g id="a_node3"><a xlink:title=" ">
<polygon fill="#e0e0e0" stroke="#999999" points="125.5,-19 65.5,-19 65.5,0 125.5,0 125.5,-19"/>
<text text-anchor="middle" x="95.5" y="-7" font-family="Helvetica,sans-Serif" font-size="10.00">iostream</text>
</a>
</g>
</g>
<!-- Node2&#45;&gt;Node3 -->
<g id="edge2" class="edge">
<title>Node2&#45;&gt;Node3</title>
<path fill="none" stroke="#63b8ff" d="M169.36,-54.98C155.71,-46.77 134.81,-34.18 118.72,-24.49"/>
<polygon fill="#63b8ff" stroke="#63b8ff" points="120.27,-21.33 109.9,-19.17 116.66,-27.33 120.27,-21.33"/>
</g>
<!-- Node4 -->
<g id="node4" class="node">
<title>Node4</title>
<g id="a_node4"><a xlink:title=" ">
<polygon fill="#e0e0e0" stroke="#999999" points="263.5,-19 219.5,-19 219.5,0 263.5,0 263.5,-19"/>
<text text-anchor="middle" x="241.5" y="-7" font-family="Helvetica,sans-Serif" font-size="10.00">string</text>
</a>
</g>
</g>
<!-- Node2&#45;&gt;Node4 -->
<g id="edge3" class="edge">
<title>Node2&#45;&gt;Node4</title>
<path fill="none" stroke="#63b8ff" d="M192.82,-54.98C201.31,-47.23 214.06,-35.58 224.38,-26.14"/>
<polygon fill="#63b8ff" stroke="#63b8ff" points="226.99,-28.5 232.01,-19.17 222.27,-23.33 226.99,-28.5"/>
</g>
<!-- Node5 -->
<g id="node5" class="node">
<title>Node5</title>
<g id="a_node5"><a xlink:title=" ">
<polygon fill="#e0e0e0" stroke="#999999" points="201.5,-19 143.5,-19 143.5,0 201.5,0 201.5,-19"/>
<text text-anchor="middle" x="172.5" y="-7" font-family="Helvetica,sans-Serif" font-size="10.00">memory</text>
</a>
</g>
</g>
<!-- Node2&#45;&gt;Node5 -->
<g id="edge4" class="edge">
<title>Node2&#45;&gt;Node5</title>
<path fill="none" stroke="#63b8ff" d="M181.68,-54.75C180.24,-47.8 178.18,-37.85 176.37,-29.13"/>
<polygon fill="#63b8ff" stroke="#63b8ff" points="179.74,-28.17 174.28,-19.09 172.89,-29.59 179.74,-28.17"/>
</g>
<!-- Node6&#45;&gt;Node3 -->
<g id="edge8" class="edge">
<title>Node6&#45;&gt;Node3</title>
<path fill="none" stroke="#63b8ff" d="M86.32,-54.75C87.76,-47.8 89.82,-37.85 91.63,-29.13"/>
<polygon fill="#63b8ff" stroke="#63b8ff" points="95.11,-29.59 93.72,-19.09 88.26,-28.17 95.11,-29.59"/>
</g>
<!-- Node6&#45;&gt;Node5 -->
<g id="edge7" class="edge">
<title>Node6&#45;&gt;Node5</title>
<path fill="none" stroke="#63b8ff" d="M98.64,-54.98C112.29,-46.77 133.19,-34.18 149.28,-24.49"/>
<polygon fill="#63b8ff" stroke="#63b8ff" points="151.34,-27.33 158.1,-19.17 147.73,-21.33 151.34,-27.33"/>
</g>
<!-- Node7 -->
<g id="node7" class="node">
<title>Node7</title>
<g id="a_node7"><a xlink:title=" ">
<polygon fill="#e0e0e0" stroke="#999999" points="47,-19 0,-19 0,0 47,0 47,-19"/>
<text text-anchor="middle" x="23.5" y="-7" font-family="Helvetica,sans-Serif" font-size="10.00">vector</text>
</a>
</g>
</g>
<!-- Node6&#45;&gt;Node7 -->
<g id="edge6" class="edge">
<title>Node6&#45;&gt;Node7</title>
<path fill="none" stroke="#63b8ff" d="M74.7,-54.98C65.68,-47.15 52.09,-35.34 41.18,-25.86"/>
<polygon fill="#63b8ff" stroke="#63b8ff" points="43.32,-23.09 33.48,-19.17 38.73,-28.37 43.32,-23.09"/>
</g>
</g>
</svg>
