<?xml version="1.0" encoding="UTF-8" standalone="no"?>
<!DOCTYPE svg PUBLIC "-//W3C//DTD SVG 1.1//EN"
 "http://www.w3.org/Graphics/SVG/1.1/DTD/svg11.dtd">
<!-- Generated by graphviz version 2.43.0 (0)
 -->
<!-- Title: src/scheduler.hpp Pages: 1 -->
<svg width="358pt" height="192pt"
 viewBox="0.00 0.00 358.00 192.00" xmlns="http://www.w3.org/2000/svg" xmlns:xlink="http://www.w3.org/1999/xlink">
<g id="graph0" class="graph" transform="scale(1 1) rotate(0) translate(4 188)">
<title>src/scheduler.hpp</title>
<!-- Node1 -->
<g id="node1" class="node">
<title>Node1</title>
<g id="a_node1"><a xlink:title=" ">
<polygon fill="#999999" stroke="#666666" points="213,-184 112,-184 112,-165 213,-165 213,-184"/>
<text text-anchor="middle" x="162.5" y="-172" font-family="Helvetica,sans-Serif" font-size="10.00">src/scheduler.hpp</text>
</a>
</g>
</g>
<!-- Node2 -->
<g id="node2" class="node">
<title>Node2</title>
<g id="a_node2"><a xlink:href="process_8hpp.html" target="_top" xlink:title=" ">
<polygon fill="white" stroke="#666666" points="200,-74 125,-74 125,-55 200,-55 200,-74"/>
<text text-anchor="middle" x="162.5" y="-62" font-family="Helvetica,sans-Serif" font-size="10.00">process.hpp</text>
</a>
</g>
</g>
<!-- Node1&#45;&gt;Node2 -->
<g id="edge1" class="edge">
<title>Node1&#45;&gt;Node2</title>
<path fill="none" stroke="#63b8ff" d="M162.5,-164.66C162.5,-147.17 162.5,-107.8 162.5,-84.27"/>
<polygon fill="#63b8ff" stroke="#63b8ff" points="166,-84.16 162.5,-74.16 159,-84.16 166,-84.16"/>
</g>
<!-- Node6 -->
<g id="node6" class="node">
<title>Node6</title>
<g id="a_node6"><a xlink:href="min__heap_8hpp.html" target="_top" xlink:title=" ">
<polygon fill="white" stroke="#666666" points="106.5,-74 20.5,-74 20.5,-55 106.5,-55 106.5,-74"/>
<text text-anchor="middle" x="63.5" y="-62" font-family="Helvetica,sans-Serif" font-size="10.00">min_heap.hpp</text>
</a>
</g>
</g>
<!-- Node1&#45;&gt;Node6 -->
<g id="edge5" class="edge">
<title>Node1&#45;&gt;Node6</title>
<path fill="none" stroke="#63b8ff" d="M154.4,-164.66C137.78,-146.54 99.63,-104.91 78.41,-81.77"/>
<polygon fill="#63b8ff" stroke="#63b8ff" points="80.77,-79.16 71.44,-74.16 75.61,-83.89 80.77,-79.16"/>
</g>
<!-- Node8 -->
<g id="node8" class="node">
<title>Node8</title>
<g id="a_node8"><a xlink:href="logger_8hpp.html" target="_top" xlink:title=" ">
<polygon fill="white" stroke="#666666" points="262.5,-129 194.5,-129 194.5,-110 262.5,-110 262.5,-129"/>
<text text-anchor="middle" x="228.5" y="-117" font-family="Helvetica,sans-Serif" font-size="10.00">logger.hpp</text>
</a>
</g>
</g>
<!-- Node1&#45;&gt;Node8 -->
<g id="edge9" class="edge">
<title>Node1&#45;&gt;Node8</title>
<path fill="none" stroke="#63b8ff" d="M173.1,-164.98C182.96,-157.07 197.85,-145.11 209.72,-135.58"/>
<polygon fill="#63b8ff" stroke="#63b8ff" points="212.1,-138.16 217.7,-129.17 207.71,-132.7 212.1,-138.16"/>
</g>
<!-- Node3 -->
<g id="node3" class="node">
<title>Node3</title>
<g id="a_node3"><a xlink:title=" ">
<polygon fill="#e0e0e0" stroke="#999999" points="201.5,-19 141.5,-19 141.5,0 201.5,0 201.5,-19"/>
<text text-anchor="middle" x="171.5" y="-7" font-family="Helvetica,sans-Serif" font-size="10.00">iostream</text>
</a>
</g>
</g>
<!-- Node2&#45;&gt;Node3 -->
<g id="edge2" class="edge">
<title>Node2&#45;&gt;Node3</title>
<path fill="none" stroke="#63b8ff" d="M163.99,-54.75C165.17,-47.8 166.86,-37.85 168.34,-29.13"/>
<polygon fill="#63b8ff" stroke="#63b8ff" points="171.82,-29.53 170.04,-19.09 164.92,-28.36 171.82,-29.53"/>
</g>
<!-- Node4 -->
<g id="node4" class="node">
<title>Node4</title>
<g id="a_node4"><a xlink:title=" ">
<polygon fill="#e0e0e0" stroke="#999999" points="280.5,-19 236.5,-19 236.5,0 280.5,0 280.5,-19"/>
<text text-anchor="middle" x="258.5" y="-7" font-family="Helvetica,sans-Serif" font-size="10.00">string</text>
</a>
</g>
</g>
<!-- Node2&#45;&gt;Node4 -->
<g id="edge3" class="edge">
<title>Node2&#45;&gt;Node4</title>
<path fill="none" stroke="#63b8ff" d="M177.92,-54.98C192.95,-46.69 216.04,-33.94 233.66,-24.22"/>
<polygon fill="#63b8ff" stroke="#63b8ff" points="235.73,-27.07 242.8,-19.17 232.35,-20.94 235.73,-27.07"/>
</g>
<!-- Node5 -->
<g id="node5" class="node">
<title>Node5</title>
<g id="a_node5"><a xlink:title=" ">
<polygon fill="#e0e0e0" stroke="#999999" points="123.5,-19 65.5,-19 65.5,0 123.5,0 123.5,-19"/>
<text text-anchor="middle" x="94.5" y="-7" font-family="Helvetica,sans-Serif" font-size="10.00">memory</text>
</a>
</g>
</g>
<!-- Node2&#45;&gt;Node5 -->
<g id="edge4" class="edge">
<title>Node2&#45;&gt;Node5</title>
<path fill="none" stroke="#63b8ff" d="M151.57,-54.98C141.42,-47.07 126.08,-35.11 113.85,-25.58"/>
<polygon fill="#63b8ff" stroke="#63b8ff" points="115.66,-22.56 105.62,-19.17 111.36,-28.08 115.66,-22.56"/>
</g>
<!-- Node6&#45;&gt;Node3 -->
<g id="edge8" class="edge">
<title>Node6&#45;&gt;Node3</title>
<path fill="none" stroke="#63b8ff" d="M80.85,-54.98C98.07,-46.54 124.7,-33.47 144.65,-23.68"/>
<polygon fill="#63b8ff" stroke="#63b8ff" points="146.4,-26.72 153.83,-19.17 143.31,-20.43 146.4,-26.72"/>
</g>
<!-- Node6&#45;&gt;Node5 -->
<g id="edge7" class="edge">
<title>Node6&#45;&gt;Node5</title>
<path fill="none" stroke="#63b8ff" d="M68.62,-54.75C72.86,-47.49 79.03,-36.95 84.28,-27.98"/>
<polygon fill="#63b8ff" stroke="#63b8ff" points="87.45,-29.49 89.48,-19.09 81.41,-25.95 87.45,-29.49"/>
</g>
<!-- Node7 -->
<g id="node7" class="node">
<title>Node7</title>
<g id="a_node7"><a xlink:title=" ">
<polygon fill="#e0e0e0" stroke="#999999" points="47,-19 0,-19 0,0 47,0 47,-19"/>
<text text-anchor="middle" x="23.5" y="-7" font-family="Helvetica,sans-Serif" font-size="10.00">vector</text>
</a>
</g>
</g>
<!-- Node6&#45;&gt;Node7 -->
<g id="edge6" class="edge">
<title>Node6&#45;&gt;Node7</title>
<path fill="none" stroke="#63b8ff" d="M56.89,-54.75C51.24,-47.26 42.96,-36.28 36.05,-27.13"/>
<polygon fill="#63b8ff" stroke="#63b8ff" points="38.8,-24.96 29.98,-19.09 33.21,-29.18 38.8,-24.96"/>
</g>
<!-- Node8&#45;&gt;Node2 -->
<g id="edge13" class="edge">
<title>Node8&#45;&gt;Node2</title>
<path fill="none" stroke="#63b8ff" d="M217.9,-109.98C208.04,-102.07 193.15,-90.11 181.28,-80.58"/>
<polygon fill="#63b8ff" stroke="#63b8ff" points="183.29,-77.7 173.3,-74.17 178.9,-83.16 183.29,-77.7"/>
</g>
<!-- Node8&#45;&gt;Node3 -->
<g id="edge10" class="edge">
<title>Node8&#45;&gt;Node3</title>
<path fill="none" stroke="#63b8ff" d="M226.89,-109.86C224.3,-97.24 218.46,-73.26 208.5,-55 202.93,-44.79 194.83,-34.71 187.63,-26.73"/>
<polygon fill="#63b8ff" stroke="#63b8ff" points="190,-24.14 180.59,-19.27 184.9,-28.95 190,-24.14"/>
</g>
<!-- Node8&#45;&gt;Node4 -->
<g id="edge12" class="edge">
<title>Node8&#45;&gt;Node4</title>
<path fill="none" stroke="#63b8ff" d="M231.44,-109.68C234.38,-100.73 238.97,-86.47 242.5,-74 246.76,-58.94 251.07,-41.71 254.14,-29.01"/>
<polygon fill="#63b8ff" stroke="#63b8ff" points="257.57,-29.71 256.48,-19.17 250.76,-28.08 257.57,-29.71"/>
</g>
<!-- Node9 -->
<g id="node9" class="node">
<title>Node9</title>
<g id="a_node9"><a xlink:title=" ">
<polygon fill="#e0e0e0" stroke="#999999" points="350,-74 295,-74 295,-55 350,-55 350,-74"/>
<text text-anchor="middle" x="322.5" y="-62" font-family="Helvetica,sans-Serif" font-size="10.00">fstream</text>
</a>
</g>
</g>
<!-- Node8&#45;&gt;Node9 -->
<g id="edge11" class="edge">
<title>Node8&#45;&gt;Node9</title>
<path fill="none" stroke="#63b8ff" d="M243.6,-109.98C258.32,-101.69 280.92,-88.94 298.17,-79.22"/>
<polygon fill="#63b8ff" stroke="#63b8ff" points="300.13,-82.13 307.12,-74.17 296.69,-76.03 300.13,-82.13"/>
</g>
</g>
</svg>
