<?xml version="1.0" encoding="UTF-8" standalone="no"?>
<!DOCTYPE svg PUBLIC "-//W3C//DTD SVG 1.1//EN"
 "http://www.w3.org/Graphics/SVG/1.1/DTD/svg11.dtd">
<!-- Generated by graphviz version 2.43.0 (0)
 -->
<!-- Title: src/scheduler.hpp Pages: 1 -->
<svg width="450pt" height="137pt"
 viewBox="0.00 0.00 449.50 137.00" xmlns="http://www.w3.org/2000/svg" xmlns:xlink="http://www.w3.org/1999/xlink">
<g id="graph0" class="graph" transform="scale(1 1) rotate(0) translate(4 133)">
<title>src/scheduler.hpp</title>
<!-- Node1 -->
<g id="node1" class="node">
<title>Node1</title>
<g id="a_node1"><a xlink:title=" ">
<polygon fill="#999999" stroke="#666666" points="242.5,-129 141.5,-129 141.5,-110 242.5,-110 242.5,-129"/>
<text text-anchor="middle" x="192" y="-117" font-family="Helvetica,sans-Serif" font-size="10.00">src/scheduler.hpp</text>
</a>
</g>
</g>
<!-- Node2 -->
<g id="node2" class="node">
<title>Node2</title>
<g id="a_node2"><a xlink:href="FCFS_8cpp.html" target="_top" xlink:title=" ">
<polygon fill="white" stroke="#666666" points="78,-74 0,-74 0,-55 78,-55 78,-74"/>
<text text-anchor="middle" x="39" y="-62" font-family="Helvetica,sans-Serif" font-size="10.00">src/FCFS.cpp</text>
</a>
</g>
</g>
<!-- Node1&#45;&gt;Node2 -->
<g id="edge1" class="edge">
<title>Node1&#45;&gt;Node2</title>
<path fill="none" stroke="#63b8ff" d="M157.85,-106.67C129.32,-96.79 89.31,-82.93 63.77,-74.08"/>
<polygon fill="#63b8ff" stroke="#63b8ff" points="156.82,-110.02 167.42,-109.98 159.11,-103.4 156.82,-110.02"/>
</g>
<!-- Node3 -->
<g id="node3" class="node">
<title>Node3</title>
<g id="a_node3"><a xlink:href="RR_8cpp.html" target="_top" xlink:title=" ">
<polygon fill="white" stroke="#666666" points="164,-74 96,-74 96,-55 164,-55 164,-74"/>
<text text-anchor="middle" x="130" y="-62" font-family="Helvetica,sans-Serif" font-size="10.00">src/RR.cpp</text>
</a>
</g>
</g>
<!-- Node1&#45;&gt;Node3 -->
<g id="edge2" class="edge">
<title>Node1&#45;&gt;Node3</title>
<path fill="none" stroke="#63b8ff" d="M174.25,-103.32C163.19,-93.87 149.37,-82.06 140.14,-74.17"/>
<polygon fill="#63b8ff" stroke="#63b8ff" points="172.16,-106.15 182.04,-109.98 176.71,-100.83 172.16,-106.15"/>
</g>
<!-- Node4 -->
<g id="node4" class="node">
<title>Node4</title>
<g id="a_node4"><a xlink:href="main_8cpp.html" target="_top" xlink:title=" ">
<polygon fill="white" stroke="#666666" points="277.5,-19 198.5,-19 198.5,0 277.5,0 277.5,-19"/>
<text text-anchor="middle" x="238" y="-7" font-family="Helvetica,sans-Serif" font-size="10.00">src/main.cpp</text>
</a>
</g>
</g>
<!-- Node1&#45;&gt;Node4 -->
<g id="edge3" class="edge">
<title>Node1&#45;&gt;Node4</title>
<path fill="none" stroke="#63b8ff" d="M196.3,-99.62C199.56,-86.75 204.57,-69.48 211,-55 216.87,-41.79 225.95,-27.71 231.93,-19.01"/>
<polygon fill="#63b8ff" stroke="#63b8ff" points="192.83,-99.08 193.9,-109.62 199.64,-100.71 192.83,-99.08"/>
</g>
<!-- Node5 -->
<g id="node5" class="node">
<title>Node5</title>
<g id="a_node5"><a xlink:href="min__heap_8cpp.html" target="_top" xlink:title=" ">
<polygon fill="white" stroke="#666666" points="322,-74 220,-74 220,-55 322,-55 322,-74"/>
<text text-anchor="middle" x="271" y="-62" font-family="Helvetica,sans-Serif" font-size="10.00">src/min_heap.cpp</text>
</a>
</g>
</g>
<!-- Node1&#45;&gt;Node5 -->
<g id="edge4" class="edge">
<title>Node1&#45;&gt;Node5</title>
<path fill="none" stroke="#63b8ff" d="M213.39,-104.15C227.67,-94.57 245.97,-82.29 258.08,-74.17"/>
<polygon fill="#63b8ff" stroke="#63b8ff" points="211.05,-101.51 204.69,-109.98 214.95,-107.32 211.05,-101.51"/>
</g>
<!-- Node6 -->
<g id="node6" class="node">
<title>Node6</title>
<g id="a_node6"><a xlink:href="simulator_8hpp.html" target="_top" xlink:title=" ">
<polygon fill="white" stroke="#666666" points="441.5,-74 340.5,-74 340.5,-55 441.5,-55 441.5,-74"/>
<text text-anchor="middle" x="391" y="-62" font-family="Helvetica,sans-Serif" font-size="10.00">src/simulator.hpp</text>
</a>
</g>
</g>
<!-- Node1&#45;&gt;Node6 -->
<g id="edge5" class="edge">
<title>Node1&#45;&gt;Node6</title>
<path fill="none" stroke="#63b8ff" d="M234.01,-107.31C271.25,-97.39 324.84,-83.12 358.78,-74.08"/>
<polygon fill="#63b8ff" stroke="#63b8ff" points="232.74,-104.03 223.97,-109.98 234.54,-110.79 232.74,-104.03"/>
</g>
<!-- Node6&#45;&gt;Node4 -->
<g id="edge6" class="edge">
<title>Node6&#45;&gt;Node4</title>
<path fill="none" stroke="#63b8ff" d="M356.85,-51.67C328.32,-41.79 288.31,-27.93 262.77,-19.08"/>
<polygon fill="#63b8ff" stroke="#63b8ff" points="355.82,-55.02 366.42,-54.98 358.11,-48.4 355.82,-55.02"/>
</g>
<!-- Node7 -->
<g id="node7" class="node">
<title>Node7</title>
<g id="a_node7"><a xlink:href="simulator_8cpp.html" target="_top" xlink:title=" ">
<polygon fill="white" stroke="#666666" points="441,-19 341,-19 341,0 441,0 441,-19"/>
<text text-anchor="middle" x="391" y="-7" font-family="Helvetica,sans-Serif" font-size="10.00">src/simulator.cpp</text>
</a>
</g>
</g>
<!-- Node6&#45;&gt;Node7 -->
<g id="edge7" class="edge">
<title>Node6&#45;&gt;Node7</title>
<path fill="none" stroke="#63b8ff" d="M391,-44.66C391,-35.93 391,-25.99 391,-19.09"/>
<polygon fill="#63b8ff" stroke="#63b8ff" points="387.5,-44.75 391,-54.75 394.5,-44.75 387.5,-44.75"/>
</g>
</g>
</svg>
