<?xml version="1.0" encoding="UTF-8" standalone="no"?>
<!DOCTYPE svg PUBLIC "-//W3C//DTD SVG 1.1//EN"
 "http://www.w3.org/Graphics/SVG/1.1/DTD/svg11.dtd">
<!-- Generated by graphviz version 2.43.0 (0)
 -->
<!-- Title: src/simulator.hpp Pages: 1 -->
<svg width="470pt" height="247pt"
 viewBox="0.00 0.00 470.44 247.00" xmlns="http://www.w3.org/2000/svg" xmlns:xlink="http://www.w3.org/1999/xlink">
<g id="graph0" class="graph" transform="scale(1 1) rotate(0) translate(4 243)">
<title>src/simulator.hpp</title>
<!-- Node1 -->
<g id="node1" class="node">
<title>Node1</title>
<g id="a_node1"><a xlink:title=" ">
<polygon fill="#999999" stroke="#666666" points="346.94,-239 245.94,-239 245.94,-220 346.94,-220 346.94,-239"/>
<text text-anchor="middle" x="296.44" y="-227" font-family="Helvetica,sans-Serif" font-size="10.00">src/simulator.hpp</text>
</a>
</g>
</g>
<!-- Node2 -->
<g id="node2" class="node">
<title>Node2</title>
<g id="a_node2"><a xlink:href="process_8hpp.html" target="_top" xlink:title=" ">
<polygon fill="white" stroke="#666666" points="199.94,-74 124.94,-74 124.94,-55 199.94,-55 199.94,-74"/>
<text text-anchor="middle" x="162.44" y="-62" font-family="Helvetica,sans-Serif" font-size="10.00">process.hpp</text>
</a>
</g>
</g>
<!-- Node1&#45;&gt;Node2 -->
<g id="edge1" class="edge">
<title>Node1&#45;&gt;Node2</title>
<path fill="none" stroke="#63b8ff" d="M252.65,-219.96C230.99,-213.56 206.17,-202.58 190.44,-184 166.27,-155.46 162.13,-109.78 161.88,-84.27"/>
<polygon fill="#63b8ff" stroke="#63b8ff" points="165.39,-84.14 161.98,-74.11 158.39,-84.07 165.39,-84.14"/>
</g>
<!-- Node5 -->
<g id="node5" class="node">
<title>Node5</title>
<g id="a_node5"><a xlink:title=" ">
<polygon fill="#e0e0e0" stroke="#999999" points="295.44,-19 237.44,-19 237.44,0 295.44,0 295.44,-19"/>
<text text-anchor="middle" x="266.44" y="-7" font-family="Helvetica,sans-Serif" font-size="10.00">memory</text>
</a>
</g>
</g>
<!-- Node1&#45;&gt;Node5 -->
<g id="edge17" class="edge">
<title>Node1&#45;&gt;Node5</title>
<path fill="none" stroke="#63b8ff" d="M303.73,-219.96C325.26,-193.68 384.93,-112.3 350.44,-55 340.55,-38.57 322.33,-27.89 305.38,-21.12"/>
<polygon fill="#63b8ff" stroke="#63b8ff" points="306.22,-17.7 295.62,-17.57 303.83,-24.28 306.22,-17.7"/>
</g>
<!-- Node6 -->
<g id="node6" class="node">
<title>Node6</title>
<g id="a_node6"><a xlink:href="logger_8hpp.html" target="_top" xlink:title=" ">
<polygon fill="white" stroke="#666666" points="124.44,-129 56.44,-129 56.44,-110 124.44,-110 124.44,-129"/>
<text text-anchor="middle" x="90.44" y="-117" font-family="Helvetica,sans-Serif" font-size="10.00">logger.hpp</text>
</a>
</g>
</g>
<!-- Node1&#45;&gt;Node6 -->
<g id="edge5" class="edge">
<title>Node1&#45;&gt;Node6</title>
<path fill="none" stroke="#63b8ff" d="M245.93,-222.74C213.04,-217.05 170.45,-205.85 138.44,-184 121.38,-172.35 107.87,-152.65 99.59,-138.28"/>
<polygon fill="#63b8ff" stroke="#63b8ff" points="102.57,-136.44 94.71,-129.34 96.43,-139.8 102.57,-136.44"/>
</g>
<!-- Node8 -->
<g id="node8" class="node">
<title>Node8</title>
<g id="a_node8"><a xlink:href="scheduler_8hpp.html" target="_top" xlink:title=" ">
<polygon fill="white" stroke="#666666" points="283.44,-184 199.44,-184 199.44,-165 283.44,-165 283.44,-184"/>
<text text-anchor="middle" x="241.44" y="-172" font-family="Helvetica,sans-Serif" font-size="10.00">scheduler.hpp</text>
</a>
</g>
</g>
<!-- Node1&#45;&gt;Node8 -->
<g id="edge10" class="edge">
<title>Node1&#45;&gt;Node8</title>
<path fill="none" stroke="#63b8ff" d="M287.36,-219.75C279.35,-212.03 267.48,-200.6 257.82,-191.28"/>
<polygon fill="#63b8ff" stroke="#63b8ff" points="259.98,-188.51 250.35,-184.09 255.12,-193.55 259.98,-188.51"/>
</g>
<!-- Node10 -->
<g id="node10" class="node">
<title>Node10</title>
<g id="a_node10"><a xlink:title=" ">
<polygon fill="#e0e0e0" stroke="#999999" points="341.94,-74 294.94,-74 294.94,-55 341.94,-55 341.94,-74"/>
<text text-anchor="middle" x="318.44" y="-62" font-family="Helvetica,sans-Serif" font-size="10.00">vector</text>
</a>
</g>
</g>
<!-- Node1&#45;&gt;Node10 -->
<g id="edge18" class="edge">
<title>Node1&#45;&gt;Node10</title>
<path fill="none" stroke="#63b8ff" d="M298.21,-219.75C301.64,-202.48 309.24,-162.74 313.44,-129 315.3,-114.04 316.6,-97.02 317.4,-84.36"/>
<polygon fill="#63b8ff" stroke="#63b8ff" points="320.91,-84.34 318.01,-74.15 313.92,-83.93 320.91,-84.34"/>
</g>
<!-- Node11 -->
<g id="node11" class="node">
<title>Node11</title>
<g id="a_node11"><a xlink:title=" ">
<polygon fill="#e0e0e0" stroke="#999999" points="462.44,-184 398.44,-184 398.44,-165 462.44,-165 462.44,-184"/>
<text text-anchor="middle" x="430.44" y="-172" font-family="Helvetica,sans-Serif" font-size="10.00">algorithm</text>
</a>
</g>
</g>
<!-- Node1&#45;&gt;Node11 -->
<g id="edge19" class="edge">
<title>Node1&#45;&gt;Node11</title>
<path fill="none" stroke="#63b8ff" d="M317.97,-219.98C339.91,-211.3 374.18,-197.75 399.13,-187.88"/>
<polygon fill="#63b8ff" stroke="#63b8ff" points="400.51,-191.1 408.52,-184.17 397.93,-184.59 400.51,-191.1"/>
</g>
<!-- Node3 -->
<g id="node3" class="node">
<title>Node3</title>
<g id="a_node3"><a xlink:title=" ">
<polygon fill="#e0e0e0" stroke="#999999" points="192.44,-19 132.44,-19 132.44,0 192.44,0 192.44,-19"/>
<text text-anchor="middle" x="162.44" y="-7" font-family="Helvetica,sans-Serif" font-size="10.00">iostream</text>
</a>
</g>
</g>
<!-- Node2&#45;&gt;Node3 -->
<g id="edge2" class="edge">
<title>Node2&#45;&gt;Node3</title>
<path fill="none" stroke="#63b8ff" d="M162.44,-54.75C162.44,-47.8 162.44,-37.85 162.44,-29.13"/>
<polygon fill="#63b8ff" stroke="#63b8ff" points="165.94,-29.09 162.44,-19.09 158.94,-29.09 165.94,-29.09"/>
</g>
<!-- Node4 -->
<g id="node4" class="node">
<title>Node4</title>
<g id="a_node4"><a xlink:title=" ">
<polygon fill="#e0e0e0" stroke="#999999" points="60.44,-19 16.44,-19 16.44,0 60.44,0 60.44,-19"/>
<text text-anchor="middle" x="38.44" y="-7" font-family="Helvetica,sans-Serif" font-size="10.00">string</text>
</a>
</g>
</g>
<!-- Node2&#45;&gt;Node4 -->
<g id="edge3" class="edge">
<title>Node2&#45;&gt;Node4</title>
<path fill="none" stroke="#63b8ff" d="M142.52,-54.98C122.39,-46.38 91.06,-32.99 68.03,-23.15"/>
<polygon fill="#63b8ff" stroke="#63b8ff" points="69.29,-19.88 58.72,-19.17 66.54,-26.32 69.29,-19.88"/>
</g>
<!-- Node2&#45;&gt;Node5 -->
<g id="edge4" class="edge">
<title>Node2&#45;&gt;Node5</title>
<path fill="none" stroke="#63b8ff" d="M179.15,-54.98C195.65,-46.57 221.14,-33.59 240.32,-23.81"/>
<polygon fill="#63b8ff" stroke="#63b8ff" points="242.1,-26.83 249.42,-19.17 238.93,-20.59 242.1,-26.83"/>
</g>
<!-- Node6&#45;&gt;Node2 -->
<g id="edge9" class="edge">
<title>Node6&#45;&gt;Node2</title>
<path fill="none" stroke="#63b8ff" d="M102.01,-109.98C112.86,-102 129.32,-89.88 142.32,-80.31"/>
<polygon fill="#63b8ff" stroke="#63b8ff" points="144.68,-82.92 150.66,-74.17 140.53,-77.28 144.68,-82.92"/>
</g>
<!-- Node6&#45;&gt;Node3 -->
<g id="edge6" class="edge">
<title>Node6&#45;&gt;Node3</title>
<path fill="none" stroke="#63b8ff" d="M92.58,-109.71C95.99,-96.89 103.5,-72.67 115.44,-55 122.85,-44.02 133.41,-33.71 142.64,-25.79"/>
<polygon fill="#63b8ff" stroke="#63b8ff" points="145.11,-28.29 150.61,-19.23 140.66,-22.88 145.11,-28.29"/>
</g>
<!-- Node6&#45;&gt;Node4 -->
<g id="edge8" class="edge">
<title>Node6&#45;&gt;Node4</title>
<path fill="none" stroke="#63b8ff" d="M56.32,-110.44C37.2,-104 14.95,-92.81 3.44,-74 -6.34,-58.02 7.08,-39.17 20.02,-26.17"/>
<polygon fill="#63b8ff" stroke="#63b8ff" points="22.5,-28.65 27.41,-19.27 17.72,-23.54 22.5,-28.65"/>
</g>
<!-- Node7 -->
<g id="node7" class="node">
<title>Node7</title>
<g id="a_node7"><a xlink:title=" ">
<polygon fill="#e0e0e0" stroke="#999999" points="67.94,-74 12.94,-74 12.94,-55 67.94,-55 67.94,-74"/>
<text text-anchor="middle" x="40.44" y="-62" font-family="Helvetica,sans-Serif" font-size="10.00">fstream</text>
</a>
</g>
</g>
<!-- Node6&#45;&gt;Node7 -->
<g id="edge7" class="edge">
<title>Node6&#45;&gt;Node7</title>
<path fill="none" stroke="#63b8ff" d="M82.18,-109.75C74.97,-102.11 64.33,-90.82 55.59,-81.56"/>
<polygon fill="#63b8ff" stroke="#63b8ff" points="57.95,-78.96 48.54,-74.09 52.86,-83.76 57.95,-78.96"/>
</g>
<!-- Node8&#45;&gt;Node2 -->
<g id="edge11" class="edge">
<title>Node8&#45;&gt;Node2</title>
<path fill="none" stroke="#63b8ff" d="M234.97,-164.66C221.83,-146.69 191.8,-105.64 174.79,-82.38"/>
<polygon fill="#63b8ff" stroke="#63b8ff" points="177.5,-80.16 168.77,-74.16 171.85,-84.3 177.5,-80.16"/>
</g>
<!-- Node8&#45;&gt;Node6 -->
<g id="edge16" class="edge">
<title>Node8&#45;&gt;Node6</title>
<path fill="none" stroke="#63b8ff" d="M217.18,-164.98C192.12,-156.19 152.81,-142.39 124.61,-132.49"/>
<polygon fill="#63b8ff" stroke="#63b8ff" points="125.73,-129.18 115.14,-129.17 123.42,-135.78 125.73,-129.18"/>
</g>
<!-- Node9 -->
<g id="node9" class="node">
<title>Node9</title>
<g id="a_node9"><a xlink:href="min__heap_8hpp.html" target="_top" xlink:title=" ">
<polygon fill="white" stroke="#666666" points="304.44,-129 218.44,-129 218.44,-110 304.44,-110 304.44,-129"/>
<text text-anchor="middle" x="261.44" y="-117" font-family="Helvetica,sans-Serif" font-size="10.00">min_heap.hpp</text>
</a>
</g>
</g>
<!-- Node8&#45;&gt;Node9 -->
<g id="edge12" class="edge">
<title>Node8&#45;&gt;Node9</title>
<path fill="none" stroke="#63b8ff" d="M244.74,-164.75C247.42,-157.65 251.29,-147.4 254.62,-138.56"/>
<polygon fill="#63b8ff" stroke="#63b8ff" points="257.94,-139.68 258.2,-129.09 251.39,-137.21 257.94,-139.68"/>
</g>
<!-- Node9&#45;&gt;Node3 -->
<g id="edge15" class="edge">
<title>Node9&#45;&gt;Node3</title>
<path fill="none" stroke="#63b8ff" d="M254.52,-109.62C244.66,-97.11 225.84,-73.72 208.44,-55 199.17,-45.03 188.24,-34.41 179.36,-26.05"/>
<polygon fill="#63b8ff" stroke="#63b8ff" points="181.59,-23.34 171.89,-19.09 176.82,-28.46 181.59,-23.34"/>
</g>
<!-- Node9&#45;&gt;Node5 -->
<g id="edge14" class="edge">
<title>Node9&#45;&gt;Node5</title>
<path fill="none" stroke="#63b8ff" d="M261.85,-109.66C262.66,-92.17 264.48,-52.8 265.57,-29.27"/>
<polygon fill="#63b8ff" stroke="#63b8ff" points="269.07,-29.31 266.04,-19.16 262.08,-28.99 269.07,-29.31"/>
</g>
<!-- Node9&#45;&gt;Node10 -->
<g id="edge13" class="edge">
<title>Node9&#45;&gt;Node10</title>
<path fill="none" stroke="#63b8ff" d="M270.6,-109.98C278.94,-102.23 291.47,-90.58 301.61,-81.14"/>
<polygon fill="#63b8ff" stroke="#63b8ff" points="304.17,-83.54 309.11,-74.17 299.41,-78.42 304.17,-83.54"/>
</g>
</g>
</svg>
