<?xml version="1.0" encoding="UTF-8" standalone="no"?>
<!DOCTYPE svg PUBLIC "-//W3C//DTD SVG 1.1//EN"
 "http://www.w3.org/Graphics/SVG/1.1/DTD/svg11.dtd">
<!-- Generated by graphviz version 2.43.0 (0)
 -->
<!-- Title: src/simulator.cpp Pages: 1 -->
<svg width="332pt" height="302pt"
 viewBox="0.00 0.00 331.50 302.00" xmlns="http://www.w3.org/2000/svg" xmlns:xlink="http://www.w3.org/1999/xlink">
<g id="graph0" class="graph" transform="scale(1 1) rotate(0) translate(4 298)">
<title>src/simulator.cpp</title>
<!-- Node1 -->
<g id="node1" class="node">
<title>Node1</title>
<g id="a_node1"><a xlink:title=" ">
<polygon fill="#999999" stroke="#666666" points="210,-294 110,-294 110,-275 210,-275 210,-294"/>
<text text-anchor="middle" x="160" y="-282" font-family="Helvetica,sans-Serif" font-size="10.00">src/simulator.cpp</text>
</a>
</g>
</g>
<!-- Node2 -->
<g id="node2" class="node">
<title>Node2</title>
<g id="a_node2"><a xlink:href="simulator_8hpp.html" target="_top" xlink:title=" ">
<polygon fill="white" stroke="#666666" points="166.5,-239 83.5,-239 83.5,-220 166.5,-220 166.5,-239"/>
<text text-anchor="middle" x="125" y="-227" font-family="Helvetica,sans-Serif" font-size="10.00">simulator.hpp</text>
</a>
</g>
</g>
<!-- Node1&#45;&gt;Node2 -->
<g id="edge1" class="edge">
<title>Node1&#45;&gt;Node2</title>
<path fill="none" stroke="#63b8ff" d="M154.22,-274.75C149.38,-267.42 142.32,-256.73 136.36,-247.7"/>
<polygon fill="#63b8ff" stroke="#63b8ff" points="139.1,-245.5 130.67,-239.09 133.26,-249.36 139.1,-245.5"/>
</g>
<!-- Node13 -->
<g id="node13" class="node">
<title>Node13</title>
<g id="a_node13"><a xlink:href="printer_8hpp.html" target="_top" xlink:title=" ">
<polygon fill="white" stroke="#666666" points="205.5,-129 136.5,-129 136.5,-110 205.5,-110 205.5,-129"/>
<text text-anchor="middle" x="171" y="-117" font-family="Helvetica,sans-Serif" font-size="10.00">printer.hpp</text>
</a>
</g>
</g>
<!-- Node1&#45;&gt;Node13 -->
<g id="edge14" class="edge">
<title>Node1&#45;&gt;Node13</title>
<path fill="none" stroke="#63b8ff" d="M163.81,-274.84C167.47,-266.02 172.77,-251.85 175,-239 181.04,-204.14 177.17,-162.67 173.97,-139.19"/>
<polygon fill="#63b8ff" stroke="#63b8ff" points="177.42,-138.59 172.5,-129.21 170.49,-139.61 177.42,-138.59"/>
</g>
<!-- Node3 -->
<g id="node3" class="node">
<title>Node3</title>
<g id="a_node3"><a xlink:href="scheduler_8hpp.html" target="_top" xlink:title=" ">
<polygon fill="white" stroke="#666666" points="85,-184 1,-184 1,-165 85,-165 85,-184"/>
<text text-anchor="middle" x="43" y="-172" font-family="Helvetica,sans-Serif" font-size="10.00">scheduler.hpp</text>
</a>
</g>
</g>
<!-- Node2&#45;&gt;Node3 -->
<g id="edge2" class="edge">
<title>Node2&#45;&gt;Node3</title>
<path fill="none" stroke="#63b8ff" d="M111.83,-219.98C99.23,-211.84 80,-199.41 65.06,-189.76"/>
<polygon fill="#63b8ff" stroke="#63b8ff" points="66.71,-186.66 56.41,-184.17 62.91,-192.54 66.71,-186.66"/>
</g>
<!-- Node12 -->
<g id="node12" class="node">
<title>Node12</title>
<g id="a_node12"><a xlink:title=" ">
<polygon fill="#e0e0e0" stroke="#999999" points="167,-184 103,-184 103,-165 167,-165 167,-184"/>
<text text-anchor="middle" x="135" y="-172" font-family="Helvetica,sans-Serif" font-size="10.00">algorithm</text>
</a>
</g>
</g>
<!-- Node2&#45;&gt;Node12 -->
<g id="edge13" class="edge">
<title>Node2&#45;&gt;Node12</title>
<path fill="none" stroke="#63b8ff" d="M126.65,-219.75C127.96,-212.8 129.84,-202.85 131.48,-194.13"/>
<polygon fill="#63b8ff" stroke="#63b8ff" points="134.96,-194.56 133.38,-184.09 128.09,-193.27 134.96,-194.56"/>
</g>
<!-- Node4 -->
<g id="node4" class="node">
<title>Node4</title>
<g id="a_node4"><a xlink:href="min__heap_8hpp.html" target="_top" xlink:title=" ">
<polygon fill="white" stroke="#666666" points="86,-129 0,-129 0,-110 86,-110 86,-129"/>
<text text-anchor="middle" x="43" y="-117" font-family="Helvetica,sans-Serif" font-size="10.00">min_heap.hpp</text>
</a>
</g>
</g>
<!-- Node3&#45;&gt;Node4 -->
<g id="edge3" class="edge">
<title>Node3&#45;&gt;Node4</title>
<path fill="none" stroke="#63b8ff" d="M43,-164.75C43,-157.8 43,-147.85 43,-139.13"/>
<polygon fill="#63b8ff" stroke="#63b8ff" points="46.5,-139.09 43,-129.09 39.5,-139.09 46.5,-139.09"/>
</g>
<!-- Node8 -->
<g id="node8" class="node">
<title>Node8</title>
<g id="a_node8"><a xlink:href="logger_8hpp.html" target="_top" xlink:title=" ">
<polygon fill="white" stroke="#666666" points="292,-129 224,-129 224,-110 292,-110 292,-129"/>
<text text-anchor="middle" x="258" y="-117" font-family="Helvetica,sans-Serif" font-size="10.00">logger.hpp</text>
</a>
</g>
</g>
<!-- Node3&#45;&gt;Node8 -->
<g id="edge7" class="edge">
<title>Node3&#45;&gt;Node8</title>
<path fill="none" stroke="#63b8ff" d="M77.54,-164.98C114.64,-155.84 173.68,-141.29 214.06,-131.33"/>
<polygon fill="#63b8ff" stroke="#63b8ff" points="215.03,-134.7 223.9,-128.91 213.35,-127.9 215.03,-134.7"/>
</g>
<!-- Node5 -->
<g id="node5" class="node">
<title>Node5</title>
<g id="a_node5"><a xlink:title=" ">
<polygon fill="#e0e0e0" stroke="#999999" points="118.5,-74 71.5,-74 71.5,-55 118.5,-55 118.5,-74"/>
<text text-anchor="middle" x="95" y="-62" font-family="Helvetica,sans-Serif" font-size="10.00">vector</text>
</a>
</g>
</g>
<!-- Node4&#45;&gt;Node5 -->
<g id="edge4" class="edge">
<title>Node4&#45;&gt;Node5</title>
<path fill="none" stroke="#63b8ff" d="M51.59,-109.75C59.16,-102.03 70.38,-90.6 79.51,-81.28"/>
<polygon fill="#63b8ff" stroke="#63b8ff" points="82.07,-83.68 86.57,-74.09 77.07,-78.78 82.07,-83.68"/>
</g>
<!-- Node6 -->
<g id="node6" class="node">
<title>Node6</title>
<g id="a_node6"><a xlink:title=" ">
<polygon fill="#e0e0e0" stroke="#999999" points="172,-19 114,-19 114,0 172,0 172,-19"/>
<text text-anchor="middle" x="143" y="-7" font-family="Helvetica,sans-Serif" font-size="10.00">memory</text>
</a>
</g>
</g>
<!-- Node4&#45;&gt;Node6 -->
<g id="edge5" class="edge">
<title>Node4&#45;&gt;Node6</title>
<path fill="none" stroke="#63b8ff" d="M37.26,-109.9C29.38,-96.9 17.41,-71.97 29,-55 45.72,-30.53 78.06,-19.51 104.04,-14.56"/>
<polygon fill="#63b8ff" stroke="#63b8ff" points="104.71,-17.99 114,-12.88 103.56,-11.09 104.71,-17.99"/>
</g>
<!-- Node7 -->
<g id="node7" class="node">
<title>Node7</title>
<g id="a_node7"><a xlink:title=" ">
<polygon fill="#e0e0e0" stroke="#999999" points="250,-19 190,-19 190,0 250,0 250,-19"/>
<text text-anchor="middle" x="220" y="-7" font-family="Helvetica,sans-Serif" font-size="10.00">iostream</text>
</a>
</g>
</g>
<!-- Node4&#45;&gt;Node7 -->
<g id="edge6" class="edge">
<title>Node4&#45;&gt;Node7</title>
<path fill="none" stroke="#63b8ff" d="M43.08,-109.78C43.7,-96.16 46.91,-69.85 62,-55 70.55,-46.59 136.21,-29.99 180.15,-19.61"/>
<polygon fill="#63b8ff" stroke="#63b8ff" points="181.05,-23 189.99,-17.31 179.45,-16.18 181.05,-23"/>
</g>
<!-- Node9 -->
<g id="node9" class="node">
<title>Node9</title>
<g id="a_node9"><a xlink:title=" ">
<polygon fill="#e0e0e0" stroke="#999999" points="230.5,-74 175.5,-74 175.5,-55 230.5,-55 230.5,-74"/>
<text text-anchor="middle" x="203" y="-62" font-family="Helvetica,sans-Serif" font-size="10.00">fstream</text>
</a>
</g>
</g>
<!-- Node8&#45;&gt;Node9 -->
<g id="edge8" class="edge">
<title>Node8&#45;&gt;Node9</title>
<path fill="none" stroke="#63b8ff" d="M248.92,-109.75C240.91,-102.03 229.04,-90.6 219.38,-81.28"/>
<polygon fill="#63b8ff" stroke="#63b8ff" points="221.54,-78.51 211.91,-74.09 216.69,-83.55 221.54,-78.51"/>
</g>
<!-- Node10 -->
<g id="node10" class="node">
<title>Node10</title>
<g id="a_node10"><a xlink:href="process_8hpp.html" target="_top" xlink:title=" ">
<polygon fill="white" stroke="#666666" points="323.5,-74 248.5,-74 248.5,-55 323.5,-55 323.5,-74"/>
<text text-anchor="middle" x="286" y="-62" font-family="Helvetica,sans-Serif" font-size="10.00">process.hpp</text>
</a>
</g>
</g>
<!-- Node8&#45;&gt;Node10 -->
<g id="edge9" class="edge">
<title>Node8&#45;&gt;Node10</title>
<path fill="none" stroke="#63b8ff" d="M262.62,-109.75C266.46,-102.49 272.02,-91.95 276.76,-82.98"/>
<polygon fill="#63b8ff" stroke="#63b8ff" points="279.89,-84.57 281.46,-74.09 273.7,-81.3 279.89,-84.57"/>
</g>
<!-- Node10&#45;&gt;Node6 -->
<g id="edge12" class="edge">
<title>Node10&#45;&gt;Node6</title>
<path fill="none" stroke="#63b8ff" d="M263.02,-54.98C239.5,-46.27 202.71,-32.63 176.06,-22.75"/>
<polygon fill="#63b8ff" stroke="#63b8ff" points="176.99,-19.36 166.39,-19.17 174.55,-25.93 176.99,-19.36"/>
</g>
<!-- Node10&#45;&gt;Node7 -->
<g id="edge10" class="edge">
<title>Node10&#45;&gt;Node7</title>
<path fill="none" stroke="#63b8ff" d="M275.4,-54.98C265.54,-47.07 250.65,-35.11 238.78,-25.58"/>
<polygon fill="#63b8ff" stroke="#63b8ff" points="240.79,-22.7 230.8,-19.17 236.4,-28.16 240.79,-22.7"/>
</g>
<!-- Node11 -->
<g id="node11" class="node">
<title>Node11</title>
<g id="a_node11"><a xlink:title=" ">
<polygon fill="#e0e0e0" stroke="#999999" points="312,-19 268,-19 268,0 312,0 312,-19"/>
<text text-anchor="middle" x="290" y="-7" font-family="Helvetica,sans-Serif" font-size="10.00">string</text>
</a>
</g>
</g>
<!-- Node10&#45;&gt;Node11 -->
<g id="edge11" class="edge">
<title>Node10&#45;&gt;Node11</title>
<path fill="none" stroke="#63b8ff" d="M286.66,-54.75C287.18,-47.8 287.94,-37.85 288.59,-29.13"/>
<polygon fill="#63b8ff" stroke="#63b8ff" points="292.09,-29.32 289.35,-19.09 285.11,-28.8 292.09,-29.32"/>
</g>
<!-- Node13&#45;&gt;Node5 -->
<g id="edge16" class="edge">
<title>Node13&#45;&gt;Node5</title>
<path fill="none" stroke="#63b8ff" d="M158.79,-109.98C147.22,-101.92 129.62,-89.65 115.84,-80.03"/>
<polygon fill="#63b8ff" stroke="#63b8ff" points="117.64,-77.02 107.43,-74.17 113.63,-82.76 117.64,-77.02"/>
</g>
<!-- Node13&#45;&gt;Node6 -->
<g id="edge17" class="edge">
<title>Node13&#45;&gt;Node6</title>
<path fill="none" stroke="#63b8ff" d="M168.71,-109.66C164.15,-92.09 153.88,-52.45 147.78,-28.95"/>
<polygon fill="#63b8ff" stroke="#63b8ff" points="151.14,-27.96 145.24,-19.16 144.37,-29.72 151.14,-27.96"/>
</g>
<!-- Node13&#45;&gt;Node9 -->
<g id="edge15" class="edge">
<title>Node13&#45;&gt;Node9</title>
<path fill="none" stroke="#63b8ff" d="M176.28,-109.75C180.71,-102.42 187.16,-91.73 192.62,-82.7"/>
<polygon fill="#63b8ff" stroke="#63b8ff" points="195.64,-84.46 197.81,-74.09 189.65,-80.84 195.64,-84.46"/>
</g>
<!-- Node13&#45;&gt;Node10 -->
<g id="edge18" class="edge">
<title>Node13&#45;&gt;Node10</title>
<path fill="none" stroke="#63b8ff" d="M189.48,-109.98C207.98,-101.46 236.68,-88.23 257.98,-78.41"/>
<polygon fill="#63b8ff" stroke="#63b8ff" points="259.57,-81.53 267.19,-74.17 256.64,-75.18 259.57,-81.53"/>
</g>
</g>
</svg>
