<?xml version="1.0" encoding="UTF-8" standalone="no"?>
<!DOCTYPE svg PUBLIC "-//W3C//DTD SVG 1.1//EN"
 "http://www.w3.org/Graphics/SVG/1.1/DTD/svg11.dtd">
<!-- Generated by graphviz version 2.43.0 (0)
 -->
<!-- Title: src/simulator.cpp Pages: 1 -->
<svg width="496pt" height="192pt"
 viewBox="0.00 0.00 495.50 192.00" xmlns="http://www.w3.org/2000/svg" xmlns:xlink="http://www.w3.org/1999/xlink">
<g id="graph0" class="graph" transform="scale(1 1) rotate(0) translate(4 188)">
<title>src/simulator.cpp</title>
<!-- Node1 -->
<g id="node1" class="node">
<title>Node1</title>
<g id="a_node1"><a xlink:title=" ">
<polygon fill="#999999" stroke="#666666" points="285.5,-184 185.5,-184 185.5,-165 285.5,-165 285.5,-184"/>
<text text-anchor="middle" x="235.5" y="-172" font-family="Helvetica,sans-Serif" font-size="10.00">src/simulator.cpp</text>
</a>
</g>
</g>
<!-- Node2 -->
<g id="node2" class="node">
<title>Node2</title>
<g id="a_node2"><a xlink:href="simulator_8hpp.html" target="_top" xlink:title=" ">
<polygon fill="white" stroke="#666666" points="399,-129 316,-129 316,-110 399,-110 399,-129"/>
<text text-anchor="middle" x="357.5" y="-117" font-family="Helvetica,sans-Serif" font-size="10.00">simulator.hpp</text>
</a>
</g>
</g>
<!-- Node1&#45;&gt;Node2 -->
<g id="edge1" class="edge">
<title>Node1&#45;&gt;Node2</title>
<path fill="none" stroke="#63b8ff" d="M255.1,-164.98C274.82,-156.42 305.45,-143.11 328.08,-133.28"/>
<polygon fill="#63b8ff" stroke="#63b8ff" points="329.76,-136.37 337.54,-129.17 326.98,-129.94 329.76,-136.37"/>
</g>
<!-- Node9 -->
<g id="node9" class="node">
<title>Node9</title>
<g id="a_node9"><a xlink:href="scheduler_8hpp.html" target="_top" xlink:title=" ">
<polygon fill="white" stroke="#666666" points="277.5,-129 193.5,-129 193.5,-110 277.5,-110 277.5,-129"/>
<text text-anchor="middle" x="235.5" y="-117" font-family="Helvetica,sans-Serif" font-size="10.00">scheduler.hpp</text>
</a>
</g>
</g>
<!-- Node1&#45;&gt;Node9 -->
<g id="edge9" class="edge">
<title>Node1&#45;&gt;Node9</title>
<path fill="none" stroke="#63b8ff" d="M235.5,-164.75C235.5,-157.8 235.5,-147.85 235.5,-139.13"/>
<polygon fill="#63b8ff" stroke="#63b8ff" points="239,-139.09 235.5,-129.09 232,-139.09 239,-139.09"/>
</g>
<!-- Node11 -->
<g id="node11" class="node">
<title>Node11</title>
<g id="a_node11"><a xlink:href="logger_8hpp.html" target="_top" xlink:title=" ">
<polygon fill="white" stroke="#666666" points="155.5,-129 87.5,-129 87.5,-110 155.5,-110 155.5,-129"/>
<text text-anchor="middle" x="121.5" y="-117" font-family="Helvetica,sans-Serif" font-size="10.00">logger.hpp</text>
</a>
</g>
</g>
<!-- Node1&#45;&gt;Node11 -->
<g id="edge15" class="edge">
<title>Node1&#45;&gt;Node11</title>
<path fill="none" stroke="#63b8ff" d="M217.18,-164.98C198.84,-156.46 170.39,-143.23 149.27,-133.41"/>
<polygon fill="#63b8ff" stroke="#63b8ff" points="150.69,-130.21 140.15,-129.17 147.74,-136.56 150.69,-130.21"/>
</g>
<!-- Node3 -->
<g id="node3" class="node">
<title>Node3</title>
<g id="a_node3"><a xlink:href="process_8hpp.html" target="_top" xlink:title=" ">
<polygon fill="white" stroke="#666666" points="225,-74 150,-74 150,-55 225,-55 225,-74"/>
<text text-anchor="middle" x="187.5" y="-62" font-family="Helvetica,sans-Serif" font-size="10.00">process.hpp</text>
</a>
</g>
</g>
<!-- Node2&#45;&gt;Node3 -->
<g id="edge2" class="edge">
<title>Node2&#45;&gt;Node3</title>
<path fill="none" stroke="#63b8ff" d="M330.19,-109.98C301.65,-101.09 256.67,-87.07 224.86,-77.15"/>
<polygon fill="#63b8ff" stroke="#63b8ff" points="225.62,-73.72 215.03,-74.08 223.53,-80.4 225.62,-73.72"/>
</g>
<!-- Node6 -->
<g id="node6" class="node">
<title>Node6</title>
<g id="a_node6"><a xlink:title=" ">
<polygon fill="#e0e0e0" stroke="#999999" points="315.5,-19 257.5,-19 257.5,0 315.5,0 315.5,-19"/>
<text text-anchor="middle" x="286.5" y="-7" font-family="Helvetica,sans-Serif" font-size="10.00">memory</text>
</a>
</g>
</g>
<!-- Node2&#45;&gt;Node6 -->
<g id="edge6" class="edge">
<title>Node2&#45;&gt;Node6</title>
<path fill="none" stroke="#63b8ff" d="M356.46,-109.62C354.6,-96.7 349.8,-72.36 338.5,-55 330.8,-43.17 319.06,-32.74 308.68,-24.96"/>
<polygon fill="#63b8ff" stroke="#63b8ff" points="310.57,-22.01 300.4,-19.07 306.52,-27.72 310.57,-22.01"/>
</g>
<!-- Node7 -->
<g id="node7" class="node">
<title>Node7</title>
<g id="a_node7"><a xlink:title=" ">
<polygon fill="#e0e0e0" stroke="#999999" points="400,-19 353,-19 353,0 400,0 400,-19"/>
<text text-anchor="middle" x="376.5" y="-7" font-family="Helvetica,sans-Serif" font-size="10.00">vector</text>
</a>
</g>
</g>
<!-- Node2&#45;&gt;Node7 -->
<g id="edge7" class="edge">
<title>Node2&#45;&gt;Node7</title>
<path fill="none" stroke="#63b8ff" d="M360.89,-109.79C364.18,-100.92 369.03,-86.72 371.5,-74 374.37,-59.21 375.6,-42.17 376.13,-29.47"/>
<polygon fill="#63b8ff" stroke="#63b8ff" points="379.63,-29.31 376.43,-19.21 372.64,-29.1 379.63,-29.31"/>
</g>
<!-- Node8 -->
<g id="node8" class="node">
<title>Node8</title>
<g id="a_node8"><a xlink:title=" ">
<polygon fill="#e0e0e0" stroke="#999999" points="487.5,-74 423.5,-74 423.5,-55 487.5,-55 487.5,-74"/>
<text text-anchor="middle" x="455.5" y="-62" font-family="Helvetica,sans-Serif" font-size="10.00">algorithm</text>
</a>
</g>
</g>
<!-- Node2&#45;&gt;Node8 -->
<g id="edge8" class="edge">
<title>Node2&#45;&gt;Node8</title>
<path fill="none" stroke="#63b8ff" d="M373.25,-109.98C388.73,-101.61 412.59,-88.7 430.64,-78.95"/>
<polygon fill="#63b8ff" stroke="#63b8ff" points="432.34,-82.01 439.47,-74.17 429.01,-75.85 432.34,-82.01"/>
</g>
<!-- Node4 -->
<g id="node4" class="node">
<title>Node4</title>
<g id="a_node4"><a xlink:title=" ">
<polygon fill="#e0e0e0" stroke="#999999" points="217.5,-19 157.5,-19 157.5,0 217.5,0 217.5,-19"/>
<text text-anchor="middle" x="187.5" y="-7" font-family="Helvetica,sans-Serif" font-size="10.00">iostream</text>
</a>
</g>
</g>
<!-- Node3&#45;&gt;Node4 -->
<g id="edge3" class="edge">
<title>Node3&#45;&gt;Node4</title>
<path fill="none" stroke="#63b8ff" d="M187.5,-54.75C187.5,-47.8 187.5,-37.85 187.5,-29.13"/>
<polygon fill="#63b8ff" stroke="#63b8ff" points="191,-29.09 187.5,-19.09 184,-29.09 191,-29.09"/>
</g>
<!-- Node5 -->
<g id="node5" class="node">
<title>Node5</title>
<g id="a_node5"><a xlink:title=" ">
<polygon fill="#e0e0e0" stroke="#999999" points="122.5,-19 78.5,-19 78.5,0 122.5,0 122.5,-19"/>
<text text-anchor="middle" x="100.5" y="-7" font-family="Helvetica,sans-Serif" font-size="10.00">string</text>
</a>
</g>
</g>
<!-- Node3&#45;&gt;Node5 -->
<g id="edge4" class="edge">
<title>Node3&#45;&gt;Node5</title>
<path fill="none" stroke="#63b8ff" d="M173.52,-54.98C160.03,-46.77 139.37,-34.18 123.46,-24.49"/>
<polygon fill="#63b8ff" stroke="#63b8ff" points="125.09,-21.38 114.73,-19.17 121.45,-27.36 125.09,-21.38"/>
</g>
<!-- Node3&#45;&gt;Node6 -->
<g id="edge5" class="edge">
<title>Node3&#45;&gt;Node6</title>
<path fill="none" stroke="#63b8ff" d="M203.41,-54.98C219.05,-46.61 243.16,-33.7 261.38,-23.95"/>
<polygon fill="#63b8ff" stroke="#63b8ff" points="263.14,-26.98 270.3,-19.17 259.84,-20.8 263.14,-26.98"/>
</g>
<!-- Node9&#45;&gt;Node3 -->
<g id="edge10" class="edge">
<title>Node9&#45;&gt;Node3</title>
<path fill="none" stroke="#63b8ff" d="M227.57,-109.75C220.65,-102.11 210.43,-90.82 202.05,-81.56"/>
<polygon fill="#63b8ff" stroke="#63b8ff" points="204.59,-79.15 195.28,-74.09 199.4,-83.85 204.59,-79.15"/>
</g>
<!-- Node10 -->
<g id="node10" class="node">
<title>Node10</title>
<g id="a_node10"><a xlink:href="min__heap_8hpp.html" target="_top" xlink:title=" ">
<polygon fill="white" stroke="#666666" points="329.5,-74 243.5,-74 243.5,-55 329.5,-55 329.5,-74"/>
<text text-anchor="middle" x="286.5" y="-62" font-family="Helvetica,sans-Serif" font-size="10.00">min_heap.hpp</text>
</a>
</g>
</g>
<!-- Node9&#45;&gt;Node10 -->
<g id="edge11" class="edge">
<title>Node9&#45;&gt;Node10</title>
<path fill="none" stroke="#63b8ff" d="M243.92,-109.75C251.27,-102.11 262.13,-90.82 271.04,-81.56"/>
<polygon fill="#63b8ff" stroke="#63b8ff" points="273.82,-83.72 278.24,-74.09 268.78,-78.87 273.82,-83.72"/>
</g>
<!-- Node10&#45;&gt;Node4 -->
<g id="edge14" class="edge">
<title>Node10&#45;&gt;Node4</title>
<path fill="none" stroke="#63b8ff" d="M270.59,-54.98C254.95,-46.61 230.84,-33.7 212.62,-23.95"/>
<polygon fill="#63b8ff" stroke="#63b8ff" points="214.16,-20.8 203.7,-19.17 210.86,-26.98 214.16,-20.8"/>
</g>
<!-- Node10&#45;&gt;Node6 -->
<g id="edge13" class="edge">
<title>Node10&#45;&gt;Node6</title>
<path fill="none" stroke="#63b8ff" d="M286.5,-54.75C286.5,-47.8 286.5,-37.85 286.5,-29.13"/>
<polygon fill="#63b8ff" stroke="#63b8ff" points="290,-29.09 286.5,-19.09 283,-29.09 290,-29.09"/>
</g>
<!-- Node10&#45;&gt;Node7 -->
<g id="edge12" class="edge">
<title>Node10&#45;&gt;Node7</title>
<path fill="none" stroke="#63b8ff" d="M300.96,-54.98C314.92,-46.77 336.29,-34.18 352.75,-24.49"/>
<polygon fill="#63b8ff" stroke="#63b8ff" points="354.94,-27.26 361.78,-19.17 351.38,-21.23 354.94,-27.26"/>
</g>
<!-- Node11&#45;&gt;Node3 -->
<g id="edge19" class="edge">
<title>Node11&#45;&gt;Node3</title>
<path fill="none" stroke="#63b8ff" d="M132.1,-109.98C141.96,-102.07 156.85,-90.11 168.72,-80.58"/>
<polygon fill="#63b8ff" stroke="#63b8ff" points="171.1,-83.16 176.7,-74.17 166.71,-77.7 171.1,-83.16"/>
</g>
<!-- Node11&#45;&gt;Node4 -->
<g id="edge16" class="edge">
<title>Node11&#45;&gt;Node4</title>
<path fill="none" stroke="#63b8ff" d="M122.85,-109.71C125.12,-96.9 130.56,-72.7 141.5,-55 148.39,-43.86 158.69,-33.54 167.8,-25.65"/>
<polygon fill="#63b8ff" stroke="#63b8ff" points="170.21,-28.2 175.7,-19.13 165.75,-22.8 170.21,-28.2"/>
</g>
<!-- Node11&#45;&gt;Node5 -->
<g id="edge18" class="edge">
<title>Node11&#45;&gt;Node5</title>
<path fill="none" stroke="#63b8ff" d="M118.2,-109.77C114.97,-100.89 110.17,-86.68 107.5,-74 104.39,-59.21 102.61,-42.17 101.62,-29.47"/>
<polygon fill="#63b8ff" stroke="#63b8ff" points="105.09,-28.95 100.92,-19.21 98.11,-29.43 105.09,-28.95"/>
</g>
<!-- Node12 -->
<g id="node12" class="node">
<title>Node12</title>
<g id="a_node12"><a xlink:title=" ">
<polygon fill="#e0e0e0" stroke="#999999" points="55,-74 0,-74 0,-55 55,-55 55,-74"/>
<text text-anchor="middle" x="27.5" y="-62" font-family="Helvetica,sans-Serif" font-size="10.00">fstream</text>
</a>
</g>
</g>
<!-- Node11&#45;&gt;Node12 -->
<g id="edge17" class="edge">
<title>Node11&#45;&gt;Node12</title>
<path fill="none" stroke="#63b8ff" d="M106.4,-109.98C91.68,-101.69 69.08,-88.94 51.83,-79.22"/>
<polygon fill="#63b8ff" stroke="#63b8ff" points="53.31,-76.03 42.88,-74.17 49.87,-82.13 53.31,-76.03"/>
</g>
</g>
</svg>
