<?xml version="1.0" encoding="UTF-8" standalone="no"?>
<!DOCTYPE svg PUBLIC "-//W3C//DTD SVG 1.1//EN"
 "http://www.w3.org/Graphics/SVG/1.1/DTD/svg11.dtd">
<!-- Generated by graphviz version 2.43.0 (0)
 -->
<!-- Title: src/simulator.cpp Pages: 1 -->
<svg width="436pt" height="247pt"
 viewBox="0.00 0.00 436.29 247.00" xmlns="http://www.w3.org/2000/svg" xmlns:xlink="http://www.w3.org/1999/xlink">
<g id="graph0" class="graph" transform="scale(1 1) rotate(0) translate(4 243)">
<title>src/simulator.cpp</title>
<!-- Node1 -->
<g id="node1" class="node">
<title>Node1</title>
<g id="a_node1"><a xlink:title=" ">
<polygon fill="#999999" stroke="#666666" points="323.73,-239 223.73,-239 223.73,-220 323.73,-220 323.73,-239"/>
<text text-anchor="middle" x="273.73" y="-227" font-family="Helvetica,sans-Serif" font-size="10.00">src/simulator.cpp</text>
</a>
</g>
</g>
<!-- Node2 -->
<g id="node2" class="node">
<title>Node2</title>
<g id="a_node2"><a xlink:href="simulator_8hpp.html" target="_top" xlink:title=" ">
<polygon fill="white" stroke="#666666" points="315.23,-184 232.23,-184 232.23,-165 315.23,-165 315.23,-184"/>
<text text-anchor="middle" x="273.73" y="-172" font-family="Helvetica,sans-Serif" font-size="10.00">simulator.hpp</text>
</a>
</g>
</g>
<!-- Node1&#45;&gt;Node2 -->
<g id="edge1" class="edge">
<title>Node1&#45;&gt;Node2</title>
<path fill="none" stroke="#63b8ff" d="M273.73,-219.75C273.73,-212.8 273.73,-202.85 273.73,-194.13"/>
<polygon fill="#63b8ff" stroke="#63b8ff" points="277.23,-194.09 273.73,-184.09 270.23,-194.09 277.23,-194.09"/>
</g>
<!-- Node11 -->
<g id="node11" class="node">
<title>Node11</title>
<g id="a_node11"><a xlink:href="scheduler_8hpp.html" target="_top" xlink:title=" ">
<polygon fill="white" stroke="#666666" points="151.73,-184 67.73,-184 67.73,-165 151.73,-165 151.73,-184"/>
<text text-anchor="middle" x="109.73" y="-172" font-family="Helvetica,sans-Serif" font-size="10.00">scheduler.hpp</text>
</a>
</g>
</g>
<!-- Node1&#45;&gt;Node11 -->
<g id="edge14" class="edge">
<title>Node1&#45;&gt;Node11</title>
<path fill="none" stroke="#63b8ff" d="M247.38,-219.98C219.96,-211.13 176.84,-197.19 146.17,-187.28"/>
<polygon fill="#63b8ff" stroke="#63b8ff" points="146.88,-183.83 136.28,-184.08 144.72,-190.49 146.88,-183.83"/>
</g>
<!-- Node13 -->
<g id="node13" class="node">
<title>Node13</title>
<g id="a_node13"><a xlink:href="printer_8hpp.html" target="_top" xlink:title=" ">
<polygon fill="white" stroke="#666666" points="393.23,-129 324.23,-129 324.23,-110 393.23,-110 393.23,-129"/>
<text text-anchor="middle" x="358.73" y="-117" font-family="Helvetica,sans-Serif" font-size="10.00">printer.hpp</text>
</a>
</g>
</g>
<!-- Node1&#45;&gt;Node13 -->
<g id="edge21" class="edge">
<title>Node1&#45;&gt;Node13</title>
<path fill="none" stroke="#63b8ff" d="M285.77,-220C296.87,-211.73 313.31,-198.34 324.73,-184 335.79,-170.11 345.05,-152.08 351.09,-138.79"/>
<polygon fill="#63b8ff" stroke="#63b8ff" points="354.44,-139.88 355.23,-129.31 348.02,-137.08 354.44,-139.88"/>
</g>
<!-- Node3 -->
<g id="node3" class="node">
<title>Node3</title>
<g id="a_node3"><a xlink:href="process_8hpp.html" target="_top" xlink:title=" ">
<polygon fill="white" stroke="#666666" points="151.23,-74 76.23,-74 76.23,-55 151.23,-55 151.23,-74"/>
<text text-anchor="middle" x="113.73" y="-62" font-family="Helvetica,sans-Serif" font-size="10.00">process.hpp</text>
</a>
</g>
</g>
<!-- Node2&#45;&gt;Node3 -->
<g id="edge2" class="edge">
<title>Node2&#45;&gt;Node3</title>
<path fill="none" stroke="#63b8ff" d="M231.97,-171.57C199.37,-167.81 155.27,-157.35 128.73,-129 117.49,-116.99 114.17,-98.18 113.41,-84.15"/>
<polygon fill="#63b8ff" stroke="#63b8ff" points="116.91,-84.07 113.24,-74.13 109.91,-84.19 116.91,-84.07"/>
</g>
<!-- Node6 -->
<g id="node6" class="node">
<title>Node6</title>
<g id="a_node6"><a xlink:title=" ">
<polygon fill="#e0e0e0" stroke="#999999" points="302.73,-19 244.73,-19 244.73,0 302.73,0 302.73,-19"/>
<text text-anchor="middle" x="273.73" y="-7" font-family="Helvetica,sans-Serif" font-size="10.00">memory</text>
</a>
</g>
</g>
<!-- Node2&#45;&gt;Node6 -->
<g id="edge11" class="edge">
<title>Node2&#45;&gt;Node6</title>
<path fill="none" stroke="#63b8ff" d="M315.31,-173.29C349.2,-170.65 395.17,-160.87 418.73,-129 428,-116.46 435.68,-81.51 414.73,-55 390.6,-24.47 345.6,-14.49 312.92,-11.43"/>
<polygon fill="#63b8ff" stroke="#63b8ff" points="313.01,-7.93 302.78,-10.67 312.49,-14.91 313.01,-7.93"/>
</g>
<!-- Node7 -->
<g id="node7" class="node">
<title>Node7</title>
<g id="a_node7"><a xlink:href="logger_8hpp.html" target="_top" xlink:title=" ">
<polygon fill="white" stroke="#666666" points="81.73,-129 13.73,-129 13.73,-110 81.73,-110 81.73,-129"/>
<text text-anchor="middle" x="47.73" y="-117" font-family="Helvetica,sans-Serif" font-size="10.00">logger.hpp</text>
</a>
</g>
</g>
<!-- Node2&#45;&gt;Node7 -->
<g id="edge6" class="edge">
<title>Node2&#45;&gt;Node7</title>
<path fill="none" stroke="#63b8ff" d="M237.42,-164.98C197.68,-155.67 133.99,-140.73 91.51,-130.77"/>
<polygon fill="#63b8ff" stroke="#63b8ff" points="92.27,-127.35 81.73,-128.47 90.67,-134.16 92.27,-127.35"/>
</g>
<!-- Node9 -->
<g id="node9" class="node">
<title>Node9</title>
<g id="a_node9"><a xlink:title=" ">
<polygon fill="#e0e0e0" stroke="#999999" points="405.23,-74 358.23,-74 358.23,-55 405.23,-55 405.23,-74"/>
<text text-anchor="middle" x="381.73" y="-62" font-family="Helvetica,sans-Serif" font-size="10.00">vector</text>
</a>
</g>
</g>
<!-- Node2&#45;&gt;Node9 -->
<g id="edge12" class="edge">
<title>Node2&#45;&gt;Node9</title>
<path fill="none" stroke="#63b8ff" d="M315.45,-171.27C345.12,-167.24 383.06,-156.59 402.73,-129 412.7,-115.02 404.14,-96 395.14,-82.43"/>
<polygon fill="#63b8ff" stroke="#63b8ff" points="397.75,-80.08 389.05,-74.04 392.09,-84.19 397.75,-80.08"/>
</g>
<!-- Node10 -->
<g id="node10" class="node">
<title>Node10</title>
<g id="a_node10"><a xlink:title=" ">
<polygon fill="#e0e0e0" stroke="#999999" points="305.73,-129 241.73,-129 241.73,-110 305.73,-110 305.73,-129"/>
<text text-anchor="middle" x="273.73" y="-117" font-family="Helvetica,sans-Serif" font-size="10.00">algorithm</text>
</a>
</g>
</g>
<!-- Node2&#45;&gt;Node10 -->
<g id="edge13" class="edge">
<title>Node2&#45;&gt;Node10</title>
<path fill="none" stroke="#63b8ff" d="M273.73,-164.75C273.73,-157.8 273.73,-147.85 273.73,-139.13"/>
<polygon fill="#63b8ff" stroke="#63b8ff" points="277.23,-139.09 273.73,-129.09 270.23,-139.09 277.23,-139.09"/>
</g>
<!-- Node4 -->
<g id="node4" class="node">
<title>Node4</title>
<g id="a_node4"><a xlink:title=" ">
<polygon fill="#e0e0e0" stroke="#999999" points="143.73,-19 83.73,-19 83.73,0 143.73,0 143.73,-19"/>
<text text-anchor="middle" x="113.73" y="-7" font-family="Helvetica,sans-Serif" font-size="10.00">iostream</text>
</a>
</g>
</g>
<!-- Node3&#45;&gt;Node4 -->
<g id="edge3" class="edge">
<title>Node3&#45;&gt;Node4</title>
<path fill="none" stroke="#63b8ff" d="M113.73,-54.75C113.73,-47.8 113.73,-37.85 113.73,-29.13"/>
<polygon fill="#63b8ff" stroke="#63b8ff" points="117.23,-29.09 113.73,-19.09 110.23,-29.09 117.23,-29.09"/>
</g>
<!-- Node5 -->
<g id="node5" class="node">
<title>Node5</title>
<g id="a_node5"><a xlink:title=" ">
<polygon fill="#e0e0e0" stroke="#999999" points="48.73,-19 4.73,-19 4.73,0 48.73,0 48.73,-19"/>
<text text-anchor="middle" x="26.73" y="-7" font-family="Helvetica,sans-Serif" font-size="10.00">string</text>
</a>
</g>
</g>
<!-- Node3&#45;&gt;Node5 -->
<g id="edge4" class="edge">
<title>Node3&#45;&gt;Node5</title>
<path fill="none" stroke="#63b8ff" d="M99.75,-54.98C86.26,-46.77 65.59,-34.18 49.69,-24.49"/>
<polygon fill="#63b8ff" stroke="#63b8ff" points="51.32,-21.38 40.96,-19.17 47.68,-27.36 51.32,-21.38"/>
</g>
<!-- Node3&#45;&gt;Node6 -->
<g id="edge5" class="edge">
<title>Node3&#45;&gt;Node6</title>
<path fill="none" stroke="#63b8ff" d="M139.44,-54.98C166.18,-46.13 208.26,-32.19 238.18,-22.28"/>
<polygon fill="#63b8ff" stroke="#63b8ff" points="239.43,-25.55 247.82,-19.08 237.23,-18.9 239.43,-25.55"/>
</g>
<!-- Node7&#45;&gt;Node3 -->
<g id="edge10" class="edge">
<title>Node7&#45;&gt;Node3</title>
<path fill="none" stroke="#63b8ff" d="M58.33,-109.98C68.18,-102.07 83.08,-90.11 94.94,-80.58"/>
<polygon fill="#63b8ff" stroke="#63b8ff" points="97.33,-83.16 102.93,-74.17 92.94,-77.7 97.33,-83.16"/>
</g>
<!-- Node7&#45;&gt;Node4 -->
<g id="edge7" class="edge">
<title>Node7&#45;&gt;Node4</title>
<path fill="none" stroke="#63b8ff" d="M48.89,-109.7C50.89,-96.87 55.87,-72.64 66.73,-55 73.67,-43.72 84.19,-33.39 93.52,-25.53"/>
<polygon fill="#63b8ff" stroke="#63b8ff" points="95.99,-28.03 101.61,-19.05 91.62,-22.56 95.99,-28.03"/>
</g>
<!-- Node7&#45;&gt;Node5 -->
<g id="edge9" class="edge">
<title>Node7&#45;&gt;Node5</title>
<path fill="none" stroke="#63b8ff" d="M44.42,-109.77C41.2,-100.89 36.4,-86.68 33.73,-74 30.62,-59.21 28.84,-42.17 27.85,-29.47"/>
<polygon fill="#63b8ff" stroke="#63b8ff" points="31.32,-28.95 27.15,-19.21 24.34,-29.43 31.32,-28.95"/>
</g>
<!-- Node8 -->
<g id="node8" class="node">
<title>Node8</title>
<g id="a_node8"><a xlink:title=" ">
<polygon fill="#e0e0e0" stroke="#999999" points="301.23,-74 246.23,-74 246.23,-55 301.23,-55 301.23,-74"/>
<text text-anchor="middle" x="273.73" y="-62" font-family="Helvetica,sans-Serif" font-size="10.00">fstream</text>
</a>
</g>
</g>
<!-- Node7&#45;&gt;Node8 -->
<g id="edge8" class="edge">
<title>Node7&#45;&gt;Node8</title>
<path fill="none" stroke="#63b8ff" d="M82.05,-110.45C123.66,-100.69 193.53,-84.31 236.44,-74.25"/>
<polygon fill="#63b8ff" stroke="#63b8ff" points="237.27,-77.64 246.21,-71.95 235.67,-70.83 237.27,-77.64"/>
</g>
<!-- Node11&#45;&gt;Node3 -->
<g id="edge15" class="edge">
<title>Node11&#45;&gt;Node3</title>
<path fill="none" stroke="#63b8ff" d="M67.44,-165.08C30.63,-155.69 -14.1,-138.03 4.73,-110 18.53,-89.46 43.66,-78.39 66.32,-72.43"/>
<polygon fill="#63b8ff" stroke="#63b8ff" points="67.24,-75.81 76.17,-70.11 65.63,-69 67.24,-75.81"/>
</g>
<!-- Node11&#45;&gt;Node7 -->
<g id="edge20" class="edge">
<title>Node11&#45;&gt;Node7</title>
<path fill="none" stroke="#63b8ff" d="M99.77,-164.98C90.6,-157.15 76.79,-145.34 65.7,-135.86"/>
<polygon fill="#63b8ff" stroke="#63b8ff" points="67.75,-133.01 57.87,-129.17 63.2,-138.33 67.75,-133.01"/>
</g>
<!-- Node12 -->
<g id="node12" class="node">
<title>Node12</title>
<g id="a_node12"><a xlink:href="min__heap_8hpp.html" target="_top" xlink:title=" ">
<polygon fill="white" stroke="#666666" points="223.73,-129 137.73,-129 137.73,-110 223.73,-110 223.73,-129"/>
<text text-anchor="middle" x="180.73" y="-117" font-family="Helvetica,sans-Serif" font-size="10.00">min_heap.hpp</text>
</a>
</g>
</g>
<!-- Node11&#45;&gt;Node12 -->
<g id="edge16" class="edge">
<title>Node11&#45;&gt;Node12</title>
<path fill="none" stroke="#63b8ff" d="M121.14,-164.98C131.84,-157 148.07,-144.88 160.89,-135.31"/>
<polygon fill="#63b8ff" stroke="#63b8ff" points="163.19,-137.96 169.11,-129.17 159.01,-132.35 163.19,-137.96"/>
</g>
<!-- Node12&#45;&gt;Node4 -->
<g id="edge19" class="edge">
<title>Node12&#45;&gt;Node4</title>
<path fill="none" stroke="#63b8ff" d="M179.21,-109.71C176.71,-96.9 170.84,-72.7 159.73,-55 152.76,-43.9 142.45,-33.59 133.36,-25.69"/>
<polygon fill="#63b8ff" stroke="#63b8ff" points="135.42,-22.85 125.48,-19.16 130.95,-28.24 135.42,-22.85"/>
</g>
<!-- Node12&#45;&gt;Node6 -->
<g id="edge18" class="edge">
<title>Node12&#45;&gt;Node6</title>
<path fill="none" stroke="#63b8ff" d="M188.34,-109.66C203.95,-91.54 239.79,-49.91 259.72,-26.77"/>
<polygon fill="#63b8ff" stroke="#63b8ff" points="262.4,-29.02 266.27,-19.16 257.1,-24.45 262.4,-29.02"/>
</g>
<!-- Node12&#45;&gt;Node9 -->
<g id="edge17" class="edge">
<title>Node12&#45;&gt;Node9</title>
<path fill="none" stroke="#63b8ff" d="M213.02,-109.98C250.05,-100.22 310.45,-84.29 348.05,-74.38"/>
<polygon fill="#63b8ff" stroke="#63b8ff" points="349.23,-77.69 358.01,-71.75 347.45,-70.92 349.23,-77.69"/>
</g>
<!-- Node13&#45;&gt;Node3 -->
<g id="edge25" class="edge">
<title>Node13&#45;&gt;Node3</title>
<path fill="none" stroke="#63b8ff" d="M324.15,-111.02C281.54,-101.8 208.94,-86.1 161.15,-75.76"/>
<polygon fill="#63b8ff" stroke="#63b8ff" points="161.86,-72.33 151.35,-73.64 160.38,-79.17 161.86,-72.33"/>
</g>
<!-- Node13&#45;&gt;Node6 -->
<g id="edge24" class="edge">
<title>Node13&#45;&gt;Node6</title>
<path fill="none" stroke="#63b8ff" d="M352.33,-109.78C343.25,-97.44 326.01,-74.27 310.73,-55 303.32,-45.65 294.82,-35.4 287.84,-27.1"/>
<polygon fill="#63b8ff" stroke="#63b8ff" points="290.35,-24.65 281.22,-19.27 285,-29.16 290.35,-24.65"/>
</g>
<!-- Node13&#45;&gt;Node8 -->
<g id="edge22" class="edge">
<title>Node13&#45;&gt;Node8</title>
<path fill="none" stroke="#63b8ff" d="M345.07,-109.98C331.89,-101.77 311.7,-89.18 296.16,-79.49"/>
<polygon fill="#63b8ff" stroke="#63b8ff" points="297.97,-76.49 287.63,-74.17 294.27,-82.43 297.97,-76.49"/>
</g>
<!-- Node13&#45;&gt;Node9 -->
<g id="edge23" class="edge">
<title>Node13&#45;&gt;Node9</title>
<path fill="none" stroke="#63b8ff" d="M362.53,-109.75C365.64,-102.57 370.15,-92.18 374.02,-83.27"/>
<polygon fill="#63b8ff" stroke="#63b8ff" points="377.23,-84.66 378,-74.09 370.81,-81.87 377.23,-84.66"/>
</g>
</g>
</svg>
