<?xml version="1.0" encoding="UTF-8" standalone="no"?>
<!DOCTYPE svg PUBLIC "-//W3C//DTD SVG 1.1//EN"
 "http://www.w3.org/Graphics/SVG/1.1/DTD/svg11.dtd">
<!-- Generated by graphviz version 2.43.0 (0)
 -->
<!-- Title: src/simulator.hpp Pages: 1 -->
<svg width="396pt" height="192pt"
 viewBox="0.00 0.00 396.00 192.00" xmlns="http://www.w3.org/2000/svg" xmlns:xlink="http://www.w3.org/1999/xlink">
<g id="graph0" class="graph" transform="scale(1 1) rotate(0) translate(4 188)">
<title>src/simulator.hpp</title>
<!-- Node1 -->
<g id="node1" class="node">
<title>Node1</title>
<g id="a_node1"><a xlink:title=" ">
<polygon fill="#999999" stroke="#666666" points="280.5,-184 179.5,-184 179.5,-165 280.5,-165 280.5,-184"/>
<text text-anchor="middle" x="230" y="-172" font-family="Helvetica,sans-Serif" font-size="10.00">src/simulator.hpp</text>
</a>
</g>
</g>
<!-- Node2 -->
<g id="node2" class="node">
<title>Node2</title>
<g id="a_node2"><a xlink:href="process_8hpp.html" target="_top" xlink:title=" ">
<polygon fill="white" stroke="#666666" points="201.5,-74 126.5,-74 126.5,-55 201.5,-55 201.5,-74"/>
<text text-anchor="middle" x="164" y="-62" font-family="Helvetica,sans-Serif" font-size="10.00">process.hpp</text>
</a>
</g>
</g>
<!-- Node1&#45;&gt;Node2 -->
<g id="edge1" class="edge">
<title>Node1&#45;&gt;Node2</title>
<path fill="none" stroke="#63b8ff" d="M224.6,-164.66C213.67,-146.77 188.75,-106 174.51,-82.69"/>
<polygon fill="#63b8ff" stroke="#63b8ff" points="177.49,-80.87 169.29,-74.16 171.52,-84.52 177.49,-80.87"/>
</g>
<!-- Node5 -->
<g id="node5" class="node">
<title>Node5</title>
<g id="a_node5"><a xlink:title=" ">
<polygon fill="#e0e0e0" stroke="#999999" points="226,-19 168,-19 168,0 226,0 226,-19"/>
<text text-anchor="middle" x="197" y="-7" font-family="Helvetica,sans-Serif" font-size="10.00">memory</text>
</a>
</g>
</g>
<!-- Node1&#45;&gt;Node5 -->
<g id="edge10" class="edge">
<title>Node1&#45;&gt;Node5</title>
<path fill="none" stroke="#63b8ff" d="M228.89,-164.81C226.29,-145.12 219.34,-95.67 210,-55 208.02,-46.37 205.34,-36.94 202.93,-28.99"/>
<polygon fill="#63b8ff" stroke="#63b8ff" points="206.22,-27.79 199.9,-19.29 199.54,-29.87 206.22,-27.79"/>
</g>
<!-- Node6 -->
<g id="node6" class="node">
<title>Node6</title>
<g id="a_node6"><a xlink:href="logger_8hpp.html" target="_top" xlink:title=" ">
<polygon fill="white" stroke="#666666" points="115,-129 47,-129 47,-110 115,-110 115,-129"/>
<text text-anchor="middle" x="81" y="-117" font-family="Helvetica,sans-Serif" font-size="10.00">logger.hpp</text>
</a>
</g>
</g>
<!-- Node1&#45;&gt;Node6 -->
<g id="edge5" class="edge">
<title>Node1&#45;&gt;Node6</title>
<path fill="none" stroke="#63b8ff" d="M206.06,-164.98C181.44,-156.23 142.88,-142.51 115.08,-132.62"/>
<polygon fill="#63b8ff" stroke="#63b8ff" points="115.97,-129.22 105.38,-129.17 113.62,-135.82 115.97,-129.22"/>
</g>
<!-- Node8 -->
<g id="node8" class="node">
<title>Node8</title>
<g id="a_node8"><a xlink:title=" ">
<polygon fill="#e0e0e0" stroke="#999999" points="305.5,-129 258.5,-129 258.5,-110 305.5,-110 305.5,-129"/>
<text text-anchor="middle" x="282" y="-117" font-family="Helvetica,sans-Serif" font-size="10.00">vector</text>
</a>
</g>
</g>
<!-- Node1&#45;&gt;Node8 -->
<g id="edge11" class="edge">
<title>Node1&#45;&gt;Node8</title>
<path fill="none" stroke="#63b8ff" d="M238.59,-164.75C246.16,-157.03 257.38,-145.6 266.51,-136.28"/>
<polygon fill="#63b8ff" stroke="#63b8ff" points="269.07,-138.68 273.57,-129.09 264.07,-133.78 269.07,-138.68"/>
</g>
<!-- Node9 -->
<g id="node9" class="node">
<title>Node9</title>
<g id="a_node9"><a xlink:title=" ">
<polygon fill="#e0e0e0" stroke="#999999" points="388,-129 324,-129 324,-110 388,-110 388,-129"/>
<text text-anchor="middle" x="356" y="-117" font-family="Helvetica,sans-Serif" font-size="10.00">algorithm</text>
</a>
</g>
</g>
<!-- Node1&#45;&gt;Node9 -->
<g id="edge12" class="edge">
<title>Node1&#45;&gt;Node9</title>
<path fill="none" stroke="#63b8ff" d="M250.24,-164.98C270.7,-156.38 302.53,-142.99 325.93,-133.15"/>
<polygon fill="#63b8ff" stroke="#63b8ff" points="327.53,-136.27 335.39,-129.17 324.81,-129.82 327.53,-136.27"/>
</g>
<!-- Node3 -->
<g id="node3" class="node">
<title>Node3</title>
<g id="a_node3"><a xlink:title=" ">
<polygon fill="#e0e0e0" stroke="#999999" points="60,-19 0,-19 0,0 60,0 60,-19"/>
<text text-anchor="middle" x="30" y="-7" font-family="Helvetica,sans-Serif" font-size="10.00">iostream</text>
</a>
</g>
</g>
<!-- Node2&#45;&gt;Node3 -->
<g id="edge2" class="edge">
<title>Node2&#45;&gt;Node3</title>
<path fill="none" stroke="#63b8ff" d="M142.47,-54.98C120.53,-46.3 86.26,-32.75 61.31,-22.88"/>
<polygon fill="#63b8ff" stroke="#63b8ff" points="62.51,-19.59 51.92,-19.17 59.93,-26.1 62.51,-19.59"/>
</g>
<!-- Node4 -->
<g id="node4" class="node">
<title>Node4</title>
<g id="a_node4"><a xlink:title=" ">
<polygon fill="#e0e0e0" stroke="#999999" points="141,-19 97,-19 97,0 141,0 141,-19"/>
<text text-anchor="middle" x="119" y="-7" font-family="Helvetica,sans-Serif" font-size="10.00">string</text>
</a>
</g>
</g>
<!-- Node2&#45;&gt;Node4 -->
<g id="edge3" class="edge">
<title>Node2&#45;&gt;Node4</title>
<path fill="none" stroke="#63b8ff" d="M156.57,-54.75C150.15,-47.18 140.69,-36.05 132.88,-26.84"/>
<polygon fill="#63b8ff" stroke="#63b8ff" points="135.43,-24.45 126.29,-19.09 130.1,-28.98 135.43,-24.45"/>
</g>
<!-- Node2&#45;&gt;Node5 -->
<g id="edge4" class="edge">
<title>Node2&#45;&gt;Node5</title>
<path fill="none" stroke="#63b8ff" d="M169.45,-54.75C174.01,-47.42 180.67,-36.73 186.29,-27.7"/>
<polygon fill="#63b8ff" stroke="#63b8ff" points="189.34,-29.43 191.65,-19.09 183.4,-25.73 189.34,-29.43"/>
</g>
<!-- Node6&#45;&gt;Node2 -->
<g id="edge9" class="edge">
<title>Node6&#45;&gt;Node2</title>
<path fill="none" stroke="#63b8ff" d="M94.34,-109.98C107.09,-101.84 126.55,-89.41 141.67,-79.76"/>
<polygon fill="#63b8ff" stroke="#63b8ff" points="143.88,-82.5 150.42,-74.17 140.11,-76.6 143.88,-82.5"/>
</g>
<!-- Node6&#45;&gt;Node3 -->
<g id="edge6" class="edge">
<title>Node6&#45;&gt;Node3</title>
<path fill="none" stroke="#63b8ff" d="M68.63,-109.82C58.28,-101.8 44.11,-88.91 37,-74 30.36,-60.06 28.87,-42.5 28.89,-29.38"/>
<polygon fill="#63b8ff" stroke="#63b8ff" points="32.4,-29.31 29.21,-19.2 25.4,-29.09 32.4,-29.31"/>
</g>
<!-- Node6&#45;&gt;Node4 -->
<g id="edge8" class="edge">
<title>Node6&#45;&gt;Node4</title>
<path fill="none" stroke="#63b8ff" d="M69.66,-109.9C55.04,-97.73 32.76,-74.74 44,-55 53.31,-38.66 71.24,-27.7 87.24,-20.74"/>
<polygon fill="#63b8ff" stroke="#63b8ff" points="88.85,-23.87 96.85,-16.92 86.27,-17.36 88.85,-23.87"/>
</g>
<!-- Node7 -->
<g id="node7" class="node">
<title>Node7</title>
<g id="a_node7"><a xlink:title=" ">
<polygon fill="#e0e0e0" stroke="#999999" points="108.5,-74 53.5,-74 53.5,-55 108.5,-55 108.5,-74"/>
<text text-anchor="middle" x="81" y="-62" font-family="Helvetica,sans-Serif" font-size="10.00">fstream</text>
</a>
</g>
</g>
<!-- Node6&#45;&gt;Node7 -->
<g id="edge7" class="edge">
<title>Node6&#45;&gt;Node7</title>
<path fill="none" stroke="#63b8ff" d="M81,-109.75C81,-102.8 81,-92.85 81,-84.13"/>
<polygon fill="#63b8ff" stroke="#63b8ff" points="84.5,-84.09 81,-74.09 77.5,-84.09 84.5,-84.09"/>
</g>
</g>
</svg>
