<?xml version="1.0" encoding="UTF-8" standalone="no"?>
<!DOCTYPE svg PUBLIC "-//W3C//DTD SVG 1.1//EN"
 "http://www.w3.org/Graphics/SVG/1.1/DTD/svg11.dtd">
<!-- Generated by graphviz version 2.43.0 (0)
 -->
<!-- Title: src/simulator.cpp Pages: 1 -->
<svg width="396pt" height="302pt"
 viewBox="0.00 0.00 395.78 302.00" xmlns="http://www.w3.org/2000/svg" xmlns:xlink="http://www.w3.org/1999/xlink">
<g id="graph0" class="graph" transform="scale(1 1) rotate(0) translate(4 298)">
<title>src/simulator.cpp</title>
<!-- Node1 -->
<g id="Node000001" class="node">
<title>Node1</title>
<g id="a_Node000001"><a xlink:title=" ">
<polygon fill="#999999" stroke="#666666" points="322.5,-294 222.5,-294 222.5,-275 322.5,-275 322.5,-294"/>
<text text-anchor="middle" x="272.5" y="-282" font-family="Helvetica,sans-Serif" font-size="10.00">src/simulator.cpp</text>
</a>
</g>
</g>
<!-- Node2 -->
<g id="Node000002" class="node">
<title>Node2</title>
<g id="a_Node000002"><a xlink:href="simulator_8hpp.html" target="_top" xlink:title=" ">
<polygon fill="white" stroke="#666666" points="279,-239 196,-239 196,-220 279,-220 279,-239"/>
<text text-anchor="middle" x="237.5" y="-227" font-family="Helvetica,sans-Serif" font-size="10.00">simulator.hpp</text>
</a>
</g>
</g>
<!-- Node1&#45;&gt;Node2 -->
<g id="edge1_Node000001_Node000002" class="edge">
<title>Node1&#45;&gt;Node2</title>
<g id="a_edge1_Node000001_Node000002"><a xlink:title=" ">
<path fill="none" stroke="#63b8ff" d="M266.72,-274.75C261.88,-267.42 254.82,-256.73 248.86,-247.7"/>
<polygon fill="#63b8ff" stroke="#63b8ff" points="251.6,-245.5 243.17,-239.09 245.76,-249.36 251.6,-245.5"/>
</a>
</g>
</g>
<!-- Node14 -->
<g id="Node000014" class="node">
<title>Node14</title>
<g id="a_Node000014"><a xlink:href="printer_8hpp.html" target="_top" xlink:title=" ">
<polygon fill="white" stroke="#666666" points="366,-129 297,-129 297,-110 366,-110 366,-129"/>
<text text-anchor="middle" x="331.5" y="-117" font-family="Helvetica,sans-Serif" font-size="10.00">printer.hpp</text>
</a>
</g>
</g>
<!-- Node1&#45;&gt;Node14 -->
<g id="edge17_Node000001_Node000014" class="edge">
<title>Node1&#45;&gt;Node14</title>
<g id="a_edge17_Node000001_Node000014"><a xlink:title=" ">
<path fill="none" stroke="#63b8ff" d="M275.67,-274.74C284.96,-249.09 312.21,-173.78 324.88,-138.78"/>
<polygon fill="#63b8ff" stroke="#63b8ff" points="328.2,-139.9 328.31,-129.31 321.62,-137.52 328.2,-139.9"/>
</a>
</g>
</g>
<!-- Node3 -->
<g id="Node000003" class="node">
<title>Node3</title>
<g id="a_Node000003"><a xlink:href="scheduler_8hpp.html" target="_top" xlink:title=" ">
<polygon fill="white" stroke="#666666" points="185.5,-184 101.5,-184 101.5,-165 185.5,-165 185.5,-184"/>
<text text-anchor="middle" x="143.5" y="-172" font-family="Helvetica,sans-Serif" font-size="10.00">scheduler.hpp</text>
</a>
</g>
</g>
<!-- Node2&#45;&gt;Node3 -->
<g id="edge2_Node000002_Node000003" class="edge">
<title>Node2&#45;&gt;Node3</title>
<g id="a_edge2_Node000002_Node000003"><a xlink:title=" ">
<path fill="none" stroke="#63b8ff" d="M222.4,-219.98C207.68,-211.69 185.08,-198.94 167.83,-189.22"/>
<polygon fill="#63b8ff" stroke="#63b8ff" points="169.31,-186.03 158.88,-184.17 165.87,-192.13 169.31,-186.03"/>
</a>
</g>
</g>
<!-- Node13 -->
<g id="Node000013" class="node">
<title>Node13</title>
<g id="a_Node000013"><a xlink:title=" ">
<polygon fill="#e0e0e0" stroke="#999999" points="269.5,-184 205.5,-184 205.5,-165 269.5,-165 269.5,-184"/>
<text text-anchor="middle" x="237.5" y="-172" font-family="Helvetica,sans-Serif" font-size="10.00">algorithm</text>
</a>
</g>
</g>
<!-- Node2&#45;&gt;Node13 -->
<g id="edge16_Node000002_Node000013" class="edge">
<title>Node2&#45;&gt;Node13</title>
<g id="a_edge16_Node000002_Node000013"><a xlink:title=" ">
<path fill="none" stroke="#63b8ff" d="M237.5,-219.75C237.5,-212.8 237.5,-202.85 237.5,-194.13"/>
<polygon fill="#63b8ff" stroke="#63b8ff" points="241,-194.09 237.5,-184.09 234,-194.09 241,-194.09"/>
</a>
</g>
</g>
<!-- Node4 -->
<g id="Node000004" class="node">
<title>Node4</title>
<g id="a_Node000004"><a xlink:href="min__heap_8hpp.html" target="_top" xlink:title=" ">
<polygon fill="white" stroke="#666666" points="181.5,-129 95.5,-129 95.5,-110 181.5,-110 181.5,-129"/>
<text text-anchor="middle" x="138.5" y="-117" font-family="Helvetica,sans-Serif" font-size="10.00">min_heap.hpp</text>
</a>
</g>
</g>
<!-- Node3&#45;&gt;Node4 -->
<g id="edge3_Node000003_Node000004" class="edge">
<title>Node3&#45;&gt;Node4</title>
<g id="a_edge3_Node000003_Node000004"><a xlink:title=" ">
<path fill="none" stroke="#63b8ff" d="M142.67,-164.75C142.02,-157.8 141.08,-147.85 140.26,-139.13"/>
<polygon fill="#63b8ff" stroke="#63b8ff" points="143.73,-138.72 139.31,-129.09 136.77,-139.37 143.73,-138.72"/>
</a>
</g>
</g>
<!-- Node8 -->
<g id="Node000008" class="node">
<title>Node8</title>
<g id="a_Node000008"><a xlink:href="rbtree_8hpp.html" target="_top" xlink:title=" ">
<polygon fill="white" stroke="#666666" points="67,-74 0,-74 0,-55 67,-55 67,-74"/>
<text text-anchor="middle" x="33.5" y="-62" font-family="Helvetica,sans-Serif" font-size="10.00">rbtree.hpp</text>
</a>
</g>
</g>
<!-- Node3&#45;&gt;Node8 -->
<g id="edge7_Node000003_Node000008" class="edge">
<title>Node3&#45;&gt;Node8</title>
<g id="a_edge7_Node000003_Node000008"><a xlink:title=" ">
<path fill="none" stroke="#63b8ff" d="M131.1,-164.99C119.13,-156.51 100.75,-142.8 86.5,-129 71.41,-114.39 56.26,-95.75 46.05,-82.45"/>
<polygon fill="#63b8ff" stroke="#63b8ff" points="48.65,-80.09 39.83,-74.21 43.06,-84.3 48.65,-80.09"/>
</a>
</g>
</g>
<!-- Node9 -->
<g id="Node000009" class="node">
<title>Node9</title>
<g id="a_Node000009"><a xlink:href="logger_8hpp.html" target="_top" xlink:title=" ">
<polygon fill="white" stroke="#666666" points="278.5,-129 210.5,-129 210.5,-110 278.5,-110 278.5,-129"/>
<text text-anchor="middle" x="244.5" y="-117" font-family="Helvetica,sans-Serif" font-size="10.00">logger.hpp</text>
</a>
</g>
</g>
<!-- Node3&#45;&gt;Node9 -->
<g id="edge10_Node000003_Node000009" class="edge">
<title>Node3&#45;&gt;Node9</title>
<g id="a_edge10_Node000003_Node000009"><a xlink:title=" ">
<path fill="none" stroke="#63b8ff" d="M159.73,-164.98C175.68,-156.61 200.28,-143.7 218.88,-133.95"/>
<polygon fill="#63b8ff" stroke="#63b8ff" points="220.75,-136.92 227.98,-129.17 217.5,-130.72 220.75,-136.92"/>
</a>
</g>
</g>
<!-- Node5 -->
<g id="Node000005" class="node">
<title>Node5</title>
<g id="a_Node000005"><a xlink:title=" ">
<polygon fill="#e0e0e0" stroke="#999999" points="209,-74 162,-74 162,-55 209,-55 209,-74"/>
<text text-anchor="middle" x="185.5" y="-62" font-family="Helvetica,sans-Serif" font-size="10.00">vector</text>
</a>
</g>
</g>
<!-- Node4&#45;&gt;Node5 -->
<g id="edge4_Node000004_Node000005" class="edge">
<title>Node4&#45;&gt;Node5</title>
<g id="a_edge4_Node000004_Node000005"><a xlink:title=" ">
<path fill="none" stroke="#63b8ff" d="M146.26,-109.75C152.97,-102.18 162.84,-91.05 171.01,-81.84"/>
<polygon fill="#63b8ff" stroke="#63b8ff" points="173.87,-83.89 177.88,-74.09 168.63,-79.25 173.87,-83.89"/>
</a>
</g>
</g>
<!-- Node6 -->
<g id="Node000006" class="node">
<title>Node6</title>
<g id="a_Node000006"><a xlink:title=" ">
<polygon fill="#e0e0e0" stroke="#999999" points="249.5,-19 191.5,-19 191.5,0 249.5,0 249.5,-19"/>
<text text-anchor="middle" x="220.5" y="-7" font-family="Helvetica,sans-Serif" font-size="10.00">memory</text>
</a>
</g>
</g>
<!-- Node4&#45;&gt;Node6 -->
<g id="edge5_Node000004_Node000006" class="edge">
<title>Node4&#45;&gt;Node6</title>
<g id="a_edge5_Node000004_Node000006"><a xlink:title=" ">
<path fill="none" stroke="#63b8ff" d="M138.41,-109.89C138.68,-96.87 140.83,-71.91 152.5,-55 161.81,-41.51 176.68,-31.1 190.14,-23.75"/>
<polygon fill="#63b8ff" stroke="#63b8ff" points="191.83,-26.81 199.15,-19.15 188.65,-20.58 191.83,-26.81"/>
</a>
</g>
</g>
<!-- Node7 -->
<g id="Node000007" class="node">
<title>Node7</title>
<g id="a_Node000007"><a xlink:title=" ">
<polygon fill="#e0e0e0" stroke="#999999" points="125.5,-19 65.5,-19 65.5,0 125.5,0 125.5,-19"/>
<text text-anchor="middle" x="95.5" y="-7" font-family="Helvetica,sans-Serif" font-size="10.00">iostream</text>
</a>
</g>
</g>
<!-- Node4&#45;&gt;Node7 -->
<g id="edge6_Node000004_Node000007" class="edge">
<title>Node4&#45;&gt;Node7</title>
<g id="a_edge6_Node000004_Node000007"><a xlink:title=" ">
<path fill="none" stroke="#63b8ff" d="M134.6,-109.68C130.68,-100.74 124.52,-86.47 119.5,-74 113.38,-58.79 106.83,-41.37 102.12,-28.63"/>
<polygon fill="#63b8ff" stroke="#63b8ff" points="105.38,-27.35 98.65,-19.17 98.81,-29.77 105.38,-27.35"/>
</a>
</g>
</g>
<!-- Node8&#45;&gt;Node6 -->
<g id="edge9_Node000008_Node000006" class="edge">
<title>Node8&#45;&gt;Node6</title>
<g id="a_edge9_Node000008_Node000006"><a xlink:title=" ">
<path fill="none" stroke="#63b8ff" d="M63.54,-54.98C95.59,-45.9 146.46,-31.49 181.55,-21.54"/>
<polygon fill="#63b8ff" stroke="#63b8ff" points="182.79,-24.83 191.45,-18.73 180.88,-18.09 182.79,-24.83"/>
</a>
</g>
</g>
<!-- Node8&#45;&gt;Node7 -->
<g id="edge8_Node000008_Node000007" class="edge">
<title>Node8&#45;&gt;Node7</title>
<g id="a_edge8_Node000008_Node000007"><a xlink:title=" ">
<path fill="none" stroke="#63b8ff" d="M43.46,-54.98C52.63,-47.15 66.44,-35.34 77.53,-25.86"/>
<polygon fill="#63b8ff" stroke="#63b8ff" points="80.03,-28.33 85.36,-19.17 75.48,-23.01 80.03,-28.33"/>
</a>
</g>
</g>
<!-- Node10 -->
<g id="Node000010" class="node">
<title>Node10</title>
<g id="a_Node000010"><a xlink:title=" ">
<polygon fill="#e0e0e0" stroke="#999999" points="282,-74 227,-74 227,-55 282,-55 282,-74"/>
<text text-anchor="middle" x="254.5" y="-62" font-family="Helvetica,sans-Serif" font-size="10.00">fstream</text>
</a>
</g>
</g>
<!-- Node9&#45;&gt;Node10 -->
<g id="edge11_Node000009_Node000010" class="edge">
<title>Node9&#45;&gt;Node10</title>
<g id="a_edge11_Node000009_Node000010"><a xlink:title=" ">
<path fill="none" stroke="#63b8ff" d="M246.15,-109.75C247.46,-102.8 249.34,-92.85 250.98,-84.13"/>
<polygon fill="#63b8ff" stroke="#63b8ff" points="254.46,-84.56 252.88,-74.09 247.59,-83.27 254.46,-84.56"/>
</a>
</g>
</g>
<!-- Node11 -->
<g id="Node000011" class="node">
<title>Node11</title>
<g id="a_Node000011"><a xlink:href="process_8hpp.html" target="_top" xlink:title=" ">
<polygon fill="white" stroke="#666666" points="375,-74 300,-74 300,-55 375,-55 375,-74"/>
<text text-anchor="middle" x="337.5" y="-62" font-family="Helvetica,sans-Serif" font-size="10.00">process.hpp</text>
</a>
</g>
</g>
<!-- Node9&#45;&gt;Node11 -->
<g id="edge12_Node000009_Node000011" class="edge">
<title>Node9&#45;&gt;Node11</title>
<g id="a_edge12_Node000009_Node000011"><a xlink:title=" ">
<path fill="none" stroke="#63b8ff" d="M259.44,-109.98C274,-101.69 296.37,-88.94 313.43,-79.22"/>
<polygon fill="#63b8ff" stroke="#63b8ff" points="315.33,-82.16 322.29,-74.17 311.86,-76.08 315.33,-82.16"/>
</a>
</g>
</g>
<!-- Node11&#45;&gt;Node6 -->
<g id="edge15_Node000011_Node000006" class="edge">
<title>Node11&#45;&gt;Node6</title>
<g id="a_edge15_Node000011_Node000006"><a xlink:title=" ">
<path fill="none" stroke="#63b8ff" d="M318.7,-54.98C299.88,-46.46 270.68,-33.23 249,-23.41"/>
<polygon fill="#63b8ff" stroke="#63b8ff" points="250.19,-20.11 239.64,-19.17 247.3,-26.48 250.19,-20.11"/>
</a>
</g>
</g>
<!-- Node11&#45;&gt;Node7 -->
<g id="edge13_Node000011_Node000007" class="edge">
<title>Node11&#45;&gt;Node7</title>
<g id="a_edge13_Node000011_Node000007"><a xlink:title=" ">
<path fill="none" stroke="#63b8ff" d="M299.95,-55.28C255.4,-45.52 181.4,-29.31 135.71,-19.31"/>
<polygon fill="#63b8ff" stroke="#63b8ff" points="136.37,-15.87 125.85,-17.15 134.87,-22.71 136.37,-15.87"/>
</a>
</g>
</g>
<!-- Node12 -->
<g id="Node000012" class="node">
<title>Node12</title>
<g id="a_Node000012"><a xlink:title=" ">
<polygon fill="#e0e0e0" stroke="#999999" points="359.5,-19 315.5,-19 315.5,0 359.5,0 359.5,-19"/>
<text text-anchor="middle" x="337.5" y="-7" font-family="Helvetica,sans-Serif" font-size="10.00">string</text>
</a>
</g>
</g>
<!-- Node11&#45;&gt;Node12 -->
<g id="edge14_Node000011_Node000012" class="edge">
<title>Node11&#45;&gt;Node12</title>
<g id="a_edge14_Node000011_Node000012"><a xlink:title=" ">
<path fill="none" stroke="#63b8ff" d="M337.5,-54.75C337.5,-47.8 337.5,-37.85 337.5,-29.13"/>
<polygon fill="#63b8ff" stroke="#63b8ff" points="341,-29.09 337.5,-19.09 334,-29.09 341,-29.09"/>
</a>
</g>
</g>
<!-- Node14&#45;&gt;Node5 -->
<g id="edge19_Node000014_Node000005" class="edge">
<title>Node14&#45;&gt;Node5</title>
<g id="a_edge19_Node000014_Node000005"><a xlink:title=" ">
<path fill="none" stroke="#63b8ff" d="M308.04,-109.98C283.92,-101.23 246.13,-87.51 218.9,-77.62"/>
<polygon fill="#63b8ff" stroke="#63b8ff" points="219.98,-74.29 209.38,-74.17 217.59,-80.87 219.98,-74.29"/>
</a>
</g>
</g>
<!-- Node14&#45;&gt;Node6 -->
<g id="edge20_Node000014_Node000006" class="edge">
<title>Node14&#45;&gt;Node6</title>
<g id="a_edge20_Node000014_Node000006"><a xlink:title=" ">
<path fill="none" stroke="#63b8ff" d="M347.67,-109.82C368.09,-97.73 398.81,-75.05 383.5,-55 368.54,-35.41 303,-22.37 259.72,-15.71"/>
<polygon fill="#63b8ff" stroke="#63b8ff" points="260.18,-12.24 249.77,-14.24 259.15,-19.17 260.18,-12.24"/>
</a>
</g>
</g>
<!-- Node14&#45;&gt;Node10 -->
<g id="edge18_Node000014_Node000010" class="edge">
<title>Node14&#45;&gt;Node10</title>
<g id="a_edge18_Node000014_Node000010"><a xlink:title=" ">
<path fill="none" stroke="#63b8ff" d="M319.13,-109.98C307.41,-101.92 289.58,-89.65 275.61,-80.03"/>
<polygon fill="#63b8ff" stroke="#63b8ff" points="277.32,-76.96 267.1,-74.17 273.35,-82.72 277.32,-76.96"/>
</a>
</g>
</g>
<!-- Node14&#45;&gt;Node11 -->
<g id="edge21_Node000014_Node000011" class="edge">
<title>Node14&#45;&gt;Node11</title>
<g id="a_edge21_Node000014_Node000011"><a xlink:title=" ">
<path fill="none" stroke="#63b8ff" d="M332.49,-109.75C333.28,-102.8 334.4,-92.85 335.39,-84.13"/>
<polygon fill="#63b8ff" stroke="#63b8ff" points="338.88,-84.42 336.53,-74.09 331.92,-83.63 338.88,-84.42"/>
</a>
</g>
</g>
</g>
</svg>
