<?xml version="1.0" encoding="UTF-8" standalone="no"?>
<!DOCTYPE svg PUBLIC "-//W3C//DTD SVG 1.1//EN"
 "http://www.w3.org/Graphics/SVG/1.1/DTD/svg11.dtd">
<!-- Generated by graphviz version 2.43.0 (0)
 -->
<!-- Title: src/simulator.cpp Pages: 1 -->
<svg width="434pt" height="302pt"
 viewBox="0.00 0.00 433.92 302.00" xmlns="http://www.w3.org/2000/svg" xmlns:xlink="http://www.w3.org/1999/xlink">
<g id="graph0" class="graph" transform="scale(1 1) rotate(0) translate(4 298)">
<title>src/simulator.cpp</title>
<!-- Node1 -->
<g id="node1" class="node">
<title>Node1</title>
<g id="a_node1"><a xlink:title=" ">
<polygon fill="#999999" stroke="#666666" points="100,-294 0,-294 0,-275 100,-275 100,-294"/>
<text text-anchor="middle" x="50" y="-282" font-family="Helvetica,sans-Serif" font-size="10.00">src/simulator.cpp</text>
</a>
</g>
</g>
<!-- Node2 -->
<g id="node2" class="node">
<title>Node2</title>
<g id="a_node2"><a xlink:href="simulator_8hpp.html" target="_top" xlink:title=" ">
<polygon fill="white" stroke="#666666" points="182.5,-239 99.5,-239 99.5,-220 182.5,-220 182.5,-239"/>
<text text-anchor="middle" x="141" y="-227" font-family="Helvetica,sans-Serif" font-size="10.00">simulator.hpp</text>
</a>
</g>
</g>
<!-- Node1&#45;&gt;Node2 -->
<g id="edge1" class="edge">
<title>Node1&#45;&gt;Node2</title>
<path fill="none" stroke="#63b8ff" d="M64.62,-274.98C78.86,-266.69 100.75,-253.94 117.45,-244.22"/>
<polygon fill="#63b8ff" stroke="#63b8ff" points="119.23,-247.23 126.11,-239.17 115.71,-241.18 119.23,-247.23"/>
</g>
<!-- Node13 -->
<g id="node13" class="node">
<title>Node13</title>
<g id="a_node13"><a xlink:href="printer_8hpp.html" target="_top" xlink:title=" ">
<polygon fill="white" stroke="#666666" points="259.5,-129 190.5,-129 190.5,-110 259.5,-110 259.5,-129"/>
<text text-anchor="middle" x="225" y="-117" font-family="Helvetica,sans-Serif" font-size="10.00">printer.hpp</text>
</a>
</g>
</g>
<!-- Node1&#45;&gt;Node13 -->
<g id="edge21" class="edge">
<title>Node1&#45;&gt;Node13</title>
<path fill="none" stroke="#63b8ff" d="M51.25,-274.69C54.79,-252.95 66.88,-196.27 100,-165 112.17,-153.51 150.78,-140.73 181.9,-131.83"/>
<polygon fill="#63b8ff" stroke="#63b8ff" points="183.02,-135.15 191.7,-129.08 181.13,-128.41 183.02,-135.15"/>
</g>
<!-- Node3 -->
<g id="node3" class="node">
<title>Node3</title>
<g id="a_node3"><a xlink:href="process_8hpp.html" target="_top" xlink:title=" ">
<polygon fill="white" stroke="#666666" points="308.5,-74 233.5,-74 233.5,-55 308.5,-55 308.5,-74"/>
<text text-anchor="middle" x="271" y="-62" font-family="Helvetica,sans-Serif" font-size="10.00">process.hpp</text>
</a>
</g>
</g>
<!-- Node2&#45;&gt;Node3 -->
<g id="edge2" class="edge">
<title>Node2&#45;&gt;Node3</title>
<path fill="none" stroke="#63b8ff" d="M182.83,-222.23C223.91,-215.12 282.36,-202.11 296,-184 318.67,-153.9 297.35,-107.87 282.52,-82.97"/>
<polygon fill="#63b8ff" stroke="#63b8ff" points="285.34,-80.88 277.07,-74.25 279.4,-84.59 285.34,-80.88"/>
</g>
<!-- Node6 -->
<g id="node6" class="node">
<title>Node6</title>
<g id="a_node6"><a xlink:title=" ">
<polygon fill="#e0e0e0" stroke="#999999" points="177,-19 119,-19 119,0 177,0 177,-19"/>
<text text-anchor="middle" x="148" y="-7" font-family="Helvetica,sans-Serif" font-size="10.00">memory</text>
</a>
</g>
</g>
<!-- Node2&#45;&gt;Node6 -->
<g id="edge18" class="edge">
<title>Node2&#45;&gt;Node6</title>
<path fill="none" stroke="#63b8ff" d="M125.69,-219.95C112.92,-212.1 95.08,-199.38 84,-184 48.99,-135.4 12.1,-105.05 45,-55 59.17,-33.45 86.23,-22.28 109.06,-16.53"/>
<polygon fill="#63b8ff" stroke="#63b8ff" points="109.88,-19.93 118.87,-14.32 108.34,-13.11 109.88,-19.93"/>
</g>
<!-- Node7 -->
<g id="node7" class="node">
<title>Node7</title>
<g id="a_node7"><a xlink:href="logger_8hpp.html" target="_top" xlink:title=" ">
<polygon fill="white" stroke="#666666" points="422,-129 354,-129 354,-110 422,-110 422,-129"/>
<text text-anchor="middle" x="388" y="-117" font-family="Helvetica,sans-Serif" font-size="10.00">logger.hpp</text>
</a>
</g>
</g>
<!-- Node2&#45;&gt;Node7 -->
<g id="edge6" class="edge">
<title>Node2&#45;&gt;Node7</title>
<path fill="none" stroke="#63b8ff" d="M182.68,-227.43C225.3,-224.55 291.92,-214.94 340,-184 357.56,-172.7 371.12,-152.61 379.28,-138.05"/>
<polygon fill="#63b8ff" stroke="#63b8ff" points="382.47,-139.5 384.04,-129.03 376.28,-136.23 382.47,-139.5"/>
</g>
<!-- Node9 -->
<g id="node9" class="node">
<title>Node9</title>
<g id="a_node9"><a xlink:href="scheduler_8hpp.html" target="_top" xlink:title=" ">
<polygon fill="white" stroke="#666666" points="287,-184 203,-184 203,-165 287,-165 287,-184"/>
<text text-anchor="middle" x="245" y="-172" font-family="Helvetica,sans-Serif" font-size="10.00">scheduler.hpp</text>
</a>
</g>
</g>
<!-- Node2&#45;&gt;Node9 -->
<g id="edge11" class="edge">
<title>Node2&#45;&gt;Node9</title>
<path fill="none" stroke="#63b8ff" d="M157.71,-219.98C174.21,-211.57 199.7,-198.59 218.88,-188.81"/>
<polygon fill="#63b8ff" stroke="#63b8ff" points="220.67,-191.83 227.99,-184.17 217.49,-185.59 220.67,-191.83"/>
</g>
<!-- Node11 -->
<g id="node11" class="node">
<title>Node11</title>
<g id="a_node11"><a xlink:title=" ">
<polygon fill="#e0e0e0" stroke="#999999" points="100.5,-74 53.5,-74 53.5,-55 100.5,-55 100.5,-74"/>
<text text-anchor="middle" x="77" y="-62" font-family="Helvetica,sans-Serif" font-size="10.00">vector</text>
</a>
</g>
</g>
<!-- Node2&#45;&gt;Node11 -->
<g id="edge19" class="edge">
<title>Node2&#45;&gt;Node11</title>
<path fill="none" stroke="#63b8ff" d="M131.17,-219.75C122.14,-211.3 108.85,-197.79 100,-184 85.7,-161.7 82.21,-154.98 77,-129 74.04,-114.27 74.24,-97.23 75.06,-84.51"/>
<polygon fill="#63b8ff" stroke="#63b8ff" points="78.57,-84.49 75.92,-74.23 71.6,-83.91 78.57,-84.49"/>
</g>
<!-- Node12 -->
<g id="node12" class="node">
<title>Node12</title>
<g id="a_node12"><a xlink:title=" ">
<polygon fill="#e0e0e0" stroke="#999999" points="173,-184 109,-184 109,-165 173,-165 173,-184"/>
<text text-anchor="middle" x="141" y="-172" font-family="Helvetica,sans-Serif" font-size="10.00">algorithm</text>
</a>
</g>
</g>
<!-- Node2&#45;&gt;Node12 -->
<g id="edge20" class="edge">
<title>Node2&#45;&gt;Node12</title>
<path fill="none" stroke="#63b8ff" d="M141,-219.75C141,-212.8 141,-202.85 141,-194.13"/>
<polygon fill="#63b8ff" stroke="#63b8ff" points="144.5,-194.09 141,-184.09 137.5,-194.09 144.5,-194.09"/>
</g>
<!-- Node4 -->
<g id="node4" class="node">
<title>Node4</title>
<g id="a_node4"><a xlink:title=" ">
<polygon fill="#e0e0e0" stroke="#999999" points="301,-19 241,-19 241,0 301,0 301,-19"/>
<text text-anchor="middle" x="271" y="-7" font-family="Helvetica,sans-Serif" font-size="10.00">iostream</text>
</a>
</g>
</g>
<!-- Node3&#45;&gt;Node4 -->
<g id="edge3" class="edge">
<title>Node3&#45;&gt;Node4</title>
<path fill="none" stroke="#63b8ff" d="M271,-54.75C271,-47.8 271,-37.85 271,-29.13"/>
<polygon fill="#63b8ff" stroke="#63b8ff" points="274.5,-29.09 271,-19.09 267.5,-29.09 274.5,-29.09"/>
</g>
<!-- Node5 -->
<g id="node5" class="node">
<title>Node5</title>
<g id="a_node5"><a xlink:title=" ">
<polygon fill="#e0e0e0" stroke="#999999" points="416,-19 372,-19 372,0 416,0 416,-19"/>
<text text-anchor="middle" x="394" y="-7" font-family="Helvetica,sans-Serif" font-size="10.00">string</text>
</a>
</g>
</g>
<!-- Node3&#45;&gt;Node5 -->
<g id="edge4" class="edge">
<title>Node3&#45;&gt;Node5</title>
<path fill="none" stroke="#63b8ff" d="M290.76,-54.98C310.73,-46.38 341.8,-32.99 364.65,-23.15"/>
<polygon fill="#63b8ff" stroke="#63b8ff" points="366.08,-26.34 373.88,-19.17 363.31,-19.91 366.08,-26.34"/>
</g>
<!-- Node3&#45;&gt;Node6 -->
<g id="edge5" class="edge">
<title>Node3&#45;&gt;Node6</title>
<path fill="none" stroke="#63b8ff" d="M251.24,-54.98C231.27,-46.38 200.2,-32.99 177.35,-23.15"/>
<polygon fill="#63b8ff" stroke="#63b8ff" points="178.69,-19.91 168.12,-19.17 175.92,-26.34 178.69,-19.91"/>
</g>
<!-- Node7&#45;&gt;Node3 -->
<g id="edge10" class="edge">
<title>Node7&#45;&gt;Node3</title>
<path fill="none" stroke="#63b8ff" d="M369.2,-109.98C350.38,-101.46 321.18,-88.23 299.5,-78.41"/>
<polygon fill="#63b8ff" stroke="#63b8ff" points="300.69,-75.11 290.14,-74.17 297.8,-81.48 300.69,-75.11"/>
</g>
<!-- Node7&#45;&gt;Node4 -->
<g id="edge7" class="edge">
<title>Node7&#45;&gt;Node4</title>
<path fill="none" stroke="#63b8ff" d="M391.48,-109.78C396.12,-96.63 402.47,-71.49 391,-55 373.17,-29.36 338.74,-18.46 311.33,-13.85"/>
<polygon fill="#63b8ff" stroke="#63b8ff" points="311.61,-10.35 301.21,-12.37 310.6,-17.28 311.61,-10.35"/>
</g>
<!-- Node7&#45;&gt;Node5 -->
<g id="edge9" class="edge">
<title>Node7&#45;&gt;Node5</title>
<path fill="none" stroke="#63b8ff" d="M398.16,-109.81C406.9,-101.6 418.9,-88.43 424,-74 429.82,-57.56 419.77,-39.68 409.78,-27.09"/>
<polygon fill="#63b8ff" stroke="#63b8ff" points="412.24,-24.58 403.06,-19.3 406.94,-29.16 412.24,-24.58"/>
</g>
<!-- Node8 -->
<g id="node8" class="node">
<title>Node8</title>
<g id="a_node8"><a xlink:title=" ">
<polygon fill="#e0e0e0" stroke="#999999" points="381.5,-74 326.5,-74 326.5,-55 381.5,-55 381.5,-74"/>
<text text-anchor="middle" x="354" y="-62" font-family="Helvetica,sans-Serif" font-size="10.00">fstream</text>
</a>
</g>
</g>
<!-- Node7&#45;&gt;Node8 -->
<g id="edge8" class="edge">
<title>Node7&#45;&gt;Node8</title>
<path fill="none" stroke="#63b8ff" d="M382.39,-109.75C377.68,-102.42 370.83,-91.73 365.03,-82.7"/>
<polygon fill="#63b8ff" stroke="#63b8ff" points="367.86,-80.62 359.51,-74.09 361.96,-84.4 367.86,-80.62"/>
</g>
<!-- Node9&#45;&gt;Node3 -->
<g id="edge12" class="edge">
<title>Node9&#45;&gt;Node3</title>
<path fill="none" stroke="#63b8ff" d="M251.27,-164.82C257.1,-156.2 265.39,-142.39 269,-129 272.91,-114.49 273.22,-97.43 272.66,-84.65"/>
<polygon fill="#63b8ff" stroke="#63b8ff" points="276.13,-84.06 271.98,-74.31 269.15,-84.52 276.13,-84.06"/>
</g>
<!-- Node9&#45;&gt;Node7 -->
<g id="edge17" class="edge">
<title>Node9&#45;&gt;Node7</title>
<path fill="none" stroke="#63b8ff" d="M267.98,-164.98C291.5,-156.27 328.29,-142.63 354.94,-132.75"/>
<polygon fill="#63b8ff" stroke="#63b8ff" points="356.45,-135.93 364.61,-129.17 354.01,-129.36 356.45,-135.93"/>
</g>
<!-- Node10 -->
<g id="node10" class="node">
<title>Node10</title>
<g id="a_node10"><a xlink:href="min__heap_8hpp.html" target="_top" xlink:title=" ">
<polygon fill="white" stroke="#666666" points="172,-129 86,-129 86,-110 172,-110 172,-129"/>
<text text-anchor="middle" x="129" y="-117" font-family="Helvetica,sans-Serif" font-size="10.00">min_heap.hpp</text>
</a>
</g>
</g>
<!-- Node9&#45;&gt;Node10 -->
<g id="edge13" class="edge">
<title>Node9&#45;&gt;Node10</title>
<path fill="none" stroke="#63b8ff" d="M226.36,-164.98C207.7,-156.46 178.75,-143.23 157.26,-133.41"/>
<polygon fill="#63b8ff" stroke="#63b8ff" points="158.53,-130.14 147.98,-129.17 155.62,-136.51 158.53,-130.14"/>
</g>
<!-- Node10&#45;&gt;Node4 -->
<g id="edge16" class="edge">
<title>Node10&#45;&gt;Node4</title>
<path fill="none" stroke="#63b8ff" d="M140.62,-109.66C164.98,-91.14 221.59,-48.08 251.57,-25.28"/>
<polygon fill="#63b8ff" stroke="#63b8ff" points="253.78,-28 259.62,-19.16 249.54,-22.43 253.78,-28"/>
</g>
<!-- Node10&#45;&gt;Node6 -->
<g id="edge15" class="edge">
<title>Node10&#45;&gt;Node6</title>
<path fill="none" stroke="#63b8ff" d="M130.55,-109.66C133.63,-92.17 140.56,-52.8 144.7,-29.27"/>
<polygon fill="#63b8ff" stroke="#63b8ff" points="148.19,-29.61 146.48,-19.16 141.3,-28.4 148.19,-29.61"/>
</g>
<!-- Node10&#45;&gt;Node11 -->
<g id="edge14" class="edge">
<title>Node10&#45;&gt;Node11</title>
<path fill="none" stroke="#63b8ff" d="M120.41,-109.75C112.84,-102.03 101.62,-90.6 92.49,-81.28"/>
<polygon fill="#63b8ff" stroke="#63b8ff" points="94.93,-78.78 85.43,-74.09 89.93,-83.68 94.93,-78.78"/>
</g>
<!-- Node13&#45;&gt;Node3 -->
<g id="edge25" class="edge">
<title>Node13&#45;&gt;Node3</title>
<path fill="none" stroke="#63b8ff" d="M232.6,-109.75C239.16,-102.18 248.82,-91.05 256.81,-81.84"/>
<polygon fill="#63b8ff" stroke="#63b8ff" points="259.63,-83.94 263.55,-74.09 254.35,-79.35 259.63,-83.94"/>
</g>
<!-- Node13&#45;&gt;Node6 -->
<g id="edge24" class="edge">
<title>Node13&#45;&gt;Node6</title>
<path fill="none" stroke="#63b8ff" d="M218.7,-109.66C205.89,-91.69 176.62,-50.64 160.04,-27.38"/>
<polygon fill="#63b8ff" stroke="#63b8ff" points="162.83,-25.27 154.17,-19.16 157.13,-29.33 162.83,-25.27"/>
</g>
<!-- Node13&#45;&gt;Node8 -->
<g id="edge22" class="edge">
<title>Node13&#45;&gt;Node8</title>
<path fill="none" stroke="#63b8ff" d="M245.73,-109.98C266.76,-101.34 299.55,-87.87 323.54,-78.02"/>
<polygon fill="#63b8ff" stroke="#63b8ff" points="324.98,-81.21 332.9,-74.17 322.32,-74.73 324.98,-81.21"/>
</g>
<!-- Node13&#45;&gt;Node11 -->
<g id="edge23" class="edge">
<title>Node13&#45;&gt;Node11</title>
<path fill="none" stroke="#63b8ff" d="M201.22,-109.98C176.62,-101.18 138.01,-87.35 110.36,-77.45"/>
<polygon fill="#63b8ff" stroke="#63b8ff" points="111.31,-74.07 100.72,-73.99 108.95,-80.66 111.31,-74.07"/>
</g>
</g>
</svg>
