<?xml version="1.0" encoding="UTF-8" standalone="no"?>
<!DOCTYPE svg PUBLIC "-//W3C//DTD SVG 1.1//EN"
 "http://www.w3.org/Graphics/SVG/1.1/DTD/svg11.dtd">
<!-- Generated by graphviz version 2.43.0 (0)
 -->
<!-- Title: src/simulator.cpp Pages: 1 -->
<svg width="479pt" height="247pt"
 viewBox="0.00 0.00 479.00 247.00" xmlns="http://www.w3.org/2000/svg" xmlns:xlink="http://www.w3.org/1999/xlink">
<g id="graph0" class="graph" transform="scale(1 1) rotate(0) translate(4 243)">
<title>src/simulator.cpp</title>
<!-- Node1 -->
<g id="node1" class="node">
<title>Node1</title>
<g id="a_node1"><a xlink:title=" ">
<polygon fill="#999999" stroke="#666666" points="316,-239 216,-239 216,-220 316,-220 316,-239"/>
<text text-anchor="middle" x="266" y="-227" font-family="Helvetica,sans-Serif" font-size="10.00">src/simulator.cpp</text>
</a>
</g>
</g>
<!-- Node2 -->
<g id="node2" class="node">
<title>Node2</title>
<g id="a_node2"><a xlink:href="simulator_8hpp.html" target="_top" xlink:title=" ">
<polygon fill="white" stroke="#666666" points="256.5,-184 173.5,-184 173.5,-165 256.5,-165 256.5,-184"/>
<text text-anchor="middle" x="215" y="-172" font-family="Helvetica,sans-Serif" font-size="10.00">simulator.hpp</text>
</a>
</g>
</g>
<!-- Node1&#45;&gt;Node2 -->
<g id="edge1" class="edge">
<title>Node1&#45;&gt;Node2</title>
<path fill="none" stroke="#63b8ff" d="M257.58,-219.75C250.23,-212.11 239.37,-200.82 230.46,-191.56"/>
<polygon fill="#63b8ff" stroke="#63b8ff" points="232.72,-188.87 223.26,-184.09 227.68,-193.72 232.72,-188.87"/>
</g>
<!-- Node11 -->
<g id="node11" class="node">
<title>Node11</title>
<g id="a_node11"><a xlink:href="scheduler_8hpp.html" target="_top" xlink:title=" ">
<polygon fill="white" stroke="#666666" points="368,-184 284,-184 284,-165 368,-165 368,-184"/>
<text text-anchor="middle" x="326" y="-172" font-family="Helvetica,sans-Serif" font-size="10.00">scheduler.hpp</text>
</a>
</g>
</g>
<!-- Node1&#45;&gt;Node11 -->
<g id="edge14" class="edge">
<title>Node1&#45;&gt;Node11</title>
<path fill="none" stroke="#63b8ff" d="M275.64,-219.98C284.51,-212.15 297.87,-200.34 308.61,-190.86"/>
<polygon fill="#63b8ff" stroke="#63b8ff" points="311.01,-193.41 316.18,-184.17 306.37,-188.17 311.01,-193.41"/>
</g>
<!-- Node3 -->
<g id="node3" class="node">
<title>Node3</title>
<g id="a_node3"><a xlink:href="process_8hpp.html" target="_top" xlink:title=" ">
<polygon fill="white" stroke="#666666" points="345.5,-74 270.5,-74 270.5,-55 345.5,-55 345.5,-74"/>
<text text-anchor="middle" x="308" y="-62" font-family="Helvetica,sans-Serif" font-size="10.00">process.hpp</text>
</a>
</g>
</g>
<!-- Node2&#45;&gt;Node3 -->
<g id="edge2" class="edge">
<title>Node2&#45;&gt;Node3</title>
<path fill="none" stroke="#63b8ff" d="M222.61,-164.66C238.22,-146.54 274.06,-104.91 293.99,-81.77"/>
<polygon fill="#63b8ff" stroke="#63b8ff" points="296.67,-84.02 300.54,-74.16 291.37,-79.45 296.67,-84.02"/>
</g>
<!-- Node6 -->
<g id="node6" class="node">
<title>Node6</title>
<g id="a_node6"><a xlink:title=" ">
<polygon fill="#e0e0e0" stroke="#999999" points="298,-19 240,-19 240,0 298,0 298,-19"/>
<text text-anchor="middle" x="269" y="-7" font-family="Helvetica,sans-Serif" font-size="10.00">memory</text>
</a>
</g>
</g>
<!-- Node2&#45;&gt;Node6 -->
<g id="edge11" class="edge">
<title>Node2&#45;&gt;Node6</title>
<path fill="none" stroke="#63b8ff" d="M195.45,-164.88C181.31,-157.52 163.16,-145.51 154,-129 138.02,-100.2 131.23,-82.06 150,-55 159.5,-41.3 199.26,-28.27 230.24,-19.89"/>
<polygon fill="#63b8ff" stroke="#63b8ff" points="231.16,-23.27 239.94,-17.34 229.38,-16.5 231.16,-23.27"/>
</g>
<!-- Node7 -->
<g id="node7" class="node">
<title>Node7</title>
<g id="a_node7"><a xlink:href="logger_8hpp.html" target="_top" xlink:title=" ">
<polygon fill="white" stroke="#666666" points="231,-129 163,-129 163,-110 231,-110 231,-129"/>
<text text-anchor="middle" x="197" y="-117" font-family="Helvetica,sans-Serif" font-size="10.00">logger.hpp</text>
</a>
</g>
</g>
<!-- Node2&#45;&gt;Node7 -->
<g id="edge6" class="edge">
<title>Node2&#45;&gt;Node7</title>
<path fill="none" stroke="#63b8ff" d="M212.03,-164.75C209.64,-157.72 206.21,-147.62 203.23,-138.84"/>
<polygon fill="#63b8ff" stroke="#63b8ff" points="206.45,-137.43 199.92,-129.09 199.82,-139.68 206.45,-137.43"/>
</g>
<!-- Node9 -->
<g id="node9" class="node">
<title>Node9</title>
<g id="a_node9"><a xlink:title=" ">
<polygon fill="#e0e0e0" stroke="#999999" points="410.5,-74 363.5,-74 363.5,-55 410.5,-55 410.5,-74"/>
<text text-anchor="middle" x="387" y="-62" font-family="Helvetica,sans-Serif" font-size="10.00">vector</text>
</a>
</g>
</g>
<!-- Node2&#45;&gt;Node9 -->
<g id="edge12" class="edge">
<title>Node2&#45;&gt;Node9</title>
<path fill="none" stroke="#63b8ff" d="M228.78,-164.84C258.35,-146.28 328.09,-102.49 364.3,-79.75"/>
<polygon fill="#63b8ff" stroke="#63b8ff" points="366.54,-82.48 373.15,-74.2 362.82,-76.55 366.54,-82.48"/>
</g>
<!-- Node10 -->
<g id="node10" class="node">
<title>Node10</title>
<g id="a_node10"><a xlink:title=" ">
<polygon fill="#e0e0e0" stroke="#999999" points="64,-129 0,-129 0,-110 64,-110 64,-129"/>
<text text-anchor="middle" x="32" y="-117" font-family="Helvetica,sans-Serif" font-size="10.00">algorithm</text>
</a>
</g>
</g>
<!-- Node2&#45;&gt;Node10 -->
<g id="edge13" class="edge">
<title>Node2&#45;&gt;Node10</title>
<path fill="none" stroke="#63b8ff" d="M185.6,-164.98C154.61,-156.01 105.62,-141.82 71.33,-131.89"/>
<polygon fill="#63b8ff" stroke="#63b8ff" points="72.21,-128.5 61.63,-129.08 70.26,-135.23 72.21,-128.5"/>
</g>
<!-- Node4 -->
<g id="node4" class="node">
<title>Node4</title>
<g id="a_node4"><a xlink:title=" ">
<polygon fill="#e0e0e0" stroke="#999999" points="376,-19 316,-19 316,0 376,0 376,-19"/>
<text text-anchor="middle" x="346" y="-7" font-family="Helvetica,sans-Serif" font-size="10.00">iostream</text>
</a>
</g>
</g>
<!-- Node3&#45;&gt;Node4 -->
<g id="edge3" class="edge">
<title>Node3&#45;&gt;Node4</title>
<path fill="none" stroke="#63b8ff" d="M314.27,-54.75C319.59,-47.34 327.36,-36.5 333.88,-27.41"/>
<polygon fill="#63b8ff" stroke="#63b8ff" points="336.86,-29.26 339.84,-19.09 331.17,-25.18 336.86,-29.26"/>
</g>
<!-- Node5 -->
<g id="node5" class="node">
<title>Node5</title>
<g id="a_node5"><a xlink:title=" ">
<polygon fill="#e0e0e0" stroke="#999999" points="206,-19 162,-19 162,0 206,0 206,-19"/>
<text text-anchor="middle" x="184" y="-7" font-family="Helvetica,sans-Serif" font-size="10.00">string</text>
</a>
</g>
</g>
<!-- Node3&#45;&gt;Node5 -->
<g id="edge4" class="edge">
<title>Node3&#45;&gt;Node5</title>
<path fill="none" stroke="#63b8ff" d="M288.08,-54.98C267.95,-46.38 236.62,-32.99 213.59,-23.15"/>
<polygon fill="#63b8ff" stroke="#63b8ff" points="214.86,-19.88 204.29,-19.17 212.1,-26.32 214.86,-19.88"/>
</g>
<!-- Node3&#45;&gt;Node6 -->
<g id="edge5" class="edge">
<title>Node3&#45;&gt;Node6</title>
<path fill="none" stroke="#63b8ff" d="M301.56,-54.75C296.11,-47.34 288.14,-36.5 281.44,-27.41"/>
<polygon fill="#63b8ff" stroke="#63b8ff" points="284.07,-25.07 275.32,-19.09 278.43,-29.22 284.07,-25.07"/>
</g>
<!-- Node7&#45;&gt;Node3 -->
<g id="edge10" class="edge">
<title>Node7&#45;&gt;Node3</title>
<path fill="none" stroke="#63b8ff" d="M214.83,-109.98C232.61,-101.5 260.15,-88.35 280.68,-78.54"/>
<polygon fill="#63b8ff" stroke="#63b8ff" points="282.33,-81.64 289.84,-74.17 279.31,-75.32 282.33,-81.64"/>
</g>
<!-- Node7&#45;&gt;Node4 -->
<g id="edge7" class="edge">
<title>Node7&#45;&gt;Node4</title>
<path fill="none" stroke="#63b8ff" d="M204.34,-109.89C215.74,-96.88 238.81,-71.93 262,-55 279.05,-42.56 300.03,-31.44 316.76,-23.43"/>
<polygon fill="#63b8ff" stroke="#63b8ff" points="318.48,-26.49 326.05,-19.09 315.51,-20.15 318.48,-26.49"/>
</g>
<!-- Node7&#45;&gt;Node5 -->
<g id="edge9" class="edge">
<title>Node7&#45;&gt;Node5</title>
<path fill="none" stroke="#63b8ff" d="M182.93,-109.89C171.65,-102.1 156.66,-89.48 150,-74 142.86,-57.42 154.59,-39.34 166.17,-26.73"/>
<polygon fill="#63b8ff" stroke="#63b8ff" points="168.99,-28.86 173.57,-19.3 164.03,-23.92 168.99,-28.86"/>
</g>
<!-- Node8 -->
<g id="node8" class="node">
<title>Node8</title>
<g id="a_node8"><a xlink:title=" ">
<polygon fill="#e0e0e0" stroke="#999999" points="213.5,-74 158.5,-74 158.5,-55 213.5,-55 213.5,-74"/>
<text text-anchor="middle" x="186" y="-62" font-family="Helvetica,sans-Serif" font-size="10.00">fstream</text>
</a>
</g>
</g>
<!-- Node7&#45;&gt;Node8 -->
<g id="edge8" class="edge">
<title>Node7&#45;&gt;Node8</title>
<path fill="none" stroke="#63b8ff" d="M195.18,-109.75C193.74,-102.8 191.68,-92.85 189.87,-84.13"/>
<polygon fill="#63b8ff" stroke="#63b8ff" points="193.24,-83.17 187.78,-74.09 186.39,-84.59 193.24,-83.17"/>
</g>
<!-- Node11&#45;&gt;Node3 -->
<g id="edge15" class="edge">
<title>Node11&#45;&gt;Node3</title>
<path fill="none" stroke="#63b8ff" d="M324.53,-164.66C321.61,-147.17 315.05,-107.8 311.13,-84.27"/>
<polygon fill="#63b8ff" stroke="#63b8ff" points="314.54,-83.45 309.44,-74.16 307.63,-84.6 314.54,-83.45"/>
</g>
<!-- Node11&#45;&gt;Node7 -->
<g id="edge20" class="edge">
<title>Node11&#45;&gt;Node7</title>
<path fill="none" stroke="#63b8ff" d="M305.27,-164.98C284.24,-156.34 251.45,-142.87 227.46,-133.02"/>
<polygon fill="#63b8ff" stroke="#63b8ff" points="228.68,-129.73 218.1,-129.17 226.02,-136.21 228.68,-129.73"/>
</g>
<!-- Node12 -->
<g id="node12" class="node">
<title>Node12</title>
<g id="a_node12"><a xlink:href="min__heap_8hpp.html" target="_top" xlink:title=" ">
<polygon fill="white" stroke="#666666" points="471,-129 385,-129 385,-110 471,-110 471,-129"/>
<text text-anchor="middle" x="428" y="-117" font-family="Helvetica,sans-Serif" font-size="10.00">min_heap.hpp</text>
</a>
</g>
</g>
<!-- Node11&#45;&gt;Node12 -->
<g id="edge16" class="edge">
<title>Node11&#45;&gt;Node12</title>
<path fill="none" stroke="#63b8ff" d="M342.39,-164.98C358.57,-156.57 383.57,-143.59 402.38,-133.81"/>
<polygon fill="#63b8ff" stroke="#63b8ff" points="404.05,-136.89 411.31,-129.17 400.83,-130.68 404.05,-136.89"/>
</g>
<!-- Node12&#45;&gt;Node4 -->
<g id="edge19" class="edge">
<title>Node12&#45;&gt;Node4</title>
<path fill="none" stroke="#63b8ff" d="M436.43,-109.72C447.67,-96.93 464.84,-72.74 453,-55 438.15,-32.74 409.85,-21.6 386.08,-16.03"/>
<polygon fill="#63b8ff" stroke="#63b8ff" points="386.73,-12.59 376.23,-13.97 385.3,-19.44 386.73,-12.59"/>
</g>
<!-- Node12&#45;&gt;Node6 -->
<g id="edge18" class="edge">
<title>Node12&#45;&gt;Node6</title>
<path fill="none" stroke="#63b8ff" d="M429.6,-109.95C431.58,-96.56 433.25,-70.57 420,-55 412.58,-46.28 350.18,-29.91 307.95,-19.64"/>
<polygon fill="#63b8ff" stroke="#63b8ff" points="308.77,-16.24 298.22,-17.29 307.13,-23.04 308.77,-16.24"/>
</g>
<!-- Node12&#45;&gt;Node9 -->
<g id="edge17" class="edge">
<title>Node12&#45;&gt;Node9</title>
<path fill="none" stroke="#63b8ff" d="M421.23,-109.75C415.44,-102.26 406.94,-91.28 399.86,-82.13"/>
<polygon fill="#63b8ff" stroke="#63b8ff" points="402.53,-79.86 393.64,-74.09 396.99,-84.14 402.53,-79.86"/>
</g>
</g>
</svg>
